<svg xmlns="http://www.w3.org/2000/svg" width="20.087" height="16.1355" viewBox="0 0 20.087 16.1355"><title>food</title><path d="M20.297,12.934a6.64,6.64,0,1,0,6.64,6.64h0A6.64,6.64,0,0,0,20.297,12.934Zm0,11.679a5.039,5.039,0,1,1,5.04-5.038h0A5.044,5.044,0,0,1,20.297,24.613Z" transform="translate(-9.951 -11.8793)"/><path d="M20.3,15.887a3.688,3.688,0,1,0,3.688,3.688A3.688,3.688,0,0,0,20.3,15.887Z" transform="translate(-9.951 -11.8793)"/><path d="M29.584,20.131V12.062a.181.181,0,0,0-.326-.11,7.6371,7.6371,0,0,0-1.552,4.615v2.952a.6131.6131,0,0,0,.613.613h.256c-.252,2.6-.418,6.241-.418,6.668a.958.958,0,1,0,1.846,0C30.002,26.372,29.834,22.733,29.584,20.131Z" transform="translate(-9.951 -11.8793)"/><path d="M12.63,18.532a1.7641,1.7641,0,0,0,.852-1.511l-.253-4.136a.3.3,0,0,0-.6.033l.168,3.314a.338.338,0,0,1-.675.0367.321.321,0,0,1,0-.0367l-.082-3.316a.323.323,0,0,0-.646,0l-.082,3.316a.338.338,0,0,1-.675.0367.321.321,0,0,1,0-.0367l.164-3.315a.3.3,0,0,0-.6-.033h0l-.25,4.136a1.7642,1.7642,0,0,0,.852,1.512,1,1,0,0,1,.475.964c-.288,2.6-.484,6.841-.484,7.3a1.1,1.1,0,0,0,.923,1.216,1.1,1.1,0,0,0,.923-1.216c0-.462-.2-4.7-.484-7.3A1,1,0,0,1,12.63,18.532Z" transform="translate(-9.951 -11.8793)"/></svg>