<svg xmlns="http://www.w3.org/2000/svg" width="16.746" height="14.182" viewBox="0 0 16.746 14.182"><title>list</title><path d="M16.1945,14.935c-.42,0-.761-.454-.761-1.013s.341-1.013.761-1.013h11.418c.42,0,.761.454.761,1.013s-.341,1.013-.761,1.013Zm0,6.078c-.42,0-.761-.454-.761-1.013s.341-1.013.761-1.013h11.418c.42,0,.761.454.761,1.013s-.341,1.013-.761,1.013Zm0,6.078c-.42,0-.761-.454-.761-1.013s.341-1.013.761-1.013h11.418c.42,0,.761.454.761,1.013s-.341,1.013-.761,1.013Zm-3.806-12.156c-.42,0-.761-.454-.761-1.013s.341-1.013.761-1.013h.76c.42,0,.761.454.761,1.013s-.341,1.013-.761,1.013Zm0,6.078c-.42,0-.761-.454-.761-1.013s.341-1.013.761-1.013h.76c.42,0,.761.454.761,1.013s-.341,1.013-.761,1.013Zm0,6.078c-.42,0-.761-.454-.761-1.013s.341-1.013.761-1.013h.76c.42,0,.761.454.761,1.013s-.341,1.013-.761,1.013Z" transform="translate(-11.6275 -12.909)"/></svg>