<svg xmlns="http://www.w3.org/2000/svg" width="15.3176" height="21.4437" viewBox="0 0 15.3176 21.4437"><title>map-marker</title><path d="M14.588,11.5043A7.4784,7.4784,0,0,1,20,9.2923a7.4784,7.4784,0,0,1,5.412,2.212,7.1512,7.1512,0,0,1,2.246,5.31,13.2485,13.2485,0,0,1-1.906,5.99,37.4027,37.4027,0,0,1-3.81,5.753l-1.94,2.178c-.238-.238-.511-.545-.851-.919-.34-.408-.953-1.157-1.8-2.314a39.9118,39.9118,0,0,1-2.314-3.336,23.1355,23.1355,0,0,1-1.844-3.674,9.8991,9.8991,0,0,1-.851-3.678A7.1512,7.1512,0,0,1,14.588,11.5043Zm3.472,7.182a2.6422,2.6422,0,0,0,1.94.783,2.7,2.7,0,0,0,1.942-.783,2.493,2.493,0,0,0,.783-1.906,2.6766,2.6766,0,0,0-.783-1.906A2.5169,2.5169,0,0,0,20,14.0923a2.7,2.7,0,0,0-1.94.783,2.493,2.493,0,0,0-.783,1.906A2.62,2.62,0,0,0,18.06,18.6863Z" transform="translate(-12.3412 -9.2916)"/></svg>