<?xml version="1.0" encoding="utf-8"?>
<!-- Generator: Adobe Illustrator 24.1.0, SVG Export Plug-In . SVG Version: 6.00 Build 0)  -->
<svg version="1.1" xmlns="http://www.w3.org/2000/svg" xmlns:xlink="http://www.w3.org/1999/xlink" x="0px" y="0px"
	 viewBox="0 0 512 512" style="enable-background:new 0 0 512 512;" xml:space="preserve">
<g id="Layer_2">
	<circle class="st0" cx="256" cy="256" r="230.3"/>
</g>
<g id="Layer_1" fill="#fff" focusable="false">
	<path class="st1" d="M256,8C119,8,8,119.1,8,256c0,137,111,248,248,248s248-111,248-248C504,119.1,393,8,256,8z M256,456
		c-110.5,0-200-89.4-200-200c0-110.5,89.5-200,200-200c110.5,0,200,89.5,200,200C456,366.5,366.6,456,256,456z M256,118
		c23.2,0,42,18.8,42,42s-18.8,42-42,42s-42-18.8-42-42S232.8,118,256,118z M312,372c0,6.6-5.4,12-12,12h-88c-6.6,0-12-5.4-12-12v-24
		c0-6.6,5.4-12,12-12h12v-64h-12c-6.6,0-12-5.4-12-12v-24c0-6.6,5.4-12,12-12h64c6.6,0,12,5.4,12,12v100h12c6.6,0,12,5.4,12,12V372z
		"/>
</g>
</svg>
