<?xml version="1.0" encoding="utf-8"?>
<!-- Generator: Adobe Illustrator 25.0.0, SVG Export Plug-In . SVG Version: 6.00 Build 0)  -->
<svg version="1.1" id="Layer_1" xmlns="http://www.w3.org/2000/svg" xmlns:xlink="http://www.w3.org/1999/xlink" x="0px" y="0px"
	 viewBox="0 0 396.5 141.5" style="enable-background:new 0 0 396.5 141.5;" xml:space="preserve">
<style type="text/css">
	.st0{fill:#AE2071;}
	.st1{fill:#FFFFFF;}
	.st2{fill:#701C58;}
</style>
<g>
	<g>
		<path class="st0" d="M56.6,113.3C25.4,113.3,0,87.9,0,56.6C0,25.4,25.4,0,56.6,0s56.6,25.4,56.6,56.6
			C113.3,87.9,87.9,113.3,56.6,113.3"/>
		<path class="st1" d="M40.9,42.6h25.3v40.7c0,0-0.2,1.8,2.1,1.8h4.2v5.2H40.7v-5.1H45c0,0,1.8,0,1.8-2.6V49.1c0,0-0.5-1.6-2.8-1.6
			h-3.3L40.9,42.6z"/>
		<path class="st1" d="M67.4,28c0,6-4.9,10.9-10.9,10.9S45.7,34,45.7,28c0-6,4.9-10.9,10.9-10.9S67.4,22,67.4,28"/>
	</g>
	<g>
		<path class="st2" d="M97.9,90.3c-1.1,0-2-0.9-2-2V26.2c0-1.1,0.9-2,2-2h12.9c1.1,0,2,0.9,2,2v19.1c0,0.6,0.8,0.8,1.1,0.4l18.1-20
			c0.8-0.9,2.1-1.5,3.4-1.5h17.8c0.8,0,1.2,0.9,0.7,1.5l-23.6,25.6c-0.7,0.8-0.8,1.9-0.2,2.6l25.3,34.8c0.5,0.7,0,1.6-0.8,1.6h-17
			c-1.3,0-2.5-0.7-3.2-1.6l-16-22c-0.5-0.7-1.6-0.8-2.1-0.1l-2.3,2.5c-0.7,0.8-1.1,2-1.1,3v16.2c0,1.1-0.9,2-2,2H97.9z"/>
		<path class="st2" d="M178,88.2c0,1.1-0.9,2-2,2h-12.9c-1.1,0-2-0.9-2-2V26.2c0-1.1,0.9-2,2-2h10.3c1.3,0,2.5,0.6,3.3,1.6l27.2,34
			c0.3,0.5,1,0.3,1-0.3V26.2c0-1.1,0.9-2,2-2h12.8c1.1,0,2,0.9,2,2v62.1c0,1.1-0.9,2-2,2h-10.3c-1.3,0-2.5-0.6-3.3-1.6L179,54.7
			c-0.3-0.5-1-0.3-1,0.3V88.2z"/>
		<path class="st2" d="M228.9,57.2c0-18.9,16-34.3,35.1-34.3c19.3,0,35.1,15.4,35.1,34.3S283.3,91.5,264,91.5
			C244.9,91.5,228.9,76.1,228.9,57.2z M246,57.2c0,10,8.1,18,18,18c10.2,0,18-8,18-18c0-10-7.8-18-18-18
			C254.1,39.2,246,47.2,246,57.2z"/>
		<path class="st2" d="M336.2,88.3c-0.3,1.2-1.4,2-2.6,2h-13.5c-1.2,0-2.3-0.8-2.5-2L300,26.1c-0.3-0.9,0.5-2,1.5-2h14
			c1.2,0,2.3,0.8,2.5,2l9.8,35.9c0.1,0.4,0.8,0.5,0.9,0L340,26.1c0.3-1.2,1.4-2,2.6-2h11c1.2,0,2.3,0.8,2.6,2l11.3,35.8
			c0.2,0.5,0.8,0.4,0.9,0l9.8-35.8c0.3-1.1,1.4-2,2.5-2h14.1c1,0,1.8,1,1.5,2l-17.6,62.2c-0.3,1.1-1.4,2-2.5,2h-13.5
			c-1.2,0-2.3-0.8-2.6-2l-11.5-34.8c-0.2-0.5-0.8-0.5-1,0L336.2,88.3z"/>
	</g>
	<g>
		<path class="st2" d="M112.7,131.9c0-0.6,0.5-1.2,1.1-1.2h5.8c1,0,1.2,0.2,1.7,1.1c0.6,1.1,2.4,2.2,5.4,2.2c3.2,0,4.3-1.1,4.3-2.1
			c0-1.4-1.7-2.3-5.8-3.7c-5.4-1.8-12.4-4.4-12.4-11.3c0-6.5,5.5-10.5,13.2-10.5c7.9,0,13.4,4.1,13.8,10.2c0,0.6-0.5,1.2-1.1,1.2h-6
			c-0.8,0-1.2-0.4-1.5-1.2c-0.5-1.4-2.2-2.7-5-2.7c-2.9,0-4.1,1.2-4.1,2.3c0,1.3,1.6,2,5.6,3.4c4.7,1.6,12.6,4.4,12.6,11.8
			c0,6.6-5.7,10-13.4,10C119.3,141.5,113.3,138.1,112.7,131.9z"/>
		<path class="st2" d="M168.2,129.2c0.3-0.6,1-0.7,1.5-0.5l6,2.6c0.5,0.2,0.7,0.9,0.4,1.3c-3.1,5.3-8.9,8.8-15.5,8.8
			c-9.7,0-17.9-7.9-17.9-17.5c0-9.7,8.2-17.5,17.9-17.5c6.6,0,12.3,3.5,15.5,8.7c0.3,0.4,0.1,1.1-0.4,1.3l-6,2.6
			c-0.6,0.3-1.2,0.1-1.5-0.4c-1.6-2.3-4.4-3.9-7.6-3.9c-5.1,0-9.2,4.1-9.2,9.2c0,5.1,4.1,9.2,9.2,9.2
			C163.8,133.1,166.5,131.6,168.2,129.2z"/>
		<path class="st2" d="M178.1,123.9c0-9.7,8.2-17.5,17.9-17.5c9.9,0,17.9,7.9,17.9,17.5c0,9.7-8.1,17.5-17.9,17.5
			C186.2,141.5,178.1,133.6,178.1,123.9z M186.8,123.9c0,5.1,4.1,9.2,9.2,9.2c5.2,0,9.2-4.1,9.2-9.2c0-5.1-4-9.2-9.2-9.2
			C190.9,114.8,186.8,118.8,186.8,123.9z"/>
		<path class="st2" d="M215.8,115.4c-0.6,0-1-0.5-1-1v-6.3c0-0.6,0.5-1,1-1h27.6c0.6,0,1,0.5,1,1v6.3c0,0.6-0.5,1-1,1h-8.6
			c-0.5,0-0.9,0.4-0.9,0.9v23.5c0,0.6-0.5,1-1,1h-6.6c-0.6,0-1-0.5-1-1v-23.5c0-0.5-0.4-0.9-0.9-0.9H215.8z"/>
		<path class="st2" d="M248.6,140.8c-0.6,0-1-0.5-1-1v-31.7c0-0.6,0.5-1,1-1h6.5c0.6,0,1,0.5,1,1v23.5c0,0.5,0.4,0.9,0.9,0.9h14.3
			c0.6,0,1,0.5,1,1v6.3c0,0.6-0.5,1-1,1H248.6z"/>
		<path class="st2" d="M286.2,108c0.2-0.6,0.8-1,1.4-1h6.5c0.6,0,1.2,0.4,1.4,1l12.9,31.9c0.2,0.4-0.1,1-0.6,1h-7.4
			c-0.6,0-1.2-0.4-1.4-1l-1.2-3.2c-0.2-0.5-0.7-0.8-1.2-0.8h-11.6c-0.5,0-1,0.3-1.2,0.8l-1.2,3.2c-0.2,0.6-0.8,1-1.4,1H274
			c-0.5,0-0.8-0.5-0.6-1L286.2,108z M293.7,128c0.4,0,0.7-0.4,0.6-0.8l-3.1-8.3c-0.1-0.3-0.5-0.3-0.6,0l-3.1,8.3
			c-0.1,0.4,0.1,0.8,0.6,0.8H293.7z"/>
		<path class="st2" d="M320,139.8c0,0.6-0.5,1-1,1h-6.5c-0.6,0-1-0.5-1-1v-31.7c0-0.6,0.5-1,1-1h5.2c0.7,0,1.3,0.3,1.7,0.8
			l13.9,17.4c0.2,0.3,0.5,0.1,0.5-0.2v-17c0-0.6,0.5-1,1-1h6.5c0.6,0,1,0.5,1,1v31.7c0,0.6-0.5,1-1,1h-5.2c-0.6,0-1.3-0.3-1.7-0.8
			l-13.9-17.3c-0.2-0.3-0.5-0.1-0.5,0.2V139.8z"/>
		<path class="st2" d="M348.6,140.8c-0.6,0-1-0.5-1-1v-31.7c0-0.6,0.5-1,1-1h14.6c10.6,0,16,7.7,16,16.9c0,9.2-5.4,16.9-16,16.9
			H348.6z M362.6,115.4h-5.5c-0.5,0-0.9,0.4-0.9,0.9v15.3c0,0.5,0.4,0.9,0.9,0.9h5.5c5.2,0,7.9-3.5,7.9-8.5S367.8,115.4,362.6,115.4
			z"/>
	</g>
</g>
</svg>
