<svg id="Layer_1" data-name="Layer 1" xmlns="http://www.w3.org/2000/svg" width="496" height="496" viewBox="0 0 496 496"><title>image-toggle</title><circle cx="247.5" cy="248" r="200.1" fill="#6a6366"/><path d="M256,8C119,8,8,119.1,8,256,8,393,119,504,256,504S504,393,504,256C504,119.1,393,8,256,8Zm0,448A200,200,0,1,1,456,256,199.881,199.881,0,0,1,256,456Zm0-338a42,42,0,1,1-42,42A41.9948,41.9948,0,0,1,256,118Zm56,254a12.0353,12.0353,0,0,1-12,12H212a12.0353,12.0353,0,0,1-12-12V348a12.0353,12.0353,0,0,1,12-12h12V272H212a12.0353,12.0353,0,0,1-12-12V236a12.0353,12.0353,0,0,1,12-12h64a12.0353,12.0353,0,0,1,12,12V336h12a12.0353,12.0353,0,0,1,12,12Z" transform="translate(-8 -8)" fill="#fff"/></svg>