<svg xmlns="http://www.w3.org/2000/svg" width="23.5" height="31" viewBox="0 0 23.5 31">
  <g id="Group_5453" data-name="Group 5453" transform="translate(-33.5 -204.492)">
    <path id="map-marker" d="M10.094,29.395C1.58,17.053,0,15.786,0,11.25a11.25,11.25,0,0,1,22.5,0c0,4.536-1.58,5.8-10.094,18.145a1.407,1.407,0,0,1-2.312,0Z" transform="translate(34 204.992)" fill="#187776" stroke="#fff" stroke-width="1"/>
    <path id="house" d="M12.083,5.079,10.84,3.963V1.177a.509.509,0,0,0-.509-.509H8.295a.509.509,0,0,0-.509.509v.044L6.652.2A.848.848,0,0,0,5.526.2L.1,5.079a.339.339,0,0,0-.029.479l.225.253A.339.339,0,0,0,.77,5.84l.567-.509V10a.848.848,0,0,0,.848.848H9.991A.848.848,0,0,0,10.84,10V5.331l.567.509a.339.339,0,0,0,.479-.028l.226-.253A.339.339,0,0,0,12.083,5.079ZM9.822,9.83H2.356V4.417L6.089,1.066,9.822,4.417Zm0-6.781L8.8,2.135V1.686H9.822ZM4.732,4.4V6.437a.339.339,0,0,0,.339.339H7.107a.339.339,0,0,0,.339-.339V4.4a.339.339,0,0,0-.339-.339H5.071A.339.339,0,0,0,4.732,4.4Z" transform="translate(39.161 209.145)" fill="#fff"/>
  </g>
</svg>
