<svg xmlns="http://www.w3.org/2000/svg" width="23.5" height="31" viewBox="0 0 23.5 31">
  <g id="Group_2495" data-name="Group 2495" transform="translate(-18.5 -321.5)">
    <g id="Group_2492" data-name="Group 2492" transform="translate(19 322)">
      <path id="map-marker" d="M10.094,29.395C1.58,17.053,0,15.786,0,11.25a11.25,11.25,0,0,1,22.5,0c0,4.536-1.58,5.8-10.094,18.145a1.407,1.407,0,0,1-2.312,0Z" fill="#af0e6e" stroke="#fff" stroke-width="1"/>
    </g>
    <g id="Group_2494" data-name="Group 2494">
      <g id="Group_2493" data-name="Group 2493" transform="translate(25 325.652)">
        <path id="Path_29" data-name="Path 29" d="M170.074,1672.274l1.7-.639.518-.639h1.016l1.368-1.535v-.812l.384-.466-1.151-.9h-2.135l2.135-.639-1.067-.722,1.067-.384,1.662-3.113-.511-1.023h-2.768l-1.368.639.345-1.406,1.572-1.572V1658l-2.34.467-1.323-.467-.729,1.068.345,1.572-1.106.256v1.534l.384.984-.773,1.234v.895l1.5-.466-.722,2.212v1.361h.722v-1.023l.384-.677.895.677-.594.556.594,1.278L168.8,1671Z" transform="translate(-164.862 -1655.145)" fill="none" stroke="#fff" stroke-linecap="round" stroke-linejoin="round" stroke-width="0.7"/>
        <path id="Path_30" data-name="Path 30" d="M208.2,1637.542l.712-1.875,1.108.341-.908,1.79Z" transform="translate(-200.534 -1635.667)" fill="none" stroke="#fff" stroke-linecap="round" stroke-linejoin="round" stroke-width="0.7"/>
        <path id="Path_31" data-name="Path 31" d="M148.233,1662.626l1.815-1.193.426.8-1.7,2.075Z" transform="translate(-148.233 -1658.139)" fill="none" stroke="#fff" stroke-linecap="round" stroke-linejoin="round" stroke-width="0.7"/>
        <path id="Path_32" data-name="Path 32" d="M156.707,1683.9l.912,1.9-.286.456L156,1684.692Z" transform="translate(-155.007 -1677.733)" fill="none" stroke="#fff" stroke-linecap="round" stroke-linejoin="round" stroke-width="0.7"/>
        <path id="Path_33" data-name="Path 33" d="M157,1729.842l1.416-1.342v.853l-.575,1.128Z" transform="translate(-155.879 -1716.632)" fill="none" stroke="#fff" stroke-linecap="round" stroke-linejoin="round" stroke-width="0.7"/>
      </g>
      <path id="Path_1846" data-name="Path 1846" d="M1954.6,1440.825l-.637,1.537.595,1.313,2.019,1,.935-.56,1.557-2.856-.573-1h-2.527Z" transform="translate(-1923.355 -1108.249)" fill="rgba(255,255,255,0.6)"/>
    </g>
  </g>
</svg>
