<svg xmlns="http://www.w3.org/2000/svg" viewBox="0 0 389.2298 32.9488"><path d="M20.9066,31.4377a1.4676,1.4676,0,0,1-1.3283.8933H13.4615a1.4676,1.4676,0,0,1-1.3283-.8933L.0422,1.5043A.6641.6641,0,0,1,.65.6077H7.5671a1.4149,1.4149,0,0,1,1.3018.8966L16.2277,21.15a.2988.2988,0,0,0,.5711,0l7.402-19.6457A1.408,1.408,0,0,1,25.5026.6077h6.9138a.6642.6642,0,0,1,.6077.8966Z"/><path d="M37.2814,1.584a.9962.9962,0,0,1,.9763-.9763h6.1832a.9961.9961,0,0,1,.973.9763V31.358a.9963.9963,0,0,1-.973.973H38.2577a.9961.9961,0,0,1-.9763-.973Z"/><path d="M51.0692,23.9527a1.119,1.119,0,0,1,1.056-1.139h5.4892c.9365,0,1.139.2059,1.6272,1.0593.5712,1.056,2.2382,2.0323,5.0841,2.0323,3.0518,0,4.0281-1.0161,4.0281-1.9526,0-1.3283-1.5873-2.1552-5.41-3.4569C57.9,18.8354,51.2718,16.388,51.2718,9.8394,51.2718,3.7824,56.4355,0,63.6748,0,71.08,0,76.2439,3.8621,76.6491,9.5539A1.1224,1.1224,0,0,1,75.5931,10.7H69.9478A1.3206,1.3206,0,0,1,68.563,9.6c-.4882-1.3283-2.0323-2.5636-4.7188-2.5636-2.7662,0-3.8621,1.0992-3.8621,2.1585,0,1.2586,1.4645,1.9095,5.2468,3.2112,4.3868,1.5408,11.8552,4.1443,11.8552,11.1013,0,6.18-5.37,9.4343-12.6189,9.4343S51.637,29.7707,51.0692,23.9527Z"/><path d="M82.8523,1.584a.9962.9962,0,0,1,.9763-.9763h6.1832a.9963.9963,0,0,1,.9764.9763V31.358a.9963.9963,0,0,1-.9764.973H83.8286a.9961.9961,0,0,1-.9763-.973Z"/><path d="M96.1686,8.4978a.9962.9962,0,0,1-.9764-.9763V1.584a.9963.9963,0,0,1,.9764-.9763H122.117a.9962.9962,0,0,1,.9763.9763V7.5215a.996.996,0,0,1-.9763.9763h-8.096a.817.817,0,0,0-.81.8136V31.358a.9961.9961,0,0,1-.9763.973h-6.1832a.9961.9961,0,0,1-.9763-.973V9.3114a.8171.8171,0,0,0-.8136-.8136Z"/><path d="M126.6167,23.9527a1.1256,1.1256,0,0,1,1.0593-1.139h5.4892c.9365,0,1.1391.2059,1.6272,1.0593.5679,1.056,2.2382,2.0323,5.0841,2.0323,3.0518,0,4.0281-1.0161,4.0281-1.9526,0-1.3283-1.5873-2.1552-5.4095-3.4569-5.0443-1.66-11.6725-4.1078-11.6725-10.6564,0-6.057,5.1638-9.8394,12.4031-9.8394,7.4019,0,12.5691,3.8621,12.9742,9.5539A1.1224,1.1224,0,0,1,151.1372,10.7h-5.6453A1.3205,1.3205,0,0,1,144.1072,9.6c-.4882-1.3283-2.0357-2.5636-4.7188-2.5636-2.7662,0-3.8621,1.0992-3.8621,2.1585,0,1.2586,1.4645,1.9095,5.2435,3.2112,4.3934,1.5442,11.8784,4.1476,11.8784,11.1046,0,6.18-5.37,9.4344-12.6189,9.4344S127.1879,29.7707,126.6167,23.9527Z"/><path d="M180.4729,21.4322a1.0826,1.0826,0,0,1,1.4246-.4383l5.6453,2.4839a.8467.8467,0,0,1,.3686,1.2188,16.8871,16.8871,0,0,1-31.3945-8.2189,16.8957,16.8957,0,0,1,31.358-8.302.9265.9265,0,0,1-.365,1.2584l0,0-5.6121,2.4806a1.0293,1.0293,0,0,1-1.407-.3737l-.0176-.0314a8.6342,8.6342,0,1,0,0,9.9224Z"/><path d="M191.1625,16.471a16.842,16.842,0,0,1,33.6759,0,16.8419,16.8419,0,0,1-33.6759,0Zm8.2156,0a8.6041,8.6041,0,1,0,0-.06Q199.378,16.4411,199.3781,16.471Z"/><path d="M228.3352,8.4978a.9961.9961,0,0,1-.9763-.9763V1.584a.9962.9962,0,0,1,.9763-.9763H254.28a.9962.9962,0,0,1,.9763.9763V7.5215a.9961.9961,0,0,1-.9763.9763h-8.0927a.82.82,0,0,0-.8136.8136V31.358a.9961.9961,0,0,1-.9763.973h-6.1832a.9963.9963,0,0,1-.973-.973V9.3114a.82.82,0,0,0-.8136-.8136Z"/><path d="M260.5035,32.331a.9961.9961,0,0,1-.9763-.973V1.584a.9962.9962,0,0,1,.9763-.9763h6.1434a.9963.9963,0,0,1,.9763.9763V23.67a.8169.8169,0,0,0,.81.8136H281.856a.9963.9963,0,0,1,.9763.973v5.901a.9961.9961,0,0,1-.9763.973Z"/><path d="M298.2673,1.5043a1.4678,1.4678,0,0,1,1.3283-.8966h6.1035a1.4678,1.4678,0,0,1,1.3283.8966l12.0777,29.9334a.6643.6643,0,0,1-.6077.8933h-6.8906a1.418,1.418,0,0,1-1.3018-.8933l-1.1357-2.9687a1.1954,1.1954,0,0,0-1.0991-.7738H297.2113a1.1922,1.1922,0,0,0-1.0992.7738l-1.139,2.9687a1.4147,1.4147,0,0,1-1.3018.8933h-6.9138a.6641.6641,0,0,1-.6077-.8933ZM305.304,20.33a.5713.5713,0,0,0,.528-.77l-2.8858-7.7706a.2988.2988,0,0,0-.5711,0l-2.929,7.7706a.5745.5745,0,0,0,.5314.77Z"/><path d="M331.4816,31.358a.9961.9961,0,0,1-.9763.973h-6.1434a.9963.9963,0,0,1-.973-.973V1.584a.9961.9961,0,0,1,.973-.9763h4.9247a1.9926,1.9926,0,0,1,1.584.7737L343.9245,17.69a.2657.2657,0,0,0,.4915-.1627V1.5873a.9962.9962,0,0,1,.9863-.98h6.1434a.9963.9963,0,0,1,.9763.9763V31.358a.9962.9962,0,0,1-.9763.973h-4.9214a1.9925,1.9925,0,0,1-1.5873-.77L331.983,15.2888a.2623.2623,0,0,0-.4881.1627Z"/><path d="M360.4752,32.331a.9962.9962,0,0,1-.9763-.973V1.584a.9963.9963,0,0,1,.9763-.9763h13.748c9.9225,0,15.0066,7.2393,15.0066,15.8633s-5.0842,15.86-15.0066,15.86ZM373.6288,8.4978h-5.18a.8171.8171,0,0,0-.8136.8136V23.67a.8169.8169,0,0,0,.8136.8136h5.18c4.8417,0,7.402-3.2543,7.402-8.013S378.4539,8.4978,373.6288,8.4978Z"/></svg>