<svg xmlns="http://www.w3.org/2000/svg" xmlns:xlink="http://www.w3.org/1999/xlink" width="40.885" height="41.061" viewBox="0 0 40.885 41.061"><defs><style>.a,.d{fill:#fff;}.b{fill:url(#a);}.c{fill:url(#b);}.d{fill-rule:evenodd;}</style><linearGradient id="a" x1="0.5" y1="1" x2="0.5" gradientUnits="objectBoundingBox"><stop offset="0" stop-color="#20b038"/><stop offset="1" stop-color="#60d66a"/></linearGradient><linearGradient id="b" x1="0.5" y1="1" x2="0.5" gradientUnits="objectBoundingBox"><stop offset="0" stop-color="#f9f9f9"/><stop offset="1" stop-color="#fff"/></linearGradient></defs><g transform="translate(13.542 12.116)"><g transform="translate(-17.256 -15.308)"><g transform="translate(3.158 2.368)"><g transform="translate(0.557 0.824)"><path class="a" d="M20.8,58.461,23.689,47.92A20.359,20.359,0,1,1,41.326,58.11h-.01a20.368,20.368,0,0,1-9.731-2.479Zm11.293-6.51.615.371a16.963,16.963,0,0,0,8.608,2.362h.01a16.915,16.915,0,1,0-14.338-7.925l.4.644L25.68,53.639Z" transform="translate(-20.8 -17.4)"/></g></g></g><path class="b" d="M28.1,64.246l2.791-10.18A19.646,19.646,0,1,1,47.913,63.9H47.9a19.656,19.656,0,0,1-9.389-2.391Z" transform="translate(-40.929 -36.013)"/><g transform="translate(-14.888 -12.94)"><g transform="translate(1.346 0.824)"><path class="c" d="M20.8,58.461,23.689,47.92A20.359,20.359,0,1,1,41.326,58.11h-.01a20.368,20.368,0,0,1-9.731-2.479Zm11.293-6.51.615.371a16.963,16.963,0,0,0,8.608,2.362h.01a16.915,16.915,0,1,0-14.338-7.925l.4.644L25.68,53.639Z" transform="translate(-20.8 -17.4)"/></g></g><g transform="translate(-4.625 -1.889)"><g transform="translate(1.273 0.723)"><path class="d" d="M130.451,130.488c-.381-.849-.781-.869-1.142-.878-.293-.01-.634-.01-.976-.01a1.871,1.871,0,0,0-1.357.634,5.691,5.691,0,0,0-1.776,4.246,9.92,9.92,0,0,0,2.079,5.261c.254.342,3.523,5.641,8.687,7.681,4.294,1.7,5.173,1.357,6.1,1.269s3.006-1.23,3.436-2.421a4.284,4.284,0,0,0,.293-2.421c-.127-.215-.468-.342-.976-.6s-3.006-1.484-3.475-1.659-.81-.254-1.142.254-1.318,1.649-1.61,1.991-.6.381-1.1.127a13.818,13.818,0,0,1-4.09-2.528,15.206,15.206,0,0,1-2.83-3.523c-.293-.508-.029-.781.224-1.035.224-.224.508-.6.761-.888a3.267,3.267,0,0,0,.508-.849.941.941,0,0,0-.039-.888C131.9,134.012,130.91,131.493,130.451,130.488Z" transform="translate(-125.2 -129.6)"/></g></g></g></svg>