<svg version="1" xmlns="http://www.w3.org/2000/svg" width="693.333" height="693.333" viewBox="0 0 520.000000 520.000000"><path fill="#701456" d="M220 3c-5.9 1-6 1.1-5.5 12.8.6 12.7 1.4 24.7 1.9 28.2.3 1.4.7 5 1.1 8.1.3 3.1.8 6.7 1.1 8 .2 1.3.7 4.2.9 6.4.3 2.2 1.5 8.5 2.6 14 1.2 5.5 2.2 10.7 2.4 11.5.9 4.8 4.2 16 7.6 26.8l4 12.3 3.2-.6c1.8-.3 4.2-.7 5.5-.8 2.1-.1 2.3-.5 1.7-3.2-2.1-10.2-2.8-43.2-1.2-56.3 2.9-23.8 6.5-36.3 17.3-60.8.6-1.3-10.4-5-18.6-6.3-6.3-1-18.8-1.1-24-.1zM180.1 7.2c-8.3 1.1-17 4.1-24.9 8.4-6.1 3.3-17.2 11.1-17.2 12.1 0 .3 2.4 3 5.4 6.1 24.3 25.6 47.9 59.2 64.9 92.5 3.9 7.8 7.3 14.4 7.4 14.6.4.7 8.2-3.1 9.4-4.5.8-1-.1-4.9-3.5-15.1-11.2-34.4-22.1-80.8-25.2-107.6-.4-3.2-1.2-6-1.8-6.2-2.9-1-8.7-1.1-14.5-.3zM276.5 21c-10.2 20.2-19.2 45.6-21.1 60.1-.3 2.4-.9 6.2-1.3 8.4-.9 5-.7 25 .3 33.3.7 5.3 1.1 6.2 2.5 5.6.9-.4 2.9-.9 4.4-1.2 3.2-.5 3.4-.8 4.1-7.2 3.7-33.4 22.3-61.6 49.9-75.6l6.8-3.5-2.3-2.7c-7.9-9.6-24.1-18.9-37.5-21.7-3.1-.6-3.3-.4-5.8 4.5zM117 43.8c-11.2 9.3-17.4 18.1-21.4 30.4-3.5 10.8-3.7 14-1.1 14.4 3.1.4 8.7 1.3 12 2 10.5 1.9 33.8 11.6 43 17.8 21.2 14.4 35.5 26.8 46.9 40.6 1.6 1.9 3.2 3.5 3.6 3.5.4 0 2.6-1.5 4.9-3.4l4.1-3.4-6.3-12.2c-14.4-27.4-34.5-53.3-60.8-78.1C133.8 47.8 124 40 122.7 40c-.7 0-3.2 1.7-5.7 3.8zM285.5 135.6c-56.3 7-111.9 43.2-134.3 87.4-2.6 5.2-5.6 12.4-6.6 16-1 3.6-2.2 7.7-2.6 9.2-.5 1.4-.8 7.5-.9 13.5 0 17.2 4.7 29.1 15.8 39.8 12.1 11.7 30.5 19.1 54.6 22 5.7.6 28 .8 31 .2 1.1-.3 4.7-.8 8-1.3 3.3-.4 6.2-.8 6.5-.9.3-.1 2.5-.5 5-.9 5.3-.9 18.6-4.4 21.5-5.5 1.1-.5 5.8-2.3 10.5-4.1 35.7-13.8 61.7-36.6 72.2-63.5 2.6-6.8 3.1-9.4 3.2-17.5.1-10.5-1.5-16.3-6.5-23.5-9.3-13.6-22.2-20.5-39.4-21.1-17.3-.6-35.1 5.8-49.8 17.8-4.7 3.9-4.8 4-9.8 2.9-10.8-2.3-22.8-.2-22.9 4 0 .3.6.6 1.3.6 2.8.1 7.5 1.4 12.4 3.4l5.2 2.1-3 3.1c-4.3 4.6-11.5 15.5-14.6 22.3-2.8 6.1-6.4 18.4-5.7 19.6.7 1.1 4.4-.4 4.4-1.7 0-1.8 10.9-16.2 15.6-20.6 2.2-2 6.8-5.9 10.3-8.7l6.4-5.1 3.4 3.7c4.7 5 9.8 13.1 10.7 16.6 1.1 4.4 6.9 9.8 9.9 9.2 4.3-.8 6.6-2.5 8.7-6.6 3.7-7.2.4-15.7-10-26.2l-5.6-5.6 3.2-1.5c1.7-.9 6.7-2.3 11.1-3.3 9.4-2 15.5-1.4 19.7 2 2.5 2 3 3.1 3.4 8.2.5 7.4-2.1 14.7-8.9 24.9-21.9 32.6-76 51.4-111.9 38.7-8.9-3.1-15.7-8.9-19.8-16.7-2.3-4.3-2.6-6.2-2.6-14 0-10.7 2-16.6 9.3-27.7 10.6-16.1 30.6-31.9 49.1-38.7 5.8-2.1 19.2-5.7 25-6.6 14.6-2.4 19-2.7 36-2.5 42 .5 43.1.4 49-1.8 27.3-10.7 9.7-34.4-31-41.7-6.5-1.2-26.5-1.1-36.5.1zM403.5 211.2c-1 3.2-.7 4.5 2.5 11.3 7.3 15.2 10 28.6 9.6 47.5-.5 21.7-4.5 35.6-14.7 50.7-11.1 16.5-26.8 28.3-53.7 40.2-15.4 6.8-27 14.7-38.2 26-14.9 15.1-25.5 32.2-30.1 48.7-2.3 8.2-3.2 23.7-2 35.4.6 5.2.7 5.5 3.1 5.1 3-.4 3.5-1 5.6-7.6 4.1-12.5 12.5-26.1 21.3-34.3 14.4-13.5 31.4-23.6 72-42.7 23.5-11 31.6-16.1 41.9-26.4 11-11.1 18.9-23.8 24-38.7 2-5.9 2.5-7.7 4-15.4.4-1.9.7-10.3.6-18.5 0-13.1-.4-16.2-2.7-24.7-5.1-18.3-14-33.9-25.9-45.5-6.4-6.3-14.8-13.3-15.9-13.3-.4 0-1 1-1.4 2.2zM105.9 264.4c-12.7 14.4-21.6 33.4-24 51.4-1.3 10.2-.6 26.8 1.5 35.7.2.5.6 2.8 1 5 2.6 13.3 18.8 35.8 34.6 48 8.1 6.2 21.2 12.7 32 15.9 28.7 8.4 48 23.5 61.3 47.8 1.4 2.5 2.3 4.8 2.1 5.1-.3.3.9.8 2.6 1.2 1.7.4 3.4.4 3.7.1 1.3-1.2.9-12.4-.8-20.9-4.2-22.3-12.9-38.9-27.7-52.8-8.5-8.1-15.7-12.9-27.8-18.5-12.1-5.6-19.1-10.2-27.5-18.2-11.3-10.6-20.3-25.5-24.7-40.9-4.3-14.6-5.9-31.2-4.1-40.9.5-2.7 1.2-6.2 1.5-7.8.2-1.6.9-3.7 1.5-4.8 1-1.8.3-8.5-1-9.1-.3-.2-2.2 1.5-4.2 3.7z"/><path fill="#701456" d="M276.4 330.1c-2.1.7-15.5 3.3-22.9 4.4-2.2.4-5.3.8-6.8 1.1-1.6.2-7.2.7-12.5 1-5.3.2-9.7.6-9.9.8-1.6 1.6-2.4 58.3-1 73.6 3.2 35.7 14.2 70.7 29.3 93.6 8.8 13.2 7.5 12.3 17.5 12.3 4.9 0 8.9-.2 8.9-.5s-1.8-4.2-3.9-8.7c-10.3-21.7-14-41.4-13.5-72.2.2-9.9.6-19.6.8-21.5.3-1.9.8-5.8 1.2-8.5.9-8.1 5.3-29.2 8-39 2.6-9.4 9-28.8 10.5-31.7 1.9-3.5-1.5-6.3-5.7-4.7z"/></svg>