<?xml version="1.0" encoding="utf-8"?>
<!-- Generator: Adobe Illustrator 26.0.1, SVG Export Plug-In . SVG Version: 6.00 Build 0)  -->
<svg version="1.1" id="Layer_1" focusable="false" xmlns="http://www.w3.org/2000/svg" xmlns:xlink="http://www.w3.org/1999/xlink"
	 x="0px" y="0px" viewBox="0 0 512 512" style="enable-background:new 0 0 512 512;" xml:space="preserve">
<style type="text/css">
	.st0{fill:#AF0A6E;}
</style>
<path class="st0" d="M256,0C114.6,0,0,114.6,0,256s114.6,256,256,256s256-114.6,256-256S397.4,0,256,0z M336.1,303
	c9.4,9.4,9.4,24.6,0,33.9c-9.4,9.4-24.6,9.4-33.9,0l-46.2-47l-47,47c-9.4,9.4-24.6,9.4-33.9,0c-9.4-9.4-9.4-24.6,0-33.9l47-47
	L175,208.1c-9.4-9.4-9.4-24.6,0-33.9s24.6-9.4,33.9,0l47.1,47.9l47-47c9.4-9.4,24.6-9.4,33.9,0s9.4,24.6,0,33.9l-47,47L336.1,303z"
	/>
</svg>
