<?xml version="1.0" encoding="utf-8"?>
<!-- Generator: Adobe Illustrator 26.0.1, SVG Export Plug-In . SVG Version: 6.00 Build 0)  -->
<svg version="1.1" id="Layer_1" focusable="false" xmlns="http://www.w3.org/2000/svg" xmlns:xlink="http://www.w3.org/1999/xlink"
	 x="0px" y="0px" viewBox="0 0 512 512" style="enable-background:new 0 0 512 512;" xml:space="preserve">
<style type="text/css">
	.st0{fill:#392F9A;}
</style>
<path class="st0" d="M256,0C114.6,0,0,114.6,0,256s114.6,256,256,256s256-114.6,256-256S397.4,0,256,0z M210.8,365.1
	c-22.2,5.2-71.6,15.7-71.6,15.7c-0.6,0.1-1.2,0.1-1.8,0.1c-5.7,0-10.3-5.2-9.2-11.1l16.1-71.6c1.6-6.9,5-13.2,10-18.2l101-101
	l74.7,74.7L228.4,355.3C223.5,360.1,217.5,363.5,210.8,365.1z M373.1,210.6l-20.5,20.4L278,156.4l20.4-20.4c7.3-7.4,16.8-11,26.4-11
	c9.6,0,19.1,3.6,26.4,10.9l21.9,21.9C387.6,172.4,387.7,195.1,373.1,210.6z"/>
</svg>
