<svg xmlns="http://www.w3.org/2000/svg" width="40" height="40" viewBox="0 0 40 40"><path d="M35.714,32H4.286A4.286,4.286,0,0,0,0,36.286V67.714A4.286,4.286,0,0,0,4.286,72H35.714A4.286,4.286,0,0,0,40,67.714V36.286A4.286,4.286,0,0,0,35.714,32Zm-.536,35.714H4.821a.536.536,0,0,1-.536-.536V36.821a.536.536,0,0,1,.536-.536H35.179a.536.536,0,0,1,.536.536V67.179A.536.536,0,0,1,35.179,67.714ZM30.357,40.571l-12.143.013a1.071,1.071,0,0,0-1.071,1.071v2.478a1.072,1.072,0,0,0,1.093,1.071l5.179-.191L8.885,59.543a1.072,1.072,0,0,0,0,1.515l2.056,2.056a1.071,1.071,0,0,0,1.515,0L26.986,48.585l-.191,5.179a1.071,1.071,0,0,0,1.071,1.093h2.478a1.071,1.071,0,0,0,1.071-1.071l.013-12.143A1.071,1.071,0,0,0,30.357,40.571Z" transform="translate(0 -32)"/></svg>