<svg xmlns="http://www.w3.org/2000/svg" width="40" height="40" viewBox="0 0 40 40"><path d="M14.777,40a1.875,1.875,0,1,1,0-3.75,5.2,5.2,0,0,0,5.156-5.227V31c.079-5.636,5.691-6.557,5.691-10.372a9.375,9.375,0,0,0-18.75,0,1.875,1.875,0,0,1-3.75,0,13.125,13.125,0,1,1,26.25,0c0,5.833-5.633,6.862-5.691,10.413A8.952,8.952,0,0,1,14.777,40Zm8.348-19.375a6.875,6.875,0,1,0-13.75,0,1.875,1.875,0,0,0,3.75,0,3.125,3.125,0,1,1,6.25,0,1.875,1.875,0,1,0,3.75,0Zm10.234-5.547a1.875,1.875,0,0,0,.875-2.5,20.15,20.15,0,0,0-5.811-7.163,1.875,1.875,0,0,0-2.292,2.969A16.382,16.382,0,0,1,30.855,14.2,1.875,1.875,0,0,0,33.359,15.078Zm5.578-2.763a1.875,1.875,0,0,0,.877-2.5A25.952,25.952,0,0,0,32.4.394a1.875,1.875,0,1,0-2.3,2.963,22.246,22.246,0,0,1,6.334,8.081A1.875,1.875,0,0,0,38.937,12.315ZM16.25,21.875a1.875,1.875,0,1,0,1.875,1.875A1.875,1.875,0,0,0,16.25,21.875Zm-5,5a1.875,1.875,0,1,0,1.875,1.875A1.875,1.875,0,0,0,11.25,26.875ZM1.875,36.25A1.875,1.875,0,1,0,3.75,38.125,1.875,1.875,0,0,0,1.875,36.25Zm8.2-1.326-5-5L2.424,32.576l5,5Z" transform="translate(0 0)"/></svg>