<svg xmlns="http://www.w3.org/2000/svg" width="40" height="39" viewBox="0 0 40 39"><defs><style>.a{fill:none;}</style></defs><g transform="translate(-372 -696)"><path class="a" d="M0,0H39V39H0Z" transform="translate(373 696)"/><path d="M11.66,29a2.411,2.411,0,0,0,1.706-.709L30.83,10.831,25.419,5.419,7.955,22.883a2.411,2.411,0,0,0-.709,1.706V27.8A1.211,1.211,0,0,0,8.453,29ZM35.7,5.963a1.808,1.808,0,0,0,0-2.551L32.838.551a1.818,1.818,0,0,0-2.558,0L27.125,3.706l5.411,5.419ZM30.34,26.589a1.211,1.211,0,0,0-1.208-1.208H19.7L16.075,29H29.132A1.211,1.211,0,0,0,30.34,27.8ZM0,12.1V36.25a2.412,2.412,0,0,0,2.415,2.415h35.17A2.412,2.412,0,0,0,40,36.25V12.1a2.412,2.412,0,0,0-2.415-2.415H35.4l-1.147,1.147-1.706,1.706-.77.77h4.6V35.042H3.623V13.306H14.113l3.623-3.623H2.415A2.417,2.417,0,0,0,0,12.1Zm30.34,9.66V20.551a1.211,1.211,0,0,0-1.208-1.208h-3.4l-3.623,3.623h7.019A1.206,1.206,0,0,0,30.34,21.759Z" transform="translate(372 695.975)"/></g></svg>