<svg xmlns="http://www.w3.org/2000/svg" width="40" height="40" viewBox="0 0 40 40"><defs><style>.a{fill:none;}</style></defs><g transform="translate(-166 -681)"><rect class="a" width="40" height="40" transform="translate(166 681)"/><path d="M33.333,58.5v3.1A3.323,3.323,0,0,1,30,64.921H3.333A3.323,3.323,0,0,1,0,61.608V41.939a3.323,3.323,0,0,1,3.333-3.313H4.444v3.313H3.75a.415.415,0,0,0-.417.414V61.194a.415.415,0,0,0,.417.414H29.583A.415.415,0,0,0,30,61.194V58.5ZM36.25,33.313H10.417a.415.415,0,0,0-.417.414V52.568a.415.415,0,0,0,.417.414H36.25a.415.415,0,0,0,.417-.414V33.727A.415.415,0,0,0,36.25,33.313ZM36.667,30A3.323,3.323,0,0,1,40,33.313V52.982a3.323,3.323,0,0,1-3.333,3.313H10a3.323,3.323,0,0,1-3.333-3.313V33.313A3.323,3.323,0,0,1,10,30ZM18.333,37.73a2.778,2.778,0,1,1-2.778-2.761A2.769,2.769,0,0,1,18.333,37.73Zm-5,8.626,2.744-3.727a.837.837,0,0,1,1.179,0l.306.3L20,46.356l7.189-8.145a.837.837,0,0,1,1.179,0l4.966,5.936v5.522h-20Z" transform="translate(166 653)"/></g></svg>