<svg xmlns="http://www.w3.org/2000/svg" width="40" height="40" viewBox="0 0 40 40"><defs><style>.a{fill:none;}</style></defs><g transform="translate(-818 -472)"><path class="a" d="M0,0H40V40H0Z" transform="translate(818 472)"/><path d="M33.028,35.463h-4.1a3.817,3.817,0,0,0-.676.062,1.261,1.261,0,0,0-.585-.145H26.4a1.262,1.262,0,0,0-1.262,1.265V69.459A1.262,1.262,0,0,0,26.4,70.722h.947a1.262,1.262,0,0,0,1.262-1.262V47.138h4.417a3.788,3.788,0,0,0,3.787-3.786v-4.1a3.788,3.788,0,0,0-3.786-3.787Zm.036,7.5a.494.494,0,0,1-.492.492H28.817a.494.494,0,0,1-.492-.492V39.284a.494.494,0,0,1,.492-.492h3.755a.494.494,0,0,1,.492.492Zm30.244,5.064H62.7V45.882c0-3.424-3.073-6.117-12.616-6.117s-12.466,2.691-12.466,6.117v2.141h-.609a1.835,1.835,0,0,0-1.835,1.835v3.288A1.835,1.835,0,0,0,37,54.983h.609v8.41a2.447,2.447,0,0,0,2.446,2.446v2.447a2.447,2.447,0,0,0,2.45,2.448h1.224a2.447,2.447,0,0,0,2.446-2.446V65.839h7.952v2.447a2.447,2.447,0,0,0,2.446,2.448H57.8a2.447,2.447,0,0,0,2.447-2.446V65.839A2.447,2.447,0,0,0,62.7,63.392v-8.41H63.3a1.835,1.835,0,0,0,1.835-1.835V49.858A1.835,1.835,0,0,0,63.308,48.023Zm-3.68,14.6H41.179v-6.2H59.628Zm0-10.02H41.179V50.461H59.628Zm0-5.963H41.179v-.523c1.128-1.1,1.247-2.977,9.145-2.977s8.176,1.877,9.3,2.977Zm-5.5,15.384a2.447,2.447,0,1,0-2.447-2.447A2.447,2.447,0,0,0,54.133,62.028Zm-7.952,0a2.447,2.447,0,1,0-2.446-2.447,2.447,2.447,0,0,0,2.446,2.447Z" transform="translate(792.86 438.62)"/></g></svg>