<svg xmlns="http://www.w3.org/2000/svg" width="40" height="40" viewBox="0 0 40 40"><path d="M20.041,22.509a1.25,1.25,0,1,0,1.25,1.25A1.254,1.254,0,0,0,20.041,22.509Zm0-5a1.25,1.25,0,1,0,1.25,1.25A1.254,1.254,0,0,0,20.041,17.507Zm-2.5-10.629a1.25,1.25,0,1,0,1.25,1.25A1.254,1.254,0,0,0,17.541,6.878Zm2.5,20.633a1.25,1.25,0,1,0,1.25,1.25A1.254,1.254,0,0,0,20.041,27.511ZM39.956,14.4,39.5,13.271a1.262,1.262,0,0,0-1.625-.68l-2.2.9V11.223A1.238,1.238,0,0,0,34.417,10h-1.25a1.238,1.238,0,0,0-1.25,1.219v3.665c0,.039.023.078.023.117l-2.047.836a11.132,11.132,0,0,0-1.07-2.079,9.688,9.688,0,1,0-17.564,0,10.477,10.477,0,0,0-1.07,2.079l-2.047-.836a.623.623,0,0,0,.023-.117V11.223A1.238,1.238,0,0,0,6.915,10H5.665a1.238,1.238,0,0,0-1.25,1.219V13.49l-2.2-.9a1.262,1.262,0,0,0-1.625.68L.133,14.4a1.21,1.21,0,0,0,.7,1.587l8.6,3.509c0,.063-.016.125-.016.188a9.536,9.536,0,0,0,.164,1.719A12.592,12.592,0,0,0,13.29,39.132,5.972,5.972,0,0,0,16.509,40h7.024a6.422,6.422,0,0,0,3.7-1.165A12.552,12.552,0,0,0,30.51,21.415a9.7,9.7,0,0,0,.164-1.735c0-.063-.016-.125-.016-.188l8.6-3.509A1.206,1.206,0,0,0,39.956,14.4ZM25.1,35.772a2.749,2.749,0,0,1-1.57.492H16.5a2.3,2.3,0,0,1-1.211-.289A8.843,8.843,0,0,1,13.056,23l.57-.727-.227-.9a6.547,6.547,0,0,1,1.492-6.206l.938-1.071-.773-1.188A5.936,5.936,0,1,1,25.971,9.683a5.994,5.994,0,0,1-.961,3.228L24.236,14.1l.938,1.071a6.563,6.563,0,0,1,1.492,6.213l-.227.9.57.727a8.7,8.7,0,0,1,1.758,3.822A8.82,8.82,0,0,1,25.1,35.772ZM22.541,6.878a1.25,1.25,0,1,0,1.25,1.25A1.254,1.254,0,0,0,22.541,6.878ZM20.041,10a1.254,1.254,0,0,0-1.25,1.25,8.3,8.3,0,0,0,1.25,2.5,8.3,8.3,0,0,0,1.25-2.5A1.254,1.254,0,0,0,20.041,10Z" transform="translate(-0.042)"/></svg>