<svg xmlns="http://www.w3.org/2000/svg" width="40" height="40" viewBox="0 0 40 40"><path d="M30,26.25c-3.172,0-3.719-.117-5.641.531a13.58,13.58,0,0,1-8.719,0c-1.922-.648-2.461-.531-5.641-.531a10,10,0,0,0-10,10V37.5A2.5,2.5,0,0,0,2.5,40h35A2.5,2.5,0,0,0,40,37.5V36.25A10,10,0,0,0,30,26.25Zm6.25,10H3.75A6.242,6.242,0,0,1,10,30c3.211,0,3.2-.086,4.438.328a17.243,17.243,0,0,0,11.125,0C26.8,29.906,26.789,30,30,30A6.258,6.258,0,0,1,36.25,36.25ZM20,25A12.5,12.5,0,1,0,7.5,12.5,12.5,12.5,0,0,0,20,25ZM20,3.75a8.75,8.75,0,1,1-8.75,8.75A8.756,8.756,0,0,1,20,3.75Z"/></svg>