<svg xmlns="http://www.w3.org/2000/svg" width="40" height="40" viewBox="0 0 40 40"><defs><style>.a{fill:none;}</style></defs><g transform="translate(-1061 -153)"><rect class="a" width="40" height="40" transform="translate(1061 153)"/><g transform="translate(0 -2)"><g transform="translate(1059.2 159.7)"><g transform="translate(1.8 1.3)"><path d="M41.4,7.37s-.392-2.757-1.59-3.97A5.723,5.723,0,0,0,35.8,1.7c-5.6-.4-14-.4-14-.4h-.016s-8.4,0-14,.4A5.723,5.723,0,0,0,3.789,3.4C2.591,4.613,2.2,7.37,2.2,7.37a60.523,60.523,0,0,0-.4,6.473v3.035a60.523,60.523,0,0,0,.4,6.473s.392,2.757,1.59,3.971c1.523,1.594,3.521,1.543,4.41,1.711,3.2.305,13.6.4,13.6.4s8.4-.012,14-.419a5.717,5.717,0,0,0,4.006-1.7c1.2-1.214,1.59-3.971,1.59-3.971a60.62,60.62,0,0,0,.4-6.473V13.844a60.523,60.523,0,0,0-.4-6.474ZM17.668,20.556V9.316l10.809,5.639Z" transform="translate(-1.8 -1.3)"/></g></g></g></g></svg>