<svg xmlns="http://www.w3.org/2000/svg" width="11.106" height="14.601" viewBox="0 0 11.106 14.601"><g transform="translate(0 0)"><path d="M107.475,7.141c1.623,0,2.94-1.6,2.94-3.57S109.982,0,107.475,0s-2.94,1.6-2.94,3.57S105.851,7.141,107.475,7.141Z" transform="translate(-101.922)" fill="#fff"/><path d="M41.9,300.434c0-.12,0-.034,0,0Z" transform="translate(-41.895 -287.841)" fill="#fff"/><path d="M308.085,301.6c0-.033,0-.228,0,0Z" transform="translate(-296.98 -288.909)" fill="#fff"/><path d="M53.006,182.773c-.054-3.435-.5-4.414-3.936-5.033a2.412,2.412,0,0,1-3.219,0c-3.4.613-3.872,1.577-3.934,4.922-.005.273-.008.287-.008.256,0,.059,0,.169,0,.361,0,0,.817,1.648,5.552,1.648s5.552-1.648,5.552-1.648c0-.123,0-.209,0-.267A2.215,2.215,0,0,1,53.006,182.773Z" transform="translate(-41.907 -170.325)" fill="#fff"/></g></svg>