<svg version="1.1" id="Layer_1" xmlns="http://www.w3.org/2000/svg" xmlns:xlink="http://www.w3.org/1999/xlink" x="0px" y="0px"
	 viewBox="0 0 100 100" style="enable-background:new 0 0 100 100;" xml:space="preserve">
<path id="Union_2" d="M18.3,100c-3.1-0.2-5.5-2.9-5.3-6.1c0.2-2.8,2.5-5.1,5.3-5.3h63.4c3.1,0.2,5.5,2.9,5.3,6.1
	c-0.2,2.8-2.5,5.1-5.3,5.3H18.3z M45.6,78.9L19.3,52.5c-2.3-2.2-2.4-5.8-0.2-8.1l0.2-0.2c2.2-2.3,5.8-2.4,8.1-0.2c0,0,0,0,0,0
	l0.2,0.2l16.9,16.8V5.3c0.2-3.1,2.9-5.5,6.1-5.3c2.8,0.2,5.1,2.5,5.3,5.3v55.3l16.4-16.4c2.2-2.3,5.8-2.4,8.1-0.2l0.2,0.2
	c2.2,2.1,2.3,5.5,0.2,7.6c-0.2,0.2-0.5,0.5-0.7,0.7L53.7,78.9C51.4,81.1,47.8,81.1,45.6,78.9L45.6,78.9z"/>
</svg>
