<svg xmlns="http://www.w3.org/2000/svg" width="40" height="40" viewBox="0 0 40 40"><defs><style>.a{fill:none;}</style></defs><g transform="translate(-232 -603)"><path d="M33.846,41.282H32.821L25.847,31.54a4.1,4.1,0,0,0-3.2-1.54H9.957a4.1,4.1,0,0,0-3.809,2.579L3.077,41.427A4.093,4.093,0,0,0,0,45.385V53.59a1.025,1.025,0,0,0,1.026,1.026H4.1a6.154,6.154,0,0,0,12.308,0H23.59a6.154,6.154,0,0,0,12.308,0h3.077A1.025,1.025,0,0,0,40,53.59V47.436A6.154,6.154,0,0,0,33.846,41.282ZM16.923,33.077h5.721a1.021,1.021,0,0,1,.8.385l5.436,7.821H16.923ZM9,33.722a1.022,1.022,0,0,1,.953-.645h3.889v8.205H6.391Zm1.252,23.97a3.077,3.077,0,1,1,3.077-3.077A3.077,3.077,0,0,1,10.256,57.692Zm19.487,0a3.077,3.077,0,1,1,3.077-3.077A3.077,3.077,0,0,1,29.744,57.692Zm7.179-6.154H35.044a6.1,6.1,0,0,0-10.6,0H15.557a6.1,6.1,0,0,0-10.6,0H3.077V45.385A1.027,1.027,0,0,1,4.1,44.359H33.846a3.08,3.08,0,0,1,3.077,3.077Z" transform="translate(232 578)"/><rect class="a" width="40" height="40" transform="translate(232 603)"/></g></svg>