<svg xmlns="http://www.w3.org/2000/svg" width="40" height="40" viewBox="0 0 40 40"><defs><style>.a{fill:none;}</style></defs><g transform="translate(-988 -418)"><path class="a" d="M0,0H40V40H0Z" transform="translate(988 418)"/><path d="M28,97.143l-2.286-1.714V93.286A2.112,2.112,0,0,0,24.1,91.249l-.477-10.5,2.387-1.8a2.857,2.857,0,0,0,1.138-2.281V66.857A2.857,2.857,0,0,0,24.286,64h-20a2.857,2.857,0,0,0-2.857,2.857v9.821a2.857,2.857,0,0,0,1.141,2.284l2.383,1.79-.477,10.5a2.1,2.1,0,0,0-1.619,2.033v2.143L.571,97.143A1.429,1.429,0,0,0,0,98.286v4.286A1.429,1.429,0,0,0,1.429,104H27.143a1.429,1.429,0,0,0,1.429-1.429V98.286A1.429,1.429,0,0,0,28,97.143ZM5.714,68.286H9.286v2.857h2.857V68.286h4.286v2.857h2.857V68.286h3.571v7.668l-3.619,2.729.543,12.461H8.79l.543-12.463L5.714,75.959ZM4.286,99.714l2.857-2.143V95.429H21.429v2.143l2.857,2.143ZM16.429,80.392a2.106,2.106,0,1,0-4.213,0V84h4.213Z" transform="translate(994 354)"/></g></svg>