<svg xmlns="http://www.w3.org/2000/svg" width="40" height="40" viewBox="0 0 40 40"><defs><style>.a{fill:none;}</style></defs><g transform="translate(-166 -510)"><path class="a" d="M0,0H40V40H0Z" transform="translate(166 510)"/><path d="M46.854,7.9a5.632,5.632,0,0,0-6.333-1.135,8.441,8.441,0,0,0-16.545,0,5.628,5.628,0,0,0-6.333,9.09l4.605,4.6v13.92A5.631,5.631,0,0,0,27.874,40H28.5a5.6,5.6,0,0,0,3.75-1.436A5.6,5.6,0,0,0,36,40h.625a5.631,5.631,0,0,0,5.625-5.625V20.455l4.605-4.6A5.631,5.631,0,0,0,46.854,7.9ZM32.249,3.75a4.688,4.688,0,1,1-4.688,4.688A4.688,4.688,0,0,1,32.249,3.75ZM44.2,13.2l-5.7,5.7V34.375a1.875,1.875,0,0,1-1.875,1.875H36a1.875,1.875,0,0,1-1.875-1.875v-7.5h-3.75v7.5A1.875,1.875,0,0,1,28.5,36.25h-.625A1.875,1.875,0,0,1,26,34.375V18.9l-5.7-5.7a1.875,1.875,0,0,1,2.652-2.652l5.7,5.7h7.2l5.7-5.7A1.875,1.875,0,0,1,44.2,13.2Z" transform="translate(154.001 510)"/></g></svg>