<svg xmlns="http://www.w3.org/2000/svg" width="40" height="40" viewBox="0 0 40 40"><defs><style>.a{fill:none;}</style></defs><g transform="translate(-166 -417)"><path class="a" d="M0,0H40V40H0Z" transform="translate(166 417)"/><path d="M15.25,24h-2.5a.75.75,0,0,0-.75.75v2.5a.75.75,0,0,0,.75.75h2.5a.75.75,0,0,0,.75-.75v-2.5A.75.75,0,0,0,15.25,24Zm0-12h-2.5a.75.75,0,0,0-.75.75v2.5a.75.75,0,0,0,.75.75h2.5a.75.75,0,0,0,.75-.75v-2.5A.75.75,0,0,0,15.25,12Zm-6,0H6.75a.75.75,0,0,0-.75.75v2.5a.75.75,0,0,0,.75.75h2.5a.75.75,0,0,0,.75-.75v-2.5A.75.75,0,0,0,9.25,12Zm0,12H6.75a.75.75,0,0,0-.75.75v2.5a.75.75,0,0,0,.75.75h2.5a.75.75,0,0,0,.75-.75v-2.5A.75.75,0,0,0,9.25,24Zm0-6H6.75a.75.75,0,0,0-.75.75v2.5a.75.75,0,0,0,.75.75h2.5a.75.75,0,0,0,.75-.75v-2.5A.75.75,0,0,0,9.25,18Zm6,0h-2.5a.75.75,0,0,0-.75.75v2.5a.75.75,0,0,0,.75.75h2.5a.75.75,0,0,0,.75-.75v-2.5A.75.75,0,0,0,15.25,18Zm18,6h-2.5a.75.75,0,0,0-.75.75v2.5a.75.75,0,0,0,.75.75h2.5a.75.75,0,0,0,.75-.75v-2.5A.75.75,0,0,0,33.25,24Zm0-6h-2.5a.75.75,0,0,0-.75.75v2.5a.75.75,0,0,0,.75.75h2.5a.75.75,0,0,0,.75-.75v-2.5A.75.75,0,0,0,33.25,18Zm5.25-6H32V1.5A1.5,1.5,0,0,0,30.5,0h-13A1.5,1.5,0,0,0,16,1.5V6H14V1a1,1,0,0,0-1-1H12a1,1,0,0,0-1,1V6H7V1A1,1,0,0,0,6,0H5A1,1,0,0,0,4,1V6H1.5A1.5,1.5,0,0,0,0,7.5V31a1,1,0,0,0,1,1H2a1,1,0,0,0,1-1V9H19V3H29V15h8V31a1,1,0,0,0,1,1h1a1,1,0,0,0,1-1V13.5A1.5,1.5,0,0,0,38.5,12ZM25.25,6h-2.5a.75.75,0,0,0-.75.75v2.5a.75.75,0,0,0,.75.75h2.5A.75.75,0,0,0,26,9.25V6.75A.75.75,0,0,0,25.25,6Zm0,12h-2.5a.75.75,0,0,0-.75.75v2.5a.75.75,0,0,0,.75.75h2.5a.75.75,0,0,0,.75-.75v-2.5A.75.75,0,0,0,25.25,18Zm0-6h-2.5a.75.75,0,0,0-.75.75v2.5a.75.75,0,0,0,.75.75h2.5a.75.75,0,0,0,.75-.75v-2.5A.75.75,0,0,0,25.25,12Z" transform="translate(166 421)"/></g></svg>