<?xml version="1.0" encoding="utf-8"?>
<!-- Generator: Adobe Illustrator 26.0.1, SVG Export Plug-In . SVG Version: 6.00 Build 0)  -->
<svg version="1.1" id="Layer_1" xmlns="http://www.w3.org/2000/svg" xmlns:xlink="http://www.w3.org/1999/xlink" x="0px" y="0px"
	 viewBox="0 0 24 24" style="enable-background:new 0 0 24 24;" xml:space="preserve">
<style type="text/css">
	.st0{fill:#FFFFFF;}
</style>
<g id="Group_3791" transform="translate(-1322 -404)">
	<circle id="Ellipse_399" cx="1334" cy="416" r="12"/>
	<path id="close-circle" class="st0" d="M1334,404c-6.6,0-12,5.4-12,12s5.4,12,12,12s12-5.4,12-12S1340.6,404,1334,404z M1334,425.7
		c-5.3,0-9.7-4.3-9.7-9.7s4.3-9.7,9.7-9.7s9.7,4.3,9.7,9.7l0,0C1343.7,421.3,1339.3,425.7,1334,425.7
		C1334,425.7,1334,425.7,1334,425.7z M1338.9,413l-3,3l3,3c0.2,0.2,0.2,0.6,0,0.8c0,0,0,0,0,0l-1.1,1.1c-0.2,0.2-0.6,0.2-0.8,0
		c0,0,0,0,0,0l-3-3l-3,3c-0.2,0.2-0.6,0.2-0.8,0c0,0,0,0,0,0l-1.1-1.1c-0.2-0.2-0.2-0.6,0-0.8c0,0,0,0,0,0l3-3l-3-3
		c-0.2-0.2-0.2-0.6,0-0.8c0,0,0,0,0,0l1.1-1.1c0.2-0.2,0.6-0.2,0.8,0c0,0,0,0,0,0l3,3l3-3c0.2-0.2,0.6-0.2,0.8,0c0,0,0,0,0,0
		l1.1,1.1C1339.2,412.4,1339.2,412.8,1338.9,413C1338.9,413,1338.9,413,1338.9,413L1338.9,413z"/>
</g>
</svg>
