<?xml version="1.0" encoding="utf-8"?>
<!-- Generator: Adobe Illustrator 18.1.1, SVG Export Plug-In . SVG Version: 6.00 Build 0)  -->
<svg version="1.1" id="Layer_2" xmlns="http://www.w3.org/2000/svg" xmlns:xlink="http://www.w3.org/1999/xlink" x="0px" y="0px"
	 viewBox="0 0 3000 3000" enable-background="new 0 0 3000 3000" xml:space="preserve">
<g>
	<path fill="#231F20" d="M3001,355.3c-40.8,45.9-65,101.3-84.7,158.7c-4,12.1-8.1,24.7-12.1,36.8c-6.6,20.7-15.1,40.8-25.2,60
		c-11.6,22.7-23.2,45.4-32.3,68.5c-14.6,37.8-39.8,67-70.6,91.7c-39.3,31.7-83.2,54.4-128,77.6c-59,30.2-101.8,49.9-165.3,67.5
		c-40.8,11.6-82.1,23.7-123,35.3c-3,1-6,1.5-10.6,2.5c-8.1-39.3-18.6-77.6-34.8-113.9c-16.1-36.3-36.3-69.5-61-102.3
		c10.1-1,17.6-1.5,25.7-2c90.7-7.1,159.8-20.7,247.9-42.8c47.4-12.1,95.7-21.7,142.1-37.8c24.7-8.6,48.9-18.1,71.6-31.2
		c21.7-12.6,38.8-28.7,49.9-51.4c14.6-30.2,29.7-60.5,44.9-91.2c17.1-35.8,37.8-69.5,60.5-101.3c16.1-22.7,35.3-42.8,59-58.5
		c4-3,8.1-6.6,12.1-10.1c5.5,0,11.1,0,17.1,0c5.5,9.1,11.1,17.6,17.1,26.7C3001,344.2,3001,349.7,3001,355.3z"/>
	<path fill="#231F20" d="M35.3,311.9c1,1,2,2.5,3,3.5c25.2,15.6,44.9,36.3,62.5,60c21.7,28.7,39.3,60,54.9,92.2
		c15.1,31.2,30.7,62,45.9,93.2c9.6,19.7,23.7,34.8,42.8,44.3c23.2,12.1,46.9,23.2,70.6,34.3c75.6,36.3,155.7,56.9,237.4,72.6
		c37.3,7.1,65.5,11.1,103.3,15.6c34.3,4,59,7.1,94.7,11.1c-23.7,32.3-44.9,66-60.5,102.3c-16.1,36.8-27.2,74.6-34.8,114.9
		c-10.1-3-19.7-5-28.2-8.6c-42.8-17.1-67-27.7-111.4-40.3c-27.7-8.1-54.4-17.1-80.1-29.7c-48.4-24.2-96.8-47.4-144.6-72.1
		c-32.8-17.1-63-37.3-91.2-61.5c-18.6-16.1-32.8-34.8-42.8-58c-12.1-28.2-26.7-54.9-39.3-83.2c-11.1-25.7-21.7-51.9-31.2-78.6
		c-11.6-32.3-21.2-65-36.8-95.8c-12.1-23.7-27.2-45.9-44.3-66c-1.5-2-4.5-3.5-6.6-5c0-8.1,0-16.1,0-24.2c1.5-1,3.5-2,4.5-3
		c5-6,10.1-12.6,14.6-18.6C23.7,311.9,29.7,311.9,35.3,311.9z"/>
	<path fill="#231F20" d="M1496.2,2688.6c-6-1-12.6-2.5-18.6-3c-30.7-3.5-59.5-13.1-88.2-24.7c-46.9-19.7-91.7-43.8-135.1-70
		c-4.5-2.5-9.6-7.1-11.6-11.6c-13.1-28.2-22.2-37.8-21.7-69.5c0-5,0.5-10.6,2.5-15.6c4.5-13.6,18.1-19.1,29.7-11.1
		c40.8,26.7,87.2,34.3,134.1,39.3c53.9,6,107.8,7.1,161.8,4.5c42.3-2,84.7-4.5,126-14.1c25.2-6,49.9-13.6,71.6-28.2
		c2-1.5,4-2.5,6.6-3.5c13.6-5.5,26.7,0.5,29.7,15.1c1.5,8.6,1.5,17.6,1,26.2c-2.5,25.7-9.1,29.7-20.2,52.9c-3,6-7.6,11.6-13.1,15.1
		c-57.4,36.3-117.9,66.5-182.9,86.2c-14.6,4.5-29.7,6-44.9,9.1c-3,0.5-6,1.5-9.1,2C1507.3,2688.6,1501.8,2688.6,1496.2,2688.6z"/>
	<path fill="#231F20" d="M18.1,311.9c-5,6-9.6,12.6-14.6,18.6c-1,1.5-3,2-4.5,3c0-7.1,0-14.6,0-21.7
		C5.5,311.9,11.6,311.9,18.1,311.9z"/>
	<path fill="#231F20" d="M3001,338.7c-5.5-9.1-11.1-17.6-17.1-26.7c5.5,0,11.1,0,17.1,0C3001,320.5,3001,329.6,3001,338.7z"/>
	<path fill="#231F20" d="M1277.5,1465l-215.2-366.9l-217.7,336.1c-2.5-7.6-97.3-262.1-102.3-295.8c-6.6-42.3-8.6-85.2-4-127.5
		c5.5-51.9,19.7-101.3,44.3-147.2c36.3-67,79.6-129,135.1-181.9c34.3-32.8,73.1-59.5,118.4-75.1c26.2-9.1,53.4-12.1,81.1-10.1
		c13.1,1,26.7,0.5,39.8,1.5c10.6,0.5,21.2,1.5,30.7,4c46.9,13.1,93.7,27.2,141.6,35.8c74.6,14.1,150.2,19.7,226.3,16.6
		c79.1-3,156.7-18.1,233.8-35.8c26.2-6,52.9-11.6,79.1-16.1c11.1-2,23.2-0.5,34.8,0.5c24.7,2,48.9,4.5,73.1,8.1
		c40.3,6.6,75.1,25.2,106.8,50.4c33.3,26.2,60.5,58,83.7,93.2c45.9,70,77.6,145.6,94.2,227.3c14.6,71.1,9.1,141.1-14.1,209.6
		c-3,9.1-66.5,152.2-98.3,222.2c-12.6,27.2-22.7,55.4-30.2,84.2c-15.1,56.4-20.7,87.2-31.7,117.9c-1.5,3.5-3,12.1-5.5,18.6
		l-204.1-328.1l-178.4,267.6L1463,1200.4L1277.5,1465z"/>
	<path fill="#231F20" d="M1877.2,1493.2c2,4.5,3,7.1,4,9.6l151.7,246.4c3,10.1-60.5,203.6-77.6,253.5c-6,17.1-11.6,34.3-17.6,51.4
		c-2-0.5-3-1-3.5-1.5c-27.2-24.2-79.6-35.3-114.9-38.8c-20.2-2-37.8-7.1-55.4-18.6c-44.3-29.7-94.7-61-147.2-71.1
		c-96.8-18.6-153.7-18.1-250,4c-52.9,12.1-103.3,46.9-147.7,79.1c-3,2.5-8.1,3.5-12.1,3.5c-21.2,1.5-62,4-82.1,10.6
		c-23.2,7.1-44.9,18.1-62,36.3c-1,1-2.5,2-4,3.5c-1-1.5-2-2.5-2.5-4c-27.2-68-55.4-103.8-78.6-173.9c-1-2.5-1.5-4.5-2-7.1
		c-6.6-18.6-100.3-289.8-93.7-309.4c0,0,177.9-273.1,179.4-277.2c0,0,215.7,365.4,214.7,365.4c1,0,187-264.6,187-264.6l235.3,374.9
		C1698.3,1766.3,1877.2,1493.2,1877.2,1493.2z"/>
	<path fill="#231F20" d="M1509.3,2455.2c-51.4-3-102.8-5-154.2-10.1c-52.9-5-97.3-28.7-132.5-69.5c-13.6-15.6-26.7-31.2-42.3-44.9
		c-37.8-33.8-64-74.1-78.1-122.5c-4-12.6-8.6-25.2-12.6-37.8c-1.5-4.5-1.5-10.1-1-15.1c0-4,2.5-7.6,3-11.6
		c2-17.6,13.6-27.7,27.7-35.8c17.6-9.6,36.8-14.1,56.4-15.6c11.1-1,42.8-1,53.9-2c3.5-0.5,8.1-1.5,11.1-4
		c19.2-18.1,41.8-39.8,65.5-50.4c45.4-20.2,73.1-35.8,122-41.3c39.8-4.5,79.6-5.5,119.4-2.5c60.5,4.5,98.8,20.7,154.2,46.4
		c21.7,10.1,42.8,31.2,60,47.9c4,4,8.6,4,13.1,4c20.7,0,61.5,1.5,81.1,6.6c13.6,3.5,26.7,8.6,37.8,17.6
		c15.1,12.1,20.7,31.2,14.6,49.4c-6,18.1-12.1,35.8-18.1,53.9c-12.1,37.8-33.8,70.6-58.5,100.8c-6,7.6-14.1,14.1-22.2,20.7
		c-13.1,10.1-24.7,21.7-35.3,34.8c-34.8,42.8-80.1,66.5-135.1,71.1c-37.3,3-74.6,6-111.9,9.1c-6,0.5-12.1,0-18.1,0
		C1509.3,2454.7,1509.3,2455.2,1509.3,2455.2z M1809.7,2194.7c-3.5-18.1-13.6-27.7-30.7-27.2c-8.1,0-16.1,1.5-23.2,4.5
		c-48.9,20.2-83.2,54.9-102.8,103.8c-3,7.6-4,16.6-3.5,25.2c0.5,15.6,10.1,25.2,25.2,25.2c11.1,0,22.2-2,31.7-6.6
		c43.3-19.2,74.6-50.9,94.2-93.7C1805.6,2216.4,1806.7,2204.8,1809.7,2194.7z M1355.6,2295c-1-4.5-1-13.6-4-21.2
		c-20.2-49.4-54.9-84.7-104.8-104.3c-7.6-3-16.6-4-25.2-3.5c-14.6,0.5-24.2,10.1-24.2,24.2c0,11.6,2,23.7,6,33.8
		c19.7,43.3,50.9,74.6,94.2,94.2c9.1,4,19.7,6.6,29.7,6.6C1344,2325.7,1353.6,2315.6,1355.6,2295z"/>
	<path fill="#231F20" d="M816.9,1611.6c-12.1-2-21.7-3.5-31.2-5.5c-29.7-5.5-59.5-11.1-87.7-21.7c-20.2-7.6-39.3-16.6-54.9-31.7
		c-14.1-13.6-31.7-22.2-49.4-30.2c-41.8-18.1-83.2-36.3-125.5-53.9c-25.2-10.6-46.4-26.7-60.5-49.9c-30.2-48.9-54.9-100.3-67-157.2
		c-7.6-36.3-8.1-72.6,3-108.9c6-19.2,16.6-34.3,33.8-45.4c34.8-23.2,71.1-42.3,111.4-54.4c22.7-6.6,45.4-7.6,68-1
		c27.2,8.6,54.4,17.6,82.1,26.2c0,9.1,0,17.1,0,25.2c0,50.9,6,100.3,21.7,148.7c5.5,16.6,12.1,32.3,21.2,47.4
		c51.9,85.7,92.2,176.4,122,271.6C807.3,1583.9,811.9,1596.5,816.9,1611.6z"/>
	<path fill="#231F20" d="M2187.6,1609.1c20.7-62.5,39.8-123,67-179.9c18.1-38.3,37.8-76.6,59.5-113.4
		c25.2-42.8,39.8-88.7,45.9-137.6c3-26.7,4-53.9,5-80.6c1-20.7,0.5-20.7,20.7-27.2c17.6-5.5,35.3-11.1,52.9-16.6
		c29.7-9.1,59-7.1,87.2,6.6c28.7,14.1,58,28.7,86.2,43.3c20.7,11.1,32.8,29.2,38.8,51.4c6.6,22.7,8.1,45.9,8.1,69.5
		c0,24.2-1,48.4-3,72.6c-0.5,9.1-3.5,18.1-7.1,26.7c-16.6,41.8-41.3,79.1-72.1,112.4c-12.6,13.6-28.2,23.2-44.9,30.2
		c-30.2,13.1-61,25.7-91.2,38.8c-9.1,4-18.6,8.1-27.7,11.6c-28.7,10.6-54.4,25.7-78.1,44.9c-14.1,11.6-30.7,19.7-47.9,24.7
		c-27.7,8.6-55.4,16.1-83.7,23.7C2199.2,1610.6,2194.2,1609.6,2187.6,1609.1z"/>
	<path fill="#231F20" stroke="#FF0000" stroke-miterlimit="10" d="M1061.8,1091.6"/>
	<path fill="#231F20" stroke="#000000" stroke-miterlimit="10" d="M2080.3,1824.8"/>
	<path fill="#231F20" stroke="#000000" stroke-miterlimit="10" d="M1877.2,1493.2"/>
</g>
</svg>
