<svg xmlns="http://www.w3.org/2000/svg" width="40" height="39" viewBox="0 0 40 39"><defs><style>.a{fill:none;}.b,.c,.d{fill:#231f20;}.c{stroke:red;}.c,.d{stroke-miterlimit:10;}.d{stroke:#000;}</style></defs><g transform="translate(-166 -827)"><path class="a" d="M0,0H39V39H0Z" transform="translate(167 827)"/><g transform="translate(0 36)"><path class="b" d="M2263.359,311.985a6.034,6.034,0,0,0-1.129,2.114l-.161.49a4.99,4.99,0,0,1-.336.8c-.155.3-.309.6-.43.912a2.912,2.912,0,0,1-.941,1.222,9.845,9.845,0,0,1-1.705,1.034,10.622,10.622,0,0,1-2.2.9c-.543.155-1.094.316-1.638.47a1.439,1.439,0,0,1-.141.033,7.3,7.3,0,0,0-.463-1.517,6.891,6.891,0,0,0-.813-1.363c.135-.013.235-.02.342-.027a18.507,18.507,0,0,0,3.3-.57c.631-.161,1.275-.289,1.893-.5a5.485,5.485,0,0,0,.954-.416,1.594,1.594,0,0,0,.665-.685c.194-.4.4-.806.6-1.215a9.043,9.043,0,0,1,.806-1.349,3,3,0,0,1,.786-.779c.054-.04.108-.088.162-.135h.228c.073.121.147.234.228.356C2263.359,311.837,2263.359,311.91,2263.359,311.985Z" transform="translate(-2057.363 482.601)"/><path class="b" d="M-.911,311.308c.013.013.027.033.04.047a3.03,3.03,0,0,1,.833.8,7.289,7.289,0,0,1,.731,1.228c.2.416.409.826.611,1.242a1.245,1.245,0,0,0,.57.59c.309.161.625.309.94.457a12.793,12.793,0,0,0,3.163.967c.5.095.873.148,1.376.208.457.053.786.095,1.262.148a6.646,6.646,0,0,0-1.27,2.893,3.722,3.722,0,0,1-.376-.115,13.063,13.063,0,0,0-1.484-.537,6.593,6.593,0,0,1-1.067-.4c-.645-.322-1.29-.631-1.926-.96a6.372,6.372,0,0,1-1.215-.819,2.1,2.1,0,0,1-.57-.773c-.161-.376-.356-.731-.524-1.108-.148-.342-.289-.691-.416-1.047a10.952,10.952,0,0,0-.49-1.276,4.571,4.571,0,0,0-.59-.879.4.4,0,0,0-.088-.067v-.322a.464.464,0,0,0,.06-.04c.067-.08.135-.168.194-.248A2.323,2.323,0,0,0-.911,311.308Z" transform="translate(167.4 482.7)"/><path class="b" d="M1224.647,2481.877c-.08-.014-.168-.033-.248-.04a4.464,4.464,0,0,1-1.175-.329,13.891,13.891,0,0,1-1.8-.933.38.38,0,0,1-.155-.154,1.716,1.716,0,0,1-.289-.926.57.57,0,0,1,.033-.208.253.253,0,0,1,.4-.148,3.9,3.9,0,0,0,1.786.524,13.5,13.5,0,0,0,2.156.06,9.3,9.3,0,0,0,1.678-.187,2.85,2.85,0,0,0,.954-.376.346.346,0,0,1,.088-.046.274.274,0,0,1,.4.2,1.52,1.52,0,0,1,.013.349,1.616,1.616,0,0,1-.269.7.516.516,0,0,1-.174.2,9.991,9.991,0,0,1-2.437,1.148c-.195.06-.4.08-.6.121-.04.006-.08.02-.121.026A1.59,1.59,0,0,1,1224.647,2481.877Z" transform="translate(-1038.697 -1656.208)"/><path class="b" d="M-.746,311.8c-.067.08-.128.168-.194.248-.013.02-.04.027-.06.04V311.8Z" transform="translate(167.005 482.207)"/><path class="b" d="M2984.128,312.356c-.073-.121-.148-.234-.228-.356h.228Z" transform="translate(-2778.131 482.009)"/><path class="b" d="M743.019,607.585l-2.867-4.888-2.9,4.477c-.033-.1-1.3-3.491-1.363-3.94a6.484,6.484,0,0,1-.053-1.7,5.3,5.3,0,0,1,.59-1.961,9.632,9.632,0,0,1,1.8-2.423,4.326,4.326,0,0,1,1.577-1,2.679,2.679,0,0,1,1.08-.135c.174.013.356.007.53.02a2,2,0,0,1,.409.053c.625.174,1.248.362,1.886.477a13.285,13.285,0,0,0,3.015.221,16.8,16.8,0,0,0,3.115-.477c.349-.08.7-.155,1.054-.215a1.8,1.8,0,0,1,.464.007c.329.027.651.06.974.108a3.073,3.073,0,0,1,1.423.671,5.188,5.188,0,0,1,1.115,1.242,8.6,8.6,0,0,1,1.255,3.028,5.265,5.265,0,0,1-.188,2.792c-.04.121-.886,2.028-1.309,2.96a6.645,6.645,0,0,0-.4,1.122c-.2.751-.276,1.162-.422,1.571-.02.047-.04.161-.073.248l-2.719-4.371-2.377,3.565-3.141-4.978Z" transform="translate(-559.983 201.784)"/><path class="b" d="M894.929,1292.214c.027.06.04.094.053.128l2.021,3.282c.04.135-.806,2.712-1.034,3.377-.08.228-.155.457-.234.685a.11.11,0,0,1-.047-.02,3,3,0,0,0-1.531-.517,1.565,1.565,0,0,1-.738-.248,5.647,5.647,0,0,0-1.961-.947,6.923,6.923,0,0,0-3.33.053,5.79,5.79,0,0,0-1.968,1.054.268.268,0,0,1-.161.047,5.891,5.891,0,0,0-1.094.141,1.844,1.844,0,0,0-.826.484c-.013.013-.033.027-.053.047a.233.233,0,0,1-.033-.053c-.362-.906-.738-1.382-1.047-2.316a.477.477,0,0,1-.027-.095,35.93,35.93,0,0,1-1.248-4.122s2.37-3.638,2.39-3.693c0,0,2.873,4.868,2.86,4.868.013,0,2.491-3.525,2.491-3.525l3.135,4.994C892.546,1295.852,894.929,1292.214,894.929,1292.214Z" transform="translate(-703.904 -482.469)"/><path class="b" d="M1093.909,1996.577c-.685-.04-1.369-.066-2.054-.135a2.589,2.589,0,0,1-1.765-.926,6.158,6.158,0,0,0-.563-.6,3.436,3.436,0,0,1-1.041-1.632c-.053-.168-.115-.336-.168-.5a.5.5,0,0,1-.013-.2,1.293,1.293,0,0,1,.04-.155.631.631,0,0,1,.369-.477,1.849,1.849,0,0,1,.751-.208c.148-.013.57-.013.718-.026a.308.308,0,0,0,.148-.053,3.512,3.512,0,0,1,.873-.671,4.931,4.931,0,0,1,1.625-.55,8.439,8.439,0,0,1,1.591-.033,5.336,5.336,0,0,1,2.054.618,3.3,3.3,0,0,1,.8.638.219.219,0,0,0,.174.053,5.7,5.7,0,0,1,1.081.088,1.293,1.293,0,0,1,.5.234.589.589,0,0,1,.195.658c-.08.241-.161.477-.241.718a4.14,4.14,0,0,1-.78,1.343,1.9,1.9,0,0,1-.3.276,2.822,2.822,0,0,0-.47.463,2.5,2.5,0,0,1-1.8.947l-1.491.121c-.08.006-.161,0-.241,0A.047.047,0,0,1,1093.909,1996.577Zm4-3.47a.382.382,0,0,0-.409-.362.793.793,0,0,0-.309.06,2.413,2.413,0,0,0-1.37,1.383.81.81,0,0,0-.047.336.317.317,0,0,0,.336.336.978.978,0,0,0,.422-.088,2.427,2.427,0,0,0,1.255-1.248A2.244,2.244,0,0,0,1097.911,1993.107Zm-6.049,1.336a1.468,1.468,0,0,0-.053-.282,2.413,2.413,0,0,0-1.4-1.39.809.809,0,0,0-.336-.047.311.311,0,0,0-.323.322,1.257,1.257,0,0,0,.08.45,2.441,2.441,0,0,0,1.255,1.255,1.016,1.016,0,0,0,.4.088C1091.708,1994.852,1091.835,1994.717,1091.862,1994.443Z" transform="translate(-907.785 -1174.017)"/><path class="b" d="M341.574,1054.839c-.161-.027-.289-.047-.416-.073a6.844,6.844,0,0,1-1.168-.289,2.056,2.056,0,0,1-.731-.422,2.263,2.263,0,0,0-.658-.4c-.557-.241-1.108-.483-1.672-.718a1.669,1.669,0,0,1-.806-.665,6.6,6.6,0,0,1-.893-2.094,2.866,2.866,0,0,1,.04-1.451,1.063,1.063,0,0,1,.45-.6,5.538,5.538,0,0,1,1.484-.725,1.59,1.59,0,0,1,.906-.013c.362.115.725.235,1.094.349v.336a6.349,6.349,0,0,0,.289,1.981,3.074,3.074,0,0,0,.282.631,16.43,16.43,0,0,1,1.625,3.618C341.446,1054.47,341.507,1054.638,341.574,1054.839Z" transform="translate(-164.672 -243.517)"/><path class="b" d="M2187.6,1055.717a20.382,20.382,0,0,1,.893-2.4c.241-.51.5-1.02.793-1.511a4.722,4.722,0,0,0,.611-1.833c.04-.356.053-.718.066-1.074.013-.276.007-.276.276-.362l.7-.221a1.542,1.542,0,0,1,1.162.088c.382.188.773.382,1.148.577a1.043,1.043,0,0,1,.516.685,3.283,3.283,0,0,1,.108.926q0,.484-.04.967a1.068,1.068,0,0,1-.094.356,4.825,4.825,0,0,1-.961,1.5,1.693,1.693,0,0,1-.6.4c-.4.174-.812.342-1.215.517-.121.053-.248.108-.369.155a3.642,3.642,0,0,0-1.04.6,1.786,1.786,0,0,1-.638.329c-.369.115-.738.214-1.114.316A1.5,1.5,0,0,1,2187.6,1055.717Z" transform="translate(-1992.44 -244.428)"/><path class="c" d="M1061.8,1091.6" transform="translate(-881.637 -287.205)"/><path class="d" d="M2080.3,1824.8" transform="translate(-1886.569 -1010.638)"/><path class="d" d="M1877.2,1493.2" transform="translate(-1686.174 -683.455)"/></g></g></svg>