<svg xmlns="http://www.w3.org/2000/svg" width="40" height="40" viewBox="0 0 40 40"><defs><style>.a{fill:none;}</style></defs><g transform="translate(-175 -590)"><path class="a" d="M0,0H40V40H0Z" transform="translate(175 590)"/><g transform="translate(176 595)"><path d="M2263.11,311.97a5.884,5.884,0,0,0-1.1,2.061l-.157.478a4.849,4.849,0,0,1-.327.779c-.151.295-.3.59-.419.89a2.842,2.842,0,0,1-.917,1.191,9.612,9.612,0,0,1-1.662,1.008,10.362,10.362,0,0,1-2.147.877c-.53.151-1.066.308-1.6.459a1.4,1.4,0,0,1-.138.032,7.11,7.11,0,0,0-.452-1.479,6.723,6.723,0,0,0-.793-1.329c.131-.013.229-.019.334-.026a18.044,18.044,0,0,0,3.22-.556c.615-.157,1.243-.282,1.845-.491a5.346,5.346,0,0,0,.93-.405,1.553,1.553,0,0,0,.648-.668c.189-.392.386-.786.583-1.185a8.8,8.8,0,0,1,.786-1.316,2.925,2.925,0,0,1,.766-.76c.052-.039.105-.086.158-.131h.222c.071.118.144.229.222.347C2263.11,311.826,2263.11,311.9,2263.11,311.97Z" transform="translate(-2224.114 -311.399)"/><path d="M-.923,311.308c.013.013.026.032.039.045a2.954,2.954,0,0,1,.812.779,7.107,7.107,0,0,1,.713,1.2c.2.405.4.805.6,1.211a1.214,1.214,0,0,0,.556.575c.3.157.609.3.917.445a12.473,12.473,0,0,0,3.083.943c.484.092.851.144,1.342.2.446.052.766.092,1.23.144a6.48,6.48,0,0,0-1.238,2.821,3.625,3.625,0,0,1-.366-.112,12.741,12.741,0,0,0-1.447-.523,6.427,6.427,0,0,1-1.04-.386c-.629-.314-1.257-.616-1.878-.936a6.214,6.214,0,0,1-1.185-.8,2.046,2.046,0,0,1-.556-.753c-.157-.366-.347-.713-.51-1.081-.144-.334-.282-.674-.405-1.021a10.675,10.675,0,0,0-.478-1.244,4.456,4.456,0,0,0-.575-.857.391.391,0,0,0-.086-.065v-.314a.449.449,0,0,0,.058-.039c.065-.078.131-.164.19-.242A2.268,2.268,0,0,0-.923,311.308Z" transform="translate(1.4 -311.3)"/><path d="M1224.555,2481.807c-.078-.013-.164-.032-.242-.039a4.361,4.361,0,0,1-1.146-.321,13.541,13.541,0,0,1-1.755-.909.372.372,0,0,1-.151-.15,1.673,1.673,0,0,1-.282-.9.553.553,0,0,1,.032-.2.247.247,0,0,1,.386-.144,3.807,3.807,0,0,0,1.742.51,13.141,13.141,0,0,0,2.1.058,9.059,9.059,0,0,0,1.636-.183,2.775,2.775,0,0,0,.93-.366.333.333,0,0,1,.086-.045.267.267,0,0,1,.386.2,1.478,1.478,0,0,1,.013.34,1.576,1.576,0,0,1-.262.687.5.5,0,0,1-.17.2,9.735,9.735,0,0,1-2.376,1.12c-.19.058-.386.078-.583.118-.039.006-.078.019-.118.026A1.574,1.574,0,0,1,1224.555,2481.807Z" transform="translate(-1205.104 -2450.93)"/><path d="M742.839,607.3l-2.8-4.765-2.828,4.365c-.032-.1-1.264-3.4-1.329-3.842a6.321,6.321,0,0,1-.052-1.656,5.162,5.162,0,0,1,.575-1.912,9.391,9.391,0,0,1,1.755-2.363,4.217,4.217,0,0,1,1.538-.975,2.612,2.612,0,0,1,1.053-.131c.17.013.347.006.517.02a1.942,1.942,0,0,1,.4.052c.609.17,1.217.353,1.839.465a12.953,12.953,0,0,0,2.939.216,16.38,16.38,0,0,0,3.037-.465c.34-.078.687-.151,1.027-.209a1.761,1.761,0,0,1,.452.006c.321.026.635.058.949.105a3,3,0,0,1,1.387.655,5.059,5.059,0,0,1,1.087,1.211,8.385,8.385,0,0,1,1.224,2.952,5.134,5.134,0,0,1-.183,2.722c-.039.118-.864,1.977-1.277,2.886a6.48,6.48,0,0,0-.392,1.094c-.2.733-.269,1.133-.412,1.531-.02.045-.039.157-.072.241l-2.651-4.261-2.317,3.476-3.063-4.854Z" transform="translate(-726.228 -592.311)"/><path d="M894.6,1292.146c.026.058.039.092.052.125l1.97,3.2c.039.131-.786,2.645-1.008,3.293-.078.222-.151.446-.229.668a.105.105,0,0,1-.045-.019,2.922,2.922,0,0,0-1.492-.5,1.524,1.524,0,0,1-.72-.242,5.5,5.5,0,0,0-1.912-.923,6.75,6.75,0,0,0-3.247.052,5.646,5.646,0,0,0-1.918,1.027.262.262,0,0,1-.157.046,5.746,5.746,0,0,0-1.066.138,1.8,1.8,0,0,0-.805.472c-.013.013-.033.026-.052.045a.226.226,0,0,1-.032-.052c-.353-.883-.719-1.348-1.021-2.258a.469.469,0,0,1-.026-.092,35.026,35.026,0,0,1-1.217-4.019s2.311-3.547,2.33-3.6c0,0,2.8,4.746,2.789,4.746.013,0,2.429-3.437,2.429-3.437l3.056,4.869C892.274,1295.693,894.6,1292.146,894.6,1292.146Z" transform="translate(-870.198 -1276.795)"/><path d="M1093.769,1996.422c-.668-.039-1.335-.065-2-.131a2.525,2.525,0,0,1-1.721-.9,5.994,5.994,0,0,0-.549-.583,3.351,3.351,0,0,1-1.015-1.591c-.052-.164-.112-.328-.164-.491a.49.49,0,0,1-.013-.2,1.251,1.251,0,0,1,.039-.151.615.615,0,0,1,.36-.465,1.8,1.8,0,0,1,.733-.2c.144-.013.556-.013.7-.026a.3.3,0,0,0,.144-.052,3.425,3.425,0,0,1,.851-.655,4.808,4.808,0,0,1,1.584-.536,8.224,8.224,0,0,1,1.551-.032,5.2,5.2,0,0,1,2,.6,3.217,3.217,0,0,1,.779.622.214.214,0,0,0,.17.052,5.554,5.554,0,0,1,1.054.086,1.262,1.262,0,0,1,.491.229.575.575,0,0,1,.19.642c-.078.235-.157.465-.235.7a4.035,4.035,0,0,1-.76,1.309,1.847,1.847,0,0,1-.288.269,2.747,2.747,0,0,0-.458.452,2.438,2.438,0,0,1-1.755.923l-1.453.118c-.078.006-.157,0-.235,0A.045.045,0,0,1,1093.769,1996.422Zm3.9-3.383a.373.373,0,0,0-.4-.353.773.773,0,0,0-.3.059,2.352,2.352,0,0,0-1.335,1.348.789.789,0,0,0-.045.327.309.309,0,0,0,.327.327.954.954,0,0,0,.412-.085,2.367,2.367,0,0,0,1.224-1.217A2.175,2.175,0,0,0,1097.671,1993.039Zm-5.9,1.3a1.437,1.437,0,0,0-.052-.275,2.352,2.352,0,0,0-1.361-1.355.787.787,0,0,0-.327-.046.3.3,0,0,0-.314.314,1.226,1.226,0,0,0,.078.439,2.38,2.38,0,0,0,1.224,1.224.99.99,0,0,0,.386.086C1091.622,1994.74,1091.747,1994.609,1091.773,1994.341Z" transform="translate(-1074.148 -1968.576)"/><path d="M341.413,1054.651c-.157-.026-.282-.045-.405-.072a6.675,6.675,0,0,1-1.139-.282,2,2,0,0,1-.713-.412,2.208,2.208,0,0,0-.642-.392c-.543-.235-1.081-.471-1.63-.7a1.627,1.627,0,0,1-.786-.648,6.433,6.433,0,0,1-.87-2.042,2.794,2.794,0,0,1,.039-1.414,1.036,1.036,0,0,1,.439-.59,5.4,5.4,0,0,1,1.447-.707,1.55,1.55,0,0,1,.883-.013c.353.112.707.229,1.066.34v.327a6.19,6.19,0,0,0,.282,1.931,3,3,0,0,0,.275.615,16.018,16.018,0,0,1,1.585,3.528C341.288,1054.291,341.348,1054.455,341.413,1054.651Z" transform="translate(-330.785 -1037.762)"/><path d="M2187.6,1055.53a19.824,19.824,0,0,1,.87-2.337c.235-.5.491-.995.773-1.473a4.6,4.6,0,0,0,.6-1.787c.039-.347.052-.7.065-1.047.013-.269.007-.269.269-.353l.687-.215a1.5,1.5,0,0,1,1.133.086c.373.183.754.373,1.12.563a1.017,1.017,0,0,1,.5.667,3.2,3.2,0,0,1,.105.9q0,.472-.039.943a1.045,1.045,0,0,1-.092.347,4.7,4.7,0,0,1-.937,1.46,1.652,1.652,0,0,1-.583.393c-.392.17-.792.334-1.185.5-.118.052-.242.105-.36.151a3.549,3.549,0,0,0-1.014.583,1.741,1.741,0,0,1-.623.321c-.36.112-.719.209-1.086.308A1.471,1.471,0,0,1,2187.6,1055.53Z" transform="translate(-2159.169 -1038.674)"/></g></g></svg>