<svg xmlns="http://www.w3.org/2000/svg" width="40" height="40" viewBox="0 0 40 40"><defs><style>.a{fill:none;}</style></defs><g transform="translate(-783 -519)"><rect class="a" width="40" height="40" transform="translate(783 519)"/><path d="M25,4a3,3,0,1,0-3-3A3,3,0,0,0,25,4ZM8,18a8,8,0,1,0,8,8A8,8,0,0,0,8,18ZM8,31a5,5,0,1,1,5-5A5,5,0,0,1,8,31ZM32,18a8,8,0,1,0,8,8A8,8,0,0,0,32,18Zm0,13a5,5,0,1,1,5-5A5,5,0,0,1,32,31ZM25.062,11.171A1.5,1.5,0,0,0,26,11.5h4a1.5,1.5,0,0,0,0-3H26.526L21.938,4.829a1.5,1.5,0,0,0-1.914.032l-6.5,7.569a2,2,0,0,0,.191,3.184L18.5,18.8V26a1.5,1.5,0,1,0,3,0V18a1.5,1.5,0,0,0-.668-1.25L17.7,14.662l4.456-5.819Z" transform="translate(783 523)"/></g></svg>