<svg xmlns="http://www.w3.org/2000/svg" width="40" height="40" viewBox="0 0 40 40"><defs><style>.a{fill:none;}</style></defs><g transform="translate(-979 -607)"><path d="M31.116,49.866,17.9,63.116a1.072,1.072,0,0,1-1.518,0L3.17,49.866a1.072,1.072,0,0,1,0-1.518L4.92,46.6a1.06,1.06,0,0,1,1.527.018l8.366,8.67V33.071A1.075,1.075,0,0,1,15.884,32h2.5a1.075,1.075,0,0,1,1.071,1.071V55.286l8.366-8.67a1.075,1.075,0,0,1,1.527-.018l1.75,1.75a1.057,1.057,0,0,1,.018,1.518Zm2.1,17.491H1.071A1.075,1.075,0,0,0,0,68.429v2.5A1.075,1.075,0,0,0,1.071,72H33.214a1.075,1.075,0,0,0,1.071-1.071v-2.5A1.075,1.075,0,0,0,33.214,67.357Z" transform="translate(982 575)"/><rect class="a" width="40" height="40" transform="translate(979 607)"/></g></svg>