<svg xmlns="http://www.w3.org/2000/svg" width="40" height="40" viewBox="0 0 40 40"><defs><style>.a{fill:none;}</style></defs><g transform="translate(-304 -700)"><g transform="translate(1 4)"><path d="M33.027,0a10,10,0,0,1,1.22.4,4.494,4.494,0,0,1,2.823,4.326c.032,4.6,0,9.2,0,13.806a1.165,1.165,0,0,1-.028.3,4.866,4.866,0,0,0-3.055.364V6.217H3.107c0,.128-.024.268-.024.4V32.151A1.6,1.6,0,0,0,4.9,33.982H20.1c-.3,1.008-.576,2-.876,2.947a.344.344,0,0,1-.268.144H4.85A4.65,4.65,0,0,1,.216,33.814c-.08-.26-.144-.524-.216-.8V4.066a1.487,1.487,0,0,0,.076-.2A4.51,4.51,0,0,1,2.743.424,10.368,10.368,0,0,1,4.078,0Z" transform="translate(303 696)"/><path d="M64.013,64.31l4.894,4.854c-.076.084-.164.18-.252.268q-3.6,3.6-7.229,7.2a1.655,1.655,0,0,1-.656.4c-1.707.52-3.423,1.02-5.142,1.511a1.224,1.224,0,0,1-.608.032.64.64,0,0,1-.432-.8q.8-2.8,1.627-5.554a.9.9,0,0,1,.232-.356q3.742-3.77,7.485-7.5A.244.244,0,0,1,64.013,64.31ZM60.3,75.713c-.144-.764-.28-1.5-.428-2.219a.32.32,0,0,0-.18-.216c-.732-.164-1.471-.312-2.223-.464-.272.928-.508,1.823-.8,2.7a.8.8,0,0,0,.268.876.584.584,0,0,0,.736.108Z" transform="translate(270.255 657.404)"/><path d="M40.941,46.42v3.031H19.35V46.42Z" transform="translate(291.387 668.141)"/><path d="M40.931,31v3.035H19.34V31Z" transform="translate(291.393 677.395)"/><path d="M39.476,61.89c-1.427,1-2.8,2-4.214,2.951a1.043,1.043,0,0,1-.512.112H19.74a2.023,2.023,0,0,1-.42-.032V61.89Z" transform="translate(291.405 658.856)"/><path d="M87.212,61.46,82.59,56.9c.684-.728,1.323-1.487,2.051-2.143a1.483,1.483,0,0,1,1.947.1c.872.824,1.723,1.671,2.543,2.547a1.6,1.6,0,0,1,0,2.143,3.8,3.8,0,0,1-.268.288Z" transform="translate(253.433 663.329)"/></g><rect class="a" width="40" height="39" transform="translate(304 700)"/></g></svg>