<svg xmlns="http://www.w3.org/2000/svg" width="40" height="40" viewBox="0 0 40 40"><path d="M39.991,58.786,40,70.929A1.075,1.075,0,0,1,38.929,72l-12.143-.009a1.075,1.075,0,0,1-1.071-1.071V68.437A1.073,1.073,0,0,1,26.8,67.366l5.482.205.125-.125L20,55.036,7.589,67.446l.125.125,5.482-.205a1.073,1.073,0,0,1,1.089,1.071V70.92a1.075,1.075,0,0,1-1.071,1.071L1.071,72A1.075,1.075,0,0,1,0,70.929L.009,58.786A1.075,1.075,0,0,1,1.08,57.714H3.563A1.073,1.073,0,0,1,4.634,58.8l-.205,5.482.125.125L16.964,52,4.554,39.589l-.125.125L4.634,45.2a1.073,1.073,0,0,1-1.071,1.089H1.08A1.075,1.075,0,0,1,.009,45.214L0,33.071A1.075,1.075,0,0,1,1.071,32l12.143.009a1.075,1.075,0,0,1,1.071,1.071v2.482A1.073,1.073,0,0,1,13.2,36.634l-5.482-.205-.125.125L20,48.964,32.411,36.554l-.125-.125-5.482.205a1.073,1.073,0,0,1-1.089-1.071V33.08a1.075,1.075,0,0,1,1.071-1.071L38.929,32A1.075,1.075,0,0,1,40,33.071l-.009,12.143a1.075,1.075,0,0,1-1.071,1.071H36.438A1.073,1.073,0,0,1,35.366,45.2l.205-5.482-.125-.125L23.036,52,35.446,64.411l.125-.125L35.366,58.8a1.073,1.073,0,0,1,1.071-1.089H38.92A1.075,1.075,0,0,1,39.991,58.786Z" transform="translate(0 -32)"/></svg>