<svg xmlns="http://www.w3.org/2000/svg" width="40" height="40" viewBox="0 0 40 40"><defs><style>.a{fill:none;}</style></defs><g transform="translate(-1194 -417)"><path class="a" d="M0,0H40V40H0Z" transform="translate(1194 417)"/><path d="M20,53a2,2,0,1,1-2,2,2,2,0,0,1,2-2m0-3a5,5,0,1,0,5,5A5,5,0,0,0,20,50Zm12.793-2.989a.752.752,0,0,0-.037-1.072,18.946,18.946,0,0,0-25.514,0,.753.753,0,0,0-.037,1.072L8.237,49.1a.742.742,0,0,0,1.039.038,15.984,15.984,0,0,1,21.451,0,.742.742,0,0,0,1.039-.038l1.029-2.086Zm6.964-8.374a29.375,29.375,0,0,0-39.514,0A.737.737,0,0,0,.209,39.7l1.038,2.074a.756.756,0,0,0,1.051.034,26.342,26.342,0,0,1,35.409,0,.756.756,0,0,0,1.051-.034L39.794,39.7A.737.737,0,0,0,39.759,38.64Z" transform="translate(1193.998 391.996)"/></g></svg>