<svg xmlns="http://www.w3.org/2000/svg" width="40" height="40" viewBox="0 0 40 40"><path d="M35.714,32H4.286A4.287,4.287,0,0,0,0,36.286V67.714A4.287,4.287,0,0,0,4.286,72H35.714A4.287,4.287,0,0,0,40,67.714V36.286A4.287,4.287,0,0,0,35.714,32Zm0,35.179a.537.537,0,0,1-.536.536H4.821a.537.537,0,0,1-.536-.536V36.821a.537.537,0,0,1,.536-.536H35.179a.537.537,0,0,1,.536.536Zm-15-25.9H13.571a1.433,1.433,0,0,0-1.429,1.429V61.991a1.433,1.433,0,0,0,1.429,1.429H15a1.433,1.433,0,0,0,1.429-1.429v-5h4.286a7.857,7.857,0,1,0,0-15.714Zm0,11.438H16.429V45.571h4.286a3.571,3.571,0,0,1,0,7.143Z" transform="translate(0 -32)"/></svg>