<svg xmlns="http://www.w3.org/2000/svg" width="40" height="40" viewBox="0 0 40 40"><path d="M39.07,31.233l.832,1.679a.937.937,0,0,1-.422,1.255L34.537,36.68a1.875,1.875,0,0,1-2.545-.916L26.909,24.375H14.375a1.875,1.875,0,0,1-1.859-1.628C9.823,2.55,10.021,4.1,10,3.75a3.75,3.75,0,1,1,4.262,3.714l.755,5.661H26.563a.938.938,0,0,1,.938.937v1.875a.938.938,0,0,1-.938.937H15.517l.5,3.75H28.125a1.875,1.875,0,0,1,1.712,1.111l4.784,10.718,3.19-1.643A.937.937,0,0,1,39.07,31.233ZM24.476,28.125h-.9A10,10,0,1,1,8.1,18l-.538-4.03A13.749,13.749,0,1,0,26.222,32.036Z" transform="translate(0 0)"/></svg>