<svg id="Layer_1" data-name="Layer 1" xmlns="http://www.w3.org/2000/svg" viewBox="0 0 486.75 512"><defs><style>.cls-1{fill:#1d1d1b;}</style></defs><title>family</title><path class="cls-1" d="M496,333.5l-48-139a63.29,63.29,0,0,0-17.4-26.6,100,100,0,1,0-150.4-.1,64.9,64.9,0,0,0-17.4,26.6l-4,11.6c-1.61-.13-3.23-.22-4.87-.22A56.7,56.7,0,0,0,238.23,208a80.6,80.6,0,0,0-153.94,0,56.83,56.83,0,0,0-15.67-2.22A56,56,0,0,0,29,301.45l38.09,38.07V458a56.1,56.1,0,0,0,56,56h5.45a55.94,55.94,0,0,0,32.69-10.54A55.9,55.9,0,0,0,194,514h5.44a56.1,56.1,0,0,0,56-56V414.85A64.08,64.08,0,0,0,275.36,418v32a64.06,64.06,0,0,0,64,64h32a64.06,64.06,0,0,0,64-64V418A64,64,0,0,0,496,333.5ZM355.36,50a52,52,0,1,1-52,52A52,52,0,0,1,355.36,50ZM161.26,198a33.87,33.87,0,1,1-33.87,33.87A33.91,33.91,0,0,1,161.26,198ZM225,304l-14.16,14.16-2,2.05V458a9.34,9.34,0,0,1-9.35,9.35H194A9.34,9.34,0,0,1,184.6,458V385.58H137.91V458a9.34,9.34,0,0,1-9.34,9.35h-5.45a9.35,9.35,0,0,1-9.35-9.35V320.18l-2-2.05L62,268.43a9.35,9.35,0,0,1,13.22-13.22l27.52,27.52A82.69,82.69,0,0,0,161.26,307h0a82.68,82.68,0,0,0,58.49-24.23l19.13-19.12,8.39-8.39a9.34,9.34,0,0,1,13.22,0,9.36,9.36,0,0,1,0,13.21Zm210,66h-47.6v80a16,16,0,0,1-16,16h-32a16,16,0,0,1-16-16V370h-48a16,16,0,0,1-15.1-21.4l7.35-21.25,33.22-96.14L308.16,210a16,16,0,0,1,15.2-10.9h7.9a100.75,100.75,0,0,0,48.2,0h7.9a16,16,0,0,1,15.2,10.9l48,138.9A16.08,16.08,0,0,1,435,370Z" transform="translate(-12.6 -2)"/></svg>