<svg xmlns="http://www.w3.org/2000/svg" width="40" height="40" viewBox="0 0 40 40"><defs><style>.a{fill:none;}</style></defs><g transform="translate(-230 -231)"><path class="a" d="M0,0H40V40H0Z" transform="translate(230 231)"/><path d="M35.812,34.66C31.3,30.627,24.32,31.233,20,35.9,15.68,31.233,8.7,30.619,4.187,34.66c-5.875,5.253-5.016,13.816-.828,18.355l13.7,14.828a3.938,3.938,0,0,0,5.875.008l13.7-14.828C40.82,48.484,41.7,39.921,35.812,34.66ZM33.969,50.219l-13.7,14.828a.311.311,0,0,1-.531,0L6.031,50.219a8.923,8.923,0,0,1,.57-12.5,7.589,7.589,0,0,1,10.664.871L20,41.547l2.734-2.962a7.584,7.584,0,0,1,10.664-.88,8.963,8.963,0,0,1,.57,12.513Z" transform="translate(230 200.022)"/></g></svg>