<svg id="Layer_1" data-name="Layer 1" xmlns="http://www.w3.org/2000/svg" viewBox="0 0 511.99 507"><defs><style>.cls-1{fill:#1d1d1b;}</style></defs><title>ferry</title><path class="cls-1" d="M499.19,466.78c-22.32-2.32-43.74-10.58-59-23a21.54,21.54,0,0,0-26.94.09c-18.23,15-44.45,23.65-71.83,23.65-26.76,0-53.61-8.89-71.93-23.74a21.52,21.52,0,0,0-26.93.09c-18.23,15-44.46,23.65-71.84,23.65-26.76,0-53.61-8.89-71.92-23.74a21.54,21.54,0,0,0-26.94.09c-15.29,12.62-36.18,20.71-58.76,22.94C5.78,467.49,0,473.18,0,480.56v14.66c0,8.09,6.76,14.94,14.85,14.23,25.69-2.22,50.23-10.22,70.5-22.94,48.8,30.41,122.59,30.14,170.69,0,48.81,30.41,122.6,30.14,170.69,0,20.36,12.72,44.9,20.72,70.41,22.94,8.09.71,14.85-6.14,14.85-14.23V480.38c.09-7.29-5.6-12.89-12.8-13.6ZM293.84,151.86a21.34,21.34,0,1,0,21.34,21.33A21.34,21.34,0,0,0,293.84,151.86ZM497.77,294.18H355.23A28.4,28.4,0,0,0,365,272.76V244.31c0-.1-.06-.2-.06-.31a70.82,70.82,0,0,0,28.51-56.58V159a71.26,71.26,0,0,0-47.32-67L333.64,62.85A99.45,99.45,0,0,0,242.1,2.5H174.89A99.46,99.46,0,0,0,83.37,62.85L70.93,91.94a71.25,71.25,0,0,0-47.35,67v28.45A70.8,70.8,0,0,0,52.09,244c0,.11-.06.21-.06.31v28.45a28.39,28.39,0,0,0,9.72,21.42H14.22A14.22,14.22,0,0,0,0,308.4v14.22a14.23,14.23,0,0,0,14.22,14.23h29a71,71,0,0,0,10.45,28.26c8.75,14,22.29,26.1,39.14,35.3l.8.43c.49.27,1,.53,1.48.78,36.88,18.84,84.76,22.16,125.37,10.26A142.43,142.43,0,0,0,256,395.67a140,140,0,0,0,30.36,14.53c39.95,13.24,87.54,11.22,124.89-5.78,20.63-9.58,37.14-23.29,47.21-39.49a71,71,0,0,0,10.34-28.08h29A14.23,14.23,0,0,0,512,322.62V308.4A14.22,14.22,0,0,0,497.77,294.18ZM66.25,159A28.45,28.45,0,0,1,94.7,130.52h6.1l21.8-50.86a56.9,56.9,0,0,1,52.29-34.49H242.1a56.9,56.9,0,0,1,52.29,34.49l21.8,50.86h6.1A28.45,28.45,0,0,1,350.74,159v28.45a28.45,28.45,0,0,1-28.45,28.45H94.7a28.45,28.45,0,0,1-28.45-28.45Zm47.17,135.21a28.4,28.4,0,0,0,9.73-21.42V258.54H293.84v14.22a28.4,28.4,0,0,0,9.73,21.42Zm9.73-142.32a21.34,21.34,0,1,0,21.33,21.33A21.33,21.33,0,0,0,123.15,151.86ZM268.34,91.09A28.51,28.51,0,0,0,242.1,73.62H174.89a28.46,28.46,0,0,0-26.15,17.25l-17.41,39.65H285.66Z" transform="translate(0 -2.5)"/></svg>