<svg xmlns="http://www.w3.org/2000/svg" width="40" height="40" viewBox="0 0 40 40"><defs><style>.a{fill:none;}</style></defs><g transform="translate(-920 -417)"><path class="a" d="M0,0H40V40H0Z" transform="translate(920 417)"/><path d="M12.222,6.667A3.333,3.333,0,1,0,15.556,10,3.333,3.333,0,0,0,12.222,6.667Zm13.333,0A3.333,3.333,0,1,0,28.889,10,3.333,3.333,0,0,0,25.556,6.667Zm12.659,10a1.784,1.784,0,0,0-1.015.319l-6.089,4.072v.054a4.41,4.41,0,0,0-.72-2.413,9.964,9.964,0,1,0-11.5-16.1A9.958,9.958,0,0,0,4.824,16.667h-2.6A2.222,2.222,0,0,0,0,18.889v4.444a2.222,2.222,0,0,0,2.222,2.222H5.556v5.556A4.444,4.444,0,0,0,10,35.556H26.667a4.444,4.444,0,0,0,4.444-4.444v.051L37.2,35.233A1.782,1.782,0,0,0,40,33.8V18.418A1.767,1.767,0,0,0,38.215,16.667ZM27.778,31.111a1.111,1.111,0,0,1-1.111,1.111H10a1.111,1.111,0,0,1-1.111-1.111V22.222H3.333V20H26.667a1.111,1.111,0,0,1,1.111,1.111ZM25.556,16.667H12.222a6.667,6.667,0,1,1,4.436-11.6l2.231,2.014L21.12,5.069a6.652,6.652,0,1,1,4.435,11.6Zm11.111,14.2-5.556-3.714V25.069l5.556-3.715Z" transform="translate(920 419)"/></g></svg>