<svg xmlns="http://www.w3.org/2000/svg" width="40" height="40" viewBox="0 0 40 40"><defs><style>.a{fill:none;}</style></defs><g transform="translate(-861 -606)"><rect class="a" width="40" height="40" transform="translate(861 606)"/><path d="M36.25,26H34.211A6.812,6.812,0,0,0,35,22.875,6.885,6.885,0,0,0,28.125,16c-3.25,0-5.352,1.664-8.047,5.336-2.7-3.672-4.8-5.336-8.047-5.336a6.885,6.885,0,0,0-6.875,6.875A6.716,6.716,0,0,0,5.945,26H3.75A3.751,3.751,0,0,0,0,29.75v10A1.254,1.254,0,0,0,1.25,41H2.5v8.391A4.114,4.114,0,0,0,6.609,53.5H33.391A4.114,4.114,0,0,0,37.5,49.391V41h1.25A1.254,1.254,0,0,0,40,39.75v-10A3.751,3.751,0,0,0,36.25,26ZM18.125,49.75H6.609a.358.358,0,0,1-.359-.359V41H15V37.25H3.75v-7.5H18.125ZM12.023,26a3.125,3.125,0,0,1,0-6.25c1.719,0,2.93.594,6.57,6.016L18.75,26Zm9.531-.234c3.641-5.422,4.852-6.016,6.57-6.016a3.125,3.125,0,0,1,0,6.25H21.4ZM36.25,37.25H25V41h8.75v8.391a.358.358,0,0,1-.359.359H21.875v-20H36.25Z" transform="translate(861 591)"/></g></svg>