<svg xmlns="http://www.w3.org/2000/svg" width="40" height="40" viewBox="0 0 40 40"><defs><style>.a{fill:none;}</style></defs><g transform="translate(-646 -510)"><path class="a" d="M0,0H40V40H0Z" transform="translate(646 510)"/><path d="M8.914,19.693l2.246-8.678A2.73,2.73,0,0,0,9.133,7.68a6.4,6.4,0,0,0-7.671,4.475L.086,17.5a2.727,2.727,0,0,0,2.027,3.335l3.469.831A2.777,2.777,0,0,0,8.914,19.693ZM5.53,17.8l-1.552-.373L5.094,13.1A2.526,2.526,0,0,1,7.22,11.276Zm23.217-5.3H27.5a1.25,1.25,0,0,0-1.25,1.25v1.875h-2.9l-3.913-4.466a3.966,3.966,0,0,0-6.65,1.846l-1.76,7.037a4.39,4.39,0,0,0,1.15,4.159l5.766,5.766a.627.627,0,0,1,.183.442v7.715a1.875,1.875,0,0,0,3.75,0V30.41a4.338,4.338,0,0,0-1.282-3.093l-3.935-3.936,1.918-7.516,2.512,2.871a1.879,1.879,0,0,0,1.411.64h3.75V38.75A1.25,1.25,0,0,0,27.5,40h1.25A1.25,1.25,0,0,0,30,38.75v-25A1.25,1.25,0,0,0,28.747,12.5ZM9.518,24.812,6.3,37.669a1.874,1.874,0,0,0,1.365,2.274A1.9,1.9,0,0,0,8.125,40a1.874,1.874,0,0,0,1.816-1.42l2.615-10.459L10.4,25.968A6.749,6.749,0,0,1,9.518,24.812ZM18.746,7.5A3.75,3.75,0,1,0,15,3.75a3.75,3.75,0,0,0,3.75,3.75Z" transform="translate(651.002 510)"/></g></svg>