<svg xmlns="http://www.w3.org/2000/svg" width="40" height="40" viewBox="0 0 40 40"><defs><style>.a{fill:none;}</style></defs><g transform="translate(-646 -417)"><path class="a" d="M0,0H40V40H0Z" transform="translate(646 417)"/><path d="M3.333,11.111H36.667A1.111,1.111,0,0,0,37.778,10V7.437a1.111,1.111,0,0,0-.721-1.04L20.781.142a2.221,2.221,0,0,0-1.561,0L2.943,6.4a1.111,1.111,0,0,0-.721,1.04V10A1.111,1.111,0,0,0,3.333,11.111ZM20,3.412,31.36,7.778H8.64Zm18.889,28.81H37.778V27.778a2.4,2.4,0,0,0-2.54-2.222h-1.9V13.333H30V25.556H25.556V13.333H22.222V25.556H17.778V13.333H14.444V25.556H10V13.333H6.667V25.556h-1.9a2.4,2.4,0,0,0-2.54,2.222v4.444H1.111A1.111,1.111,0,0,0,0,33.333v1.111a1.111,1.111,0,0,0,1.111,1.111H38.889A1.111,1.111,0,0,0,40,34.444V33.333A1.111,1.111,0,0,0,38.889,32.222Zm-4.444,0H5.556V28.889H34.444Z" transform="translate(646 419)"/></g></svg>