<svg xmlns="http://www.w3.org/2000/svg" width="40" height="31.105" viewBox="0 0 40 31.105"><path d="M19.454,40.12,6.652,50.664v11.38a1.111,1.111,0,0,0,1.111,1.111l7.781-.02a1.111,1.111,0,0,0,1.105-1.111V55.378a1.111,1.111,0,0,1,1.111-1.111H22.2a1.111,1.111,0,0,1,1.111,1.111v6.641a1.111,1.111,0,0,0,1.111,1.115l7.779.022a1.111,1.111,0,0,0,1.111-1.111V50.656L20.517,40.12a.846.846,0,0,0-1.062,0Zm20.223,7.167L33.872,42.5V32.883a.833.833,0,0,0-.833-.833H29.15a.833.833,0,0,0-.833.833v5.042L22.1,32.81a3.333,3.333,0,0,0-4.236,0L.287,47.286A.833.833,0,0,0,.176,48.46l1.771,2.153a.833.833,0,0,0,1.174.113L19.454,37.273a.846.846,0,0,1,1.062,0L36.851,50.726a.833.833,0,0,0,1.174-.111L39.8,48.462a.833.833,0,0,0-.118-1.176Z" transform="translate(0.015 -32.05)"/></svg>