<svg xmlns="http://www.w3.org/2000/svg" width="40" height="40" viewBox="0 0 40 40"><path d="M33.815,16.379A1.242,1.242,0,0,0,35.024,17.5h1.238a1.274,1.274,0,0,0,1.229-1.434,11.45,11.45,0,0,0-3.851-7.591A7.451,7.451,0,0,1,31.184,3.62,1.242,1.242,0,0,0,29.975,2.5H28.737a1.274,1.274,0,0,0-1.229,1.434,11.453,11.453,0,0,0,3.851,7.591A7.451,7.451,0,0,1,33.815,16.379Zm-7.5,0A1.242,1.242,0,0,0,27.524,17.5h1.238a1.274,1.274,0,0,0,1.229-1.434,11.45,11.45,0,0,0-3.851-7.591A7.451,7.451,0,0,1,23.684,3.62,1.242,1.242,0,0,0,22.475,2.5H21.237a1.274,1.274,0,0,0-1.229,1.434,11.453,11.453,0,0,0,3.851,7.591A7.451,7.451,0,0,1,26.315,16.379ZM37.5,22.5h-15L13.834,16a5,5,0,0,0-3-1H5a5,5,0,0,0-5,5V35a5,5,0,0,0,5,5H35a5,5,0,0,0,5-5V25A2.5,2.5,0,0,0,37.5,22.5ZM3.75,20A1.252,1.252,0,0,1,5,18.75h5.834a1.259,1.259,0,0,1,.75.25l4.666,3.5H3.75Zm5,16.25H5A1.252,1.252,0,0,1,3.75,35V26.25h5Zm9.375,0H12.5v-10h5.625Zm9.375,0H21.875v-10H27.5ZM36.25,35A1.252,1.252,0,0,1,35,36.25H31.25v-10h5ZM7.5,12.5A6.25,6.25,0,1,0,1.25,6.25,6.25,6.25,0,0,0,7.5,12.5Zm0-8.75A2.5,2.5,0,1,1,5,6.25,2.5,2.5,0,0,1,7.5,3.75Z"/></svg>