<svg xmlns="http://www.w3.org/2000/svg" width="40" height="40" viewBox="0 0 40 40"><path d="M28,8A20,20,0,1,0,48,28,20,20,0,0,0,28,8Zm0,36.129A16.129,16.129,0,1,1,44.129,28,16.119,16.119,0,0,1,28,44.129Zm0-27.258a3.387,3.387,0,1,1-3.387,3.387A3.387,3.387,0,0,1,28,16.871Zm4.516,20.484a.968.968,0,0,1-.968.968h-7.1a.968.968,0,0,1-.968-.968V35.419a.968.968,0,0,1,.968-.968h.968V29.29h-.968a.968.968,0,0,1-.968-.968V26.387a.968.968,0,0,1,.968-.968h5.161a.968.968,0,0,1,.968.968v8.065h.968a.968.968,0,0,1,.968.968Z" transform="translate(-8 -8)"/></svg>