<?xml version="1.0" encoding="utf-8"?>
<!-- Generator: Adobe Illustrator 24.1.2, SVG Export Plug-In . SVG Version: 6.00 Build 0)  -->
<svg version="1.1" id="Layer_1" xmlns="http://www.w3.org/2000/svg" xmlns:xlink="http://www.w3.org/1999/xlink" x="0px" y="0px"
	 viewBox="0 0 40 40" style="enable-background:new 0 0 40 40;" xml:space="preserve">
<style type="text/css">
	.st0{fill:#292929;}
	.st1{fill:#FFFFFF;}
</style>
<g transform="translate(-568 -231)">
	<circle class="st0" cx="588" cy="251" r="18.6"/>
	<path class="st1" d="M588,231c-11,0-20,9-20,20c0,11,9,20,20,20s20-9,20-20C608,240,599,231,588,231z M588,267.1
		c-8.9,0-16.1-7.2-16.1-16.1c0-8.9,7.2-16.1,16.1-16.1s16.1,7.2,16.1,16.1C604.1,259.9,596.9,267.1,588,267.1
		C588,267.1,588,267.1,588,267.1z M588,239.9c1.9,0,3.4,1.5,3.4,3.4c0,1.9-1.5,3.4-3.4,3.4s-3.4-1.5-3.4-3.4
		C584.6,241.4,586.1,239.9,588,239.9C588,239.9,588,239.9,588,239.9z M592.5,260.4c0,0.5-0.4,1-1,1h-7.1c-0.5,0-1-0.4-1-1v-1.9
		c0-0.5,0.4-1,1-1h1v-5.2h-1c-0.5,0-1-0.4-1-1l0,0v-1.9c0-0.5,0.4-1,1-1l0,0h5.2c0.5,0,1,0.4,1,1l0,0v8.1h1c0.5,0,1,0.4,1,1
		L592.5,260.4z"/>
</g>
</svg>
