<svg xmlns="http://www.w3.org/2000/svg" width="40.005" height="40.005" viewBox="0 0 40.005 40.005"><defs><style>.a{fill:none;}.b{fill:#fff;}</style></defs><g transform="translate(-831 -125)"><g transform="translate(-520 -432)"><rect width="34" height="34" rx="3" transform="translate(1354 560)"/><rect class="a" width="40" height="39.989" transform="translate(1351 557.011)"/><path class="b" d="M27.5,0h-15A12.5,12.5,0,0,0,0,12.5v15A12.5,12.5,0,0,0,12.5,40h15A12.5,12.5,0,0,0,40,27.5v-15A12.5,12.5,0,0,0,27.5,0Zm8.751,27.5A8.761,8.761,0,0,1,27.5,36.254h-15A8.761,8.761,0,0,1,3.75,27.5v-15A8.761,8.761,0,0,1,12.5,3.75h15A8.761,8.761,0,0,1,36.254,12.5Z" transform="translate(1351 557)"/><path class="b" d="M136.436,128a8.436,8.436,0,1,0,8.436,8.436A8.437,8.437,0,0,0,136.436,128Zm0,13.709a5.273,5.273,0,1,1,5.273-5.273A5.28,5.28,0,0,1,136.436,141.709Z" transform="translate(1234.565 440.566)"/><path class="b" d="M2.139,0A2.139,2.139,0,1,1,0,2.139,2.139,2.139,0,0,1,2.139,0Z" transform="translate(1378.878 564.849)"/></g></g></svg>