<svg xmlns="http://www.w3.org/2000/svg" width="40.059" height="40" viewBox="0 0 40.059 40"><defs><style>.a{fill:none;}</style></defs><g transform="translate(-463 -717)"><g transform="translate(-802.936 171.441)"><path d="M8.395.612a49.37,49.37,0,0,1,.65,5.2,4.258,4.258,0,0,1-2.782,4.224l.521,9.614a.972.972,0,0,1-.969,1.022H3.23a.972.972,0,0,1-.969-1.022l.521-9.614A4.256,4.256,0,0,1,0,5.813,49.224,49.224,0,0,1,.65.612c.129-.82,1.829-.832,1.934.044v5.7c.052.137.61.129.646,0,.057-1.022.319-5.621.323-5.726.133-.84,1.8-.84,1.934,0,.008.109.267,4.7.323,5.726.036.129.6.137.646,0V.657C6.562-.215,8.266-.207,8.395.612Zm4.813,11.536L12.6,19.623a.969.969,0,0,0,.965,1.05h2.261A.967.967,0,0,0,16.8,19.7V.968A.969.969,0,0,0,15.829,0c-3.331,0-8.94,7.208-2.621,12.15Z" transform="translate(1265.936 555.563)"/><path d="M11.764,15.944a.969.969,0,0,0-1.312.4A4.523,4.523,0,1,1,4.929,9.959a.969.969,0,1,0-.656-1.823,6.462,6.462,0,1,0,7.891,9.121A.969.969,0,0,0,11.764,15.944ZM7.754,3.877A1.938,1.938,0,1,0,5.815,1.938,1.938,1.938,0,0,0,7.754,3.877ZM20.628,17.462A.967.967,0,0,0,19.4,16.85l-1.1.366L16.4,12.858a.983.983,0,0,0-.926-.581H9.854L9.268,9.046h4.624a.969.969,0,0,0,0-1.938H8.917l-.21-1.143A.969.969,0,0,0,6.8,6.312L8.093,13.42a.97.97,0,0,0,.953.8h5.827L16.881,18.8a.953.953,0,0,0,.851.582.963.963,0,0,0,.307-.05l1.9-.646A.971.971,0,0,0,20.628,17.462Z" transform="translate(1285.318 555.559)"/></g><rect class="a" width="40" height="40" transform="translate(463 717)"/></g></svg>