<svg xmlns="http://www.w3.org/2000/svg" width="40" height="40" viewBox="0 0 40 40"><defs><style>.a{fill:none;}</style></defs><g transform="translate(-441 -716)"><path class="a" d="M0,0H40V40H0Z" transform="translate(441 716)"/><path d="M6.25,48h-5A1.25,1.25,0,0,0,0,49.25v5A1.25,1.25,0,0,0,1.25,55.5h5A1.25,1.25,0,0,0,7.5,54.25v-5A1.25,1.25,0,0,0,6.25,48Zm0,12.5h-5A1.25,1.25,0,0,0,0,61.75v5A1.25,1.25,0,0,0,1.25,68h5A1.25,1.25,0,0,0,7.5,66.75v-5A1.25,1.25,0,0,0,6.25,60.5Zm0,12.5h-5A1.25,1.25,0,0,0,0,74.25v5A1.25,1.25,0,0,0,1.25,80.5h5A1.25,1.25,0,0,0,7.5,79.25v-5A1.25,1.25,0,0,0,6.25,73Zm32.5-10.625h-25a1.25,1.25,0,0,0-1.25,1.25v1.25a1.25,1.25,0,0,0,1.25,1.25h25A1.25,1.25,0,0,0,40,64.875v-1.25A1.25,1.25,0,0,0,38.75,62.375Zm0,12.5h-25a1.25,1.25,0,0,0-1.25,1.25v1.25a1.25,1.25,0,0,0,1.25,1.25h25A1.25,1.25,0,0,0,40,77.375v-1.25A1.25,1.25,0,0,0,38.75,74.875Zm0-25h-25a1.25,1.25,0,0,0-1.25,1.25v1.25a1.25,1.25,0,0,0,1.25,1.25h25A1.25,1.25,0,0,0,40,52.375v-1.25A1.25,1.25,0,0,0,38.75,49.875Z" transform="translate(441 672)"/></g></svg>