<svg xmlns="http://www.w3.org/2000/svg" width="40" height="40" viewBox="0 0 40 40"><defs><style>.a{fill:none;}</style></defs><g transform="translate(-1313 -231)"><rect class="a" width="40" height="40" transform="translate(1313 231)"/><path d="M15,0A15,15,0,0,0,0,15c0,5.556,1.874,7.292,11.818,23.236a3.752,3.752,0,0,0,6.364,0C28.131,22.284,30,20.555,30,15A15,15,0,0,0,15,0Zm0,36.25C5.045,20.288,3.75,19.28,3.75,15a11.25,11.25,0,0,1,22.5,0C26.25,19.262,25.065,20.111,15,36.25ZM8.75,15A6.25,6.25,0,1,1,15,21.25,6.25,6.25,0,0,1,8.75,15Z" transform="translate(1318 231)"/></g></svg>