<?xml version="1.0" encoding="utf-8"?>
<!-- Generator: Adobe Illustrator 24.0.1, SVG Export Plug-In . SVG Version: 6.00 Build 0)  -->
<svg version="1.1" id="Layer_1" focusable="false" xmlns="http://www.w3.org/2000/svg" xmlns:xlink="http://www.w3.org/1999/xlink"
	 x="0px" y="0px" viewBox="0 0 530 512" style="enable-background:new 0 0 530 512;" xml:space="preserve">
<path d="M154.5,384c8.5,0,16.6-3.4,22.6-9.4l231.4-231.4l-71.7-71.7L105.4,302.9c-6,6-9.4,14.1-9.4,22.6V368c0,8.8,7.2,16,16,16
	H154.5L154.5,384z M473,78.7c9.3-9.4,9.3-24.4,0-33.8L435.1,7c-9.4-9.3-24.5-9.3-33.9,0l-41.8,41.8l71.7,71.8L473,78.7z M402,352
	c0-8.8-7.2-16-16-16H261l-48,48h173c8.8,0,16-7.2,16-16V352z M0,160l0,320c0,17.7,14.3,32,32,32h466c17.7,0,32-14.3,32-32V160
	c0-17.7-14.3-32-32-32H469l-15.2,15.2l-22.6,22.6L421,176H482v288H48V176h139l48-48H32C14.4,128,0,142.3,0,160z M402,288v-16
	c0-8.8-7.2-16-16-16h-45l-48,48h93C394.9,304,402,296.8,402,288z"/>
</svg>
