<svg xmlns="http://www.w3.org/2000/svg" width="39.907" height="39.969" viewBox="0 0 39.907 39.969">
  <path id="pinterest" d="M19.966,0a19.972,19.972,0,0,0-7.28,38.568,19.222,19.222,0,0,1,.066-5.735c.362-1.561,2.333-9.925,2.333-9.925a7.273,7.273,0,0,1-.592-2.958c0-2.777,1.61-4.848,3.615-4.848a2.509,2.509,0,0,1,2.531,2.81c0,1.709-1.085,4.273-1.66,6.655a2.9,2.9,0,0,0,2.958,3.615c3.55,0,6.277-3.747,6.277-9.137,0-4.782-3.434-8.118-8.348-8.118a8.641,8.641,0,0,0-9.022,8.66,7.794,7.794,0,0,0,1.479,4.552.594.594,0,0,1,.131.575c-.148.624-.493,1.988-.559,2.268-.082.362-.3.444-.674.263-2.5-1.167-4.059-4.8-4.059-7.74,0-6.294,4.568-12.078,13.2-12.078,6.918,0,12.308,4.93,12.308,11.536,0,6.885-4.338,12.423-10.353,12.423a5.306,5.306,0,0,1-4.568-2.3L16.5,33.835a21.752,21.752,0,0,1-2.481,5.242A19.984,19.984,0,1,0,19.966,0Z" transform="translate(0.003)"/>
</svg>
