<svg xmlns="http://www.w3.org/2000/svg" width="40" height="40" viewBox="0 0 40 40"><defs><style>.a{fill:none;}</style></defs><g transform="translate(-508 -603)"><rect class="a" width="39.337" height="40" transform="translate(508 603)"/><path d="M23.623,15.556h8.046a7.767,7.767,0,0,1,4.938,2.222A7.767,7.767,0,0,1,31.669,20H23.623L16.639,34.222H14.06L17.553,20H9.447l-2.5,3.333H4.077L5.7,17.778,4.077,12.222H6.947l2.5,3.333h8.106L14.06,1.333h2.579M17.929-2H11.114A1.111,1.111,0,0,0,10.046-.584l3.087,12.806H11.114L8.947,9.333a1.111,1.111,0,0,0-.889-.444H1.114A1.111,1.111,0,0,0,.036,10.269l2.188,7.508L.036,25.286a1.111,1.111,0,0,0,1.078,1.381H8.058a1.11,1.11,0,0,0,.889-.444l2.167-2.889h2.019L10.046,36.139a1.111,1.111,0,0,0,1.068,1.417h6.815a1.112,1.112,0,0,0,.965-.56l6.665-13.663h6.111c3.068,0,8.333-2.488,8.333-5.556s-5.265-5.556-8.333-5.556H25.558L18.894-1.44A1.111,1.111,0,0,0,17.929-2Z" transform="translate(507.998 605)"/></g></svg>