<svg xmlns="http://www.w3.org/2000/svg" width="40" height="40" viewBox="0 0 40 40"><defs><style>.a{fill:none;}</style></defs><g transform="translate(-628 -231)"><path class="a" d="M0,0H40V40H0Z" transform="translate(628 231)"/><path d="M33.155,16.8,5.656.545A3.729,3.729,0,0,0,0,3.772V36.278A3.747,3.747,0,0,0,5.656,39.5l27.5-16.249A3.746,3.746,0,0,0,33.155,16.8ZM3.75,35.458V4.6a.475.475,0,0,1,.711-.406L30.569,19.623a.468.468,0,0,1,0,.8L4.461,35.864A.475.475,0,0,1,3.75,35.458Z" transform="translate(631 230.968)"/></g></svg>