<svg xmlns="http://www.w3.org/2000/svg" width="40" height="40" viewBox="0 0 40 40"><defs><style>.a{fill:none;}</style></defs><g transform="translate(-436 -231)"><rect class="a" width="40" height="40" transform="translate(436 231)"/><path d="M31.25,20.625A1.875,1.875,0,1,0,33.125,22.5,1.875,1.875,0,0,0,31.25,20.625Zm2.5-6.875V7.8a3.75,3.75,0,0,0-1.1-2.652L28.6,1.1A3.75,3.75,0,0,0,25.947,0H8.631A2.443,2.443,0,0,0,6.25,2.5V13.75A6.25,6.25,0,0,0,0,20V30a1.25,1.25,0,0,0,1.25,1.25h5v7.5A1.25,1.25,0,0,0,7.5,40h25a1.25,1.25,0,0,0,1.25-1.25v-7.5h5A1.25,1.25,0,0,0,40,30V20A6.25,6.25,0,0,0,33.75,13.75ZM10,3.75H25V7.5a1.25,1.25,0,0,0,1.25,1.25H30v5H10Zm20,32.5H10v-5H30Zm6.25-8.75H3.75V20a2.5,2.5,0,0,1,2.5-2.5h27.5a2.5,2.5,0,0,1,2.5,2.5Z" transform="translate(436 231)"/></g></svg>