<svg xmlns="http://www.w3.org/2000/svg" width="40" height="40" viewBox="0 0 40 40"><defs><style>.a{fill:none;}</style></defs><g transform="translate(-783 -417)"><path class="a" d="M0,0H40V40H0Z" transform="translate(783 417)"/><path d="M39.735,85.432l-12.128-24.6a1.965,1.965,0,0,0-3.211,0l-3.944,5.587-3.73-7.511a2.084,2.084,0,0,0-3.44,0L.288,85.2A1.841,1.841,0,0,0,1.935,88H38.2A1.689,1.689,0,0,0,39.735,85.432ZM3.978,85,15,62.184,26.026,85Zm25.354-.025L21.964,69.6,26,63.862,35.872,85Z" transform="translate(782.998 364)"/></g></svg>