<svg xmlns="http://www.w3.org/2000/svg" width="40" height="40" viewBox="0 0 40 40"><defs><style>.a{fill:none;}</style></defs><g transform="translate(-417 -590)"><path d="M8.734,24.161v1.122a.561.561,0,0,1-.561.561H.561A.561.561,0,0,1,0,25.283V24.161A.561.561,0,0,1,.561,23.6H8.173A.561.561,0,0,1,8.734,24.161ZM40,33.074v2.041a3.026,3.026,0,0,1-3.025,3.024H26.084a1.668,1.668,0,0,1-1.2-.508L7.036,19.14a3.687,3.687,0,0,1-.3-4.794l.049-.06L18.47,1.027A3.021,3.021,0,0,1,22.788.8l7.388,6.82a3.029,3.029,0,0,1,.972,2.22V22.7A10.548,10.548,0,0,1,40,33.074ZM14.943,16.739a3.134,3.134,0,0,0-.923-2.231l-1.595-1.594-1.648,1.88,3.538,3.666a5.556,5.556,0,0,0,.625-1.723ZM36.61,32.795c-.48-3.5-3.49-6.909-7.122-6.909H27.826V25.87H23.667a.561.561,0,0,1-.561-.561V24.188a.561.561,0,0,1,.561-.561h4.159V21.384H23.667a.561.561,0,0,1-.561-.561V19.7a.561.561,0,0,1,.561-.561h4.159V10L20.756,3.476l-6.131,6.94,1.743,1.743c2.276,2.276,2.146,6.211.3,8.741L28.151,32.795ZM12.445,28.044H.561A.561.561,0,0,0,0,28.6v1.122a.561.561,0,0,0,.561.561H12.445a.561.561,0,0,0,.561-.561V28.6A.561.561,0,0,0,12.445,28.044Zm4.271,4.44H.561A.561.561,0,0,0,0,33.044v1.122a.561.561,0,0,0,.561.561H16.716a.561.561,0,0,0,.561-.561V33.044a.561.561,0,0,0-.561-.564Z" transform="translate(417 590.998)"/><rect class="a" width="40" height="40" transform="translate(417 590)"/></g></svg>