<svg xmlns="http://www.w3.org/2000/svg" width="40" height="40" viewBox="0 0 40 40"><defs><style>.a{fill:none;}</style></defs><g transform="translate(-738 -613)"><path d="M14.354,30.873H11.159V23.19a9.628,9.628,0,0,0,7.946-10.373L18.044.964A1.055,1.055,0,0,0,17,0H2.126A1.055,1.055,0,0,0,1.082.964L.019,12.817A9.628,9.628,0,0,0,7.965,23.19v7.683H4.771a2.662,2.662,0,0,0-2.662,2.662.532.532,0,0,0,.532.532H16.483a.532.532,0,0,0,.532-.532A2.662,2.662,0,0,0,14.354,30.873ZM15.036,3.19l.477,5.324H3.612L4.089,3.19ZM3.2,13.1l.124-1.393H15.8l.125,1.393a6.421,6.421,0,0,1-5.5,7.009H8.7A6.421,6.421,0,0,1,3.2,13.1ZM34.827,0a4.76,4.76,0,0,0-2.216.519,4.99,4.99,0,0,0-4.432,0A4.741,4.741,0,0,0,25.963,0a3.937,3.937,0,0,0-4.113,3.048,55.861,55.861,0,0,0-1.038,7.433,8.6,8.6,0,0,0,4.645,7.766l-.679,12.025a3.608,3.608,0,0,0,3.62,3.8h3.993a3.608,3.608,0,0,0,3.62-3.8l-.679-12.032a8.592,8.592,0,0,0,4.645-7.759A56.188,56.188,0,0,0,38.94,3.044,3.939,3.939,0,0,0,34.827,0ZM32.012,16.04l.812,14.407a.418.418,0,0,1-.433.426H28.4a.418.418,0,0,1-.433-.426l.812-14.407a5.546,5.546,0,0,1-4.771-5.563,58.353,58.353,0,0,1,.985-6.834c.106-.612,1.883-.6,1.963.013v7.566c.06.705,1.877.719,1.963.013l.492-7.593c.106-.6,1.857-.6,1.963,0l.492,7.593c.087.705,1.9.692,1.963-.013V3.656c.08-.612,1.857-.626,1.963-.013a58.353,58.353,0,0,1,.985,6.834A5.536,5.536,0,0,1,32.012,16.04ZM39.978,10.477Z" transform="translate(738.022 616.005)"/><rect class="a" width="40" height="40" transform="translate(738 613)"/></g></svg>