<svg id="Layer_1" data-name="Layer 1" xmlns="http://www.w3.org/2000/svg" viewBox="0 0 570.54 543.99"><path class="cls-1" d="M124.58,344.62v16a8,8,0,0,1-8,8H8a8,8,0,0,1-8-8v-16a8,8,0,0,1,8-8H116.59A8,8,0,0,1,124.58,344.62Zm446,127.13v29.12A43.16,43.16,0,0,1,527.43,544H372.07A23.79,23.79,0,0,1,355,536.75L100.37,273a52.59,52.59,0,0,1-4.26-68.38l.7-.85L263.47,14.62a43.1,43.1,0,0,1,61.59-3.18l105.39,97.28a43.21,43.21,0,0,1,13.87,31.67V323.71C516.08,335.18,570.56,397.84,570.55,471.75Zm-357.42-233A44.7,44.7,0,0,0,200,206.92l-22.75-22.74L153.74,211l50.47,52.29C207,257.35,213.13,245.45,213.13,238.71ZM522.22,467.77c-6.84-49.95-49.79-98.55-101.59-98.55h-23.7V369H337.6a8,8,0,0,1-8-8v-16a8,8,0,0,1,8-8h59.33v-32H337.6a8,8,0,0,1-8-8v-16a8,8,0,0,1,8-8h59.33V142.68L296.07,49.56l-87.46,99,24.86,24.86c32.47,32.46,30.61,88.59,4.31,124.68L401.56,467.77ZM177.52,400H8a8,8,0,0,0-8,8v16a8,8,0,0,0,8,8H177.52a8,8,0,0,0,8-8V408A8,8,0,0,0,177.52,400Zm60.92,63.33H8a8,8,0,0,0-8,8v16a8,8,0,0,0,8,8H238.44a8,8,0,0,0,8-8v-16A8,8,0,0,0,238.44,463.29Z" transform="translate(-0.01 0)"/></svg>