<svg id="Layer_1" data-name="Layer 1" xmlns="http://www.w3.org/2000/svg" viewBox="0 0 621.02 539.17"><path class="cls-1" d="M378.73,187.3l38.51,87.94-175,76.63-38.52-87.94,175-76.63m2.72-53.59L162.53,229.59a24,24,0,0,0-12.35,31.62L208,393.11a24,24,0,0,0,31.61,12.35l218.93-95.89A24,24,0,0,0,470.84,278l-57.77-131.9A24,24,0,0,0,381.45,133.71Zm154.37-6.48,7.33-3.21L501.43,28.75A48,48,0,0,0,438.2,4L28.75,183.38A48,48,0,0,0,4,246.61l41.73,95.26,7.33-3.21a40,40,0,1,1,32.09,73.28l-7.32,3.21,41.72,95.26a48,48,0,0,0,63.23,24.71L592.26,355.78A48,48,0,0,0,617,292.56L575.25,197.3l-7.33,3.21a40,40,0,0,1-32.1-73.28Zm-52-19.1A88,88,0,0,0,546.68,251.7L573,311.82,163.56,491.16,137.23,431A88,88,0,0,0,74.34,287.47L48,227.35,457.46,48Z" transform="translate(0 0)"/></svg>