<svg xmlns="http://www.w3.org/2000/svg" width="40" height="40" viewBox="0 0 40 40"><defs><style>.a{fill:none;}</style></defs><g transform="translate(-372 -510)"><rect class="a" width="39.962" height="40" transform="translate(372 510)"/><path d="M10.5,79.015A5.505,5.505,0,1,0,5,73.509,5.509,5.509,0,0,0,10.5,79.015Zm0-8.008a2.5,2.5,0,1,1-2.5,2.5A2.5,2.5,0,0,1,10.5,71.007ZM33,68H19a1,1,0,0,0-1,1V81.017H3V65a1,1,0,0,0-1-1H1a1,1,0,0,0-1,1V87.022a1,1,0,0,0,1,1H2a1,1,0,0,0,1-1v-3H37v3a1,1,0,0,0,1,1h1a1,1,0,0,0,1-1V75.011A7,7,0,0,0,33,68Zm4,13.013H21V71.007H33a4.006,4.006,0,0,1,4,4Z" transform="translate(372 454)"/></g></svg>