<svg id="Layer_1" data-name="Layer 1" xmlns="http://www.w3.org/2000/svg" viewBox="0 0 601.06 512"><path class="cls-1" d="M216,464H168V348.54A144.68,144.68,0,0,0,287.4,192.66L271.45,14.55A15.86,15.86,0,0,0,255.74,0H32.26a15.85,15.85,0,0,0-15.7,14.55L.6,192.66A144.68,144.68,0,0,0,120,348.54V464H72a40,40,0,0,0-40,40,8,8,0,0,0,8,8H248a8,8,0,0,0,8-8A40,40,0,0,0,216,464ZM226.25,48l7.17,80H54.58l7.17-80ZM48.41,196.94,50.28,176H237.71l1.88,20.94c4.7,52.45-31.42,98.23-82.58,105.33H131c-51.15-7.1-87.27-52.89-82.57-105.33ZM523.66,0a71.53,71.53,0,0,0-33.3,7.8c-10-5.3-21.8-7.8-33.3-7.8s-23.3,2.5-33.3,7.8c-10.1-5.4-21.9-7.8-33.3-7.8-33.3,0-56.9,19.9-61.8,45.8-2.7,13.8-15.6,81.1-15.6,111.7,0,52.7,28.2,94.8,69.8,116.7l-10.2,180.7c-1.8,31,23.1,57.1,54.4,57.1h60c31.3,0,56.2-26.1,54.4-57.1l-10.2-180.8c41.4-21.7,69.8-63.8,69.8-116.6,0-30.5-12.9-97.8-15.6-111.7C580.56,20.1,557.16,0,523.66,0Zm-42.3,241.1,12.2,216.5a6.28,6.28,0,0,1-6.5,6.4h-60a6.28,6.28,0,0,1-6.5-6.4l12.2-216.5c-42.4-8.1-71.7-39.8-71.7-83.6,0-27.6,14.8-102.7,14.8-102.7,1.6-9.2,28.3-9,29.5.2V168.7c.9,10.6,28.2,10.8,29.5.2l7.4-114.1c1.6-9,27.9-9,29.5,0l7.4,114.1c1.3,10.6,28.6,10.4,29.5-.2V55c1.2-9.2,27.9-9.4,29.5-.2,0,0,14.8,75.1,14.8,102.7C553.06,201.1,524,232.9,481.36,241.1Zm119.7-83.6Z"/></svg>