<svg xmlns="http://www.w3.org/2000/svg" width="40" height="40" viewBox="0 0 40 40"><defs><style>.a{fill:none;}</style></defs><g transform="translate(-1057 -417)"><path class="a" d="M0,0H40V40H0Z" transform="translate(1057 417)"/><path d="M27.5,10a10,10,0,0,0-20,0H0V33.75A6.25,6.25,0,0,0,6.25,40h22.5A6.25,6.25,0,0,0,35,33.75V10Zm-10-6.25A6.257,6.257,0,0,1,23.75,10H11.25A6.257,6.257,0,0,1,17.5,3.75Zm13.75,30a2.5,2.5,0,0,1-2.5,2.5H6.25a2.5,2.5,0,0,1-2.5-2.5v-20H7.5v3.125a1.875,1.875,0,0,0,3.75,0V13.75h12.5v3.125a1.875,1.875,0,0,0,3.75,0V13.75h3.75Z" transform="translate(1060 417)"/></g></svg>