<svg id="Layer_1" data-name="Layer 1" xmlns="http://www.w3.org/2000/svg" viewBox="0 0 511 450.59"><title>public-transport</title><path d="M100.77,33l-68.52-.06H16.12A16.12,16.12,0,0,0,0,49.05V467.26a16.12,16.12,0,0,0,16.12,16.12H32.25a16.12,16.12,0,0,0,16.12-16.12V182.13h52.4a48.38,48.38,0,0,0,48.37-48.37V81.36A48.39,48.39,0,0,0,100.77,33Zm0,94.72a6.06,6.06,0,0,1-6,6H54.42a6.06,6.06,0,0,1-6.05-6V87.41a6.06,6.06,0,0,1,6.05-6h40.3a6.06,6.06,0,0,1,6,6ZM370.35,367.29A31.26,31.26,0,1,0,339.1,336,31.26,31.26,0,0,0,370.35,367.29Zm-101.58,0A31.26,31.26,0,1,0,237.51,336,31.26,31.26,0,0,0,268.77,367.29ZM487.56,193.43h-7.82V166.09c0-43.76-39.26-78.14-161.16-78.14s-159.2,34.38-159.2,78.14v27.34h-7.82a23.44,23.44,0,0,0-23.44,23.45v42a23.45,23.45,0,0,0,23.44,23.45h7.82V389.76A31.25,31.25,0,0,0,190.63,421v31.26a31.26,31.26,0,0,0,31.26,31.25h15.62a31.26,31.26,0,0,0,31.26-31.25V421H370.35v31.26a31.26,31.26,0,0,0,31.26,31.25h15.62a31.26,31.26,0,0,0,31.26-31.25V421a31.25,31.25,0,0,0,31.25-31.25V282.32h7.82A23.45,23.45,0,0,0,511,258.87v-42A23.44,23.44,0,0,0,487.56,193.43Zm-54.7,180.7H206.26V297.94h226.6Zm0-123.07H206.26V224.69h226.6Zm0-73.25H206.26v-6.42c13.85-13.51,15.32-36.56,112.32-36.56s100.43,23,114.28,36.56Z" transform="translate(0 -32.93)"/></svg>