<svg xmlns="http://www.w3.org/2000/svg" width="40" height="40" viewBox="0 0 40 40"><path d="M46.348,9.652l-4.207,4.207A20,20,0,0,0,8.025,26.991.966.966,0,0,0,8.992,28h2.262a.967.967,0,0,0,.966-.911A15.809,15.809,0,0,1,39.179,16.821l-4.365,4.365a.968.968,0,0,0,.684,1.652H47.032A.968.968,0,0,0,48,21.871V10.336A.968.968,0,0,0,46.348,9.652ZM47.008,28H44.746a.967.967,0,0,0-.966.911A15.809,15.809,0,0,1,16.821,39.179l4.365-4.365a.968.968,0,0,0-.684-1.652H8.968A.968.968,0,0,0,8,34.129V45.664a.968.968,0,0,0,1.652.684l4.207-4.207A20,20,0,0,0,47.975,29.009.966.966,0,0,0,47.008,28Z" transform="translate(-8 -8)"/></svg>