<?xml version="1.0" encoding="utf-8"?>
<!-- Generator: Adobe Illustrator 26.0.1, SVG Export Plug-In . SVG Version: 6.00 Build 0)  -->
<svg version="1.1" id="Layer_1" xmlns="http://www.w3.org/2000/svg" xmlns:xlink="http://www.w3.org/1999/xlink" x="0px" y="0px"
	 viewBox="0 0 60 53.3" style="enable-background:new 0 0 60 53.3;" xml:space="preserve">
<path id="review" d="M25.9,21.3L26.6,33c0,0.7,0.6,1.2,1.2,1.2h4.3c0.7,0,1.2-0.5,1.2-1.2l0.7-11.7c0-0.7-0.5-1.3-1.2-1.3
	c0,0,0,0-0.1,0h-5.7C26.5,20,25.9,20.6,25.9,21.3C25.9,21.3,25.9,21.3,25.9,21.3z M34.4,40c0,2.4-2,4.4-4.4,4.4s-4.4-2-4.4-4.4
	s2-4.4,4.4-4.4S34.4,37.6,34.4,40L34.4,40z M34.3,2.5c-1.4-2.4-4.4-3.2-6.8-1.8c-0.8,0.4-1.4,1.1-1.8,1.8l-25,43.3
	c-1.4,2.4-0.6,5.4,1.8,6.8c0.8,0.4,1.6,0.7,2.5,0.7h50c2.8,0,5-2.2,5-5c0-0.9-0.2-1.7-0.7-2.5L34.3,2.5z M5.5,47.4L29.5,5.9
	c0.2-0.3,0.6-0.4,0.9-0.2c0.1,0.1,0.2,0.1,0.2,0.2l23.9,41.5c0.2,0.3,0.1,0.7-0.2,0.9c-0.1,0.1-0.2,0.1-0.3,0.1H6.1
	c-0.3,0-0.6-0.3-0.6-0.6C5.5,47.6,5.5,47.5,5.5,47.4z"/>
</svg>
