<svg xmlns="http://www.w3.org/2000/svg" width="40" height="40" viewBox="0 0 40 40"><path d="M38.6,17.312l-4.671-3.164L35,8.6a3.158,3.158,0,0,0-3.695-3.711l-5.538,1.07L22.613,1.282a3.273,3.273,0,0,0-5.233,0L14.224,5.961l-5.53-1.07A3.167,3.167,0,0,0,4.991,8.6l1.07,5.547L1.39,17.312a3.166,3.166,0,0,0,0,5.242l4.671,3.164-1.07,5.547a3.158,3.158,0,0,0,3.7,3.7l5.53-1.07,3.156,4.679a3.152,3.152,0,0,0,5.233.008L25.768,33.9l5.538,1.07a3.117,3.117,0,0,0,2.835-.867,3.172,3.172,0,0,0,.867-2.836l-1.07-5.547,4.671-3.164a3.168,3.168,0,0,0-.008-5.25ZM29.783,24l1.375,7.125L24.05,29.749,20,35.756l-4.054-6.015-7.1,1.375,1.375-7.125-6-4.062,6-4.062L8.842,8.742l7.108,1.375,4.046-6,4.054,6.008L31.158,8.75l-1.375,7.117,6,4.062-6,4.07ZM20,11.851a8.125,8.125,0,1,0,8.123,8.125A8.138,8.138,0,0,0,20,11.851Zm0,12.5a4.375,4.375,0,1,1,4.374-4.375A4.377,4.377,0,0,1,20,24.351Z" transform="translate(0 0.025)"/></svg>