<svg xmlns="http://www.w3.org/2000/svg" width="40" height="40" viewBox="0 0 40 40"><defs><style>.a{fill:none;}</style></defs><g transform="translate(-577 -603)"><path class="a" d="M0,0H40V40H0Z" transform="translate(577 603)"/><path d="M21,21.53a1.5,1.5,0,1,0,1.5,1.5A1.5,1.5,0,0,0,21,21.53Zm10.207-4.26a2,2,0,0,0-1.845-1.224H24.637A2,2,0,0,0,22.8,17.254l-1.224,2.779h10.85ZM33,21.53a1.5,1.5,0,1,0,1.5,1.5A1.5,1.5,0,0,0,33,21.53Zm3.673-4.2L35.8,15.29a6.993,6.993,0,0,0-6.436-4.228H24.637A6.993,6.993,0,0,0,18.2,15.293l-.875,2.039A5,5,0,0,0,14,22.028v1.994a4.96,4.96,0,0,0,2,3.967c0,.008,0,.014,0,.022v1.994A2,2,0,0,0,18,32h1a2,2,0,0,0,2-1.994v-1H33v1A2,2,0,0,0,35,32h1a2,2,0,0,0,2-1.994V28.011c0-.007,0-.014,0-.022a4.961,4.961,0,0,0,2-3.967V22.028a5,5,0,0,0-3.327-4.7ZM37,24.022a2,2,0,0,1-2,1.994H19a2,2,0,0,1-2-1.994V22.028a2,2,0,0,1,2-1.994h.429l1.533-3.562a4,4,0,0,1,3.676-2.417h4.725a4,4,0,0,1,3.676,2.418l1.533,3.562H35a2,2,0,0,1,2,1.994ZM11,4.074H6a1,1,0,0,0-1,1v8.981a1,1,0,0,0,1,1h5ZM3,20.532V4.2C3,2.4,6.986.991,12,.991S21,2.4,21,4.2V9.842a9.007,9.007,0,0,1,3-.731V4.2C24-.375,17.536-2,12-2S0-.375,0,4.2V20.532a3.5,3.5,0,0,0,3.5,3.49H4v1.994a2,2,0,0,0,2,1.994H7a2,2,0,0,0,2-1.994V24.022h3V22.028a6.932,6.932,0,0,1,.074-1H3.5a.5.5,0,0,1-.5-.5Zm2-2.493a1.5,1.5,0,1,0,1.5-1.5,1.5,1.5,0,0,0-1.5,1.5ZM16.365,14.5A8.949,8.949,0,0,1,19,11.067v-6a1,1,0,0,0-1-1H13V15.048h3.132Z" transform="translate(577 608)"/></g></svg>