<svg xmlns="http://www.w3.org/2000/svg" width="40" height="40" viewBox="0 0 40 40"><defs><style>.a{fill:none;}</style></defs><g transform="translate(-577 -510)"><path class="a" d="M0,0H40V40H0Z" transform="translate(577 510)"/><path d="M7.357,27.16a.027.027,0,0,1-.008-.016L5.756,31.127a3.031,3.031,0,0,1-.7,1.046L.5,36.742a1.87,1.87,0,0,0,1.32,3.194,1.843,1.843,0,0,0,1.32-.547L7.7,34.821a6.832,6.832,0,0,0,1.515-2.3l1.054-2.632L7.443,27.27l-.086-.109ZM16.181,7.5a3.748,3.748,0,1,0-3.741-3.748A3.743,3.743,0,0,0,16.181,7.5Zm8.176,13.658L22.069,18.9a.644.644,0,0,1-.156-.25l-1.007-3.03A8.2,8.2,0,0,0,13.112,10c-2.718,0-4.139.687-7.473,2.03a7.184,7.184,0,0,0-3.764,3.5L.75,17.953a1.873,1.873,0,0,0,3.4,1.577l1.093-2.374a3.413,3.413,0,0,1,1.78-1.64c1.695-.679,2.585-1.054,3.459-1.335L8.934,20.366A4.572,4.572,0,0,0,10.1,24.63l6.169,5.7a3.113,3.113,0,0,1,.921,1.593l1.523,6.622a1.868,1.868,0,1,0,3.639-.843l-1.523-6.614a6.894,6.894,0,0,0-2.03-3.506l-4.2-3.873,2.046-8.184c.578.757.586.984,1.7,4.326a4.474,4.474,0,0,0,1.078,1.734l2.288,2.265C23.452,25.528,26.138,22.92,24.358,21.155Z" transform="translate(585.05 510)"/></g></svg>