<svg xmlns="http://www.w3.org/2000/svg" width="40" height="40" viewBox="0 0 40 40"><defs><style>.a{fill:none;}</style></defs><g transform="translate(-235 -417)"><path class="a" d="M0,0H40V40H0Z" transform="translate(235 417)"/><path d="M39.454,43.111h0a23.844,23.844,0,0,0-10.26,2.5,30.915,30.915,0,0,0-8.453-13.348,1.184,1.184,0,0,0-1.492,0,30.931,30.931,0,0,0-8.457,13.349,23.833,23.833,0,0,0-10.26-2.5h0a.529.529,0,0,0-.536.543,19.23,19.23,0,0,0,6.164,13.84,18.408,18.408,0,0,0,13.688,5.617h.311a18.4,18.4,0,0,0,13.672-5.617,19.228,19.228,0,0,0,6.164-13.84A.528.528,0,0,0,39.454,43.111ZM8.48,55.106l-.049-.048-.051-.046a15.279,15.279,0,0,1-4.7-8.278,17.58,17.58,0,0,1,9.369,4.528l.051.05.053.047a14.425,14.425,0,0,1,3.753,5.377l1.235,2.989A15.193,15.193,0,0,1,8.48,55.106Zm11.51.356a17.844,17.844,0,0,0-4.612-6.587,17.862,17.862,0,0,0-1.712-1.432,29.412,29.412,0,0,1,6.325-11.275,29.413,29.413,0,0,1,6.321,11.275A18.037,18.037,0,0,0,24.6,48.874,17.852,17.852,0,0,0,19.99,55.462Zm11.61-.45-.051.046-.049.048a15.174,15.174,0,0,1-9.665,4.619l1.236-2.99a14.431,14.431,0,0,1,3.753-5.377l.053-.047.051-.05a17.587,17.587,0,0,1,9.37-4.529,15.28,15.28,0,0,1-4.7,8.28Z" transform="translate(235.01 389)"/></g></svg>