<svg xmlns="http://www.w3.org/2000/svg" width="40" height="40" viewBox="0 0 40 40"><defs><style>.a{fill:none;}</style></defs><g transform="translate(-510 -417)"><path class="a" d="M0,0H40V40H0Z" transform="translate(510 417)"/><path d="M19.679,56.483l3.539,3.539a2.5,2.5,0,0,0,3.539,0L30.3,56.483a2.5,2.5,0,0,0,0-3.539l-3.539-3.539a2.5,2.5,0,0,0-3.539,0l-3.539,3.539A2.5,2.5,0,0,0,19.679,56.483ZM37.482,32h-35A2.5,2.5,0,0,0,.008,34.851L4.383,62.7A5,5,0,0,0,9.335,66.99H30.662A5,5,0,0,0,35.615,62.7l4.343-27.85A2.5,2.5,0,0,0,37.482,32ZM32.3,51.483a4.961,4.961,0,0,1-.242,6.773l-3.539,3.539a5.026,5.026,0,0,1-7.078-.008l-3.531-3.539H12.484a5,5,0,0,1-5-5V50.21L5.406,37H34.56ZM12.484,55.748h4.078a5.011,5.011,0,0,1,1.351-4.578l2.07-2.062v-.859a2.5,2.5,0,0,0-2.5-2.5h-5a2.5,2.5,0,0,0-2.5,2.5v5A2.5,2.5,0,0,0,12.484,55.748Z" transform="translate(510.017 388)"/></g></svg>