<svg xmlns="http://www.w3.org/2000/svg" width="40" height="40" viewBox="0 0 40 40"><defs><style>.a{fill:none;}</style></defs><g transform="translate(-903 -231)"><rect class="a" width="40" height="40" transform="translate(903 231)"/><path d="M38.3,82.65c-1.085-1.93-2.262-2.285-4.66-2.42-2.395-.162-8.417-.23-13.635-.23s-11.253.067-13.645.227c-2.393.137-3.573.49-4.667,2.423C.575,84.577,0,87.9,0,93.743v.02c0,5.82.575,9.165,1.692,11.073,1.1,1.93,2.272,2.28,4.665,2.442,2.395.14,8.42.223,13.648.223s11.24-.083,13.638-.22c2.4-.162,3.575-.512,4.66-2.443C39.43,102.93,40,99.585,40,93.765v-.02C40,87.9,39.43,84.577,38.3,82.65ZM15,101.25v-15l12.5,7.5Z" transform="translate(903 157)"/></g></svg>