<svg xmlns="http://www.w3.org/2000/svg" width="40" height="40" viewBox="0 0 40 40"><defs><style>.a{fill:none;}</style></defs><g transform="translate(-175 -723)"><rect class="a" width="40" height="40" transform="translate(175 723)"/><g transform="translate(-503.886 331.441)"><path d="M9.612,13.027a.792.792,0,0,0-1.072.325A3.7,3.7,0,1,1,4.028,8.137a.792.792,0,0,0-.536-1.49A5.28,5.28,0,1,0,9.939,14.1.792.792,0,0,0,9.612,13.027ZM6.335,3.168A1.584,1.584,0,1,0,4.752,1.584,1.584,1.584,0,0,0,6.335,3.168Zm10.519,11.1a.79.79,0,0,0-1-.5l-.9.3L13.4,10.506a.8.8,0,0,0-.756-.475H8.051l-.478-2.64h3.778a.792.792,0,0,0,0-1.584H7.286l-.172-.934a.792.792,0,0,0-1.557.284l1.056,5.807a.792.792,0,0,0,.779.65h4.761l1.641,3.748a.779.779,0,0,0,.7.475.787.787,0,0,0,.251-.041l1.554-.528A.793.793,0,0,0,16.855,14.268Z" transform="translate(701.992 402.559)"/><path d="M10.529,0a.789.789,0,0,0-.762.792V16.1a.789.789,0,0,0,.762.792.814.814,0,0,0,.792-.792V.792A.758.758,0,0,0,10.529,0ZM7.051,5.669A2.115,2.115,0,0,0,5.045,4.224H3.4a2.107,2.107,0,0,0-2,1.445L.054,9.7a1.056,1.056,0,0,0,1.793,1.033v5.108A1.056,1.056,0,0,0,2.9,16.894,1.031,1.031,0,0,0,3.93,15.839V11.087h.528v4.752a1.056,1.056,0,0,0,1.056,1.056A1.031,1.031,0,0,0,6.54,15.839V10.717A1.05,1.05,0,0,0,8.333,9.7Zm-2.828-2.5A1.559,1.559,0,0,0,5.777,1.584,1.559,1.559,0,0,0,4.223,0a1.584,1.584,0,0,0,0,3.168Zm12.641,0a1.584,1.584,0,0,0,1.584-1.584A1.566,1.566,0,0,0,16.864,0,1.541,1.541,0,0,0,15.31,1.584,1.578,1.578,0,0,0,16.864,3.168Zm4.2,6.53L19.719,5.669a2.108,2.108,0,0,0-2-1.445H16.07a2.107,2.107,0,0,0-2,1.444L12.724,9.7a1.056,1.056,0,0,0,.667,1.336,1.041,1.041,0,0,0,.338.042l-.56,1.6h1.32v3.168a1.05,1.05,0,0,0,1.026,1.056,1.075,1.075,0,0,0,1.056-1.056V12.671H17.1v3.168a1.05,1.05,0,0,0,1.026,1.056,1.075,1.075,0,0,0,1.056-1.056V12.671h1.29l-.528-1.583a1.053,1.053,0,0,0,.334-.055A1.036,1.036,0,0,0,21.062,9.7Z" transform="translate(678.886 402.559)"/></g></g></svg>
