<svg xmlns="http://www.w3.org/2000/svg" width="21.659" height="25.433" viewBox="0 0 21.659 25.433"><ellipse cx="3.172" cy="3.172" rx="3.172" ry="3.172" transform="translate(6.399)"/><path d="M319.657,1230.314a7.68,7.68,0,0,1-7.657-7.657,8.536,8.536,0,0,1,3.516-6.848,1,1,0,0,1,1.571.82v.426a1,1,0,0,1-.384.788,5.815,5.815,0,0,0-2.186,4.485,5.392,5.392,0,0,0,5.415,5.415,4.849,4.849,0,0,0,4.546-3.226.969.969,0,0,1,.9-.6h.455a1,1,0,0,1,.947,1.322A7.486,7.486,0,0,1,319.657,1230.314Z" transform="translate(-312 -1204.881)"/><path d="M1028,948.369a1.2,1.2,0,0,1-1.094-.656l-3.336-4.485h-6.4a2.986,2.986,0,0,1-3.172-3.172v-4.485a2.764,2.764,0,0,1,2.571-2.571h1.258c1.258,0,1.586,1.313,1.914,2.571l1.258,5.087h3.172a1.239,1.239,0,0,1,1.258.656l3.446,4.813a1.778,1.778,0,0,1,.383.93A1.406,1.406,0,0,1,1028,948.369Z" transform="translate(-1007.601 -925.452)"/></svg>