<svg xmlns="http://www.w3.org/2000/svg" width="21.6573" height="25.4331" viewBox="0 0 21.6573 25.4331"><circle cx="9.5711" cy="3.172" r="3.172"/><path d="M16.8356,33.6556a7.68,7.68,0,0,1-7.657-7.657,8.2463,8.2463,0,0,1,5.087-7.657v2.5711a5.7843,5.7843,0,0,0-2.571,4.759,5.3921,5.3921,0,0,0,5.3689,5.4151H17.11a4.9632,4.9632,0,0,0,4.758-3.828h2.411A7.4889,7.4889,0,0,1,16.8356,33.6556Z" transform="translate(-9.1785 -8.2226)"/><path d="M29.5776,31.14a1.2,1.2,0,0,1-1.094-.656l-3.336-4.485h-6.4a2.986,2.986,0,0,1-3.172-3.172v-4.485a2.7639,2.7639,0,0,1,2.571-2.5709h1.258c1.258,0,1.586,1.313,1.914,2.5709l1.258,5.087h3.172a1.2393,1.2393,0,0,1,1.2581.656l3.446,4.813a1.7783,1.7783,0,0,1,.3831.93A1.406,1.406,0,0,1,29.5776,31.14Z" transform="translate(-9.1785 -8.2226)"/></svg>