<svg xmlns="http://www.w3.org/2000/svg" width="17.401" height="15.808" viewBox="0 0 17.401 15.808"><g transform="translate(0 0)"><g transform="translate(10.016 6.741)"><ellipse cx="1.131" cy="1.131" rx="1.131" ry="1.131" transform="translate(1.833 0)" /><path d="M1706.591,1904.179a2.59,2.59,0,0,1-2.591-2.589,2.8,2.8,0,0,1,1.74-2.59v.85a1.957,1.957,0,0,0-.851,1.623,1.856,1.856,0,0,0,1.856,1.855,1.687,1.687,0,0,0,1.624-1.314h.812A2.62,2.62,0,0,1,1706.591,1904.179Z" transform="translate(-1704 -1895.267)" /><path d="M2044.756,1772.14a.471.471,0,0,1-.387-.232l-1.122-1.469h-2.165a1.015,1.015,0,0,1-1.083-1.082v-1.507a.915.915,0,0,1,.851-.85h.464c.426,0,.542.464.658.85l.425,1.74h1.083a.409.409,0,0,1,.425.232l1.2,1.623a.738.738,0,0,1,.116.309A.463.463,0,0,1,2044.756,1772.14Z" transform="translate(-2037.834 -1764.117)" /></g><path d="M159.436,274.237a6.841,6.841,0,0,0-4.37-1.237h-3.4A1.65,1.65,0,0,0,150,274.662v12.484a1.663,1.663,0,0,0,3.326,0V283.2h1.431a6.982,6.982,0,0,0,4.563-1.353,4.775,4.775,0,0,0,1.624-3.9A4.485,4.485,0,0,0,159.436,274.237Zm-2.668,5.6a3.781,3.781,0,0,1-2.32.618h-1.121v-4.715h1.547a2.906,2.906,0,0,1,2.011.58,2.242,2.242,0,0,1,.657,1.739A2.2,2.2,0,0,1,156.767,279.841Z" transform="translate(-150 -273)" /></g></svg>