<svg xmlns="http://www.w3.org/2000/svg" width="21.8943" height="15.243" viewBox="0 0 21.8943 15.243"><path d="M19.6156,18.8505V15.36h-4.379a1.4,1.4,0,0,0-1.419,1.375v2.12h5.8Z" transform="translate(-9.0445 -12.3785)"/><path d="M20.3666,18.8555h5.794v-2.12a1.4,1.4,0,0,0-1.419-1.375h-4.375Z" transform="translate(-9.0445 -12.3785)"/><path d="M27.8756,25.2365H12.1046a.5.5,0,1,0,0,1h15.77a.5.5,0,0,0,0-1Z" transform="translate(-9.0445 -12.3785)"/><path d="M30.3606,20.0045a2.1269,2.1269,0,0,0-1.362-.522v-4.74a2.337,2.337,0,0,0-2.3-2.364H13.2846a2.334,2.334,0,0,0-2.3,2.364v4.745a2.227,2.227,0,0,0-1.31.579,2.3651,2.3651,0,0,0-.625,1.762v5.293a.5.5,0,0,0,1,0v-5.293c0-.984.4-1.367,1.432-1.367h17.012a1.7455,1.7455,0,0,1,1.167.261,1.5539,1.5539,0,0,1,.266,1.106v5.293a.5.5,0,1,0,1,0v-5.293A2.4461,2.4461,0,0,0,30.3606,20.0045Zm-17.076-6.621h13.411a1.331,1.331,0,0,1,1.3,1.358v4.714H11.9876v-4.713A1.331,1.331,0,0,1,13.2846,13.3835Z" transform="translate(-9.0445 -12.3785)"/></svg>