<svg xmlns="http://www.w3.org/2000/svg" width="40" height="40" viewBox="0 0 40 40"><defs><style>.a{fill:none;}</style></defs><g transform="translate(-1108 -231)"><rect class="a" width="40" height="40" transform="translate(1108 231)"/><path d="M38.929,73H1.071A1.071,1.071,0,0,1,0,71.929V69.071A1.072,1.072,0,0,1,1.071,68H38.929A1.072,1.072,0,0,1,40,69.071v2.857A1.071,1.071,0,0,1,38.929,73Zm0,14.286H1.071A1.071,1.071,0,0,1,0,86.214V83.357a1.071,1.071,0,0,1,1.071-1.071H38.929A1.071,1.071,0,0,1,40,83.357v2.857A1.071,1.071,0,0,1,38.929,87.286Zm0,14.286H1.071A1.071,1.071,0,0,1,0,100.5V97.643a1.071,1.071,0,0,1,1.071-1.071H38.929A1.071,1.071,0,0,1,40,97.643V100.5A1.071,1.071,0,0,1,38.929,101.571Z" transform="translate(1108 166)"/></g></svg>