<svg xmlns="http://www.w3.org/2000/svg" width="24.364" height="24" viewBox="0 0 24.364 24"><path d="M0,17.337a4.8,4.8,0,0,0,4.97,4.572,4.868,4.868,0,0,0,4.97-3.9h.485a1.219,1.219,0,0,0,.727.558h.364a1.152,1.152,0,0,0,1.091-.781l.606-1.673,4-3.791.242.669a4.537,4.537,0,0,0-3.03,4.237,4.731,4.731,0,0,0,4.97,4.572,4.731,4.731,0,0,0,4.97-4.572,4.731,4.731,0,0,0-4.97-4.572,5.391,5.391,0,0,0-1.333.112l-.606-2.119-.242-.669H19.03c.242,0,.364-.112.364-.223,0-.223-.121-.223-.364-.223H17.7a1.1,1.1,0,0,0,0-1.45l-4-4.126c0-.112-.121-.112-.242-.112l-.121-.112a1.852,1.852,0,0,0-2.424.335L7.636,8.193a1.6,1.6,0,0,0,0,1.784c0,.112.121.112.242.223l.606.558v.112L7.152,13.211a6.124,6.124,0,0,0-2.061-.446A4.841,4.841,0,0,0,0,17.337Zm17.576-3.568,1.333,3.68c0,.112.242.223.364.223h.121c.242-.112.242-.223.242-.446l-1.455-3.68a3.634,3.634,0,0,1,1.091-.112,3.934,3.934,0,0,1,4.121,3.791,3.934,3.934,0,0,1-4.121,3.791,3.934,3.934,0,0,1-4.121-3.791A3.738,3.738,0,0,1,17.576,13.768Zm-1.091-3.345H11.273l-.606-.669,2.424-3.122,2.788,2.9c.121.112.364.223.485.335h0Zm-4.242.781h4.485l.121.558-3.273,3.122.364-1.227a1.285,1.285,0,0,0-.242-1.115Zm-2.788.446,2.182,1.9-.848,2.342ZM7.636,13.434l.97-1.673,1.7,5.352v.223H9.939A4.332,4.332,0,0,0,7.636,13.434Zm1.576,3.791L5.576,17l1.7-2.9A4.238,4.238,0,0,1,9.212,17.225Zm-8.364.112A3.934,3.934,0,0,1,4.97,13.545a4.6,4.6,0,0,1,1.7.335L4.727,17.225v.335c0,.112.121.112.242.223l4.121.335A4.188,4.188,0,0,1,4.97,21.351,4.272,4.272,0,0,1,.848,17.337Z" transform="translate(0 2.092)"/><circle cx="2.569" cy="2.569" r="2.569" transform="translate(11.693)"/></svg>