<svg xmlns="http://www.w3.org/2000/svg" width="40" height="40" viewBox="0 0 40 40"><defs><style>.a{fill:none;}</style></defs><g transform="translate(-646 -603)"><path class="a" d="M0,0H40V40H0Z" transform="translate(646 603)"/><path d="M30.3,23.712l4.635-3.922a3,3,0,0,0-.956-5.125L30.5,13.46V5.5A1.5,1.5,0,0,0,29,4H26V1.5A1.5,1.5,0,0,0,24.5,0h-9A1.5,1.5,0,0,0,14,1.5V4H11A1.5,1.5,0,0,0,9.5,5.5v7.96L6.019,14.665a3,3,0,0,0-.957,5.125L9.7,23.712C8.237,26.924,5.286,29,.75,29a.75.75,0,0,0-.75.75v1.5A.75.75,0,0,0,.75,32c3.855,0,7.146-1.063,9.823-4.156A5.007,5.007,0,0,0,15.5,32h9a5.007,5.007,0,0,0,4.927-4.156c2.695,3.113,6,4.156,9.823,4.156a.75.75,0,0,0,.75-.75v-1.5a.75.75,0,0,0-.75-.75C34.751,29,31.778,26.958,30.3,23.712ZM16.5,2.5h7V4h-7ZM12.5,7h15v5.421l-6.519-2.256a3,3,0,0,0-1.963,0L12.5,12.421Zm14,20a2,2,0,0,1-2,2h-9a2,2,0,0,1-2-2V23L7,17.5,20,13l13,4.5L26.5,23Z" transform="translate(646 607)"/></g></svg>