<svg xmlns="http://www.w3.org/2000/svg" width="40" height="40.006" viewBox="0 0 40 40.006">
  <g id="breakfast-available" transform="translate(-461 -791)">
    <path id="egg-fried" d="M37.444,11.756C34.358,8.575,29.574,8.139,26.162,5.33S20.044,0,15.739,0a12.325,12.325,0,0,0-1.965.164C6.994,1.258,5.046,6.415,4.007,12.442,3.14,17.469-.244,22.365.1,27.515A14,14,0,0,0,9.084,39.294a11.274,11.274,0,0,0,3.822.712c5.052,0,8.512-4,12.167-7.467,3.413-3.238,7.3-2.947,11.012-5.773,4.4-3.346,5.6-10.982,1.359-15.01ZM33.816,23.776a15.163,15.163,0,0,1-4.211,2.039,18.744,18.744,0,0,0-7.11,4c-.431.409-.859.824-1.288,1.241-2.872,2.788-5.35,5.2-8.3,5.2a7.535,7.535,0,0,1-2.557-.491A10.312,10.312,0,0,1,3.836,27.27c-.15-2.266.806-4.8,1.817-7.477A36.342,36.342,0,0,0,7.7,13.085c1.081-6.26,2.762-8.584,6.669-9.214a8.643,8.643,0,0,1,1.369-.116c2.526,0,4.243,1.328,7.307,3.868l.734.607a24.14,24.14,0,0,0,6.2,3.426,14.355,14.355,0,0,1,4.773,2.716l.054.055.056.053a5.351,5.351,0,0,1,1.451,4.186,7.074,7.074,0,0,1-2.5,5.11ZM17.573,10.012a8.761,8.761,0,1,0,8.751,8.761,8.768,8.768,0,0,0-8.751-8.761Zm0,5.631a3.132,3.132,0,0,0-3.125,3.13,1.25,1.25,0,1,1-2.5,0,5.636,5.636,0,0,1,5.626-5.633,1.25,1.25,0,1,1,0,2.5Z" transform="translate(460.924 791)"/>
    <rect id="Rectangle_1886" data-name="Rectangle 1886" width="40" height="40" transform="translate(461 791)" fill="none"/>
  </g>
</svg>
