<svg xmlns="http://www.w3.org/2000/svg" xmlns:xlink="http://www.w3.org/1999/xlink" width="21.962" height="24" viewBox="0 0 21.962 24"><defs><clipPath id="a"><rect width="21.962" height="24" fill="none"/></clipPath></defs><g clip-path="url(#a)"><path d="M.8,18c0,1.2.84,1.56,1.68,2.28v2.4A1.332,1.332,0,0,0,3.8,24H5.12a1.332,1.332,0,0,0,1.32-1.32V21.36H17.12v1.32A1.332,1.332,0,0,0,18.44,24h1.32a1.332,1.332,0,0,0,1.32-1.32v-2.4c.84-.72,1.68-1.08,1.68-2.28V5.28C22.88.6,17.72,0,11.84,0S.8.6.8,5.28Zm5.04.96a2.04,2.04,0,0,1,0-4.08,1.953,1.953,0,0,1,2.04,2.04A2.023,2.023,0,0,1,5.84,18.96Zm12,0a2.04,2.04,0,0,1,0-4.08,1.953,1.953,0,0,1,2.04,2.04A2.023,2.023,0,0,1,17.84,18.96Zm2.04-7.68H3.8V4.68H19.76v6.6Z" transform="translate(-0.8 0)"/></g></svg>