<svg xmlns="http://www.w3.org/2000/svg" width="40" height="40" viewBox="0 0 40 40"><path d="M28.75,28.75a2.5,2.5,0,1,0-2.5-2.5A2.5,2.5,0,0,0,28.75,28.75Zm-17.5,0a2.5,2.5,0,1,0-2.5-2.5A2.5,2.5,0,0,0,11.25,28.75ZM38.125,10H37.5V6.25C37.5,2.75,29.75,0,20,0S2.5,2.75,2.5,6.25V10H1.875A1.875,1.875,0,0,0,0,11.875v6.25A1.875,1.875,0,0,0,1.875,20H2.5V32.5A2.5,2.5,0,0,0,5,35v2.5A2.5,2.5,0,0,0,7.5,40H8.75a2.5,2.5,0,0,0,2.5-2.5V35h17.5v2.5a2.5,2.5,0,0,0,2.5,2.5H32.5A2.5,2.5,0,0,0,35,37.5V35a2.5,2.5,0,0,0,2.5-2.5V20h.625A1.875,1.875,0,0,0,40,18.125v-6.25A1.875,1.875,0,0,0,38.125,10ZM33.75,31.25H6.25v-10h27.5Zm0-13.75H6.25v-5h27.5Zm0-8.75H6.25V6.674C7.358,5.594,12.241,3.75,20,3.75S32.642,5.594,33.75,6.674Z"/></svg>