<svg xmlns="http://www.w3.org/2000/svg" width="21.435" height="24" viewBox="0 0 21.435 24"><path d="M-924.774,1026.1a8.9,8.9,0,0,1-6.661,2.957,8.943,8.943,0,0,1-6.66-2.957c-2.024.581-3.3,1.466-3.3,2.427,0,1.795,4.458,3.236,9.965,3.236s9.965-1.466,9.965-3.236C-921.47,1027.566-922.751,1026.707-924.774,1026.1Z" transform="translate(941.4 -1007.762)"/><path d="M-917.2,988.5h-15.03a.767.767,0,0,0-.771.758v2.907a7.772,7.772,0,0,0,7.836,7.71h0a7.809,7.809,0,0,0,6.757-3.842h1.208a3.807,3.807,0,0,0,3.828-3.766h0A3.807,3.807,0,0,0-917.2,988.5Zm0,5.915h-.488a8.076,8.076,0,0,0,.334-2.25v-2.022h.154a2.164,2.164,0,0,1,2.184,2.149A2.16,2.16,0,0,1-917.2,994.415Z" transform="translate(934.806 -979.667)"/><path d="M-923.763,960.138a.735.735,0,0,0,.688.682h.107a.8.8,0,0,0,.559-.935l-.129-.885a1.487,1.487,0,0,1,.215-1.011l.086-.152a3.326,3.326,0,0,0,.495-2.224l-.172-1.365a.71.71,0,0,0-.8-.682.8.8,0,0,0-.581.935l.172,1.365a1.542,1.542,0,0,1-.215.986l-.086.152a3.345,3.345,0,0,0-.494,2.275Z" transform="translate(928.449 -953.554)"/><path d="M-908.163,960.138a.736.736,0,0,0,.688.682h.107a.8.8,0,0,0,.559-.935l-.129-.885a1.487,1.487,0,0,1,.215-1.011l.086-.152a3.326,3.326,0,0,0,.495-2.224l-.172-1.365a.71.71,0,0,0-.8-.682.8.8,0,0,0-.581.935l.172,1.365a1.541,1.541,0,0,1-.215.986l-.086.152a3.345,3.345,0,0,0-.495,2.275Z" transform="translate(916.875 -953.554)"/><path d="M-892.663,960.138a.735.735,0,0,0,.688.682h.107a.8.8,0,0,0,.559-.935l-.129-.885a1.487,1.487,0,0,1,.215-1.011l.086-.152a3.326,3.326,0,0,0,.495-2.224l-.172-1.365a.71.71,0,0,0-.8-.682.8.8,0,0,0-.58.935l.172,1.365a1.542,1.542,0,0,1-.215.986l-.086.152a3.345,3.345,0,0,0-.495,2.275Z" transform="translate(905.374 -953.554)"/></svg>