<svg xmlns="http://www.w3.org/2000/svg" width="40" height="40" viewBox="0 0 40 40"><defs><style>.a{fill:none;}</style></defs><g transform="translate(-372 -417)"><rect class="a" width="40" height="40" transform="translate(372 417)"/><path d="M32.83,30H7.188a1.029,1.029,0,0,0-1.026,1.026V50.488a5.127,5.127,0,0,0,5.128,5.128H25.65a5.127,5.127,0,0,0,5.128-5.128V46.411H32.83A8.205,8.205,0,1,0,32.83,30ZM27.7,50.488a2.057,2.057,0,0,1-2.051,2.051H11.29a2.057,2.057,0,0,1-2.051-2.051V33.077H27.7Zm5.128-7.154H30.779V33.077H32.83a5.128,5.128,0,1,1,0,10.257ZM34.356,61.77H3.61c-2.391,0-3.218-3.077-2.051-3.077H36.414c1.16,0,.333,3.077-2.058,3.077Z" transform="translate(370.964 391)"/></g></svg>