<svg xmlns="http://www.w3.org/2000/svg" width="18.23" height="20.4195" viewBox="0 0 18.23 20.4195"><path d="M24.8375,26.3644a7.4679,7.4679,0,0,1-11.18,0c-1.7.495-2.774,1.2469-2.774,2.0639,0,1.527,3.741,2.752,8.364,2.752s8.364-1.2469,8.364-2.752C27.6115,27.6115,26.5365,26.88,24.8375,26.3644Z" transform="translate(-10.8835 -10.7608)"/><path d="M25.9126,18.28H13.3345a.647.647,0,0,0-.645.645v2.473a6.556,6.556,0,0,0,6.554,6.558h.004a6.5146,6.5146,0,0,0,5.655-3.268h1.011a3.212,3.212,0,0,0,3.2-3.2h0A3.2119,3.2119,0,0,0,25.9126,18.28Zm0,5.031h-.409a6.9787,6.9787,0,0,0,.28-1.914V19.68h.129a1.826,1.826,0,0,1,1.828,1.824v.004A1.8219,1.8219,0,0,1,25.9126,23.3114Z" transform="translate(-10.8835 -10.7608)"/><path d="M14.8185,16.3664a.6931.6931,0,0,0,.688.581h.107a.683.683,0,0,0,.5615-.786l-.0025-.014-.129-.753a1.115,1.115,0,0,1,.215-.86l.086-.129a2.5,2.5,0,0,0,.495-1.892l-.172-1.161a.687.687,0,0,0-.7758-.5849l-.0242.0039a.6869.6869,0,0,0-.5848.7758l.0038.0242.172,1.161a1.1564,1.1564,0,0,1-.215.839l-.086.129a2.5086,2.5086,0,0,0-.494,1.935Z" transform="translate(-10.8835 -10.7608)"/><path d="M18.1725,16.3664a.6931.6931,0,0,0,.688.581h.107a.683.683,0,0,0,.5615-.786l-.0025-.014-.129-.753a1.115,1.115,0,0,1,.215-.86l.086-.129a2.5,2.5,0,0,0,.495-1.892l-.172-1.161a.687.687,0,0,0-.7758-.5849l-.0242.0039a.6869.6869,0,0,0-.5848.7758l.0038.0242.172,1.161a1.1559,1.1559,0,0,1-.215.839l-.086.129a2.5088,2.5088,0,0,0-.495,1.935Z" transform="translate(-10.8835 -10.7608)"/><path d="M21.5054,16.3664a.6932.6932,0,0,0,.688.581H22.3a.6831.6831,0,0,0,.5616-.786l-.0025-.014-.1291-.753a1.1151,1.1151,0,0,1,.2151-.86l.0859-.129a2.5,2.5,0,0,0,.495-1.892l-.172-1.161a.6869.6869,0,0,0-.7758-.5849l-.0241.0039a.6869.6869,0,0,0-.5838.7766l.0037.0234.172,1.161a1.1559,1.1559,0,0,1-.215.839l-.086.129a2.5092,2.5092,0,0,0-.495,1.935Z" transform="translate(-10.8835 -10.7608)"/></svg>