<svg xmlns="http://www.w3.org/2000/svg" width="40" height="40" viewBox="0 0 40 40"><defs><style>.a{fill:none;}</style></defs><g transform="translate(-235 -696)"><path d="M31.25,5H27.5V.938A.938.938,0,0,0,26.563,0H23.438A.938.938,0,0,0,22.5.938V5h-10V.938A.938.938,0,0,0,11.563,0H8.438A.938.938,0,0,0,7.5.938V5H3.75A3.75,3.75,0,0,0,0,8.75v27.5A3.75,3.75,0,0,0,3.75,40h27.5A3.75,3.75,0,0,0,35,36.25V8.75A3.75,3.75,0,0,0,31.25,5Zm-.469,31.25H4.219a.469.469,0,0,1-.469-.469V12.5h27.5V35.781A.469.469,0,0,1,30.781,36.25ZM26.652,20.574,15.535,31.6a.938.938,0,0,1-1.326-.005L8.342,25.684a.938.938,0,0,1,.005-1.326L10.122,22.6a.937.937,0,0,1,1.326.005l3.446,3.474,8.677-8.608a.938.938,0,0,1,1.326.005l1.761,1.775a.937.937,0,0,1-.005,1.326Z" transform="translate(238 696)"/><rect class="a" width="40" height="39.578" transform="translate(235 696)"/></g></svg>