<svg xmlns="http://www.w3.org/2000/svg" width="25.172" height="24" viewBox="0 0 25.172 24"><g transform="translate(0 0)"><path d="M39.117,30.165h-2.34V29.071a.948.948,0,1,0-1.9,0v1.094H24.29V29.071a.948.948,0,0,0-1.9,0v1.094h-2.34A3.058,3.058,0,0,0,17,33.219v15.85a3.058,3.058,0,0,0,3.054,3.054H39.117a3.058,3.058,0,0,0,3.054-3.054V33.219A3.058,3.058,0,0,0,39.117,30.165Zm-19.063,1.9h2.34v2.319a.948.948,0,0,0,1.9,0V32.061H34.881v2.319a.948.948,0,0,0,1.9,0V32.061h2.34a1.16,1.16,0,0,1,1.159,1.159v4.059H18.9V33.219A1.16,1.16,0,0,1,20.054,32.061ZM39.117,50.227H20.054A1.16,1.16,0,0,1,18.9,49.069V39.174h21.38v9.895A1.16,1.16,0,0,1,39.117,50.227Z" transform="translate(-17 -28.123)"/><path d="M178.36,272.307l-4.807,4.6-2.274-2.274a1.107,1.107,0,0,0-1.565,1.565l3.04,3.04a1.107,1.107,0,0,0,1.547.017l5.589-5.344a1.107,1.107,0,0,0-1.53-1.6Z" transform="translate(-162.151 -259.953)"/></g></svg>