<svg xmlns="http://www.w3.org/2000/svg" xmlns:xlink="http://www.w3.org/1999/xlink" width="28.771" height="24" viewBox="0 0 28.771 24"><path d="M19.59,20.09a2.228,2.228,0,0,0-2.313-1.59H-.361a2.478,2.478,0,0,0-2.313,1.59L-6,28.91v12A1.6,1.6,0,0,0-4.41,42.5h1.59a1.6,1.6,0,0,0,1.59-1.59v-.867H18v.867a1.6,1.6,0,0,0,1.59,1.59h1.59a1.6,1.6,0,0,0,1.59-1.59v-12ZM-.361,35.416a2.437,2.437,0,0,1-2.458-2.458A2.437,2.437,0,0,1-.361,30.5,2.353,2.353,0,0,1,2.1,32.958,2.437,2.437,0,0,1-.361,35.416Zm17.639,0a2.458,2.458,0,1,1,2.458-2.458A2.353,2.353,0,0,1,17.277,35.416Zm-20.1-8.1,2.458-6.361H17.277l2.458,6.361Z" transform="translate(6 -18.5)"/></svg>