<svg xmlns="http://www.w3.org/2000/svg" width="16.576" height="13.8341" viewBox="0 0 16.576 13.8341"><path d="M26.456,14.025a1.284,1.284,0,0,0-1.333-.916H14.961a1.4279,1.4279,0,0,0-1.333.916l-1.916,5.084v6.914a.9239.9239,0,0,0,.916.916h.916a.9239.9239,0,0,0,.916-.916v-.5H25.54v.5a.9239.9239,0,0,0,.916.916h.916a.9239.9239,0,0,0,.916-.916V19.109Zm-11.5,8.83a1.4,1.4,0,0,1-1.411-1.3888c0-.0091,0-.0181,0-.0272a1.4,1.4,0,0,1,1.3838-1.416h.0322a1.356,1.356,0,0,1,1.416,1.2932q.0029.0615,0,.1228a1.4,1.4,0,0,1-1.3838,1.416c-.0107,0-.0215,0-.0322,0Zm10.162,0a1.416,1.416,0,1,1,1.421-1.416,1.356,1.356,0,0,1-1.2932,1.416q-.0614.0028-.1228,0ZM13.545,18.19l1.416-3.665H25.123l1.416,3.665Z" transform="translate(-11.712 -13.105)"/></svg>