<svg xmlns="http://www.w3.org/2000/svg" width="40" height="40" viewBox="0 0 40 40"><path d="M28,8A20,20,0,1,0,48,28,20,20,0,0,0,28,8Zm0,36.129A16.129,16.129,0,1,1,44.129,28,16.125,16.125,0,0,1,28,44.129Zm8.21-21.145L31.194,28l5.016,5.016a.969.969,0,0,1,0,1.371L34.387,36.21a.969.969,0,0,1-1.371,0L28,31.194,22.984,36.21a.969.969,0,0,1-1.371,0L19.79,34.387a.969.969,0,0,1,0-1.371L24.806,28,19.79,22.984a.969.969,0,0,1,0-1.371l1.823-1.823a.969.969,0,0,1,1.371,0L28,24.806l5.016-5.016a.969.969,0,0,1,1.371,0l1.823,1.823a.969.969,0,0,1,0,1.371Z" transform="translate(-8 -8)"/></svg>