<svg xmlns="http://www.w3.org/2000/svg" width="40" height="30" viewBox="0 0 40 30"><path d="M36.25,64H3.75A3.75,3.75,0,0,0,0,67.75v22.5A3.75,3.75,0,0,0,3.75,94h32.5A3.75,3.75,0,0,0,40,90.25V67.75A3.75,3.75,0,0,0,36.25,64Zm0,3.75v3.188c-1.752,1.426-4.544,3.645-10.515,8.32C24.42,80.292,21.813,82.779,20,82.75c-1.813.029-4.42-2.458-5.735-3.492C8.3,74.583,5.5,72.365,3.75,70.938V67.75ZM3.75,90.25V75.75c1.79,1.426,4.329,3.427,8.2,6.457,1.708,1.344,4.7,4.311,8.052,4.293,3.337.018,6.29-2.906,8.051-4.293,3.869-3.03,6.409-5.031,8.2-6.457v14.5Z" transform="translate(0 -64)"/></svg>