<svg xmlns="http://www.w3.org/2000/svg" width="8.643" height="18.002" viewBox="0 0 8.643 18.002"><path d="M17.6075,20.0069h-1.572c-.214,0-.357-.071-.357-.285v-2.858h1.5c.429,0,.429,0,.429-.429a17.0012,17.0012,0,0,1,.071-2.714,2.7651,2.7651,0,0,1,2.572-2.571c1-.143,2-.072,2.928-.143h.857a.1891.1891,0,0,1,.214.16.1865.1865,0,0,1,0,.0538v2.786a.2619.2619,0,0,1-.2356.286.25.25,0,0,1-.05,0h-1.785c-.571,0-.714.214-.714.714v1.572c0,.214.071.286.286.286h2.214c.286,0,.357.071.357.357-.071.857-.143,1.714-.214,2.5,0,.214-.143.286-.357.286h-1.929c-.286,0-.357.071-.357.357v8.142c0,.5,0,.5-.5.5h-3c-.286,0-.429-.071-.429-.429v-8.142A.9055.9055,0,0,0,17.6075,20.0069Z" transform="translate(-15.6785 -11.005)"/></svg>