<svg xmlns="http://www.w3.org/2000/svg" width="11.524" height="24" viewBox="0 0 11.524 24"><path d="M2.571,12H.476C.19,12,0,11.9,0,11.619V7.81H2c.571,0,.571,0,.571-.571a22.675,22.675,0,0,1,.1-3.619A3.687,3.687,0,0,1,6.1.19C7.429,0,8.762.1,10,0h1.143a.253.253,0,0,1,.286.286V4a.349.349,0,0,1-.381.381H8.667c-.762,0-.952.286-.952.952v2.1c0,.286.1.381.381.381h2.952c.381,0,.476.1.476.476-.1,1.143-.19,2.286-.286,3.333,0,.286-.19.381-.476.381H8.19c-.381,0-.476.1-.476.476V23.333c0,.667,0,.667-.667.667h-4c-.381,0-.571-.1-.571-.571V12.571A1.208,1.208,0,0,0,2.571,12Z"/></svg>