<svg id="Layer_1" data-name="Layer 1" xmlns="http://www.w3.org/2000/svg" viewBox="0 0 448 448"><title>facility-accessparkdrop</title><path d="M400.5,32H48.5A48,48,0,0,0,.5,80V432a48,48,0,0,0,48,48h352a48,48,0,0,0,48-48V80A48,48,0,0,0,400.5,32Zm0,394a6,6,0,0,1-6,6H54.5a6,6,0,0,1-6-6V86a6,6,0,0,1,6-6h340a6,6,0,0,1,6,6Z" transform="translate(-0.5 -32)"/><path d="M175.92,106.22h-80a16,16,0,0,0-16,16v216a16,16,0,0,0,16,16h16a16,16,0,0,0,16-16v-56h48a88,88,0,1,0,0-176Zm0,128.1h-48v-80h48a40,40,0,1,1,0,80Z" transform="translate(-0.5 -32)"/><path d="M202.9,371.39a4.16,4.16,0,0,1,5.6-1.88l14.2,7.31L244,329.11a8.36,8.36,0,0,1,7.63-4.95h53.9l2.23-16.7H258.58a4.17,4.17,0,0,1-4.17-4.17v-8.35a4.17,4.17,0,0,1,4.17-4.17H310l3.36-25.2a16.69,16.69,0,1,1,19-16.54c-.09,1.54.79-5.34-11.2,84.58a8.35,8.35,0,0,1-8.28,7.25H257l-22.63,50.7a8.35,8.35,0,0,1-11.33,4.08l-22-11.19a4.17,4.17,0,0,1-1.88-5.59l3.71-7.47ZM260.1,375a61.21,61.21,0,1,0,83.07-80.42l-2.39,17.95a44.51,44.51,0,1,1-68.89,45.06h-4Z" transform="translate(-0.5 -32)"/></svg>