<svg xmlns="http://www.w3.org/2000/svg" width="40" height="40" viewBox="0 0 40 40"><path d="M-4511.715,2027a4.285,4.285,0,0,1-4.285-4.286v-31.427a4.285,4.285,0,0,1,4.285-4.286h31.428a4.286,4.286,0,0,1,4.287,4.286v31.427a4.286,4.286,0,0,1-4.287,4.286Zm0-35.179v30.356a.536.536,0,0,0,.537.537h30.356a.534.534,0,0,0,.534-.537v-30.356a.534.534,0,0,0-.534-.534h-30.356A.535.535,0,0,0-4511.715,1991.821Zm18.894,25.8.7-1.554h.355a3.974,3.974,0,0,0,3.607,3.219,3.977,3.977,0,0,0,4.047-2.647,3.977,3.977,0,0,0-1.5-4.594l.213-1.6a5.467,5.467,0,0,1,2.93,5.787,5.466,5.466,0,0,1-4.659,4.51,5.417,5.417,0,0,1-.729.049A5.466,5.466,0,0,1-4492.821,2017.624Zm-3.31,1.844-1.964-1a.373.373,0,0,1-.168-.5l.331-.666h0a.373.373,0,0,1,.217-.188.364.364,0,0,1,.284.02l1.268.653,1.9-4.26a.748.748,0,0,1,.681-.442h4.813l.2-1.492h-4.392a.372.372,0,0,1-.374-.371v-.746a.373.373,0,0,1,.374-.373h4.59l.3-2.249a1.493,1.493,0,0,1-1.276-1.615,1.49,1.49,0,0,1,1.552-1.35,1.486,1.486,0,0,1,1.421,1.488c-.006.136.072-.479-1,7.551a.745.745,0,0,1-.739.649h-4.987l-2.022,4.526a.742.742,0,0,1-.427.4.767.767,0,0,1-.253.043A.739.739,0,0,1-4496.131,2019.467Zm-11.349-3.7a1.43,1.43,0,0,1-1.43-1.429v-19.285a1.43,1.43,0,0,1,1.43-1.429h7.143a7.857,7.857,0,0,1,7.856,7.858,7.857,7.857,0,0,1-7.856,7.856h-4.287v5a1.429,1.429,0,0,1-1.429,1.429Zm2.855-10.707h4.287a3.568,3.568,0,0,0,3.569-3.57,3.57,3.57,0,0,0-3.569-3.573h-4.287Z" transform="translate(4516 -1987)"/></svg>