<svg xmlns="http://www.w3.org/2000/svg" width="40" height="40" viewBox="0 0 40 40"><defs><style>.a{fill:none;}</style></defs><g transform="translate(-303 -510)"><rect class="a" width="39.485" height="40" transform="translate(303 510)"/><path d="M28.889,8.078A1.155,1.155,0,1,0,30,9.232,1.133,1.133,0,0,0,28.889,8.078Zm8.333-3.461H33.808l-.037-.074a3.854,3.854,0,0,0-3.478-2.234H25c-.037,0-.07.01-.107.012l.01-.012L23.008.342a1.106,1.106,0,0,0-1.9.816V13L4.664.231A1.084,1.084,0,0,0,3.109.464l-.665.924A1.183,1.183,0,0,0,2.668,3l13.97,10.844h-3.86a8.116,8.116,0,0,0-5.622,2.308H6.111A2.836,2.836,0,0,1,3.333,13.27a1.7,1.7,0,0,0-1.667-1.731A1.7,1.7,0,0,0,0,13.27,6.287,6.287,0,0,0,4.992,19.5a8.859,8.859,0,0,0-.547,3V34.616a2.268,2.268,0,0,0,2.222,2.308h5.556a2.268,2.268,0,0,0,2.222-2.308V27.693h8.889v6.923a2.268,2.268,0,0,0,2.222,2.308h5.556a2.268,2.268,0,0,0,2.222-2.308V17.308h.556A6.238,6.238,0,0,0,40,10.963V7.5A2.836,2.836,0,0,0,37.222,4.617ZM19.444,24.231H11.111v9.23H7.778V22.5a5.105,5.105,0,0,1,5-5.192h6.667ZM30,33.462H26.667v-9.23H22.778V17.505L30,19.38Zm6.667-22.5a2.836,2.836,0,0,1-2.778,2.885H30v1.967l-5.556-1.442V6.347A.567.567,0,0,1,25,5.77h5.293a.551.551,0,0,1,.5.319l.957,1.989h4.919Z" transform="translate(303 511.999)"/></g></svg>