<svg xmlns="http://www.w3.org/2000/svg" width="40" height="40" viewBox="0 0 40 40"><defs><style>.a{fill:none;}</style></defs><g transform="translate(-1457 -374)"><path class="a" d="M0,0H40V40H0Z" transform="translate(1457 374)"/><path d="M50.291,27.834l-3.75-10.858A4.944,4.944,0,0,0,45.182,14.9a7.811,7.811,0,1,0-11.748-.008,5.07,5.07,0,0,0-1.359,2.078l-.312.906c-.126-.01-.252-.017-.38-.017a4.428,4.428,0,0,0-1.226.173,6.3,6.3,0,0,0-12.026,0,4.439,4.439,0,0,0-1.224-.173,4.374,4.374,0,0,0-3.095,7.473L16.786,28.3v9.255a4.382,4.382,0,0,0,4.374,4.374h.426a4.37,4.37,0,0,0,2.554-.824,4.367,4.367,0,0,0,2.559.824h.425A4.382,4.382,0,0,0,31.5,37.559V34.189a5.006,5.006,0,0,0,1.556.246v2.5a5,5,0,0,0,5,5h2.5a5,5,0,0,0,5-5v-2.5a5,5,0,0,0,4.737-6.6ZM39.3,5.688A4.062,4.062,0,1,1,35.243,9.75,4.062,4.062,0,0,1,39.3,5.688ZM24.143,17.249A2.646,2.646,0,1,1,21.5,19.9,2.646,2.646,0,0,1,24.143,17.249Zm4.979,8.28-1.106,1.106-.156.16V37.559a.73.73,0,0,1-.73.73H26.7a.73.73,0,0,1-.734-.73V31.9H22.319v5.657a.73.73,0,0,1-.73.73h-.426a.73.73,0,0,1-.73-.73V26.793l-.156-.16-3.888-3.882a.73.73,0,1,1,1.033-1.033l2.15,2.15a6.459,6.459,0,0,0,4.571,1.9h0a6.459,6.459,0,0,0,4.57-1.893l1.494-1.493.655-.655a.73.73,0,0,1,1.033,1.032Zm16.4,5.156H41.807v6.249a1.25,1.25,0,0,1-1.25,1.25h-2.5a1.25,1.25,0,0,1-1.25-1.25V30.685h-3.75a1.25,1.25,0,0,1-1.18-1.672l.574-1.66,2.595-7.51.569-1.657a1.25,1.25,0,0,1,1.187-.851h.617a7.87,7.87,0,0,0,3.765,0H41.8a1.25,1.25,0,0,1,1.187.851l3.749,10.85a1.256,1.256,0,0,1-1.215,1.648Z" transform="translate(1445.476 372.066)"/></g></svg>