<svg xmlns="http://www.w3.org/2000/svg" viewBox="0 0 20.313 17.916">
	<path d="M19.93,4.005a5.884,5.884,0,0,0-7.777,1.117A5.873,5.873,0,0,0,4.376,4.005,5.555,5.555,0,0,0,2,8.361c-.142,3.939,3.35,7.1,8.681,11.94l.1.091a2.026,2.026,0,0,0,2.731-.01l.112-.1c5.33-4.833,8.813-7.99,8.681-11.929A5.552,5.552,0,0,0,19.93,4.005ZM12.254,18.787l-.1.1-.1-.1c-4.833-4.376-8.021-7.269-8.021-10.2A3.47,3.47,0,0,1,7.584,5.031a3.969,3.969,0,0,1,3.625,2.4h1.9a3.944,3.944,0,0,1,3.614-2.4,3.47,3.47,0,0,1,3.553,3.553C20.275,11.518,17.087,14.412,12.254,18.787Z" transform="translate(-1.996 -2.999)" />
</svg>
