<svg xmlns="http://www.w3.org/2000/svg" viewBox="0 0 29.972 26.842">
  <path id="icon-favourite" d="M28.457,4.506A8.591,8.591,0,0,0,16.982,6.179,8.575,8.575,0,0,0,5.507,4.506,8.356,8.356,0,0,0,2,11.031c-.21,5.9,4.944,10.632,12.808,17.887l.15.137a2.957,2.957,0,0,0,4.03-.015l.165-.152c7.865-7.24,13-11.971,12.808-17.872A8.351,8.351,0,0,0,28.457,4.506ZM17.132,26.652l-.15.152-.15-.152C9.7,20.1,5,15.762,5,11.366a5.16,5.16,0,0,1,5.243-5.324,5.856,5.856,0,0,1,5.348,3.59h2.8a5.819,5.819,0,0,1,5.333-3.59,5.16,5.16,0,0,1,5.243,5.324C28.967,15.762,24.263,20.1,17.132,26.652Z" transform="translate(-1.996 -2.999)"/>
</svg>
