<svg xmlns="http://www.w3.org/2000/svg" width="18.361" height="17.138" viewBox="0 0 18.361 17.138">
  <g>
    <path id="Path_9" data-name="Path 9" d="M18.206,3.961A5.118,5.118,0,0,0,11.176,5.03,5.109,5.109,0,0,0,4.147,3.961,5.4,5.4,0,0,0,2,8.128C1.871,11.9,5.028,14.916,9.846,19.549l.092.087a1.758,1.758,0,0,0,2.469-.01l.1-.1c4.818-4.623,7.965-7.643,7.846-11.411A5.4,5.4,0,0,0,18.206,3.961ZM11.268,18.1l-.092.1-.092-.1c-4.368-4.186-7.25-6.954-7.25-9.76a3.231,3.231,0,0,1,3.212-3.4,3.59,3.59,0,0,1,3.276,2.292h1.716a3.568,3.568,0,0,1,3.267-2.292,3.231,3.231,0,0,1,3.212,3.4C18.518,11.148,15.636,13.916,11.268,18.1Z" transform="translate(-1.996 -2.999)"/>
  </g>
</svg>
