<svg xmlns="http://www.w3.org/2000/svg" width="40" height="40" viewBox="0 0 40 40"><path d="M20,8A20,20,0,1,0,40,28,20,20,0,0,0,20,8ZM34.46,20.9H29.04a26.875,26.875,0,0,0-2.516-7.637A16.167,16.167,0,0,1,34.46,20.9ZM20,11.871c1.5,0,3.919,3.323,5.1,9.032H14.9C16.081,15.194,18.5,11.871,20,11.871ZM3.871,28a16.329,16.329,0,0,1,.323-3.226H10.46c-.081,1.056-.137,2.121-.137,3.226s.056,2.169.137,3.226H4.194A16.329,16.329,0,0,1,3.871,28ZM5.54,35.1H10.96a26.875,26.875,0,0,0,2.516,7.637A16.167,16.167,0,0,1,5.54,35.1ZM10.96,20.9H5.54a16.167,16.167,0,0,1,7.935-7.637A26.875,26.875,0,0,0,10.96,20.9ZM20,44.129c-1.5,0-3.919-3.323-5.1-9.032H25.1c-1.185,5.71-3.6,9.032-5.1,9.032Zm5.653-12.9H14.347c-.089-1.032-.153-2.1-.153-3.226s.065-2.194.153-3.226H25.661c.089,1.032.153,2.1.153,3.226S25.742,30.194,25.653,31.226Zm.871,11.508A27.13,27.13,0,0,0,29.04,35.1H34.46A16.167,16.167,0,0,1,26.524,42.734ZM29.54,31.226c.081-1.056.137-2.121.137-3.226s-.056-2.169-.137-3.226h6.266a16.29,16.29,0,0,1,0,6.452Z" transform="translate(0 -8)"/></svg>