<svg xmlns="http://www.w3.org/2000/svg" xmlns:xlink="http://www.w3.org/1999/xlink">
  <g id="Icon_favourite_" data-name="Icon (favourite)">
    <path id="Path_9" data-name="Path 9" d="M22.255,4.153A6.577,6.577,0,0,0,13.47,5.434,6.565,6.565,0,0,0,4.684,4.153,6.4,6.4,0,0,0,2,9.149c-.161,4.518,3.785,8.14,9.806,13.695l.115.1a2.264,2.264,0,0,0,3.085-.012l.126-.116c6.021-5.543,9.955-9.165,9.806-13.683A6.393,6.393,0,0,0,22.255,4.153ZM13.584,21.108l-.115.116-.115-.116C7.9,16.089,4.294,12.77,4.294,9.4A3.95,3.95,0,0,1,8.309,5.329,4.483,4.483,0,0,1,12.4,8.077h2.145a4.455,4.455,0,0,1,4.083-2.748A3.95,3.95,0,0,1,22.645,9.4C22.645,12.77,19.043,16.089,13.584,21.108Z"/>
  </g>
</svg>
