<svg xmlns="http://www.w3.org/2000/svg" width="23.4" height="23.3984" viewBox="0 0 23.4 23.3984"><path d="M24.822,11.8057l2.653-2.574H31.7v4.094l-3.139,3.042a6.7,6.7,0,0,0-2.05-3.276A8.0858,8.0858,0,0,0,24.822,11.8057Zm-5.065-.351a8.86,8.86,0,0,1,5.909,2.34,8.327,8.327,0,0,1,2.412,5.732,7.3062,7.3062,0,0,1-1.327,4.211c-2.05,3.276-.844,8.891-6.874,8.891a5.3535,5.3535,0,0,1-3.98-1.638l-.6-.585,1.447-1.287a2.567,2.567,0,0,0,.482.585,4.4114,4.4114,0,0,0,2.653,1.053c4.221,0,3.136-4.8,5.306-7.955a6.15,6.15,0,0,0,.965-3.276,6.4908,6.4908,0,0,0-1.81-4.445,6.9151,6.9151,0,0,0-4.583-1.755,6.3921,6.3921,0,0,0-6.392,5.5l-1.688-1.054a8.1253,8.1253,0,0,1,2.171-3.977A8.86,8.86,0,0,1,19.757,11.4547ZM15.295,17.07a4.2,4.2,0,0,1,.844-1.17,5.0875,5.0875,0,0,1,3.618-1.521,5.275,5.275,0,0,1,5.306,5.147,4.8,4.8,0,0,1-1.563,3.506l-.844-.819a3.6467,3.6467,0,0,0,1.085-2.691,4.7911,4.7911,0,0,0-1.085-2.808,3.98,3.98,0,0,0-2.894-1.053,4.4685,4.4685,0,0,0-2.774,1.053c-.241.351-.482.585-.724.936Zm4.7,7.6h0l-7.477,7.253H8.3v-4.091l6.392-6.2Z" transform="translate(-8.3 -9.2317)"/></svg>