<svg xmlns="http://www.w3.org/2000/svg" width="19.5458" height="19.5935" viewBox="0 0 19.5458 19.5935"><title>information</title><path d="M29.7752,19.9031a9.7725,9.7725,0,1,0-19.544.2,9.888,9.888,0,0,0,9.87,9.721,9.762,9.762,0,0,0,9.6749-9.8483Zm-9.772-6.186a1.3391,1.3391,0,0,1,1.3682,1.3092c0,.0216,0,.0432,0,.0648a1.368,1.368,0,0,1-2.736,0,1.339,1.339,0,0,1,1.3032-1.3738Q19.9708,13.7164,20.0032,13.7171Zm1.954,12.372h-3.909v-.491h.977v-6.967h-.977v-.594H20.98v7.561h.977Z" transform="translate(-10.2307 -10.2306)"/></svg>