<svg xmlns="http://www.w3.org/2000/svg" width="20.246" height="20.246" viewBox="0 0 20.246 20.246"><title>instagram</title><path d="M23.796,9.877H16.204a6.327,6.327,0,0,0-6.327,6.327h0v7.592a6.327,6.327,0,0,0,6.327,6.327h7.592a6.327,6.327,0,0,0,6.327-6.327V16.204a6.327,6.327,0,0,0-6.327-6.327Zm4.429,13.919a4.4329,4.4329,0,0,1-4.429,4.429H16.204a4.433,4.433,0,0,1-4.427-4.429V16.204a4.433,4.433,0,0,1,4.427-4.427h7.592a4.4329,4.4329,0,0,1,4.429,4.429Z" transform="translate(-9.877 -9.877)"/><path d="M19.999,14.938a5.061,5.061,0,1,0,5.061,5.061A5.061,5.061,0,0,0,19.999,14.938Zm0,8.225A3.163,3.163,0,1,1,23.162,20h0A3.1681,3.1681,0,0,1,19.999,23.163Z" transform="translate(-9.877 -9.877)"/><circle cx="15.563" cy="4.681" r="0.674"/></svg>