<svg xmlns="http://www.w3.org/2000/svg" width="40" height="40" viewBox="0 0 40 40"><defs><style>.a{fill:none;}</style></defs><g transform="translate(-1374 -611)"><path d="M20.527,73.811,22.3,72.043a1.072,1.072,0,0,0,0-1.515L8.444,56.677H38.929A1.071,1.071,0,0,0,40,55.606v-2.5a1.071,1.071,0,0,0-1.071-1.071H8.444L22.3,38.183a1.072,1.072,0,0,0,0-1.515L20.527,34.9a1.072,1.072,0,0,0-1.515,0L.314,53.6a1.072,1.072,0,0,0,0,1.515l18.7,18.7A1.071,1.071,0,0,0,20.527,73.811Z" transform="translate(1414 685.125) rotate(180)"/><rect class="a" width="40" height="40" transform="translate(1374 611)"/></g></svg>