<svg xmlns="http://www.w3.org/2000/svg" width="40" height="40" viewBox="0 0 40 40"><defs><style>.a{fill:none;}</style></defs><g transform="translate(-714 -418)"><path class="a" d="M0,0H40V40H0Z" transform="translate(714 418)"/><path d="M26.277,2.5A9.779,9.779,0,0,0,21.2,3.9,10.869,10.869,0,0,0,12.437,0C7.4,0,3.227,2.768,2.5,6.378A1.018,1.018,0,0,0,3.61,7.5H6.235L7.485,5,8.97,7.962a8.966,8.966,0,0,0-1.135,2.355,7.034,7.034,0,0,0,1.7,6.978.645.645,0,0,0,.917.027l5.207-5.365A54.232,54.232,0,0,1,11.674,27.5H9.985a10,10,0,0,0-10,10.159A2.461,2.461,0,0,0,2.485,40h25a2.458,2.458,0,0,0,2.5-2.334,9.977,9.977,0,0,0-7.548-9.827A65.254,65.254,0,0,0,23.1,10h5.633l1.25-2.5,1.25,2.5H34a.967.967,0,0,0,.97-1.122C34.336,5.268,30.688,2.5,26.277,2.5Zm-6.834,9.231.052.009a61.22,61.22,0,0,1-.849,15.76H15.7a55.788,55.788,0,0,0,3.741-15.769ZM26.109,36.25H3.861a6.261,6.261,0,0,1,6.124-5h10a6.261,6.261,0,0,1,6.124,5Z" transform="translate(717.016 418)"/></g></svg>