<svg xmlns="http://www.w3.org/2000/svg" width="40" height="40" viewBox="0 0 40 40"><defs><style>.a{fill:none;}</style></defs><g transform="translate(-1751 -425)"><path d="M37.917.674A1.082,1.082,0,0,0,36.924,0a1.125,1.125,0,0,0-.972.59A11.908,11.908,0,0,1,25.542,6.667H19.987A13.3,13.3,0,0,0,7.147,23.555,26.117,26.117,0,0,0,.078,33.346a1.665,1.665,0,1,0,3.146,1.09,22.128,22.128,0,0,1,5.3-7.646A13.315,13.315,0,0,0,21.4,33.256c10.909-.792,18.583-10.569,18.583-22.541A25.252,25.252,0,0,0,37.917.674ZM21.056,29.944a9.995,9.995,0,0,1-9.875-5.312,23.614,23.614,0,0,1,13.812-4.076,1.667,1.667,0,0,0,0-3.333,26.924,26.924,0,0,0-14.861,4.125A9.626,9.626,0,0,1,9.994,20a10.011,10.011,0,0,1,10-10h5.555A15.117,15.117,0,0,0,36.1,5.771a22.817,22.817,0,0,1,.556,4.944c-.007,10.486-6.521,18.569-15.6,19.229Z" transform="translate(1751.014 428)"/><rect class="a" width="40" height="40" transform="translate(1751 425)"/></g></svg>