<svg xmlns="http://www.w3.org/2000/svg" width="40" height="40" viewBox="0 0 40 40"><defs><style>.a{fill:none;}</style></defs><g transform="translate(-268 -737)"><g transform="translate(-570 224.933)"><path d="M19.862,50.768a1.045,1.045,0,1,0,1.045,1.045A1.045,1.045,0,0,0,19.862,50.768ZM21.952,44.5A1.045,1.045,0,1,0,23,45.541,1.045,1.045,0,0,0,21.952,44.5Zm2.091,4.181A1.045,1.045,0,1,0,23,47.632,1.045,1.045,0,0,0,24.043,48.677Zm-2.091,2.091a1.045,1.045,0,1,0-1.045-1.045A1.045,1.045,0,0,0,21.952,50.768Zm-2.091-4.181a1.045,1.045,0,1,0,1.045,1.045A1.045,1.045,0,0,0,19.862,46.586ZM28.224,44.5a1.045,1.045,0,1,0-1.045-1.045A1.045,1.045,0,0,0,28.224,44.5Zm-3.136,1.045A1.045,1.045,0,1,0,26.134,44.5,1.045,1.045,0,0,0,25.088,45.541ZM24.043,42.4a1.045,1.045,0,1,0,1.045,1.045A1.045,1.045,0,0,0,24.043,42.4ZM30.315,44.5a1.045,1.045,0,1,0,1.045,1.045A1.045,1.045,0,0,0,30.315,44.5ZM32.406,42.4a1.045,1.045,0,1,0,1.045,1.045A1.045,1.045,0,0,0,32.406,42.4Zm-4.181,4.181a1.045,1.045,0,1,0,1.045,1.045A1.045,1.045,0,0,0,28.224,46.586Zm-2.091,2.091a1.045,1.045,0,1,0,1.045,1.045A1.045,1.045,0,0,0,26.134,48.677Zm-4.181,4.181A1.045,1.045,0,1,0,23,53.9,1.045,1.045,0,0,0,21.952,52.858Zm-2.091,2.091a1.045,1.045,0,1,0,1.045,1.045A1.045,1.045,0,0,0,19.862,54.949Zm4.181-4.181a1.045,1.045,0,1,0,1.045,1.045A1.045,1.045,0,0,0,24.043,50.768ZM25.457,36.5l-.738-.739a1.045,1.045,0,0,0-1.479,0l-.37.37a7.248,7.248,0,0,0-9.035-.925l-1.064-1.064a7.453,7.453,0,0,0-6.207-2.138A7.72,7.72,0,0,0,0,39.788V69.6a1.045,1.045,0,0,0,1.045,1.045H2.091A1.045,1.045,0,0,0,3.136,69.6V39.434a4.345,4.345,0,0,1,7.417-3.071l1.065,1.065a7.248,7.248,0,0,0,.926,9.031l-.37.37a1.045,1.045,0,0,0,0,1.478l.738.739a1.045,1.045,0,0,0,1.479,0L25.457,37.98A1.045,1.045,0,0,0,25.457,36.5ZM14.784,44.22a4.112,4.112,0,0,1-1.194-2.86,4.186,4.186,0,0,1,4.181-4.181,4.111,4.111,0,0,1,2.86,1.194Z" transform="translate(838 480.119)"/><path d="M199.254,250a.528.528,0,0,1,.711-.239l1.8.928,2.7-6.058a1.061,1.061,0,0,1,.969-.628h6.844l.283-2.12h-6.244a.53.53,0,0,1-.53-.53V240.3a.529.529,0,0,1,.53-.53h6.529l.427-3.2a2.119,2.119,0,1,1,2.413-2.1c-.012.2.1-.678-1.422,10.739a1.06,1.06,0,0,1-1.051.921h-7.1l-2.873,6.437a1.06,1.06,0,0,1-1.439.518l-2.793-1.421a.529.529,0,0,1-.239-.71l.471-.949Zm7.263.458a7.772,7.772,0,1,0,10.547-10.211l-.3,2.279a5.651,5.651,0,1,1-8.747,5.721h-.508Z" transform="translate(656.568 297.103)"/></g><rect class="a" width="40" height="40" transform="translate(268 737)"/></g></svg>