<svg xmlns="http://www.w3.org/2000/svg" width="40" height="40" viewBox="0 0 40 40"><path d="M24.549,15.451a10.952,10.952,0,0,1,.762,14.622c-.488.6-.217.3-6.636,6.72A10.937,10.937,0,0,1,3.206,21.325c2.56-2.56,4.05-4.055,4.954-4.958a.937.937,0,0,1,1.6.64,13.54,13.54,0,0,0,.371,2.955.932.932,0,0,1-.25.875L6.3,24.419A6.563,6.563,0,1,0,15.581,33.7l5.874-5.875a6.564,6.564,0,0,0-1.782-10.548.94.94,0,0,1-.513-.965,4.041,4.041,0,0,1,1.157-2.375l.342-.342a.932.932,0,0,1,1.075-.179,10.876,10.876,0,0,1,2.814,2.035ZM36.794,3.206a10.931,10.931,0,0,0-15.468,0c-6.418,6.418-6.148,6.116-6.636,6.72a10.938,10.938,0,0,0,3.576,16.657.932.932,0,0,0,1.075-.179l.342-.342a4.04,4.04,0,0,0,1.157-2.375.94.94,0,0,0-.513-.965,6.564,6.564,0,0,1-1.782-10.548L24.419,6.3A6.563,6.563,0,0,1,33.7,15.58l-3.582,3.581a.932.932,0,0,0-.25.875,13.54,13.54,0,0,1,.371,2.955.937.937,0,0,0,1.6.64c.9-.9,2.393-2.4,4.954-4.958a10.931,10.931,0,0,0,0-15.468Z" transform="translate(0 0)"/></svg>