<svg xmlns="http://www.w3.org/2000/svg" width="17.542" height="24" viewBox="0 0 17.542 24"><path d="M906.382,230.066a8.847,8.847,0,0,0-12.4,0,8.19,8.19,0,0,0-2.572,6.081,11.35,11.35,0,0,0,.975,4.212,26.644,26.644,0,0,0,2.109,4.212,46,46,0,0,0,2.65,3.82c.97,1.325,1.672,2.183,2.062,2.65l.109.114a.9.9,0,0,0,.087.087,1.146,1.146,0,0,0,1.617-.094l1.385-1.553a42.762,42.762,0,0,0,4.363-6.589,15.153,15.153,0,0,0,2.183-6.859A8.186,8.186,0,0,0,906.382,230.066Z" transform="translate(-891.413 -227.531)" fill="#040405"/></svg>