<svg xmlns="http://www.w3.org/2000/svg" width="17.542" height="24" viewBox="0 0 17.542 24"><path d="M2.573,2.534A8.566,8.566,0,0,1,8.771,0a8.566,8.566,0,0,1,6.2,2.534,8.19,8.19,0,0,1,2.573,6.081,15.173,15.173,0,0,1-2.183,6.861,42.831,42.831,0,0,1-4.366,6.588L9.609,23.616a1.147,1.147,0,0,1-1.7.009L7.8,23.506c-.39-.468-1.091-1.325-2.066-2.651a45.705,45.705,0,0,1-2.651-3.82,26.5,26.5,0,0,1-2.1-4.21A11.335,11.335,0,0,1,0,8.615,8.19,8.19,0,0,1,2.573,2.534Zm3.976,8.225a3.026,3.026,0,0,0,2.222.9,3.09,3.09,0,0,0,2.222-.9,2.855,2.855,0,0,0,.9-2.183,3.066,3.066,0,0,0-.9-2.183,2.883,2.883,0,0,0-2.222-.9,3.09,3.09,0,0,0-2.222.9,2.855,2.855,0,0,0-.9,2.183A3,3,0,0,0,6.549,10.759Z" transform="translate(0 0)"/></svg>