<svg xmlns="http://www.w3.org/2000/svg" width="19.775" height="18.3275" viewBox="0 0 19.775 18.3275"><path d="M29.4905,11.0329a1.0516,1.0516,0,0,0-.87-.147l-5.685,1.535-5.655-1.314h-.035a.5122.5122,0,0,0-.084,0,1.29,1.29,0,0,0-.129-.027h-.082a.9622.9622,0,0,0-.138.023.3073.3073,0,0,0-.047,0l-5.932,1.6a.929.929,0,0,0-.721.896V28.26a.955.955,0,0,0,.989.916,1.0365,1.0365,0,0,0,.277-.037l5.685-1.535,5.685,1.315h.032a.8107.8107,0,0,0,.129.016h.057a1.075,1.075,0,0,0,.148,0h.02l.109-.023,5.932-1.6a.929.929,0,0,0,.712-.882V11.7659A.9.9,0,0,0,29.4905,11.0329Zm-13.446,14.936-3.955,1.07V14.2859l3.955-1.07Zm1.977-12.8,3.955.916v12.773l-3.955-.916Zm9.891,12.571-3.955,1.07V14.0569l3.955-1.07Z" transform="translate(-10.1125 -10.849)"/></svg>