<svg xmlns="http://www.w3.org/2000/svg" width="40" height="40" viewBox="0 0 40 40"><defs><style>.a{fill:none;}</style></defs><g transform="translate(-1244 -231)"><path d="M38.89,32a1.115,1.115,0,0,0-.414.081L26.667,36.444h0L14.722,32.228a4.45,4.45,0,0,0-2.781-.01L1.4,35.885A2.223,2.223,0,0,0,0,37.949V65a1.109,1.109,0,0,0,1.524,1.032l11.809-4.364,11.944,4.216a4.443,4.443,0,0,0,2.781.01L38.6,62.226A2.222,2.222,0,0,0,40,60.162V33.112A1.112,1.112,0,0,0,38.89,32ZM15.556,36.057,24.444,39.2V62.054l-8.889-3.138ZM3.333,61.809V38.741l8.889-3.092V58.524l-.044.016Zm33.333-2.44-8.889,3.092V39.587l.044-.017L36.667,36.3Z" transform="translate(1244 202)"/><rect class="a" width="40" height="40" transform="translate(1244 231)"/></g></svg>