<svg xmlns="http://www.w3.org/2000/svg" width="23.986" height="24" viewBox="0 0 23.986 24"><path d="M19.816,0a6,6,0,0,1,.732.24,2.7,2.7,0,0,1,1.694,2.6c.019,2.761,0,5.518,0,8.284a.7.7,0,0,1-.017.178,2.92,2.92,0,0,0-1.833.218V3.73H1.864c0,.077-.014.161-.014.24v15.32a.958.958,0,0,0,1.092,1.1h9.116c-.178.6-.345,1.2-.525,1.768a.206.206,0,0,1-.161.086H2.91A2.79,2.79,0,0,1,.13,20.289c-.048-.156-.086-.314-.13-.48V2.44a.892.892,0,0,0,.046-.122A2.706,2.706,0,0,1,1.646.254,6.221,6.221,0,0,1,2.447,0Z" transform="translate(0 0)"/><path d="M60.232,64.31l2.936,2.912c-.046.05-.1.108-.151.161Q60.858,69.542,58.68,71.7a.993.993,0,0,1-.393.24c-1.024.312-2.054.612-3.085.907a.734.734,0,0,1-.365.019.384.384,0,0,1-.259-.48q.48-1.679.976-3.332a.537.537,0,0,1,.139-.214q2.245-2.262,4.491-4.5A.146.146,0,0,1,60.232,64.31ZM58,71.152c-.086-.458-.168-.9-.257-1.331a.192.192,0,0,0-.108-.13c-.439-.1-.883-.187-1.334-.278-.163.557-.3,1.094-.48,1.619a.48.48,0,0,0,.161.525.35.35,0,0,0,.441.065Z" transform="translate(-41.472 -48.882)"/><path d="M32.3,46.42v1.818H19.35V46.42Z" transform="translate(-14.708 -35.284)"/><path d="M32.295,31v1.821H19.34V31Z" transform="translate(-14.7 -23.563)"/><path d="M31.414,61.89c-.856.6-1.679,1.2-2.529,1.77a.626.626,0,0,1-.307.067H19.572a1.214,1.214,0,0,1-.252-.019V61.89Z" transform="translate(-14.685 -47.042)"/><path d="M85.363,58.651,82.59,55.914c.41-.437.794-.892,1.231-1.286a.89.89,0,0,1,1.168.06c.523.494,1.034,1,1.526,1.528a.96.96,0,0,1,0,1.286,2.271,2.271,0,0,1-.161.173Z" transform="translate(-62.776 -41.378)"/></svg>