<svg xmlns="http://www.w3.org/2000/svg" width="28.31" height="23.784" viewBox="0 0 28.31 23.784"><g transform="translate(-378 -176)"><circle cx="3.539" cy="3.539" r="3.539" transform="translate(378 181)"/><circle cx="3.539" cy="3.539" r="3.539" transform="translate(384.37 176)"/><path d="M3.539,0A3.539,3.539,0,1,1,0,3.539,3.539,3.539,0,0,1,3.539,0Z" transform="translate(392.862 176)"/><circle cx="3.539" cy="3.539" r="3.539" transform="translate(399.232 181)"/><path d="M22.885,16.671c-1.231-1.444-2.265-2.675-3.51-4.119A6.005,6.005,0,0,0,16.9,10.684a2.866,2.866,0,0,0-.467-.127,7.124,7.124,0,0,0-1.1-.057,5.938,5.938,0,0,0-1.118.071,2.866,2.866,0,0,0-.467.127,6.1,6.1,0,0,0-2.477,1.868C10.033,14.01,9,15.242,7.754,16.686,5.9,18.54,3.621,20.592,4.045,23.466a4.444,4.444,0,0,0,3.3,3.284c1.033.212,4.331-.623,7.842-.623h.255c3.51,0,6.808.821,7.842.623a4.465,4.465,0,0,0,3.3-3.284c.439-2.888-1.84-4.94-3.694-6.794Z" transform="translate(376.828 173)"/></g></svg>