<svg xmlns="http://www.w3.org/2000/svg" width="24.426" height="16.735" viewBox="0 0 24.426 16.735"><title>pet-friendly</title><path d="M11.694,12.7031l-1.344,2.565,1.344,3.913a4.6938,4.6938,0,0,0-1.343,3.9l-2.565,6.233h2.565c-.611-1.832.977-3.053,1.954-4.519l-.611,4.519h2.565c-1.344-2.076.489-4.4,1.344-6.473,1.344,0,1.954,1.344,5.13,1.344l-1.344,5.13h2.565c-1.1-1.466-.122-2.321.611-3.908l1.954,3.908h2.567c-2.076-1.221-2.076-3.053-2.565-5.13l.611-3.176-2.565-3.908-1.954.611H13.526l-1.832-2.443,1.344-2.565Zm15.389,0-2.565,1.344-1.344,2.565,2.565,3.908c.611-1.344,2.565-1.344,5.74-1.344l.733-2.076-5.13-2.565v-.611l1.344-1.344h-1.34Z" transform="translate(-7.786 -12.5801)"/></svg>