<svg xmlns="http://www.w3.org/2000/svg" width="24.001" height="24" viewBox="0 0 24.001 24"><path d="M1711.947,525.26a1.288,1.288,0,0,1,1.409,1.409,4.692,4.692,0,0,1-1.524,2.951c-.011.01-3.383,3.512-5.183,5.183a.705.705,0,0,0-.206.638l2.662,13.331-.984.487-4.881-9.76a.725.725,0,0,0-.991-.263.735.735,0,0,0-.069.046l-6.926,5.886a.708.708,0,0,0-.216.746,6.854,6.854,0,0,1,.4,1.991.9.9,0,0,1-.108.465c-.04.05-.062.1-.324.1a.984.984,0,0,1-.618-.216s-4.024-4.023-4.025-4.025a.982.982,0,0,1-.216-.618c0-.262.047-.284.1-.324a.89.89,0,0,1,.465-.108,6.854,6.854,0,0,1,1.991.4.711.711,0,0,0,.746-.216l5.886-6.922a.726.726,0,0,0-.147-1.015.666.666,0,0,0-.069-.046l-9.76-4.881.487-.985,13.331,2.663a.705.705,0,0,0,.638-.206c1.668-1.8,5.173-5.172,5.183-5.183a4.683,4.683,0,0,1,2.953-1.527Z" transform="translate(-1689.356 -525.259)" fill="#040405"/></svg>