<svg xmlns="http://www.w3.org/2000/svg" width="24.149" height="24" viewBox="0 0 24.149 24"><g transform="translate(-157.525 -110.884)"><path d="M174.885,117.1H164.506a1.775,1.775,0,0,1-1.573-1.92V112.8a1.774,1.774,0,0,1,1.573-1.919h10.379a1.774,1.774,0,0,1,1.573,1.919v2.378A1.775,1.775,0,0,1,174.885,117.1Zm-10.379-4.378a.077.077,0,0,0-.066.08v2.378a.078.078,0,0,0,.066.081h10.379a.078.078,0,0,0,.066-.081V112.8a.077.077,0,0,0-.066-.08Z"/><path d="M179.893,118.412H159.306a1.745,1.745,0,0,0-1.781,1.7v7.024a1.745,1.745,0,0,0,1.781,1.7h2.962v3.513a2.613,2.613,0,0,0,2.671,2.544h9.492a2.613,2.613,0,0,0,2.671-2.544v-3.513h2.791a1.745,1.745,0,0,0,1.781-1.7v-7.024A1.745,1.745,0,0,0,179.893,118.412Zm-4.572,13.928a.871.871,0,0,1-.89.848h-9.492a.871.871,0,0,1-.89-.848v-3.513h11.273Zm2.345-9.706a1.258,1.258,0,1,1,1.319-1.256A1.288,1.288,0,0,1,177.666,122.634Z"/></g></svg>