<svg xmlns="http://www.w3.org/2000/svg" width="40" height="40" viewBox="0 0 40 40"><defs><style>.a{fill:none;}</style></defs><g transform="translate(-576 -374)"><path class="a" d="M0,0H40V40H0Z" transform="translate(576 374)"/><path d="M24.354,12.026l2.48,5.664L15.564,22.625l-2.481-5.664,11.271-4.935m.175-3.451-14.1,6.175a1.546,1.546,0,0,0-.8,2.036l3.724,8.495a1.546,1.546,0,0,0,2.036.8l14.1-6.176a1.546,1.546,0,0,0,.792-2.033L26.566,9.372a1.546,1.546,0,0,0-2.036-.8Zm9.942-.417.472-.207L32.257,1.814A3.091,3.091,0,0,0,28.185.22L1.814,11.773A3.091,3.091,0,0,0,.22,15.845L2.908,21.98l.472-.207a2.576,2.576,0,1,1,2.067,4.72l-.471.207,2.687,6.135a3.091,3.091,0,0,0,4.072,1.591l26.372-11.55A3.091,3.091,0,0,0,39.7,18.8L37.011,12.67l-.472.207a2.576,2.576,0,1,1-2.067-4.72Zm-3.349-1.23a5.668,5.668,0,0,0,4.049,9.247l1.7,3.872L10.5,31.6,8.8,27.721a5.668,5.668,0,0,0-4.05-9.244L3.054,14.6,29.425,3.054Z" transform="translate(576.04 377.04)"/></g></svg>