<svg xmlns="http://www.w3.org/2000/svg" width="16.0026" height="16.001" viewBox="0 0 16.0026 16.001"><path d="M17,22c.5,0,.7.3.3.7l-1.5,1.5A5.9877,5.9877,0,0,0,20,26a6.0479,6.0479,0,0,0,6-5.2,1.011,1.011,0,0,1,2,.2v.2A8,8,0,0,1,20,28a8.3617,8.3617,0,0,1-5.7-2.3l-1.6,1.6c-.4.4-.7.2-.7-.3V22.5a.472.472,0,0,1,.4422-.5A.4645.4645,0,0,1,12.5,22Zm6-4c-.5,0-.7-.3-.3-.7l1.5-1.5A5.9877,5.9877,0,0,0,20,14a6.0479,6.0479,0,0,0-6,5.2,1.0157,1.0157,0,0,1-2-.0866A.9327.9327,0,0,1,12,19v-.2A8,8,0,0,1,20,12a8.3617,8.3617,0,0,1,5.7,2.3l1.6-1.6c.4-.4.7-.2.7.3v4.5a.472.472,0,0,1-.4422.5A.4645.4645,0,0,1,27.5,18Z" transform="translate(-11.9983 -11.9995)" /></svg>