<svg xmlns="http://www.w3.org/2000/svg" width="40" height="40" viewBox="0 0 40 40"><defs><style>.a{fill:none;}.b{fill:#fff;}</style></defs><g transform="translate(-866 -326)"><ellipse cx="17" cy="17" rx="17" ry="17" transform="translate(869 329)"/><path class="a" d="M0,0H40V40H0Z" transform="translate(866 326)"/><path class="b" d="M8,28A20,20,0,1,0,28,8,20,20,0,0,0,8,28Zm36.129,0A16.129,16.129,0,1,1,28,11.871,16.125,16.125,0,0,1,44.129,28Zm-8.669.685-9.9,9.9a.969.969,0,0,1-1.371,0l-1.823-1.823a.969.969,0,0,1,0-1.371l7.4-7.4-7.4-7.4a.969.969,0,0,1,0-1.371l1.823-1.823a.969.969,0,0,1,1.371,0l9.9,9.9A.969.969,0,0,1,35.46,28.685Z" transform="translate(858 318)"/></g></svg>