<svg xmlns="http://www.w3.org/2000/svg" width="20" height="20" viewBox="0 0 20 20">
  <path id="route" d="M16.563,13.125h-3.75a1.563,1.563,0,0,1,0-3.125H16.25S20,5.82,20,3.75a3.75,3.75,0,0,0-7.5,0c0,1.164,1.184,3,2.223,4.375h-1.91a3.438,3.438,0,0,0,0,6.875h3.75a1.563,1.563,0,0,1,0,3.125H5.277C6.316,16.746,7.5,14.914,7.5,13.75a3.75,3.75,0,0,0-7.5,0C0,15.82,3.75,20,3.75,20H16.563a3.438,3.438,0,0,0,0-6.875ZM14.375,3.75a1.875,1.875,0,0,1,3.75,0,9.713,9.713,0,0,1-1.875,3.3A9.708,9.708,0,0,1,14.375,3.75ZM3.75,17.043A9.708,9.708,0,0,1,1.875,13.75a1.875,1.875,0,0,1,3.75,0A9.713,9.713,0,0,1,3.75,17.043Zm0-3.918a.625.625,0,1,0,.625.625A.627.627,0,0,0,3.75,13.125ZM16.875,3.75a.625.625,0,1,0-.625.625A.627.627,0,0,0,16.875,3.75Z"/>
</svg>
