<svg xmlns="http://www.w3.org/2000/svg" width="40" height="40" viewBox="0 0 40 40"><path d="M39.963,16.256a5.917,5.917,0,0,0-2.558-4.2c-.227-.157-.458-.31-.7-.449.921-3.721-.58-5.843-1.518-6.723-.952-1.009-3.074-2.508-6.8-1.593-.137-.237-.29-.469-.446-.7a5.934,5.934,0,0,0-4.2-2.559,5.6,5.6,0,0,0-4.473,1.51A9.427,9.427,0,0,0,17.7,3.635c-.237.38-.462.766-.689,1.161A5.73,5.73,0,0,0,12.7,3.8,5.833,5.833,0,0,0,8.827,6.8a9.968,9.968,0,0,0-.855,6.572,4.962,4.962,0,0,0-2.359.347,4.979,4.979,0,0,0-2.858,3.37,8.01,8.01,0,0,0-.073,3.735,15.747,15.747,0,0,0,.8,2.351,15.09,15.09,0,0,1,.56,1.552,2.39,2.39,0,0,1,.1,1.109,9.107,9.107,0,0,0,.08,7.179L.569,36.67a1.951,1.951,0,0,0,2.759,2.759l3.643-3.643a8.954,8.954,0,0,0,7.189.062,2.307,2.307,0,0,1,1.111.1,15.15,15.15,0,0,1,1.554.562,15.924,15.924,0,0,0,2.351.8,7.633,7.633,0,0,0,1.708.188,7.924,7.924,0,0,0,2.027-.259,4.981,4.981,0,0,0,3.374-2.863,4.91,4.91,0,0,0,.344-2.353A9.933,9.933,0,0,0,33.2,31.17,5.827,5.827,0,0,0,36.192,27.3a5.719,5.719,0,0,0-.989-4.313c.412-.238.838-.49,1.3-.777a8.806,8.806,0,0,0,1.949-1.481,5.592,5.592,0,0,0,1.508-4.468ZM35.71,18.182a6.766,6.766,0,0,1-1.316.93c-.636.394-1.291.762-1.978,1.15L29.53,21.913l1.808,2.2c.222.266.414.5.6.737a2.281,2.281,0,0,1,.584,1.719,2.257,2.257,0,0,1-1.179,1.353c-1.128.645-2.4.632-4.231.391-.665-.087-1.33-.153-2.083-.228l-5.211-.545,2.638,3.8a3.277,3.277,0,0,1,.188.27,1.54,1.54,0,0,1,.183,1.331,1.268,1.268,0,0,1-.887.684,4.188,4.188,0,0,1-1.927.039,12.793,12.793,0,0,1-1.8-.623,18.73,18.73,0,0,0-1.941-.693,7.015,7.015,0,0,0-1.854-.268,4.555,4.555,0,0,0-1.532.247,6.985,6.985,0,0,1-2.935.473l16.33-16.331a1.951,1.951,0,0,0-2.759-2.759L7.216,30.024a6.879,6.879,0,0,1,.449-2.918,5.725,5.725,0,0,0-.017-3.384,18.286,18.286,0,0,0-.695-1.943,12.972,12.972,0,0,1-.623-1.8,4.275,4.275,0,0,1,.041-1.93,1.262,1.262,0,0,1,.682-.883,1.524,1.524,0,0,1,1.327.178c.08.048.156.107.277.194l3.8,2.654-.548-5.248c-.073-.743-.139-1.4-.227-2.063-.241-1.826-.253-3.1.392-4.231a2.238,2.238,0,0,1,1.35-1.177,2.253,2.253,0,0,1,1.723.584c.251.195.5.4.78.637l2.156,1.778L19.724,7.6c.392-.7.765-1.355,1.255-2.151a5.99,5.99,0,0,1,.836-1.166,1.868,1.868,0,0,1,1.52-.532,2.159,2.159,0,0,1,1.534.97,3.827,3.827,0,0,1,.382.626,3.084,3.084,0,0,0,3.712,1.659c1.1-.323,2.609-.508,3.584.519.95.9.762,2.4.441,3.505a3.087,3.087,0,0,0,1.659,3.713,3.732,3.732,0,0,1,.623.381,2.156,2.156,0,0,1,.972,1.534A1.866,1.866,0,0,1,35.71,18.182Z" transform="translate(0.003 0.001)"/></svg>