<svg xmlns="http://www.w3.org/2000/svg" width="40.001" height="40" viewBox="0 0 40.001 40"><path d="M38.734,22.5H35.041A17.446,17.446,0,0,0,21.869,28.52V22.492A10.743,10.743,0,0,0,32.494,11.755V1.254A1.25,1.25,0,0,0,30.506.248L24.731,4.439,20.954.454a1.25,1.25,0,0,0-1.92,0L15.256,4.439,9.482.248A1.25,1.25,0,0,0,7.494,1.254v10.5A10.74,10.74,0,0,0,18.119,22.492V28.52A17.446,17.446,0,0,0,4.947,22.5H1.254A1.361,1.361,0,0,0,0,24.04,17.533,17.533,0,0,0,17.48,40h5.027A17.533,17.533,0,0,0,39.989,24.04,1.362,1.362,0,0,0,38.734,22.5Zm-27.49-10.75V6.129l4.375,3.25L19.994,5,24.369,9.38l4.375-3.25v5.625a7,7,0,0,1-7,7h-3.5a7,7,0,0,1-7-7Zm6.237,24.5a13.9,13.9,0,0,1-13.274-10c5.879,0,10.052,2.516,12.573,6.713l1.975,3.288Zm5.013,0h-1.26l1.975-3.288c2.5-4.167,6.659-6.713,12.573-6.713A13.9,13.9,0,0,1,22.494,36.255Z" transform="translate(0.007 -0.005)"/></svg>