<svg xmlns="http://www.w3.org/2000/svg" width="21.5604" height="22.318" viewBox="0 0 21.5604 22.318"><path d="M29.3447,29.8027a4.8077,4.8077,0,0,1-4.8027-4.8086c0-.0332.0019-.0654.0049-.0986a4.8179,4.8179,0,0,1,.2148-1.3281L21.2646,21.53a4.8085,4.8085,0,1,1,0-5.771l3.4932-2.0386a4.8105,4.8105,0,1,1,4.5986,3.3848h-.0136a4.7871,4.7871,0,0,1-3.6065-1.6392L22.1055,17.584a4.8425,4.8425,0,0,1,.0009,2.1211l3.6309,2.1142a4.811,4.811,0,1,1,3.6074,7.9834ZM26.543,25.0713a2.8118,2.8118,0,1,0,.3906-1.5088c-.0107.0234-.0225.0459-.0352.0693a2.79,2.79,0,0,0-.3525,1.3614C26.5459,25.02,26.5449,25.0449,26.543,25.0713Zm-9.127-9.2378a2.8108,2.8108,0,1,0,2.5762,3.9331l0-.001a2.8285,2.8285,0,0,0,0-2.2412l0,0a2.8176,2.8176,0,0,0-2.5762-1.69Zm9.45-2.23c.0117.0186.0225.0371.0332.0562a2.7911,2.7911,0,0,0,2.4453,1.4458h.0078a2.81,2.81,0,1,0-2.4863-1.502Z" transform="translate(-12.606 -7.4847)"/></svg>