<svg xmlns="http://www.w3.org/2000/svg" width="40" height="40" viewBox="0 0 40 40"><defs><style>.a{fill:none;}</style></defs><g transform="translate(-367 -231)"><rect class="a" width="40" height="40" transform="translate(367 231)"/><path d="M27.5,25a7.458,7.458,0,0,0-5.164,2.063l-7.68-4.8a7.546,7.546,0,0,0,0-4.516l7.68-4.8A7.5,7.5,0,1,0,20,7.5a7.607,7.607,0,0,0,.344,2.258l-7.68,4.8a7.5,7.5,0,1,0,0,10.875l7.68,4.8A7.646,7.646,0,0,0,20,32.5,7.5,7.5,0,1,0,27.5,25Zm0-21.25A3.75,3.75,0,1,1,23.75,7.5,3.751,3.751,0,0,1,27.5,3.75Zm-20,20A3.75,3.75,0,1,1,11.25,20,3.751,3.751,0,0,1,7.5,23.75Zm20,12.5a3.75,3.75,0,1,1,3.75-3.75A3.751,3.751,0,0,1,27.5,36.25Z" transform="translate(370 231)"/></g></svg>