<svg xmlns="http://www.w3.org/2000/svg" width="40" height="40" viewBox="0 0 40 40"><defs><style>.a{fill:none;}</style></defs><g transform="translate(-577 -417)"><path class="a" d="M0,0H40V40H0Z" transform="translate(577 417)"/><path d="M39.974,59.812c-.27-10.138-4.77-11.731-4.967-19.061a2.523,2.523,0,0,0-2.495-2.5H32.5V34.5A2.5,2.5,0,0,0,30,32H23.75a2.5,2.5,0,0,0-2.5,2.5v3.75h-2.5V34.5a2.5,2.5,0,0,0-2.5-2.5H10a2.5,2.5,0,0,0-2.5,2.5v3.75H7.488a2.524,2.524,0,0,0-2.495,2.5C4.8,48.081.3,49.674.026,59.812L0,63.25A3.75,3.75,0,0,0,3.75,67h10a3.75,3.75,0,0,0,3.75-3.75V52h5V63.25A3.75,3.75,0,0,0,26.25,67h10A3.75,3.75,0,0,0,40,63.25ZM25,35.75h3.75v2.5H25Zm-13.75,0H15v2.5H11.25Zm2.5,27.5-10,.028.024-3.366a21.463,21.463,0,0,1,2.452-9.73A22.635,22.635,0,0,0,8.68,42h5.07Zm3.75-15V42h5v6.25Zm8.75,15V42h5.07a22.63,22.63,0,0,0,2.453,8.183,21.37,21.37,0,0,1,2.451,9.657l.026,3.41Z" transform="translate(577 388)"/></g></svg>