<svg xmlns="http://www.w3.org/2000/svg" width="39.981" height="40" viewBox="0 0 39.981 40"><defs><style>.a{fill:none;}</style></defs><g transform="translate(-509 -510)"><path class="a" d="M0,0H39V39H0Z" transform="translate(509 511)"/><path d="M8.792,10A3.749,3.749,0,1,0,5.043,6.249,3.75,3.75,0,0,0,8.792,10ZM20.04,0h-2.5V16.872l2.5-.625ZM15.01,29.791a1.877,1.877,0,1,0-1.187-3.562l-1.437.484a3.124,3.124,0,0,1-3.8-1.617L3.613,14.708A1.874,1.874,0,1,0,.231,16.325L5.2,26.714a6.9,6.9,0,0,0,6.21,3.905C12.393,30.619,12.737,30.549,15.01,29.791Zm23.152-7.3a1.88,1.88,0,0,0-1.875,1.875,2.62,2.62,0,0,1-1.7,2.445L24.414,30.58V20a1.881,1.881,0,0,0-2.328-1.82L14.783,20l-3.1-6.678a2.494,2.494,0,0,0-3.32-1.219,2.567,2.567,0,0,0-1.226,3.32l3.695,7.858a1.863,1.863,0,0,0,2.156,1.031l7.67-1.914V31.97l-11.9,4.4a1.873,1.873,0,1,0,1.3,3.515l25.815-9.537a6.394,6.394,0,0,0,4.155-5.968A1.87,1.87,0,0,0,38.161,22.5Z" transform="translate(508.953 510)"/></g></svg>