<svg xmlns="http://www.w3.org/2000/svg" width="40" height="40" viewBox="0 0 40 40"><path d="M20,8A20,20,0,1,0,40,28,20,20,0,0,0,20,8Zm0,36.129A16.129,16.129,0,1,1,36.129,28,16.145,16.145,0,0,1,20,44.129ZM13.548,26.71a2.581,2.581,0,1,0-2.581-2.581A2.578,2.578,0,0,0,13.548,26.71Zm12.9,0a2.581,2.581,0,1,0-2.581-2.581A2.578,2.578,0,0,0,26.452,26.71Zm.323,5.855a8.81,8.81,0,0,1-13.548,0A1.936,1.936,0,1,0,10.25,35.04a12.7,12.7,0,0,0,19.5,0,1.936,1.936,0,0,0-2.976-2.476Z" transform="translate(0 -8)"/></svg>