<svg xmlns="http://www.w3.org/2000/svg" width="20" height="17.5" viewBox="0 0 20 17.5">
  <path id="taxi" d="M4.375,41.688a1.25,1.25,0,1,0,1.25,1.25A1.25,1.25,0,0,0,4.375,41.688Zm11.25,0a1.25,1.25,0,1,0,1.25,1.25A1.25,1.25,0,0,0,15.625,41.688Zm-2.812.938H7.188a.312.312,0,0,0-.312.313v.625a.312.312,0,0,0,.313.313h5.625a.312.312,0,0,0,.313-.312v-.625A.312.312,0,0,0,12.813,42.625Zm4.928-3.439-.587-3.034a2.818,2.818,0,0,0-2.761-2.278H13.75V33.25A1.25,1.25,0,0,0,12.5,32h-5a1.25,1.25,0,0,0-1.25,1.25v.625H5.608a2.818,2.818,0,0,0-2.761,2.278l-.587,3.034A3.748,3.748,0,0,0,0,42.625V44.5a2.489,2.489,0,0,0,1.25,2.153v1.909a.938.938,0,0,0,.938.938h1.25a.938.938,0,0,0,.938-.937V47h11.25v1.563a.938.938,0,0,0,.938.938h1.25a.938.938,0,0,0,.938-.937V46.653A2.489,2.489,0,0,0,20,44.5V42.625A3.748,3.748,0,0,0,17.74,39.186ZM4.688,36.509a.939.939,0,0,1,.92-.759h8.784a.939.939,0,0,1,.92.759l.458,2.366H4.23ZM18.125,44.5a.626.626,0,0,1-.625.625H2.5a.626.626,0,0,1-.625-.625V42.625A1.877,1.877,0,0,1,3.75,40.75h12.5a1.877,1.877,0,0,1,1.875,1.875Z" transform="translate(0 -32)"/>
</svg>
