<svg xmlns="http://www.w3.org/2000/svg" width="24.632" height="25.759" viewBox="0 0 24.632 25.759"><path d="M14.918,15.07a.757.757,0,0,0-.618-.319H10.409a.755.755,0,0,0-.617.319A11.5413,11.5413,0,0,0,7.684,21.7a.7545.7545,0,0,0,1.509,0,10.0616,10.0616,0,0,1,.749-3.786.124.124,0,0,1,.239.048v10.919a.8845.8845,0,1,0,1.769,0V22.23a.405.405,0,0,1,.81,0v6.651a.885.885,0,0,0,1.769,0V17.9645a.1243.1243,0,0,1,.239-.048,10.0616,10.0616,0,0,1,.749,3.786.754.754,0,0,0,1.508,0h0A11.5433,11.5433,0,0,0,14.918,15.07Z" transform="translate(-7.684 -7.1205)"/><rect x="11.856" width="0.919" height="25.759"/><path d="M30.207,15.07a.755.755,0,0,0-.617-.319H25.699a.755.755,0,0,0-.617.319,11.5481,11.5481,0,0,0-2.107,6.63.755.755,0,0,0,1.51,0,10.0489,10.0489,0,0,1,.748-3.786.124.124,0,0,1,.239.048v.984l-1.042,4.8h1.042v5.135a.885.885,0,0,0,1.769,0v-5.128h.81v5.128a.885.885,0,0,0,1.77,0v-5.128h1.042L29.821,18.99v-1.025a.124.124,0,0,1,.239-.048,10.0489,10.0489,0,0,1,.748,3.786.754.754,0,0,0,1.508,0A11.5458,11.5458,0,0,0,30.207,15.07Z" transform="translate(-7.684 -7.1205)"/><path d="M14.183,12.0165a1.787,1.787,0,1,0,0,.002Z" transform="translate(-7.684 -7.1205)"/><path d="M29.4071,12.0165a1.787,1.787,0,1,0,0,.002Z" transform="translate(-7.684 -7.1205)"/></svg>