<svg xmlns="http://www.w3.org/2000/svg" width="18.02" height="24" viewBox="0 0 18.02 24"><rect width="5.492" height="0.215" transform="translate(6.264 5.746)" fill="#040405"/><path d="M1623.83,537.361l-2.589-2.263a2.773,2.773,0,0,0,1.752-2.534V518.713c-.005-1.915-1.555-2.99-3.47-3a1.917,1.917,0,0,0-3.681,0h-1.69a1.984,1.984,0,0,0-.491-.824,1.9,1.9,0,0,0-3.186.826c-1.915.009-3.465,1.083-3.47,3v13.852a2.772,2.772,0,0,0,1.752,2.534l-2.589,2.263a.554.554,0,0,0,.309.96.547.547,0,0,0,.357-.12l3.063-2.677h10.2l3.065,2.677a.49.49,0,0,0,.7-.052A.558.558,0,0,0,1623.83,537.361Zm-6.775-21.681a.825.825,0,1,1,0,1.187A.834.834,0,0,1,1617.055,515.68Zm-5.37.02a.934.934,0,0,1,1.255-.02.864.864,0,1,1-1.255.02Zm-.735,17.567a1.427,1.427,0,1,1,1.427-1.427A1.427,1.427,0,0,1,1610.95,533.268Zm8.166,0a1.427,1.427,0,1,1,1.427-1.427A1.426,1.426,0,0,1,1619.116,533.268Zm.5-5.89h-9.187a1.779,1.779,0,0,1-1.758-1.785v-3.522a1.779,1.779,0,0,1,1.758-1.788h.662c0-.453-.06-1.332.894-1.332h6.076c.956,0,.894.879.894,1.331h.258a1.952,1.952,0,0,1,1.651.533,1.8,1.8,0,0,1,.51,1.257v3.522A1.779,1.779,0,0,1,1619.615,527.377Z" transform="translate(-1605.989 -514.322)" fill="#040405"/><path d="M1623.78,529.218h-9.118a.653.653,0,0,0-.641.664v3.527a.654.654,0,0,0,.639.669h9.12a.654.654,0,0,0,.641-.668h0v-3.523a.653.653,0,0,0-.638-.667Z" transform="translate(-1610.182 -522.098)" fill="#040405"/></svg>