<svg xmlns="http://www.w3.org/2000/svg" width="40" height="40" viewBox="0 0 40 40"><defs><style>.a{fill:none;}</style></defs><g transform="translate(-439 -603)"><rect class="a" width="40" height="39.604" transform="translate(439 603)"/><path d="M20.625,26.25A3.125,3.125,0,1,1,17.5,23.125,3.125,3.125,0,0,1,20.625,26.25ZM35,8.571V26.429c0,3.843-3.414,7.08-7.739,8.181l4.59,4.59a.469.469,0,0,1-.331.8H27.737a.937.937,0,0,1-.663-.275L22.348,35h-9.7L7.926,39.725A.938.938,0,0,1,7.263,40H3.48a.469.469,0,0,1-.331-.8l4.59-4.59C3.429,33.513,0,30.286,0,26.429V8.571C0,3.588,5.547,0,10.8,0H24.2C29.523,0,35,3.588,35,8.571ZM3.75,17.5h27.5V11.25H3.75Zm.217-10H31.04c-.8-2.042-3.748-3.75-6.843-3.75H10.8c-3.036,0-6.016,1.693-6.837,3.75ZM31.25,26.429V21.25H3.75v5.179c0,2.829,4.06,4.821,7.054,4.821H24.2C27.147,31.25,31.25,29.283,31.25,26.429Z" transform="translate(442 603)"/></g></svg>