<svg xmlns="http://www.w3.org/2000/svg" width="17.5" height="20" viewBox="0 0 17.5 20">
  <path id="subway" d="M10.938,12.813A1.563,1.563,0,1,1,12.5,14.375,1.563,1.563,0,0,1,10.938,12.813ZM5,14.375a1.563,1.563,0,1,0-1.562-1.562A1.563,1.563,0,0,0,5,14.375ZM17.5,4.286v8.929c0,1.922-1.707,3.54-3.869,4.09l2.3,2.3a.234.234,0,0,1-.166.4H13.868a.469.469,0,0,1-.331-.137L11.174,17.5H6.326L3.963,19.863A.469.469,0,0,1,3.632,20H1.74a.234.234,0,0,1-.166-.4l2.3-2.3C1.714,16.756,0,15.143,0,13.214V4.286C0,1.794,2.773,0,5.4,0h6.7c2.663,0,5.4,1.794,5.4,4.286ZM1.983,3.75H15.52A3.747,3.747,0,0,0,12.1,1.875H5.4A3.776,3.776,0,0,0,1.983,3.75Zm-.108,5H7.813V5.625H1.875Zm13.75,1.875H1.875v2.589c0,1.414,2.03,2.411,3.527,2.411h6.7c1.475,0,3.527-.984,3.527-2.411Zm0-5H9.688V8.75h5.938Z"/>
</svg>
