<svg xmlns="http://www.w3.org/2000/svg" width="40" height="40" viewBox="0 0 40 40"><defs><style>.a{fill:none;}</style></defs><g transform="translate(-971 -231)"><rect class="a" width="40" height="40" transform="translate(971 231)"/><path d="M86.484,8.341a9.823,9.823,0,0,1-3.349,4.465A17.46,17.46,0,0,0,87.6,11.69,11.285,11.285,0,0,1,85,14.853a3.056,3.056,0,0,0-1.3,2.977A23.411,23.411,0,0,1,47.6,36.992a16.943,16.943,0,0,0,11.907-3.349c-3.721-.558-6.14-2.233-7.628-5.767a10.162,10.162,0,0,0,3.349-.186c-3.907-1.3-5.953-3.907-6.326-8.186a11.011,11.011,0,0,0,3.535.93l-1.116-1.116A8.265,8.265,0,0,1,49.833,10.2c.186-.558.372-.744.93-.186a23.019,23.019,0,0,0,15.07,7.814c1.3.186,1.3.186,1.3-1.116a8.181,8.181,0,0,1,4.465-8,8.527,8.527,0,0,1,9.3,1.116,1.481,1.481,0,0,0,1.674.372A35.243,35.243,0,0,0,86.484,8.341Z" transform="translate(923.4 227.18)"/></g></svg>