<svg xmlns="http://www.w3.org/2000/svg" width="20.2" height="16.6176" viewBox="0 0 20.2 16.6176"><path d="M29.533,12.042a4.9593,4.9593,0,0,1-1.691,2.255,8.8185,8.8185,0,0,0,2.258-.564,5.7,5.7,0,0,1-1.315,1.6,1.5429,1.5429,0,0,0-.658,1.5A11.82,11.82,0,0,1,9.9,26.508a8.5551,8.5551,0,0,0,6.012-1.691,4.4891,4.4891,0,0,1-3.851-2.912,5.132,5.132,0,0,0,1.691-.094,4.338,4.338,0,0,1-3.194-4.133,5.56,5.56,0,0,0,1.785.47l-.564-.564a4.1731,4.1731,0,0,1-.752-4.6c.094-.282.188-.376.47-.094a11.623,11.623,0,0,0,7.609,3.945c.658.094.658.094.658-.564a4.131,4.131,0,0,1,2.255-4.039,4.305,4.305,0,0,1,4.7.564.7481.7481,0,0,0,.845.188A17.7875,17.7875,0,0,0,29.533,12.042Z" transform="translate(-9.9 -11.7793)"/></svg>