<svg xmlns="http://www.w3.org/2000/svg" width="29.167" height="24" viewBox="0 0 29.167 24"><path d="M75.953,8.2a7.163,7.163,0,0,1-2.442,3.256,12.731,12.731,0,0,0,3.256-.814,8.228,8.228,0,0,1-1.9,2.306,2.229,2.229,0,0,0-.95,2.171A17.07,17.07,0,0,1,47.6,29.091a12.354,12.354,0,0,0,8.682-2.442,6.482,6.482,0,0,1-5.562-4.205,7.41,7.41,0,0,0,2.442-.136,6.264,6.264,0,0,1-4.612-5.969,8.028,8.028,0,0,0,2.578.678l-.814-.814a6.026,6.026,0,0,1-1.085-6.647c.136-.407.271-.543.678-.136a16.785,16.785,0,0,0,10.988,5.7c.95.136.95.136.95-.814A5.965,5.965,0,0,1,65.1,8.471a6.217,6.217,0,0,1,6.783.814,1.08,1.08,0,0,0,1.221.271A25.7,25.7,0,0,0,75.953,8.2Z" transform="translate(-47.6 -7.82)"/></svg>