<svg xmlns="http://www.w3.org/2000/svg" width="40" height="40" viewBox="0 0 40 40"><path d="M28,8A20,20,0,1,0,48,28,20,20,0,0,0,28,8Zm0,36.774A16.774,16.774,0,1,1,44.774,28,16.765,16.765,0,0,1,28,44.774ZM39.58,21.656a1.613,1.613,0,0,1-1.2,1.94,65.669,65.669,0,0,1-6.9,1.351c.055,8.978,1.02,10.359,2.175,13.316a1.935,1.935,0,0,1-3.606,1.408,24.472,24.472,0,0,1-1.92-6.865h-.255a24.474,24.474,0,0,1-1.92,6.865,1.935,1.935,0,1,1-3.606-1.408c1.156-2.959,2.12-4.342,2.175-13.316a65.65,65.65,0,0,1-6.9-1.351,1.613,1.613,0,0,1,.741-3.14c8.449,1.995,10.843,1.992,19.28,0A1.613,1.613,0,0,1,39.58,21.656Zm-14.66-3.48A3.08,3.08,0,1,1,28,21.257,3.08,3.08,0,0,1,24.92,18.177Z" transform="translate(-8 -8)"/></svg>