<svg xmlns="http://www.w3.org/2000/svg" xmlns:xlink="http://www.w3.org/1999/xlink" viewBox="0 0 32 32">
    <g transform="translate(2.621 0.638)">
      <path data-name="Path 2" d="M107.916,8.212c1.867,0,3.38-1.838,3.38-4.106S110.8,0,107.916,0s-3.381,1.838-3.381,4.106S106.049,8.212,107.916,8.212Z" transform="translate(-101.53)"/>
      <path data-name="Path 3" d="M41.9,300.443c0-.138,0-.039,0,0Z" transform="translate(-41.895 -285.962)"/>
      <path data-name="Path 4" d="M308.085,301.612c0-.038,0-.263,0,0Z" transform="translate(-295.314 -287.022)"/>
      <path data-name="Path 5" d="M54.671,183.529c-.063-3.95-.579-5.076-4.527-5.788a2.773,2.773,0,0,1-3.7,0c-3.9.7-4.452,1.814-4.524,5.66-.006.314-.009.331-.01.294,0,.068,0,.195,0,.415,0,0,.94,1.895,6.385,1.895s6.385-1.895,6.385-1.895c0-.142,0-.24,0-.307A2.55,2.55,0,0,1,54.671,183.529Z" transform="translate(-41.907 -169.213)"/>
    </g>
</svg>
