<svg xmlns="http://www.w3.org/2000/svg" width="40" height="40" viewBox="0 0 40 40"><defs><style>.a{fill:none;}</style></defs><g transform="translate(-358 -717)"><g transform="translate(355.515 713.655)"><path d="M42.436,6.1a2.931,2.931,0,0,0-1.852-2.568,2.88,2.88,0,0,0-3.073.673h0a23.15,23.15,0,0,1-6.945,4.335c-3.536,1.642-7.24,3.367-7.618,7.7a7.277,7.277,0,0,0,2.694,6.061,58,58,0,0,0-6.019,12.038C17.35,27.234,12.8,15.07,5.775,5.978a1.844,1.844,0,0,0-2.9,2.273C12.762,21,17.687,41,17.729,41.208A1.845,1.845,0,0,0,19.5,42.6h0a1.807,1.807,0,0,0,1.768-1.347,57.726,57.726,0,0,1,7.45-16.879,10.978,10.978,0,0,0,4.377.968,7.877,7.877,0,0,0,4.42-1.263C43.025,20.331,42.52,7.577,42.436,6.1ZM35.491,21a5.285,5.285,0,0,1-4.5.295,27.608,27.608,0,0,1,3.536-3.83,1.852,1.852,0,0,0,.253-2.568,1.814,1.814,0,0,0-2.568-.253A32.289,32.289,0,0,0,27.83,19.4a3.593,3.593,0,0,1-1.221-2.736c.21-2.147,2.147-3.157,5.514-4.714A30.248,30.248,0,0,0,38.858,8.04C38.858,13.428,37.764,19.447,35.491,21Z" transform="translate(0 0)"/></g><rect class="a" width="40" height="40" transform="translate(358 717)"/></g></svg>