<svg xmlns="http://www.w3.org/2000/svg" width="100" height="100.454" viewBox="0 0 100 100.454"><g transform="translate(0 0)"><path d="M107.194,26.706A49.79,49.79,0,0,0,28.841,86.754l-7.041,25.8,26.4-6.921a49.807,49.807,0,0,0,23.795,6.062h.024a49.768,49.768,0,0,0,35.179-84.988Zm-35.2,76.587h0a41.265,41.265,0,0,1-21.074-5.776l-1.5-.907-15.656,4.105,4.177-15.274-.979-1.575a41.356,41.356,0,1,1,35.036,19.427Zm22.7-30.979c-1.241-.621-7.351-3.628-8.5-4.057-1.146-.406-1.981-.621-2.792.621-.835,1.241-3.222,4.057-3.938,4.869-.716.835-1.456.931-2.7.31a33.789,33.789,0,0,1-10-6.181,37.87,37.87,0,0,1-6.921-8.616c-.716-1.241-.072-1.909.549-2.53.549-.549,1.241-1.456,1.862-2.172a7.988,7.988,0,0,0,1.241-2.076,2.3,2.3,0,0,0-.1-2.172c-.31-.621-2.792-6.754-3.842-9.236-1-2.434-2.029-2.1-2.792-2.124-.716-.048-1.551-.048-2.387-.048a4.576,4.576,0,0,0-3.317,1.551,13.915,13.915,0,0,0-4.344,10.382c0,6.134,4.463,12.029,5.084,12.864s8.759,13.389,21.241,18.783a68.477,68.477,0,0,0,7.088,2.625,17.066,17.066,0,0,0,7.828.5c2.387-.358,7.351-3.007,8.4-5.919,1.026-2.912,1.026-5.394.716-5.919C96.74,73.246,95.929,72.935,94.688,72.315Z" transform="translate(-21.8 -12.1)"/></g></svg>