<svg xmlns="http://www.w3.org/2000/svg" width="23.356" height="16.057" viewBox="0 0 23.356 16.057"><path d="M30.685,13.5185c-.634-1.127-1.321-1.334-2.721-1.413-1.4-.095-4.915-.134-7.961-.134s-6.57.039-7.967.133-2.086.286-2.725,1.414-.989,3.064-.989,6.477v.012c0,3.4.336,5.351.988,6.465s1.327,1.331,2.724,1.426,4.916.13,7.969.13,6.563-.048,7.963-.128,2.087-.3,2.721-1.426c.658-1.114.991-3.067.991-6.465v-.012C31.677,16.5825,31.345,14.6445,30.685,13.5185Zm-13.6,10.86v-8.758L24.385,20Z" transform="translate(-8.322 -11.9715)"/></svg>