<svg xmlns="http://www.w3.org/2000/svg" width="34.909" height="24" viewBox="0 0 34.909 24"><path d="M33.425,82.313c-.947-1.684-1.975-1.994-4.067-2.112-2.09-.142-7.346-.2-11.9-.2s-9.82.059-11.908.2c-2.088.12-3.118.428-4.073,2.114C.5,83.995,0,86.892,0,91.993v.017c0,5.079.5,8,1.477,9.663.956,1.684,1.983,1.99,4.071,2.132,2.09.122,7.348.194,11.911.194s9.809-.072,11.9-.192c2.092-.142,3.12-.447,4.067-2.132.984-1.665,1.481-4.584,1.481-9.663V92C34.909,86.892,34.412,83.995,33.425,82.313ZM13.091,98.545V85.455L24,92Z" transform="translate(0 -80)"/></svg>