<svg xmlns="http://www.w3.org/2000/svg" width="50.634" height="60.873" viewBox="0 0 50.634 60.873">
  <g id="Group_1848" data-name="Group 1848" transform="matrix(0.998, -0.07, 0.07, 0.998, 0, 1.589)">
    <path id="Path_1232" data-name="Path 1232" d="M29.332,2.307c-.144.479.278,1.128.15,1.439-.022.044.041.249.006.332L27.146,5.431c-.287.812,1.295,2.508,1.132,2.919-.087.215.713.828.626,1.052-.143.564-.725.76-.868,1.075-.006.03-1.063,1.121-1.075,1.15-.088.229-1.08.205-1.169.434-.188.469-5.144.614-5.149.6-1.2-.336-3.866-3.338-3.334-4.783-.011-.029-.187-1.183-.19-1.214-.057-.179.889-6.552-2.469-6.619C7.516-.634-.178,6.08,0,13.5.43,31.078,3.481,36.556,3.481,36.556l2.736.139a10.385,10.385,0,0,0,.192-4.636,28.91,28.91,0,0,0,3.25.5l-.178,4.023s4.148.731,4.789.191c.124-.1.521-4.251.521-4.251l7.735.214,1.246,4.516a16.085,16.085,0,0,0,3.869.049C28.644,37.057,37.193,10.94,29.332,2.307ZM22.877,27.216l-1.906-4.667-1.613,3.408-1.08-2.832-1.941,3.567-1.6-4.041.935-.37.809,2.042,1.325-2.436-1-2.613.94-.358,1.707,4.479,1.581-3.341,1.968,4.819,1.408-2.588.884.481Z" transform="translate(0.601 22.063)" fill="#983c00"/>
    <g id="Group_1847" data-name="Group 1847" transform="translate(0 0)">
      <path id="Path_1233" data-name="Path 1233" d="M7.039,9.8c-.184-.041-.328-.073-.47-.112a7.107,7.107,0,0,1-1.315-.425,2.271,2.271,0,0,1-.811-.573,2.541,2.541,0,0,0-.729-.546c-.621-.333-1.236-.67-1.866-.994a1.981,1.981,0,0,1-.885-.889A9.061,9.061,0,0,1,.055,3.541a4.117,4.117,0,0,1,.12-1.854A1.36,1.36,0,0,1,.719.933,6.032,6.032,0,0,1,2.445.073,1.616,1.616,0,0,1,3.476.1C3.884.26,4.291.431,4.7.589l-.017.436a9.061,9.061,0,0,0,.229,2.549A4.234,4.234,0,0,0,5.2,4.4,22.286,22.286,0,0,1,6.868,9.1c.044.223.1.447.169.7" transform="translate(8.108 14.218)" fill="#c46823"/>
      <path id="Path_1234" data-name="Path 1234" d="M0,9.392A28.741,28.741,0,0,1,1.139,6.364c.3-.653.627-1.282.981-1.9A6.574,6.574,0,0,0,2.91,2.147c.064-.454.1-.916.13-1.371.03-.353.014-.354.333-.452L4.188.073A1.6,1.6,0,0,1,5.505.239c.425.259.86.526,1.277.791a1.323,1.323,0,0,1,.555.909A4.715,4.715,0,0,1,7.414,3.13q-.025.617-.1,1.237a1.518,1.518,0,0,1-.126.449A6.293,6.293,0,0,1,6.021,6.691a1.93,1.93,0,0,1-.7.488c-.467.2-.943.405-1.4.608-.14.061-.287.126-.427.18a4.048,4.048,0,0,0-1.211.718,1.941,1.941,0,0,1-.745.391c-.425.131-.851.243-1.285.354A1.487,1.487,0,0,1,.012,9.4" transform="translate(32.612 14.706)" fill="#c46823"/>
      <path id="Path_1235" data-name="Path 1235" d="M13.778,9.474c-.816-.13-1.419-.238-2.211-.423A20.588,20.588,0,0,1,6.54,7.29c-.5-.257-1-.516-1.483-.795a2,2,0,0,1-.879-.988c-.3-.68-.609-1.356-.9-2.036a11.841,11.841,0,0,0-1.1-2.024A4.912,4.912,0,0,0,.887.109C.866.086.848.054.826.031V.017A3.453,3.453,0,0,1,.449,0L.438.016.048,0,.03.445.021.45,0,.981A.687.687,0,0,1,.138,1.1a7.346,7.346,0,0,1,.892,1.451A17.188,17.188,0,0,1,1.762,4.62c.18.581.386,1.146.6,1.712.24.617.528,1.2.763,1.816A3.408,3.408,0,0,0,4,9.427a10.351,10.351,0,0,0,1.894,1.4c1,.572,2.022,1.109,3.039,1.67a10.851,10.851,0,0,0,1.69.706,20.722,20.722,0,0,1,2.354.96c.181.082.384.135.6.208a11.376,11.376,0,0,1,.847-2.434A11.132,11.132,0,0,1,15.8,9.795C15.037,9.678,14.508,9.59,13.778,9.474Z" transform="translate(0 0)" fill="#fca65d"/>
      <path id="Path_1236" data-name="Path 1236" d="M16.277.6,16.3.035l-.363-.02s0,0,0,0L15.571,0c-.086.071-.178.145-.266.205A4.775,4.775,0,0,0,14,1.4a14.475,14.475,0,0,0-1.374,2.107c-.349.631-.7,1.264-1.034,1.9a2.543,2.543,0,0,1-1.108,1.063,8.707,8.707,0,0,1-1.552.6c-1,.3-2.039.466-3.058.686a29.521,29.521,0,0,1-5.317.7c-.177,0-.338.009-.554.022A10.983,10.983,0,0,1,1.211,10.7a11.821,11.821,0,0,1,.646,2.456,1.7,1.7,0,0,0,.226-.044c.883-.211,1.772-.436,2.65-.647a17.018,17.018,0,0,0,3.581-1.3,15.883,15.883,0,0,0,2.791-1.549,4.646,4.646,0,0,0,1.582-1.893c.213-.484.481-.958.746-1.432a7.891,7.891,0,0,0,.6-1.247c.093-.254.192-.518.288-.772a9.7,9.7,0,0,1,1.94-3.31l.006-.008L16.278.6Z" transform="translate(33.406 1.883)" fill="#fca65d"/>
      <path id="Path_1237" data-name="Path 1237" d="M15.155,3.963c.028.079.042.124.054.166l2.134,4.3c.039.172-1.058,3.434-1.354,4.276-.1.286-.2.577-.3.874a.1.1,0,0,1-.052-.028,3.205,3.205,0,0,0-1.717-.734,1.659,1.659,0,0,1-.828-.35,6.158,6.158,0,0,0-2.185-1.3,7.014,7.014,0,0,0-3.795-.084,6.328,6.328,0,0,0-2.293,1.258.273.273,0,0,1-.185.052,6.032,6.032,0,0,0-1.253.131,2.057,2.057,0,0,0-.965.582c-.016.015-.039.032-.064.057a.343.343,0,0,1-.035-.07c-.367-1.176-.769-1.8-1.074-3.015a.492.492,0,0,1-.025-.121A50.389,50.389,0,0,1,.007,4.619S2.894.07,2.918,0c0,0,3.023,6.363,3.007,6.363.016,0,3.016-4.4,3.016-4.4l3.316,6.525c0,.018,2.9-4.537,2.9-4.537" transform="translate(14.48 16.539)" fill="#c46823"/>
      <path id="Path_1238" data-name="Path 1238" d="M6.693,8.586C5.844,8.5,5.009,8.427,4.17,8.3A3.1,3.1,0,0,1,2.048,6.93a8.237,8.237,0,0,0-.661-.856A4.848,4.848,0,0,1,.2,3.764C.145,3.522.077,3.292.016,3.057A.755.755,0,0,1,.01,2.779a1.977,1.977,0,0,1,.058-.213.87.87,0,0,1,.48-.642,2.1,2.1,0,0,1,.937-.25c.184-.009.7.012.887,0a.353.353,0,0,0,.184-.067,4.426,4.426,0,0,1,1.1-.888A5.707,5.707,0,0,1,5.689.037,9.266,9.266,0,0,1,7.651.07a6.046,6.046,0,0,1,2.494.958,4.13,4.13,0,0,1,.95.922.249.249,0,0,0,.21.083,6.3,6.3,0,0,1,1.325.173,1.522,1.522,0,0,1,.606.35.88.88,0,0,1,.2.921c-.111.329-.224.652-.338.981A5.86,5.86,0,0,1,12.068,6.28a2.365,2.365,0,0,1-.379.368,3.744,3.744,0,0,0-.6.618A2.993,2.993,0,0,1,8.829,8.489l-1.844.094-.3-.012a.058.058,0,0,1,0,.014m5.12-4.605a.5.5,0,0,0-.472-.523h-.013a.852.852,0,0,0-.382.069A3.182,3.182,0,0,0,9.178,5.373a1.235,1.235,0,0,0-.076.462.425.425,0,0,0,.35.479.331.331,0,0,0,.046,0,1.072,1.072,0,0,0,.524-.1,3.187,3.187,0,0,0,1.614-1.666,3.323,3.323,0,0,0,.172-.568M4.285,5.532a2.379,2.379,0,0,0-.05-.4A3.186,3.186,0,0,0,2.592,3.153a.892.892,0,0,0-.41-.081.4.4,0,0,0-.415.4c0,.012,0,.023,0,.034a1.919,1.919,0,0,0,.075.626,3.215,3.215,0,0,0,1.476,1.8,1.129,1.129,0,0,0,.483.141c.272.028.433-.153.486-.529" transform="translate(16.712 27.002)" fill="#fca65d"/>
      <path id="Path_1239" data-name="Path 1239" d="M7.946,14.925,4.932,8.538,1.4,14.138C1.368,14.006.1,9.607.052,9.031A9.258,9.258,0,0,1,.078,6.854,7.421,7.421,0,0,1,.854,4.37,12.369,12.369,0,0,1,3.028,1.355,4.881,4.881,0,0,1,4.874.146,2.759,2.759,0,0,1,6.111.023c.2.026.405.016.6.051a1.982,1.982,0,0,1,.463.087A22.314,22.314,0,0,0,9.3.857a13.665,13.665,0,0,0,3.42.421A17.4,17.4,0,0,0,16.287.81c.4-.088.809-.167,1.21-.226A1.854,1.854,0,0,1,18.026.6c.373.05.737.107,1.1.184a3.355,3.355,0,0,1,1.587.937A6.369,6.369,0,0,1,21.92,3.366a11.781,11.781,0,0,1,1.285,3.923,7.549,7.549,0,0,1-.358,3.564c-.051.153-1.113,2.557-1.643,3.73A9.377,9.377,0,0,0,20.688,16c-.267.953-.372,1.474-.56,1.992-.026.059-.054.2-.1.313l-2.873-5.719-2.9,4.455-3.32-6.517Z" transform="translate(12.58 8.421)" fill="#983c00"/>
    </g>
  </g>
</svg>
