<svg id="Layer_1" data-name="Layer 1" xmlns="http://www.w3.org/2000/svg" viewBox="0 0 449.12 242.42"><defs><style>.cls-1{fill:#28c7c4;}.cls-2{fill:#4433b3;stroke:#4433b3;stroke-width:0.5px;}.cls-3{fill:#fff;}.cls-4{fill:#1d1d1b;}.cls-5{fill:#fbb03b;}.cls-6{fill:#efefef;opacity:0.5;isolation:isolate;}.cls-7{fill:#3a2495;}.cls-8{fill:#24175d;}.cls-9{fill:#9181d6;}.cls-10{fill:#c9c0ea;}.cls-11{fill:#60c4c3;}.cls-12{fill:#af006e;}.cls-13{fill:#28c8c4;}.cls-14{fill:#e46832;}.cls-15{fill:#002827;}</style></defs><g id="Group_4947" data-name="Group 4947"><g id="water"><g id="Group_4886" data-name="Group 4886"><path id="Path_2999" data-name="Path 2999" class="cls-1" d="M423.93,114.21c-15.44-4.26-43.76,2.46-46-11.62-3.33-21.25-49.83-19.72-92.69-9.34-26.21,6.34-24.32-24.41-127.62,29-13.27,6.86-35.09-32.81-44.35-26.89-3.75,2.4-7.5,8.08-7.5,8.09-4.39,5.79-1.3,8.75-12.25,12.51-1.72.59-8.17,2.45-9.8,3.22-14.63,6.91,37.86,44.21,80.54,44.85,36.35.2,68.7-1,94.29-.53,79.31,1.5-22.56-13.47,56.64-12.27,8.9.14,19,.19,43.48-.35,17.55-.4,29.75,2,49.51,2.18C464.83,153.51,437.64,118,423.93,114.21Z"/></g></g><g id="horizon"><path id="Path_3000" data-name="Path 3000" class="cls-2" d="M83.37,167.21a109.85,109.85,0,0,1-15.38-.9l-2.17-.3a83.19,83.19,0,0,1-9.14-1.6,59.9,59.9,0,0,0-7.52-1.26c-1.2-.15-2.44-.3-3.64-.49s-2.34-.43-3.6-.69A28.85,28.85,0,0,0,33.7,161l-.13-1.43a29.37,29.37,0,0,1,8.65,1c1.23.26,2.39.5,3.52.67s2.4.34,3.59.48A61.13,61.13,0,0,1,57,163a80.13,80.13,0,0,0,9,1.57l2.18.3c7.64,1.1,15.76.93,23.6.78,2.89-.06,5.87-.12,8.75-.11a44.66,44.66,0,0,0,5.42-.44,16.16,16.16,0,0,1,4.28.21,23.93,23.93,0,0,0,2.55.26c.91,0,1.85,0,2.75,0l1.63,0q6.6,0,13.21,0h9.53a110,110,0,0,0,12.71-.43c2.4-.22,4.81-.31,7.22-.29,4.21,0,8.57-.05,12.44-1.42a40.5,40.5,0,0,0,16.62-11.1l.62-.71a27,27,0,0,0,4.27-5.81c.29-.6.56-1.21.84-1.82.46-1,.93-2,1.47-3a6.31,6.31,0,0,1,.85-1.13,6.37,6.37,0,0,0,.49-.59,8.06,8.06,0,0,0,1-1.84l.16-.38a12.89,12.89,0,0,1,1-1.82c.26-.42.5-.82.71-1.22a41.36,41.36,0,0,0,1.74-4.26c.27-.74.55-1.51.85-2.25a54.5,54.5,0,0,0,2.47-9.13c.39-1.88.8-3.83,1.33-5.73a20.21,20.21,0,0,1,6.2-9.72c2.88-2.4,6.94-3.12,10.53-3.76l.29-.06a28.23,28.23,0,0,1,3.43-.33,27,27,0,0,0,3.23-.32,48.3,48.3,0,0,0,9.55-3c1.53-.59,3.1-1.2,4.76-1.76,1.37-.46,2.76-.94,4.16-1.43a149.6,149.6,0,0,1,15.95-4.85c.5-.12,1-.22,1.51-.33,1-.21,2.07-.42,3.08-.71A14.15,14.15,0,0,0,272,85.23c.48-.24,1-.5,1.52-.73a8.24,8.24,0,0,1,3.59-.38l1,0c3.73,0,35.15-1,38.21-1.22l5.75-.37c3.36-.21,6.84-.43,10.25-.73a264.78,264.78,0,0,1,27.6-1c1.93,0,3.88.17,5.76.31a77.39,77.39,0,0,0,7.77.3c1.26,0,2.55-.17,3.78-.29a47.41,47.41,0,0,1,4.91-.31c1.22,0,2.5,0,3.75,0a49.74,49.74,0,0,1,8,.2l1.1.16a13,13,0,0,0,2.42.25c.43,0,.87,0,1.31,0a28.76,28.76,0,0,1,3.08,0c1.63.14,3.28.32,4.88.49,2.39.27,4.86.54,7.3.66,1.35.06,2.75,0,4.1,0,1.06,0,2.15-.06,3.22,0,3.47.06,7,.39,10.4.71l2.86.27c1.52.13,3.08.32,4.6.5a74.36,74.36,0,0,0,9.66.72l0,1.44a73.84,73.84,0,0,1-9.86-.73c-1.5-.18-3.06-.36-4.56-.5l-2.86-.26c-3.38-.32-6.88-.65-10.29-.71-1,0-2.12,0-3.15,0-1.39,0-2.82.08-4.22,0-2.48-.12-5-.39-7.39-.66-1.58-.17-3.23-.35-4.83-.48a25.68,25.68,0,0,0-2.91,0l-1.35,0a13.29,13.29,0,0,1-2.67-.27l-1.06-.16a50.27,50.27,0,0,0-7.76-.18c-1.26,0-2.56.07-3.8,0a47.33,47.33,0,0,0-4.76.3c-1.26.13-2.56.26-3.88.3a74.79,74.79,0,0,1-7.92-.3c-1.86-.14-3.79-.28-5.68-.31a261.72,261.72,0,0,0-27.44,1c-3.43.3-6.92.52-10.29.73l-5.74.37c-3.06.22-34.57,1.22-38.3,1.22h0l-1.1,0a7.07,7.07,0,0,0-3,.27c-.5.21-1,.46-1.44.69a15.86,15.86,0,0,1-2.88,1.22c-1.06.3-2.14.52-3.18.74l-1.5.31a149.72,149.72,0,0,0-15.79,4.82L245.12,95c-1.63.55-3.18,1.16-4.69,1.74a50.45,50.45,0,0,1-9.83,3.06,29.66,29.66,0,0,1-3.4.34,27.28,27.28,0,0,0-3.25.31l-.29.06c-3.58.64-7.28,1.3-9.87,3.45a18.77,18.77,0,0,0-5.73,9c-.51,1.85-.91,3.77-1.3,5.64a55.47,55.47,0,0,1-2.54,9.37c-.29.72-.57,1.47-.83,2.21a42.1,42.1,0,0,1-1.81,4.41c-.24.46-.51.9-.77,1.33a11.69,11.69,0,0,0-.9,1.62l-.16.37a9.49,9.49,0,0,1-1.12,2.14q-.27.36-.57.69a4.76,4.76,0,0,0-.67.88c-.52.93-1,1.94-1.42,2.92-.29.63-.57,1.25-.87,1.86a27.77,27.77,0,0,1-4.47,6.13l-.63.71a42.06,42.06,0,0,1-17.22,11.51c-4.1,1.45-8.58,1.48-12.91,1.5a69.52,69.52,0,0,0-7.07.28,113,113,0,0,1-12.88.44c-3.16,0-6.35,0-9.52,0H117.2c-.54,0-1.07,0-1.61,0-.92,0-1.88,0-2.82,0s-1.81-.14-2.71-.28a15,15,0,0,0-3.9-.21,45.79,45.79,0,0,1-5.61.46c-2.87,0-5.84,0-8.71.11S86.2,167.21,83.37,167.21Z"/></g><g id="puffin"><g id="puffin_body" data-name="puffin body"><g id="Group_4889" data-name="Group 4889"><path id="Path_3001" data-name="Path 3001" class="cls-3" d="M294.77,31.75c13.16,3.78,23.8,15.65,26.6,29.64a103.12,103.12,0,0,1,1.28,11A120.39,120.39,0,0,0,327,96.08c1.11,3.67-.61,8.61,2.22,11.25,3.23,3,2.28,7.94-1.39,8.42a52.33,52.33,0,0,1-9.11-.53c-2.44-.61-5.45.52-6.2-2-4.25,4.73-12.3,2.28-16.05-2.79-3-4.08-3-9.76-4.76-14.58-1.2-3.25-3.22-6.08-4.73-9.19a44.14,44.14,0,0,1-3.85-15.1,74.55,74.55,0,0,1,4-32.07,16.57,16.57,0,0,1,3.1-5.81A6.06,6.06,0,0,1,296,31.62"/></g><g id="Group_4890" data-name="Group 4890"><path id="Path_3002" data-name="Path 3002" class="cls-4" d="M317.66,14.36c-1.14-2.78-3.13-5.41-4.56-8-.65-1.19-2.28-2.13-3.34-3a8.55,8.55,0,0,0-2-1.2C304,.59,300.3.41,296.48,0a12.51,12.51,0,0,0-7.07,1.68l-.11.07a8.43,8.43,0,0,0-4,7.86c.23,2.56.85,6.86,1.35,9.42.82,4.22,3.25,8.66,7.43,9.7"/></g><g id="Group_4891" data-name="Group 4891"><path id="Path_3003" data-name="Path 3003" class="cls-4" d="M285.34,7.85c-.42,1.33-2,2.23-3,3.24a25.19,25.19,0,0,0-7.12,14.06.79.79,0,0,0,.19.8,1.07,1.07,0,0,0,.46.14L291.06,28c.66.08,1.52.06,1.75-.51s-.17-.92-.49-1.3c-2.32-2.76-2.55-7.78-4.17-10.93-.72-1.42-.93-4.54-1.11-6.09-.25-2.07-1.49-2.25-1.49-2.25h0"/></g><g id="Group_4892" data-name="Group 4892"><path id="Path_3004" data-name="Path 3004" class="cls-4" d="M310.33,12.07c-1.79,4.45-7.48,4.5-12.07,5.88-2.85.86-.06,8.07-2.91,8.92a7.47,7.47,0,0,0-2,.85c-2.06,1.4-5.49,5.35-4.25,7.5s6.79,2.79,8.79,4.27c5.42,4,10.06,8.95,14.66,13.87a19.16,19.16,0,0,1,3.75,5c1.27,2.85,1.07,6.09,1.26,9.21.6,9.9,1.34,22.74,5.92,31.55a100.19,100.19,0,0,0,9.5,15.31c3.8,4.94,12.62,6.3,18.39,8.65-1.71-5.13-5.58-9.29-7.52-14.34-2.1-5.46-1.81-11.5-2.07-17.35-.32-7.28-1.65-14.71-5.4-21-4.16-6.94-11.09-12-14.5-19.4-4.73-10.21.3-20.68-2.44-31.6-.28-1.13-1.92-7-3.06-7.27.22.6-4.55-2.19-4.95-1.7"/></g><g id="Group_4893" data-name="Group 4893"><path id="Path_3005" data-name="Path 3005" class="cls-5" d="M285.51,8.3c.54,1,2.21,5,1.37,11.13-.34,2.44.92,3.74,2.83,5.72.8.82,2.37,1.81,2.4,2.84-4.49.26-12.17-1.36-16.72-1.93-.55-.07-1.2-.21-1.37-.65a1,1,0,0,1,0-.64,41.54,41.54,0,0,1,4-9.88c1.79-3,3.54-5.48,7.27-7"/></g><g id="Group_4894" data-name="Group 4894"><path id="Path_3006" data-name="Path 3006" class="cls-5" d="M319.32,113.48a25.25,25.25,0,0,0-4.09,10.14c-.06.37-.17.82-.53.92a.9.9,0,0,1-.4,0c-1.52-.17-1.44-.35-3-.52-.27-.94.4-1.85,1-2.62,2-2.64,1.86-5.69,2.63-8.91a2.86,2.86,0,0,1,.45-1c1.2-1.64,5.22-1.07,3.95,1.87"/></g><g id="Group_4895" data-name="Group 4895"><path id="Path_3007" data-name="Path 3007" class="cls-5" d="M307.58,110.2c-1.68,4.4-4.45,9-5.09,13.7a1,1,0,0,1-.27.66.75.75,0,0,1-.51.1c-1.37-.06-1.15-.13-2.52-.19-.18-3.74,2.83-7.25,2.13-10.91a13.53,13.53,0,0,1-.15-2,2.42,2.42,0,0,1,2.2-2.63,2.18,2.18,0,0,1,.57,0c1.39,0,3.29.45,3.65,1.26"/></g><g id="Group_4896" data-name="Group 4896"><path id="Path_3008" data-name="Path 3008" class="cls-5" d="M317,124c-2.87-.37-5.76-.6-8.65-.7a3.32,3.32,0,0,0-1.43.17,3.4,3.4,0,0,0-1.55,2.18,4.56,4.56,0,0,0-.4,2.47,3,3,0,0,0,2.1,2,6.94,6.94,0,0,0,3,.08,23.32,23.32,0,0,0,10.39-4.2.91.91,0,0,0,.44-.54c.08-.42-.39-.71-.78-.89l-2-.87"/></g><g id="Group_4897" data-name="Group 4897"><path id="Path_3009" data-name="Path 3009" class="cls-5" d="M301.78,123.71a16.36,16.36,0,0,0-5.72-.86,5.53,5.53,0,0,0-4.68,3,2.06,2.06,0,0,0,.36,2.46,2.68,2.68,0,0,0,1.05.39l5,1.08a8.86,8.86,0,0,0,3,.3c2.53-.35,4.21-2.7,5.59-4.85a1.3,1.3,0,0,0,.28-.8c-.07-.46-.58-.68-1-.79a11.26,11.26,0,0,0-3.79-.31"/></g><g id="Group_4898" data-name="Group 4898"><path id="Path_3010" data-name="Path 3010" class="cls-3" d="M308.79,26.7c12.73-.74,2.87-18.54-1.47-20.84a31.07,31.07,0,0,0-5.2-2c-2.9-.9-6.38-1.69-8.71.36a8.07,8.07,0,0,0-2.16,3.9,16.86,16.86,0,0,0,.88,12.42c2,3.72,11.58,6.45,15.65,6"/></g></g><g id="puffin_eye" data-name="puffin eye"><path id="Path_3011" data-name="Path 3011" d="M295.11,8.76c-.82.18-1,2,.5,1.61,1-.29.42-1.73-.55-1.61"/><path id="Path_3012" data-name="Path 3012" d="M295.2,11a1.23,1.23,0,0,1-.89-.34,1.43,1.43,0,0,1-.29-1.4,1.36,1.36,0,0,1,1-1v0a1.51,1.51,0,0,1,1.64,1.21,1.19,1.19,0,0,1-.88,1.44h0A1.77,1.77,0,0,1,295.2,11Zm0-1.68a.41.41,0,0,0-.15.24.4.4,0,0,0,0,.34s.15.06.39,0,.16-.08.14-.2A.51.51,0,0,0,295.2,9.29Z"/></g></g><g id="coo"><ellipse id="coo_17" data-name="coo 17" class="cls-6" cx="78.09" cy="233.28" rx="78.09" ry="9.14"/><path id="coo_16" data-name="coo 16" class="cls-7" d="M126.78,115.28c-.39,1.66,1.18,3.8.8,4.88-.07.16.19.85.09,1.13l-7.73,5.09c-.82,2.83,4.92,8.3,4.45,9.74-.26.75,2.6,2.69,2.34,3.47-.37,1.95-2.32,2.74-2.74,3.84,0,.1-3.41,4-3.44,4.14-.26.8-3.65.92-3.91,1.72-.55,1.64-17.44,3.12-17.45,3.09-4.17-.91-13.87-10.62-12.34-15.66,0-.1-.88-4-.9-4.11-.23-.6,1.73-22.54-9.75-22.1-24.49-.9-49.41,23.56-47.31,48.87,5,59.91,16.49,78,16.49,78l9.37-.07s1.73-5.58-.27-15.87a97.74,97.74,0,0,0,11.2,1l.2,13.77s14.3,1.67,16.38-.3c.4-.39.93-14.62.93-14.62l26.45-.82,5.16,15.17s9.24.58,13.22-.61C131.38,234.05,155.34,143.18,126.78,115.28Z"/><path id="coo_15" data-name="coo 15" class="cls-8" d="M76.23,117c-.63-.1-1.13-.18-1.63-.28A24.77,24.77,0,0,1,70,115.57a7.78,7.78,0,0,1-2.89-1.8,8.57,8.57,0,0,0-2.6-1.71c-2.18-1-4.35-2-6.56-3a6.75,6.75,0,0,1-3.2-2.86,31.29,31.29,0,0,1-3.65-9.11,14.08,14.08,0,0,1,0-6.36A4.69,4.69,0,0,1,52.88,88a20.74,20.74,0,0,1,5.72-3.28,5.51,5.51,0,0,1,3.52-.12c1.43.47,2.85,1,4.29,1.43l0,1.49a31.3,31.3,0,0,0,1.29,8.66A15.38,15.38,0,0,0,68.88,99a76.58,76.58,0,0,1,6.63,15.73c.2.75.44,1.5.71,2.36"/><path id="coo_14" data-name="coo 14" class="cls-8" d="M135.87,113.82a100.13,100.13,0,0,1,3.28-10.57c.9-2.29,1.89-4.5,3-6.67a22.34,22.34,0,0,0,2.23-8.08c.13-1.56.16-3.14.18-4.7,0-1.22,0-1.22,1-1.61l2.73-1a5.4,5.4,0,0,1,4.53.3c1.5.8,3,1.62,4.52,2.44a4.58,4.58,0,0,1,2.08,3,16.34,16.34,0,0,1,.5,4c0,1.41,0,2.83-.08,4.25a5.12,5.12,0,0,1-.34,1.55,21.57,21.57,0,0,1-3.62,6.64,6.75,6.75,0,0,1-2.3,1.81l-4.68,2.35c-.46.24-.95.49-1.42.7a13.85,13.85,0,0,0-4,2.7,6.59,6.59,0,0,1-2.46,1.48c-1.43.54-2.86,1-4.32,1.47a5.51,5.51,0,0,1-.81-.05"/><path id="coo_13" data-name="coo 13" class="cls-9" d="M68.64,67.66c-2.81-.28-4.89-.53-7.63-1a70.17,70.17,0,0,1-17.51-5c-1.76-.77-3.5-1.56-5.22-2.41a6.81,6.81,0,0,1-3.2-3.2c-1.16-2.27-2.35-4.51-3.5-6.77a41.48,41.48,0,0,0-4.15-6.69,16.87,16.87,0,0,0-4.67-4.32,2.62,2.62,0,0,1-.22-.25v0a11.34,11.34,0,0,1-1.3,0l0,0-1.34,0,0,1.52,0,0,0,1.82a2.8,2.8,0,0,1,.49.36,25.1,25.1,0,0,1,3.33,4.78,57.72,57.72,0,0,1,2.92,6.93c.73,1.95,1.55,3.83,2.4,5.72.94,2.06,2,4,3,6.05a11.73,11.73,0,0,0,3.22,4.2A35.79,35.79,0,0,0,42,73.85c3.55,1.75,7.13,3.38,10.71,5.09A36.65,36.65,0,0,0,58.6,81a71.87,71.87,0,0,1,8.23,2.81c.63.24,1.34.38,2.08.59a38.51,38.51,0,0,1,2.4-8.48,37.53,37.53,0,0,1,4.29-7.58Z"/><path id="coo_12" data-name="coo 12" class="cls-9" d="M189.82,36.6l0-1.93h-1.25l-1.25,0c-.28.26-.57.53-.86.75a16.47,16.47,0,0,0-4.23,4.34,50.59,50.59,0,0,0-4.27,7.47c-1.06,2.22-2.13,4.46-3.15,6.68a8.64,8.64,0,0,1-3.57,3.85A29.81,29.81,0,0,1,166,60.16c-3.36,1.23-6.87,2-10.3,3a101.27,101.27,0,0,1-18,3.44c-.6,0-1.15.1-1.89.19a37.4,37.4,0,0,1,4.59,7.37,40.53,40.53,0,0,1,2.7,8.26,7.1,7.1,0,0,0,.76-.2c3-.9,6-1.84,8.91-2.74a57.85,57.85,0,0,0,12-5.14A54.34,54.34,0,0,0,174,68.45a15.93,15.93,0,0,0,5-6.78c.63-1.7,1.45-3.37,2.26-5A26.7,26.7,0,0,0,183,52.26c.27-.89.56-1.81.83-2.7,1.37-4.21,3-8.28,6-11.69v0l0-1.25Z"/><path id="coo_11" data-name="coo 11" class="cls-8" d="M125,102.13c.11.27.17.42.22.56l8.14,14.24c.17.58-2.92,11.94-3.77,14.87-.29,1-.56,2-.85,3a.37.37,0,0,1-.18-.08c-1.44-1.39-4.17-2-6-2.17a5.73,5.73,0,0,1-2.9-1c-2.32-1.7-5-3.47-7.72-4A24,24,0,0,0,99,128c-2.73.76-5.33,2.84-7.58,4.76a.92.92,0,0,1-.62.21,21.07,21.07,0,0,0-4.25.7,7.08,7.08,0,0,0-3.18,2.18,2.12,2.12,0,0,0-.2.21,1,1,0,0,1-.13-.23c-1.49-4-3-6-4.27-10.08a1.91,1.91,0,0,1-.11-.41c-.36-1.08-5.52-16.82-5.2-18,0,0,9-16.11,9-16.36,0,0,11.59,21.12,11.53,21.12s9.42-15.62,9.42-15.62L116,118.17c0,.06,9-16.07,9-16.07"/><g id="coo_10" data-name="coo 10"><path id="Path_3019" data-name="Path 3019" class="cls-9" d="M106.74,154.88c-2.92-.13-5.79-.2-8.68-.47a10.58,10.58,0,0,1-7.51-4.25,29.25,29.25,0,0,0-2.43-2.79,16.54,16.54,0,0,1-4.51-7.65c-.24-.81-.52-1.58-.77-2.37a2.36,2.36,0,0,1-.08-.95c0-.25.09-.5.15-.74a3,3,0,0,1,1.51-2.29,7.13,7.13,0,0,1,3.15-1c.63-.07,2.4-.1,3-.18a1.2,1.2,0,0,0,.62-.27,15.18,15.18,0,0,1,3.58-3.25c2.52-1.32,4.07-2.33,6.8-2.73a32,32,0,0,1,6.7-.28c3.4.22,5.57,1.2,8.71,2.77a14.3,14.3,0,0,1,3.43,3,.85.85,0,0,0,.73.24,21.74,21.74,0,0,1,4.56.33,5.09,5.09,0,0,1,2.14,1.07,3,3,0,0,1,.88,3.1c-.31,1.14-.63,2.27-1,3.42a20.06,20.06,0,0,1-3.17,6.42,8.63,8.63,0,0,1-1.22,1.34,12.53,12.53,0,0,0-1.94,2.23,10.23,10.23,0,0,1-7.46,4.62l-6.27.69-1,0v0"/><path id="Path_3020" data-name="Path 3020" class="cls-3" d="M123.28,138.14a1.7,1.7,0,0,0-1.71-1.69h0a2.76,2.76,0,0,0-1.29.31,10.9,10.9,0,0,0-5.66,6.65,4.33,4.33,0,0,0-.16,1.6,1.44,1.44,0,0,0,1.29,1.56.43.43,0,0,0,.16,0,3.67,3.67,0,0,0,1.77-.45,10.94,10.94,0,0,0,5.18-6,12,12,0,0,0,.47-2"/><path id="Path_3021" data-name="Path 3021" class="cls-3" d="M97.9,144.94a7.71,7.71,0,0,0-.25-1.34,10.84,10.84,0,0,0-6-6.44,3,3,0,0,0-1.42-.2,1.4,1.4,0,0,0-1.34,1.43h0v.12a6.67,6.67,0,0,0,.38,2.12,11,11,0,0,0,5.41,5.85,4,4,0,0,0,1.67.39c.93,0,1.45-.61,1.55-1.9"/></g><path id="coo_9" data-name="coo 9" class="cls-10" d="M94.46,113.67,82.89,92.47,72,112.29c-.13-.44-5.33-15.2-5.62-17.16A31.41,31.41,0,0,1,66,87.69a25.3,25.3,0,0,1,2.15-8.63A42.28,42.28,0,0,1,75,68.33,16.62,16.62,0,0,1,81,63.83a9.43,9.43,0,0,1,4.2-.67c.68.05,1.39,0,2.07.05a6.63,6.63,0,0,1,1.6.21c2.45.71,4.89,1.49,7.39,2a46.36,46.36,0,0,0,11.76.75,59.94,59.94,0,0,0,12.08-2.31c1.34-.38,2.73-.73,4.08-1a6.16,6.16,0,0,1,1.82,0c1.28.1,2.53.22,3.8.41a11.33,11.33,0,0,1,5.6,2.88,21.41,21.41,0,0,1,4.44,5.36A40.27,40.27,0,0,1,145,84.54a25.86,25.86,0,0,1-.51,12.24c-.15.54-3.29,9-4.87,13.07a31.18,31.18,0,0,0-1.47,4.94c-.73,3.31-1,5.11-1.52,6.91-.08.21-.14.71-.26,1.09l-11-19-9,15.79L103.8,98.05Z"/><g id="coo_8" data-name="coo 8"><path id="Path_3023" data-name="Path 3023" class="cls-11" d="M58.71,134.74v5.87a1.82,1.82,0,0,0,3.64,0v-5.87a1.82,1.82,0,1,0-3.64,0Z"/></g><g id="coo_7" data-name="coo 7"><path id="Path_3024" data-name="Path 3024" class="cls-11" d="M74.39,163.11v8.81a1.82,1.82,0,1,0,3.64,0v-8.81a1.82,1.82,0,1,0-3.64,0Z"/></g><g id="coo_6" data-name="coo 6"><path id="Path_3025" data-name="Path 3025" class="cls-11" d="M97.94,171.44a6.05,6.05,0,0,0-.07,1.7,10.4,10.4,0,0,0,.34,1.66,15.49,15.49,0,0,1,.71,2.5,1.82,1.82,0,0,0,2.24,1.27,1.9,1.9,0,0,0,1.09-.84l.18-.43a1.78,1.78,0,0,0,0-1c-.18-1.26-.8-2.42-1-3.68l.07.48a4.51,4.51,0,0,1,0-1l-.06.48a.88.88,0,0,1,0-.16,2,2,0,0,0-.18-1.4,1.83,1.83,0,0,0-2.49-.66,1.77,1.77,0,0,0-.84,1.09Z"/></g><g id="coo_5" data-name="coo 5"><path id="Path_3026" data-name="Path 3026" class="cls-11" d="M93.05,193a31.4,31.4,0,0,1,.94,3.18l-.06-.49a4.58,4.58,0,0,1,0,.74,1.82,1.82,0,0,0,3.64,0,7.07,7.07,0,0,0-.4-2.45c-.21-.65-.48-1.28-.64-1.95a1.82,1.82,0,1,0-3.51,1Z"/></g><g id="coo_4" data-name="coo 4"><path id="Path_3027" data-name="Path 3027" class="cls-11" d="M45.56,137.36a10,10,0,0,0-2,3.52l.19-.43a7.7,7.7,0,0,1-.88,1.62l.28-.37a3.71,3.71,0,0,1-.5.55,1.82,1.82,0,1,0,2.58,2.57,9.65,9.65,0,0,0,2.11-3.62l-.18.44A7.48,7.48,0,0,1,48,140l-.29.37a4.91,4.91,0,0,1,.43-.48,1.82,1.82,0,0,0,0-2.57,1.85,1.85,0,0,0-2.57,0Z"/></g><g id="coo_3" data-name="coo 3"><path id="Path_3028" data-name="Path 3028" class="cls-11" d="M43.32,165c.42,1,1,1.93,1.38,2.93l-.18-.44a7.92,7.92,0,0,1,.57,1.89l-.07-.48V169a2,2,0,0,0,.53,1.29,1.82,1.82,0,0,0,2.57,0h0a1.77,1.77,0,0,0,.53-1.29,8.8,8.8,0,0,0-.35-1.68,16,16,0,0,0-.68-1.66c-.38-.83-.82-1.63-1.18-2.47a1.79,1.79,0,0,0-1.09-.83,1.85,1.85,0,0,0-1.4.18,1.79,1.79,0,0,0-.83,1.09l-.07.48a1.87,1.87,0,0,0,.25.92Z"/></g><g id="coo_2" data-name="coo 2"><path id="Path_3029" data-name="Path 3029" class="cls-11" d="M70,197.06a4.55,4.55,0,0,0-1.47,3.1c-.09.76,0,1.53-.12,2.29l.07-.48a3.69,3.69,0,0,1-.21.79l.19-.44a3,3,0,0,1-.35.6l.28-.37a3.15,3.15,0,0,1-.35.38,1.84,1.84,0,0,0,0,2.57,1.87,1.87,0,0,0,2.58,0,4.77,4.77,0,0,0,1.44-3.13c.09-.74,0-1.5.12-2.25l-.07.48a3.47,3.47,0,0,1,.22-.84l-.18.43a3,3,0,0,1,.3-.52l-.29.37a2.65,2.65,0,0,1,.41-.41,1.82,1.82,0,0,0-1.29-3.11,1.81,1.81,0,0,0-1.28.53Z"/></g><g id="coo_1" data-name="coo 1"><path id="Path_3030" data-name="Path 3030" class="cls-11" d="M59.71,154.31a5.51,5.51,0,0,1-.05.81l.06-.48a16.83,16.83,0,0,1-.71,2.52,7.55,7.55,0,0,0-.22,3.5,1.84,1.84,0,0,0,.84,1.09,1.82,1.82,0,0,0,2.49-.65h0a2.06,2.06,0,0,0,.18-1.4l0-.19.07.48a4.43,4.43,0,0,1,0-1.26l-.07.48a14,14,0,0,1,.61-2.19,8.29,8.29,0,0,0,.46-2.71,1.82,1.82,0,0,0-3.64,0Z"/></g></g><g id="plants"><g id="plant_4" data-name="plant 4"><g id="Group_4913" data-name="Group 4913"><g id="Group_4912" data-name="Group 4912"><path id="Path_3031" data-name="Path 3031" class="cls-11" d="M161.15,186.27c-.12,3.12.18,6.23.19,9.34a29.38,29.38,0,0,1-.31,4.78,43.88,43.88,0,0,1-1.12,4.66c-1.67,6.17-3.7,12.25-6,18.23-1.28,3.4-2.58,6.78-3.67,10.24a.37.37,0,0,0,.72.2c1.95-6.2,4.52-12.2,6.57-18.37q1.52-4.56,2.81-9.18a38.72,38.72,0,0,0,1.69-9.17c.11-3.58-.31-7.15-.17-10.73,0-.48-.73-.48-.75,0Z"/></g></g><g id="Group_4914" data-name="Group 4914"><path id="Path_3032" data-name="Path 3032" class="cls-12" d="M171,200.7a41.1,41.1,0,0,1,0-4.44c.11-1.83.53-3.59.69-5.39-.15,2.48,1.65,1.46,3,.84.12,1.06.3,1,1.33,1.13,1.2.18.39.5,1,1.25.4.46,1.25.24,1.64.63.12.12.23.72.44.95.45.5,1.16.55,1.71.87.76.43.68,1.15,1.41,1.78.26.22.9.32,1.08.52s.08.48.23.84c.43,1.11,1.71,1.36,2.1,2.22s0,1.52,1,1.81c-1.59.83-3.08,2-4.83,2.4a10,10,0,0,1-3.45.09"/></g><g id="Group_4915" data-name="Group 4915"><path id="Path_3033" data-name="Path 3033" class="cls-13" d="M169.9,209a6.56,6.56,0,0,1-2.64-4.34c-.31-1.31-.31-2.92.7-3.8s4.14-.63,5.53-.52a11.45,11.45,0,0,1,1.55.14c1,.23,1.07,1,1.45,2,.5,1.27,2.82,4.35,2.07,5.78s-4.27,1.44-5.73,1.57a5.13,5.13,0,0,1-2.06-.21c-.93-.26-1.08-.39-1.56.49"/></g><g id="Group_4916" data-name="Group 4916"><path id="Path_3034" data-name="Path 3034" class="cls-12" d="M164.66,182.15a41.61,41.61,0,0,0,2.53-3.65c.93-1.58,1.57-3.26,2.45-4.85-1.27,2.14-2.19.28-3-1-.7.81-.79.65-1.73.2-1.1-.52-.61.2-1.56.45-.59.16-1.17-.5-1.72-.4-.17,0-.59.46-.89.54-.66.16-1.28-.19-1.91-.24-.87-.07-1.2.57-2.16.68-.34,0-.93-.24-1.19-.17s-.34.34-.66.56c-1,.67-2.18.16-3,.66s-.87,1.25-1.87.93c.85,1.58,1.41,3.41,2.66,4.7a9.65,9.65,0,0,0,2.8,2"/></g><g id="Group_4917" data-name="Group 4917"><path id="Path_3035" data-name="Path 3035" class="cls-13" d="M161,189.61a6.54,6.54,0,0,0,4.61-2.1c1-.91,1.89-2.25,1.56-3.54-.39-1.49-3.08-2.84-4.29-3.53a12.09,12.09,0,0,0-1.36-.76c-.95-.37-1.46.24-2.3.83-1.12.76-4.79,2-5,3.61s2.72,3.59,3.86,4.51a5.09,5.09,0,0,0,1.83,1c.91.31,1.1.29,1,1.28"/></g><g id="Group_4919" data-name="Group 4919"><g id="Group_4918" data-name="Group 4918"><path id="Path_3036" data-name="Path 3036" class="cls-11" d="M173,206.48a4.43,4.43,0,0,0-2.26.92c-.78.53-1.5,1.14-2.28,1.66a22.66,22.66,0,0,0-2.82,2.13c-1,.88-1.86,1.8-2.84,2.66a39.93,39.93,0,0,0-5.22,5.65c-1.6,2.1-3.06,4.3-4.51,6.51-1.65,2.52-3.29,5.05-5.07,7.48-.29.39.36.76.64.38,3-4.08,5.56-8.46,8.53-12.56a38.34,38.34,0,0,1,4.95-5.84c.93-.86,1.9-1.68,2.82-2.55a25.62,25.62,0,0,1,2.82-2.49c.86-.62,1.73-1.21,2.59-1.84a5.16,5.16,0,0,1,2.65-1.36.39.39,0,0,0,.35-.4.37.37,0,0,0-.35-.35Z"/></g></g><g id="Group_4920" data-name="Group 4920"><path id="Path_3037" data-name="Path 3037" class="cls-11" d="M160.67,204.41c-.56-1.25-2.39-1.83-3.45-2.32a21.68,21.68,0,0,0-2.87-.89,8.29,8.29,0,0,1-1.81-.64c-.94-.57-1.14-1.62-1.81-2.5s-1.93-.44-3-.41a15,15,0,0,0-3.13.3,3.43,3.43,0,0,1,2,1.06c.62.87.16,1.53-.38,2.64,1.08-.23,3.41-.44,4.25.15,1.55,1.1,2.11,2.27,3.32,3.65.51.59,5.65-1,6.38-1.15"/></g></g><g id="plant_3" data-name="plant 3"><g id="Group_4922" data-name="Group 4922"><path id="Path_3038" data-name="Path 3038" class="cls-12" d="M157.28,238.82a7.12,7.12,0,0,1-1-.06c-.29,0-.57-.08-.86-.13a4.54,4.54,0,0,0-2-.08.57.57,0,0,1-.71-.38h0a.52.52,0,0,1,0-.11.52.52,0,0,1-.14-.19,7.11,7.11,0,0,1-.38-5.5,9.08,9.08,0,0,0,.32-1.85,12.27,12.27,0,0,1,1.28-5.77,14.23,14.23,0,0,1,2.79-3.21,7.21,7.21,0,0,1,3.38-2.14.6.6,0,0,1,.45.1l.43.33a7.67,7.67,0,0,0-.26-1,.57.57,0,0,1,.37-.72l.14,0c.34,0,.65-.34,1-.71.17-.18.35-.35.53-.52a6.28,6.28,0,0,1,1.83-1,6.17,6.17,0,0,0,1.3-.61L166,215a2.41,2.41,0,0,1,1.89-.68.57.57,0,0,1,.44.41c.63,2.31,1.15,4.68,1.65,7a10.91,10.91,0,0,1,.37,2.89,9.55,9.55,0,0,1-.45,2.25,38.32,38.32,0,0,1-3,7.42,8.48,8.48,0,0,1-2.15,2.75,9.54,9.54,0,0,1-4.38,1.49A18.46,18.46,0,0,1,157.28,238.82Zm-3.22-1.5a9,9,0,0,1,1.54.18c.26.05.52.1.78.13a13.55,13.55,0,0,0,3.76-.26A8.77,8.77,0,0,0,164,236.1a7.41,7.41,0,0,0,1.83-2.4,35.85,35.85,0,0,0,3-7.2,8.85,8.85,0,0,0,.41-2,9.66,9.66,0,0,0-.33-2.51c-.48-2.2-1-4.4-1.53-6.54a3.26,3.26,0,0,0-.66.43l-.36.25a7.17,7.17,0,0,1-1.53.73,5.08,5.08,0,0,0-1.5.77,6.09,6.09,0,0,0-.44.44,4.17,4.17,0,0,1-1.08.88,9.42,9.42,0,0,1,.25,2.43.59.59,0,0,1-.6.55.58.58,0,0,1-.44-.24,5.71,5.71,0,0,0-1.1-1.15,6.94,6.94,0,0,0-2.59,1.79,13.22,13.22,0,0,0-2.58,2.95,11.2,11.2,0,0,0-1.13,5.22,9.81,9.81,0,0,1-.34,2.09,6,6,0,0,0,.28,4.73h0a4.58,4.58,0,0,1,.53,0Z"/></g><g id="Group_4923" data-name="Group 4923"><path id="Path_3039" data-name="Path 3039" class="cls-12" d="M153.94,238.27a.57.57,0,0,1-.57-.57.55.55,0,0,1,.25-.47,6.79,6.79,0,0,1,1.43-.64,8.82,8.82,0,0,0,4.6-3.11,27.12,27.12,0,0,0,2.75-4.64l3-6.51a15.63,15.63,0,0,0,1.92-6.94.57.57,0,0,1,.56-.58h0a.58.58,0,0,1,.58.56,16.42,16.42,0,0,1-2,7.44l-3,6.51a27.71,27.71,0,0,1-2.87,4.83,10,10,0,0,1-5.14,3.52,5.5,5.5,0,0,0-1.17.5A.58.58,0,0,1,153.94,238.27Z"/></g><g id="Group_4924" data-name="Group 4924"><path id="Path_3040" data-name="Path 3040" class="cls-12" d="M167.28,219.89a.6.6,0,0,1-.47-.23,11.21,11.21,0,0,1-1.25-2.21l-.1-.24a4.93,4.93,0,0,0-.37-.77.57.57,0,0,1,1-.63,5.1,5.1,0,0,1,.47,1l.09.22a9.85,9.85,0,0,0,1,1.74,5.81,5.81,0,0,0,1.09-.14.57.57,0,0,1,.67.45.59.59,0,0,1-.45.68,7.89,7.89,0,0,1-1.6.16Z"/></g><g id="Group_4925" data-name="Group 4925"><path id="Path_3041" data-name="Path 3041" class="cls-12" d="M166.21,223.81a1.67,1.67,0,0,1-.62-.12,1.86,1.86,0,0,1-.84-.87l-1.4-2.34-1.4-2.34a.57.57,0,0,1,.18-.79.58.58,0,0,1,.79.17l0,0,1.39,2.33c.47.79.95,1.58,1.4,2.35.09.14.21.36.32.4a1,1,0,0,0,.39,0,22.29,22.29,0,0,0,2.91-.46.56.56,0,0,1,.66.45.57.57,0,0,1-.4.66,22.81,22.81,0,0,1-3.07.49Z"/></g><g id="Group_4926" data-name="Group 4926"><path id="Path_3042" data-name="Path 3042" class="cls-12" d="M168.89,228.52h-.06L164,228a1.27,1.27,0,0,1-1.11-.65l-4.41-6.55a.58.58,0,0,1,.17-.79.59.59,0,0,1,.78.15l4.41,6.55a.6.6,0,0,0,.09.13l.18,0,4.82.48a.57.57,0,0,1-.05,1.14Z"/></g><g id="Group_4927" data-name="Group 4927"><path id="Path_3043" data-name="Path 3043" class="cls-12" d="M167.38,232.42h0l-1.16-.08-1.26-.09a5.6,5.6,0,0,1-1-.14,4.57,4.57,0,0,1-.62-.22l-.3-.11-.21-.08a2.44,2.44,0,0,1-1.29-.76,36.91,36.91,0,0,1-5.76-7.58.59.59,0,0,1,.22-.79.57.57,0,0,1,.78.22,35.31,35.31,0,0,0,5.58,7.34,1.93,1.93,0,0,0,.3.27,2.36,2.36,0,0,0,.52.21l.25.09.35.13a2.48,2.48,0,0,0,.48.17,4.17,4.17,0,0,0,.78.1l1.26.09,1.17.08a.57.57,0,0,1,0,1.14Z"/></g><g id="Group_4928" data-name="Group 4928"><path id="Path_3044" data-name="Path 3044" class="cls-12" d="M164.7,236.54a18.32,18.32,0,0,0-3.4-1.48l-.13,0a4.36,4.36,0,0,1-2.08-1.15,15.22,15.22,0,0,1-1.27-1.27,18.28,18.28,0,0,1-1.38-1.89l-2.77-4.13h0l-.19-.32,1-.61,3,4.41a17.23,17.23,0,0,0,1.3,1.78,16.14,16.14,0,0,0,1.17,1.17,4.57,4.57,0,0,0,.69.54,5.6,5.6,0,0,0,1,.37l.14,0a19.71,19.71,0,0,1,3.62,1.57Z"/></g><g id="Group_4929" data-name="Group 4929"><path id="Path_3045" data-name="Path 3045" class="cls-12" d="M160.82,238.33a.59.59,0,0,1-.23-.05c-3.19-1.43-5.42-4.32-7.26-6.91a5.31,5.31,0,0,1-.83-1.51.67.67,0,0,1,.28-.78.6.6,0,0,1,.71.08.64.64,0,0,1,.19.59,5.22,5.22,0,0,0,.58,1c1.75,2.47,3.87,5.22,6.79,6.52a.58.58,0,0,1,.29.76.56.56,0,0,1-.52.34Z"/></g></g><g id="plant_2" data-name="plant 2"><g id="Group_4932" data-name="Group 4932"><g id="Group_4931" data-name="Group 4931"><path id="Path_3046" data-name="Path 3046" class="cls-5" d="M130.39,198.75a17,17,0,0,0,2.45,8.43c1.53,2.53,3.76,4.46,5.86,6.49a39.11,39.11,0,0,1,9.23,14.84,100.35,100.35,0,0,1,2.95,9.6c.12.46.86.36.74-.1a72.52,72.52,0,0,0-5.92-16.29,34.27,34.27,0,0,0-5-7c-2-2.17-4.38-4-6.21-6.35a16.26,16.26,0,0,1-3.4-9.68c0-.48-.75-.37-.74.1Z"/></g></g><g id="Group_4933" data-name="Group 4933"><path id="Path_3047" data-name="Path 3047" class="cls-5" d="M137.44,196.56c-1-.59-3.88,1.22-3.56,4.14s2.48,9-.52,9.93-9,1.73-9.94-2.75,6.45-2.41,7.54-1.48,3.87,4.16,5.43,2.41S142.81,199.72,137.44,196.56Z"/></g><g id="Group_4934" data-name="Group 4934"><path id="Path_3048" data-name="Path 3048" class="cls-5" d="M145.16,202.43c-1.28-.22-3.7-.24-4.68,4.68s-2,9.33-5.5,10.08-5.94,1.54-7.22-2,10.31-.83,13.25-2,6.94-4.7,5.3-9.1A3.21,3.21,0,0,0,145.16,202.43Z"/></g><g id="Group_4935" data-name="Group 4935"><path id="Path_3049" data-name="Path 3049" class="cls-5" d="M152.16,211.68c-.27-.86-4.34-1.89-6.45,2s-4.09,9-7.07,10.35-7,1.5-7-1.49,5.54-3.88,8-3.86,4,.34,6.31.16S153.92,217.22,152.16,211.68Z"/></g><g id="Group_4936" data-name="Group 4936"><path id="Path_3050" data-name="Path 3050" class="cls-5" d="M154.78,219.7c-.22-1.29-2.8-2.66-4.64,1.46s-4.67,8.55-6.9,9.16-5.69,1.34-6.18-1.5,3.49-3.53,4.87-3.54,5.56.87,7.24.87S155.46,223.61,154.78,219.7Z"/></g><g id="Group_4937" data-name="Group 4937"><path id="Path_3051" data-name="Path 3051" class="cls-5" d="M153.59,229.54c-.8-.45-1.29-2.17-2.26,2.38s-1.7,6.65-7,6.75-8.56-2.18-6.7-4.55,12.17,1,13.78,1.07-1.31-.7-.09-5.52S153.59,229.54,153.59,229.54Z"/></g></g><g id="plant_1" data-name="plant 1"><g id="Group_4939" data-name="Group 4939"><path id="Path_3052" data-name="Path 3052" class="cls-14" d="M154.77,209.86l-1-.28a2.25,2.25,0,0,1-.25-1.82c.17-.59.58-1.14.48-1.74a1.33,1.33,0,0,0-1.42-1,2.12,2.12,0,0,0-1.53,1,6.42,6.42,0,0,0-.73,1.75l-1.42,4.71a1.27,1.27,0,0,1-.26.55c-.42.43-1.12.1-1.71,0a2.1,2.1,0,0,0-2.25,1.27c-.49,1.25.32,2.6,1.1,3.7s1.62,2.42,1.17,3.69a.84.84,0,0,1-.36.49c-.47.24-.94-.3-1.35-.64a2,2,0,0,0-2.83.34,2.66,2.66,0,0,0-.36,2.21,7.82,7.82,0,0,0,1,2.1c.63,1.1,2.65,3.21,2.81,4.47,1.09,8.44,7.5,8.32,6.13,7.54-2.91-1.66,0-6.75,2.59-8.1,1-.52,2.08-1.21,2.33-2.31a1.35,1.35,0,0,0-.31-1.29,2.07,2.07,0,0,0-.69-.36,17.74,17.74,0,0,1-2.68-1.27,1.42,1.42,0,0,1-.61-.53,1.05,1.05,0,0,1,.26-1.14,4,4,0,0,1,1-.69,8.51,8.51,0,0,0,1.87-1.41c.21-.21.41-.55.22-.78s-.24-.14-.34-.23a.57.57,0,0,1,0-.7,1.7,1.7,0,0,1,.57-.5,11.06,11.06,0,0,0,2.25-2,3.7,3.7,0,0,0,.91-1.64,1.68,1.68,0,0,0-.56-1.7c-.71-.5-1.69-.17-2.52.1a15,15,0,0,1-2.38.59.81.81,0,0,1-.41,0,.51.51,0,0,1-.23-.62,1.32,1.32,0,0,1,.43-.56,12.7,12.7,0,0,0,1.19-1,1.92,1.92,0,0,0,.58-1.41,1.05,1.05,0,0,0-1-1"/></g><g id="Group_4940" data-name="Group 4940"><path id="Path_3053" data-name="Path 3053" class="cls-15" d="M148,231.46h-.07a.22.22,0,0,1-.13-.28,5.67,5.67,0,0,0,.37-1.4,5.45,5.45,0,0,0-.05-1.07l0-.15a17.37,17.37,0,0,1-.1-2.5,27.06,27.06,0,0,1,.55-3.91c.25-1.36.51-2.75.82-4.14.75-3.33,1.8-6.63,2.82-9.82.16-.51.31-1,.49-1.47a.22.22,0,1,1,.41.15c-.17.46-.33.95-.48,1.41-1,3.22-2.07,6.52-2.81,9.83-.31,1.38-.57,2.77-.83,4.12a29.22,29.22,0,0,0-.53,3.85,16.59,16.59,0,0,0,.09,2.44l0,.15a4.43,4.43,0,0,1-.35,2.66A.22.22,0,0,1,148,231.46Z"/></g><g id="Group_4941" data-name="Group 4941"><path id="Path_3054" data-name="Path 3054" class="cls-15" d="M148.63,230.11a.22.22,0,0,1,0-.44,14,14,0,0,0,6.48-2.39.22.22,0,0,1,.3.07.23.23,0,0,1-.06.29,14.46,14.46,0,0,1-6.67,2.46Z"/></g><g id="Group_4942" data-name="Group 4942"><path id="Path_3055" data-name="Path 3055" class="cls-15" d="M147.81,227.62a.22.22,0,0,1-.13,0c-1-.75-1.93-1.53-2.87-2.32a5,5,0,0,1-.59-.54,4.67,4.67,0,0,1-.77-1.42.42.42,0,0,1,.07-.43.26.26,0,0,1,.29-.06.22.22,0,0,1,.13.28l-.06.09a3.78,3.78,0,0,0,.67,1.25,5.08,5.08,0,0,0,.54.5c.93.78,1.9,1.55,2.86,2.3a.22.22,0,0,1,0,.3.21.21,0,0,1-.18.09Z"/></g><g id="Group_4943" data-name="Group 4943"><path id="Path_3056" data-name="Path 3056" class="cls-15" d="M149.42,219.78a.21.21,0,0,1-.22-.21.22.22,0,0,1,.15-.21c2.67-.92,5.34-2,7.94-3.06a.23.23,0,0,1,.3.1.22.22,0,0,1-.1.29h0c-2.61,1.12-5.3,2.15-8,3.07Z"/></g><g id="Group_4944" data-name="Group 4944"><path id="Path_3057" data-name="Path 3057" class="cls-15" d="M149.31,218.81h-.09a7.68,7.68,0,0,1-3.88-4.07.23.23,0,0,1,.12-.29.22.22,0,0,1,.28.12h0a7.19,7.19,0,0,0,3.65,3.83.21.21,0,0,1,.1.29.21.21,0,0,1-.19.12Z"/></g></g></g></g></svg>