<svg xmlns="http://www.w3.org/2000/svg" width="510" height="393.52" viewBox="0 0 510 393.52">
  <g id="Group_4064" data-name="Group 4064" transform="translate(50.98 22.672)">
    <g id="Group_4044" data-name="Group 4044" transform="translate(226.487 -5.562)">
      <path id="Path_2688" data-name="Path 2688" d="M1323.573,313.055H1264.1a12.6,12.6,0,0,0-12.6,12.6V354.81a12.6,12.6,0,0,0,12.6,12.6h16.278l14.444,19.4,14.444-19.4h14.305a12.6,12.6,0,0,0,12.6-12.6V325.651A12.6,12.6,0,0,0,1323.573,313.055Zm-16.093,25.479a15.311,15.311,0,0,1-2.773,5.405,38.312,38.312,0,0,1-6.829,6.787c-1.284,1.017-2.573,2.027-3.855,3.047a.249.249,0,0,1-.377,0c-1.744-1.4-3.519-2.754-5.233-4.185a33.84,33.84,0,0,1-5.62-5.87,15.083,15.083,0,0,1-2.6-5.16,8.832,8.832,0,0,1-.12-4.533,7.174,7.174,0,0,1,13.35-1.367c.151.3.268.61.4.912.208-.432.379-.884.627-1.288a6.924,6.924,0,0,1,6.574-3.567,7.067,7.067,0,0,1,6.716,6A8.975,8.975,0,0,1,1307.48,338.534Z" transform="translate(-1251.507 -313.055)" fill="#28c7c4"/>
    </g>
    <g id="Group_4046" data-name="Group 4046" transform="translate(352.559 40.452)">
      <g id="Group_4045" data-name="Group 4045" transform="translate(0 0)">
        <path id="Path_2689" data-name="Path 2689" d="M1413.341,376.9H1389.4a5.072,5.072,0,0,0-5.072,5.071v11.742a5.072,5.072,0,0,0,5.072,5.072h6.554l5.816,7.811,5.816-7.811h5.759a5.072,5.072,0,0,0,5.072-5.072V381.971A5.072,5.072,0,0,0,1413.341,376.9Zm-6.479,10.258a6.177,6.177,0,0,1-1.116,2.177,15.513,15.513,0,0,1-2.751,2.732c-.517.41-1.036.816-1.552,1.226a.1.1,0,0,1-.152,0c-.7-.562-1.416-1.109-2.108-1.685a13.62,13.62,0,0,1-2.262-2.363,6.089,6.089,0,0,1-1.047-2.078,3.555,3.555,0,0,1-.049-1.825,2.889,2.889,0,0,1,5.376-.551c.06.12.108.246.161.368.084-.175.154-.357.252-.519a2.789,2.789,0,0,1,2.647-1.437,2.846,2.846,0,0,1,2.7,2.416A3.62,3.62,0,0,1,1406.862,387.158Z" transform="translate(-1384.324 -376.9)" fill="#af006e"/>
      </g>
    </g>
    <g id="Group_4048" data-name="Group 4048" transform="translate(326.833 26.555)">
      <g id="Group_4047" data-name="Group 4047" transform="translate(0 0)">
        <path id="Path_2690" data-name="Path 2690" d="M1377.026,363.539h-14.387a3.046,3.046,0,0,0-3.047,3.047v7.055a3.046,3.046,0,0,0,3.047,3.047h3.938l3.494,4.693,3.494-4.693h3.461a3.047,3.047,0,0,0,3.048-3.047v-7.055A3.047,3.047,0,0,0,1377.026,363.539Zm-3.893,6.163a3.7,3.7,0,0,1-.67,1.309,9.277,9.277,0,0,1-1.653,1.641c-.31.247-.622.49-.932.737a.06.06,0,0,1-.091,0c-.421-.337-.851-.666-1.266-1.012a8.217,8.217,0,0,1-1.359-1.42,3.652,3.652,0,0,1-.628-1.248,2.144,2.144,0,0,1-.03-1.1,1.736,1.736,0,0,1,3.23-.331c.036.073.065.148.1.221.051-.1.093-.214.152-.312a1.675,1.675,0,0,1,1.59-.862,1.708,1.708,0,0,1,1.625,1.451A2.174,2.174,0,0,1,1373.132,369.7Z" transform="translate(-1359.592 -363.539)" fill="#f5d25c"/>
      </g>
    </g>
    <g id="Group_4050" data-name="Group 4050" transform="translate(307.215 59.556)">
      <g id="Group_4049" data-name="Group 4049" transform="translate(0 0)">
        <path id="Path_2691" data-name="Path 2691" d="M1369.305,395.265h-23.579a4.994,4.994,0,0,0-4.994,4.994v11.562a4.994,4.994,0,0,0,4.994,4.994h6.454l5.727,7.691,5.727-7.691h5.671a4.994,4.994,0,0,0,4.994-4.994V400.259A4.994,4.994,0,0,0,1369.305,395.265Zm-6.38,10.1a6.084,6.084,0,0,1-1.1,2.143,15.224,15.224,0,0,1-2.708,2.691c-.509.4-1.021.8-1.528,1.208a.1.1,0,0,1-.15,0c-.691-.553-1.4-1.092-2.075-1.659a13.5,13.5,0,0,1-2.228-2.327,6,6,0,0,1-1.03-2.046,3.51,3.51,0,0,1-.048-1.8,2.845,2.845,0,0,1,5.294-.542c.059.118.106.241.158.361a5.212,5.212,0,0,1,.249-.51,2.744,2.744,0,0,1,2.607-1.415,2.8,2.8,0,0,1,2.661,2.379A3.571,3.571,0,0,1,1362.925,405.367Z" transform="translate(-1340.732 -395.265)" fill="#392f9a"/>
      </g>
    </g>
    <g id="Group_4057" data-name="Group 4057" transform="translate(60.506 9.825)">
      <g id="Group_4056" data-name="Group 4056" transform="translate(0 0)">
        <path id="Path_2695" data-name="Path 2695" d="M1128.423,373.307h96.807a.928.928,0,0,1,.928.929v82.316l-15.619-14.579h-82.115a.928.928,0,0,1-.929-.928V374.236A.928.928,0,0,1,1128.423,373.307Z" transform="translate(-1127.494 -373.307)" fill="#fff" stroke="#fff" stroke-linecap="round" stroke-linejoin="round" stroke-width="1.185"/>
        <path id="Path_2696" data-name="Path 2696" d="M1131.824,376.387h96.807a.928.928,0,0,1,.93.928v82.317l-15.62-14.579h-82.116a.929.929,0,0,1-.928-.93V377.315A.929.929,0,0,1,1131.824,376.387Z" transform="translate(-1126.504 -372.411)" fill="#f4cb4b"/>
      </g>
      <line id="Line_333" data-name="Line 333" x1="23.248" transform="translate(18.882 22.099)" fill="none" stroke="#fff" stroke-linecap="round" stroke-linejoin="round" stroke-width="3"/>
      <line id="Line_334" data-name="Line 334" x1="55.13" transform="translate(18.882 33.149)" fill="none" stroke="#fff" stroke-linecap="round" stroke-linejoin="round" stroke-width="3"/>
      <line id="Line_335" data-name="Line 335" x1="48.753" transform="translate(18.882 43.719)" fill="none" stroke="#fff" stroke-linecap="round" stroke-linejoin="round" stroke-width="3"/>
      <line id="Line_336" data-name="Line 336" x1="61.506" transform="translate(18.882 55.249)" fill="none" stroke="#fff" stroke-linecap="round" stroke-linejoin="round" stroke-width="3"/>
    </g>
    <g id="Group_4060" data-name="Group 4060" transform="translate(-49.98 74.192)">
      <path id="Path_2703" data-name="Path 2703" d="M1037.671,477.448h62.681c2.009-16.068,1.732-34.995-7.12-43.642-.233.98.691,2.236.471,2.874-.039.092.113.5.05.666l-4.546,2.995c-.48,1.665,2.9,4.884,2.617,5.73-.15.442,1.53,1.58,1.381,2.039-.222,1.149-1.367,1.612-1.617,2.261-.01.059-2,2.377-2.024,2.438-.15.47-2.146.54-2.3,1.009-.323.965-10.262,1.839-10.272,1.819-2.448-.535-8.16-6.251-7.261-9.216-.027-.059-.516-2.353-.526-2.417-.135-.352,1.015-13.266-5.738-13-14.41-.53-29.074,13.864-27.837,28.754C1036.2,466.53,1036.9,472.392,1037.671,477.448Z" transform="translate(-1010.717 -386.374)" fill="#3a2495"/>
      <rect id="Rectangle_2410" data-name="Rectangle 2410" width="96.664" height="55.246" rx="2.031" transform="translate(96.664 91.548) rotate(-180)" fill="none" stroke="#948bff" stroke-width="2"/>
      <ellipse id="Ellipse_429" data-name="Ellipse 429" cx="4.889" cy="4.889" rx="4.889" ry="4.889" transform="translate(9.293 45.429)" fill="#948bff"/>
      <g id="Group_4911" data-name="Group 4911" transform="translate(19.606 0)">
        <path id="Path_3014" data-name="Path 3014" d="M1064.794,433.3c-.373-.059-.668-.107-.957-.17a14.324,14.324,0,0,1-2.692-.7,4.562,4.562,0,0,1-1.7-1.056,5.111,5.111,0,0,0-1.53-1.01c-1.287-.595-2.563-1.2-3.866-1.778a3.988,3.988,0,0,1-1.883-1.681,18.258,18.258,0,0,1-2.144-5.361,8.3,8.3,0,0,1,.022-3.739,2.74,2.74,0,0,1,1.005-1.579,12.17,12.17,0,0,1,3.365-1.929,3.259,3.259,0,0,1,2.077-.074c.838.279,1.675.575,2.524.844l.016.878a18.267,18.267,0,0,0,.76,5.093,8.433,8.433,0,0,0,.676,1.619,44.855,44.855,0,0,1,3.9,9.255c.117.444.262.887.422,1.392" transform="translate(-1031.632 -384.824)" fill="#24175d"/>
        <path id="Path_3015" data-name="Path 3015" d="M1104.944,431.183a57.747,57.747,0,0,1,1.931-6.216c.529-1.347,1.108-2.648,1.746-3.927a13.234,13.234,0,0,0,1.315-4.753c.074-.92.089-1.851.1-2.769.019-.713-.013-.712.616-.947l1.606-.6a3.209,3.209,0,0,1,2.667.177c.883.47,1.789.955,2.659,1.44a2.658,2.658,0,0,1,1.221,1.759,9.474,9.474,0,0,1,.294,2.383c.015.828,0,1.662-.044,2.5a3.05,3.05,0,0,1-.2.917,12.66,12.66,0,0,1-2.132,3.9,3.877,3.877,0,0,1-1.354,1.064c-.915.462-1.845.926-2.749,1.387-.274.14-.561.288-.837.412a8.138,8.138,0,0,0-2.349,1.585,3.887,3.887,0,0,1-1.451.874c-.838.314-1.682.589-2.541.862a2.874,2.874,0,0,1-.476-.026" transform="translate(-1036.686 -384.611)" fill="#24175d"/>
        <path id="Path_3016" data-name="Path 3016" d="M1058.493,401.479c-1.655-.166-2.879-.311-4.491-.589a41.482,41.482,0,0,1-10.305-2.946c-1.033-.458-2.06-.92-3.074-1.422a4.014,4.014,0,0,1-1.883-1.883c-.68-1.332-1.381-2.652-2.059-3.985a23.79,23.79,0,0,0-2.442-3.937,9.9,9.9,0,0,0-2.746-2.538c-.046-.044-.087-.1-.131-.148v-.027a7.32,7.32,0,0,1-.761.013l-.021.029-.785.014.016.9-.016.011.02,1.069a1.4,1.4,0,0,1,.289.214,14.781,14.781,0,0,1,1.962,2.809,34.63,34.63,0,0,1,1.717,4.079c.43,1.146.909,2.257,1.411,3.368.555,1.211,1.2,2.353,1.747,3.558a6.868,6.868,0,0,0,1.894,2.471,20.854,20.854,0,0,0,3.968,2.581c2.087,1.031,4.194,1.989,6.3,3a21.983,21.983,0,0,0,3.478,1.218,41.558,41.558,0,0,1,4.842,1.652c.371.144.788.226,1.222.347a22.879,22.879,0,0,1,1.411-4.988,22.432,22.432,0,0,1,2.528-4.461C1061.048,401.74,1059.975,401.625,1058.493,401.479Z" transform="translate(-1029.795 -382.066)" fill="#9181d6"/>
        <path id="Path_3017" data-name="Path 3017" d="M1136.689,383.005l-.022-1.134h-.73s0,0,0,0l-.734.014c-.165.154-.339.312-.508.443a9.62,9.62,0,0,0-2.486,2.557,29.146,29.146,0,0,0-2.512,4.393c-.627,1.309-1.254,2.622-1.853,3.931a5.118,5.118,0,0,1-2.1,2.264,17.428,17.428,0,0,1-3.046,1.392c-1.974.727-4.042,1.177-6.061,1.738a59.318,59.318,0,0,1-10.6,2.027c-.353.029-.678.059-1.111.11a22.082,22.082,0,0,1,2.7,4.336,23.74,23.74,0,0,1,1.589,4.858,3.2,3.2,0,0,0,.448-.115c1.75-.53,3.51-1.083,5.247-1.61a34.314,34.314,0,0,0,7.041-3.025,32.029,32.029,0,0,0,5.424-3.441,9.346,9.346,0,0,0,2.954-3.99c.371-1,.853-1.979,1.331-2.963a15.938,15.938,0,0,0,1.049-2.574c.157-.521.325-1.064.488-1.584a19.5,19.5,0,0,1,3.508-6.878l.011-.016-.013-.735Z" transform="translate(-1036.684 -381.87)" fill="#9181d6"/>
        <path id="Path_3018" data-name="Path 3018" d="M1094.826,424.918c.067.154.1.243.13.327l4.792,8.379c.1.341-1.72,7.024-2.216,8.749-.171.589-.331,1.183-.5,1.791a.2.2,0,0,1-.109-.051,6.448,6.448,0,0,0-3.536-1.272,3.329,3.329,0,0,1-1.7-.606,12.39,12.39,0,0,0-4.542-2.357,14.114,14.114,0,0,0-7.634.279,12.737,12.737,0,0,0-4.459,2.8.548.548,0,0,1-.366.127,12.1,12.1,0,0,0-2.5.411,4.137,4.137,0,0,0-1.871,1.282c-.03.033-.074.069-.117.123a.677.677,0,0,1-.078-.136c-.875-2.32-1.758-3.531-2.512-5.93a1.018,1.018,0,0,1-.063-.239c-.213-.639-3.251-9.9-3.059-10.572,0,0,5.263-9.478,5.3-9.622,0,0,6.821,12.427,6.79,12.427.031,0,5.542-9.193,5.542-9.193l7.429,12.718c0,.036,5.287-9.455,5.287-9.455" transform="translate(-1032.975 -385.22)" fill="#24175d"/>
        <g id="Group_4902" data-name="Group 4902" transform="translate(36.996 53.479)">
          <path id="Path_3019" data-name="Path 3019" d="M1084.643,458.006c-1.716-.078-3.4-.118-5.1-.277a6.235,6.235,0,0,1-4.422-2.5,16.478,16.478,0,0,0-1.429-1.641,9.758,9.758,0,0,1-2.655-4.5c-.141-.48-.3-.934-.454-1.4a1.5,1.5,0,0,1-.046-.559,4.2,4.2,0,0,1,.091-.435,1.756,1.756,0,0,1,.888-1.347,4.24,4.24,0,0,1,1.855-.613c.368-.04,1.412-.058,1.781-.1a.717.717,0,0,0,.361-.156,8.932,8.932,0,0,1,2.108-1.914,11.482,11.482,0,0,1,4-1.607,18.6,18.6,0,0,1,3.945-.164,12.172,12.172,0,0,1,5.125,1.631,8.327,8.327,0,0,1,2.016,1.742.5.5,0,0,0,.431.141,12.712,12.712,0,0,1,2.683.192,3.056,3.056,0,0,1,1.26.632,1.771,1.771,0,0,1,.519,1.824c-.185.673-.375,1.337-.563,2.01a11.817,11.817,0,0,1-1.864,3.78,4.748,4.748,0,0,1-.719.785,7.524,7.524,0,0,0-1.142,1.313,6.025,6.025,0,0,1-4.386,2.722l-3.693.406-.6.01a.137.137,0,0,1,0,.03" transform="translate(-1070.526 -440.748)" fill="#9181d6"/>
          <path id="Path_3020" data-name="Path 3020" d="M1096.258,448.8a1,1,0,0,0-1.006-.995h-.028a1.7,1.7,0,0,0-.76.183,6.4,6.4,0,0,0-3.328,3.918,2.517,2.517,0,0,0-.1.936.856.856,0,0,0,.76.921.525.525,0,0,0,.093,0,2.156,2.156,0,0,0,1.041-.264,6.413,6.413,0,0,0,3.047-3.537,6.646,6.646,0,0,0,.279-1.163" transform="translate(-1072.406 -441.395)" fill="#fff"/>
          <path id="Path_3021" data-name="Path 3021" d="M1079.811,452.831a4.743,4.743,0,0,0-.147-.788,6.411,6.411,0,0,0-3.534-3.791,1.791,1.791,0,0,0-.834-.114.813.813,0,0,0-.786.84v.075a3.805,3.805,0,0,0,.224,1.249,6.474,6.474,0,0,0,3.177,3.441,2.277,2.277,0,0,0,.987.228c.548.024.85-.358.913-1.118" transform="translate(-1070.891 -441.425)" fill="#fff"/>
        </g>
        <path id="Path_3022" data-name="Path 3022" d="M1076.418,430.021l-6.807-12.475-6.435,11.665c-.08-.262-3.14-8.948-3.311-10.1a18.689,18.689,0,0,1-.2-4.377,14.936,14.936,0,0,1,1.265-5.081,24.932,24.932,0,0,1,4.013-6.313,9.837,9.837,0,0,1,3.567-2.649,5.538,5.538,0,0,1,2.471-.393c.4.029.815-.015,1.217.031a4.021,4.021,0,0,1,.941.121,44.842,44.842,0,0,0,4.346,1.149,27.5,27.5,0,0,0,6.92.443,34.934,34.934,0,0,0,7.11-1.362c.79-.223,1.606-.431,2.4-.6a3.711,3.711,0,0,1,1.067-.02c.754.059,1.492.128,2.236.24a6.739,6.739,0,0,1,3.294,1.695,12.813,12.813,0,0,1,2.615,3.155,23.714,23.714,0,0,1,3.045,7.73,15.2,15.2,0,0,1-.3,7.2c-.085.313-1.937,5.267-2.862,7.687a18.7,18.7,0,0,0-.87,2.908c-.425,1.946-.575,3.006-.892,4.068-.045.12-.083.415-.154.64l-6.445-11.151-5.3,9.292-7.441-12.7Z" transform="translate(-1032.529 -383.536)" fill="#c9c0ea"/>
        <g id="Group_4903" data-name="Group 4903" transform="translate(22.85 57.812)">
          <path id="Path_3023" data-name="Path 3023" d="M1054.952,446.591v3.455a1.071,1.071,0,1,0,2.143,0v-3.455a1.071,1.071,0,1,0-2.143,0Z" transform="translate(-1054.952 -445.519)" fill="#60c4c3"/>
        </g>
        <g id="Group_4904" data-name="Group 4904" transform="translate(32.082 74.509)">
          <path id="Path_3024" data-name="Path 3024" d="M1065.116,464.972v5.183a1.071,1.071,0,1,0,2.142,0v-5.183a1.071,1.071,0,1,0-2.142,0Z" transform="translate(-1065.116 -463.901)" fill="#60c4c3"/>
        </g>
        <g id="Group_4905" data-name="Group 4905" transform="translate(45.878 79.693)">
          <path id="Path_3025" data-name="Path 3025" d="M1080.366,470.394a3.462,3.462,0,0,0-.043,1,5.621,5.621,0,0,0,.2.977,9.75,9.75,0,0,1,.416,1.471,1.069,1.069,0,0,0,.492.64,1.068,1.068,0,0,0,1.464-.385l.109-.255a1.08,1.08,0,0,0,0-.569c-.108-.745-.471-1.423-.581-2.166l.038.283a2.541,2.541,0,0,1-.01-.615l-.038.284c0-.033.008-.064.014-.1a1.166,1.166,0,0,0-.108-.824,1.072,1.072,0,0,0-1.465-.384,1.037,1.037,0,0,0-.492.64Z" transform="translate(-1080.305 -469.609)" fill="#60c4c3"/>
        </g>
        <g id="Group_4907" data-name="Group 4907" transform="translate(13.078 60.12)">
          <path id="Path_3027" data-name="Path 3027" d="M1046.232,448.364a5.769,5.769,0,0,0-1.193,2.075l.108-.256a4.529,4.529,0,0,1-.516.954l.167-.216a2.815,2.815,0,0,1-.294.322,1.079,1.079,0,0,0,0,1.515,1.091,1.091,0,0,0,1.514,0,5.79,5.79,0,0,0,1.244-2.133l-.109.256a4.369,4.369,0,0,1,.506-.938l-.167.217a2.475,2.475,0,0,1,.254-.282,1.082,1.082,0,0,0,0-1.514,1.093,1.093,0,0,0-1.516,0Z" transform="translate(-1044.193 -448.059)" fill="#60c4c3"/>
        </g>
        <g id="Group_4908" data-name="Group 4908" transform="translate(13.652 75.085)">
          <path id="Path_3028" data-name="Path 3028" d="M1044.971,466.146c.249.585.562,1.139.812,1.723l-.108-.256a4.5,4.5,0,0,1,.334,1.114l-.039-.284.007.044a1.164,1.164,0,0,0,.313.757,1.072,1.072,0,0,0,1.514,0v0a1.028,1.028,0,0,0,.314-.757,4.945,4.945,0,0,0-.205-.993,9.858,9.858,0,0,0-.4-.976c-.223-.487-.481-.958-.692-1.451a1.073,1.073,0,0,0-.641-.492,1.071,1.071,0,0,0-1.316.748l-.038.284a1.065,1.065,0,0,0,.147.54Z" transform="translate(-1044.825 -464.536)" fill="#60c4c3"/>
        </g>
        <g id="Group_4910" data-name="Group 4910" transform="translate(22.835 69.33)">
          <path id="Path_3030" data-name="Path 3030" d="M1055.542,459.266a3.217,3.217,0,0,1-.03.479l.038-.284a10.826,10.826,0,0,1-.421,1.488,4.4,4.4,0,0,0-.126,2.06,1.071,1.071,0,0,0,1.958.256h0a1.214,1.214,0,0,0,.108-.824c-.007-.037-.013-.076-.018-.114l.038.285a2.877,2.877,0,0,1,0-.743l-.038.284a7.922,7.922,0,0,1,.358-1.288,4.991,4.991,0,0,0,.273-1.594,1.071,1.071,0,1,0-2.142,0Z" transform="translate(-1054.936 -458.199)" fill="#60c4c3"/>
        </g>
      </g>
    </g>
    <g id="Group_4970" data-name="Group 4970" transform="translate(84.559 86.782)">
      <path id="Path_2697" data-name="Path 2697" d="M1473.917,575.891c3.86,69.226-59.711,110.793-122.664,103.308-35.375-4.206-53.018-14.66-85.92-11.356-16.835,1.691-71.015,38.805-113.495-45.51-27.706-53.031,125.123-74.564,125.123-74.564s162.571-106.869,224.658-86.028S1470.057,506.666,1473.917,575.891Z" transform="translate(-1148.479 -396)" fill="#28c7c4"/>
      <path id="Path_2698" data-name="Path 2698" d="M1267.795,542.148l-37.2-4.962a4.607,4.607,0,0,0-2.912.247c-1.386.8-1.526,2.875-.712,4.253a9.169,9.169,0,0,0,3.671,3c7.586,4.245,15.333,8.548,23.86,10.239a11.284,11.284,0,0,0,6.052-.066,8.755,8.755,0,0,0,4.76-4.971,26.027,26.027,0,0,0,1.523-6.891l-1.512-1.687" transform="translate(-1145.553 -424.953)" fill="#652e18"/>
      <path id="Path_2699" data-name="Path 2699" d="M1226.944,481.626c8.658,1.03,16.432,5.6,23.918,10.072,2.611,1.559,5.322,3.217,6.91,5.809,1.765,2.881,1.859,6.447,1.9,9.826.044,3.335.8,2.506.847,5.841.024,1.848-.312,4.2-2.1,4.675-1.177.312-2.353-.426-3.334-1.145-11.076-8.117-21.1-14.477-27.8-26.465-1.545-2.766-2.849-6.522-.671-8.824" transform="translate(-1145.586 -426.775)" fill="#652e18"/>
      <path id="Path_2700" data-name="Path 2700" d="M1229.279,454.651c3.556-.776,7.158.8,10.457,2.33,4.428,2.057,9.2,4.456,11.208,8.907,1.368,3.039,1.181,6.521.969,9.847a9.169,9.169,0,0,1-.61,3.249,3.106,3.106,0,0,1-2.5,1.931,4.437,4.437,0,0,1-2.654-1.086,57.2,57.2,0,0,1-16.229-17.813,10.556,10.556,0,0,1-1.533-3.8,4.082,4.082,0,0,1,1.273-3.737" transform="translate(-1145.492 -427.659)" fill="#652e18"/>
      <path id="Path_2701" data-name="Path 2701" d="M1265.675,444.381l-3.51-5.042c-1.768-2.542-3.624-5.443-3.1-8.493a2.893,2.893,0,0,1,1.081-1.962,3.211,3.211,0,0,1,2.383-.276,13.341,13.341,0,0,1,6.569,3.6,36.732,36.732,0,0,1,4.766,5.894c.732,1.056,1.494,2.287,1.2,3.537-.4,1.708-2.505,2.378-4.259,2.313s-3.581-.542-5.214.1" transform="translate(-1144.488 -428.508)" fill="#652e18"/>
      <rect id="Rectangle_2385" data-name="Rectangle 2385" width="94.605" height="178.231" rx="5.399" transform="matrix(0.999, -0.05, 0.05, 0.999, 100.781, 6.446)" fill="#11000b"/>
      <path id="Rectangle_2386" data-name="Rectangle 2386" d="M3.089,0h81.3a3.089,3.089,0,0,1,3.089,3.089V159.694a0,0,0,0,1,0,0H0a0,0,0,0,1,0,0V3.089A3.089,3.089,0,0,1,3.089,0Z" transform="matrix(0.999, -0.05, 0.05, 0.999, 104.536, 10.189)" fill="#fff"/>
      <rect id="Rectangle_2387" data-name="Rectangle 2387" width="74.587" height="101.499" rx="4.226" transform="matrix(0.999, -0.05, 0.05, 0.999, 111.389, 24.29)" fill="#f4e7f0"/>
      <g id="Group_4058" data-name="Group 4058" transform="translate(111.385 12.25)">
        <rect id="Rectangle_2388" data-name="Rectangle 2388" width="15.72" height="2.092" rx="1.013" transform="matrix(0.999, -0.05, 0.05, 0.999, 0, 3.745)" fill="#f4e7f0"/>
        <rect id="Rectangle_2389" data-name="Rectangle 2389" width="43.894" height="2.092" rx="1.013" transform="matrix(0.999, -0.05, 0.05, 0.999, 30.335, 2.214)" fill="#f4e7f0"/>
      </g>
      <rect id="Rectangle_2394" data-name="Rectangle 2394" width="49.289" height="2.855" rx="1.013" transform="translate(126.288 93.151) rotate(-2.891)" fill="#af006e"/>
      <rect id="Rectangle_2395" data-name="Rectangle 2395" width="43.431" height="2.855" rx="1.013" transform="translate(129.942 99.005) rotate(-2.891)" fill="#af006e"/>
      <rect id="Rectangle_2403" data-name="Rectangle 2403" width="21.731" height="18.929" transform="matrix(0.999, -0.05, 0.05, 0.999, 119.271, 143.336)" fill="#f4e7f0"/>
      <g id="Group_4059" data-name="Group 4059" transform="translate(117.583 127.495)">
        <rect id="Rectangle_2404" data-name="Rectangle 2404" width="45.269" height="2.092" rx="1.013" transform="matrix(-0.999, 0.05, -0.05, -0.999, 75.447, 28.977)" fill="#f4e7f0"/>
        <rect id="Rectangle_2405" data-name="Rectangle 2405" width="45.269" height="2.092" rx="1.013" transform="matrix(-0.999, 0.05, -0.05, -0.999, 75.189, 23.876)" fill="#f4e7f0"/>
        <rect id="Rectangle_2406" data-name="Rectangle 2406" width="45.269" height="2.092" rx="1.013" transform="matrix(-0.999, 0.05, -0.05, -0.999, 74.959, 19.314)" fill="#f4e7f0"/>
        <rect id="Rectangle_2407" data-name="Rectangle 2407" width="45.269" height="2.092" rx="1.013" transform="matrix(-0.999, 0.05, -0.05, -0.999, 74.728, 14.753)" fill="#f4e7f0"/>
        <rect id="Rectangle_2408" data-name="Rectangle 2408" width="74.078" height="2.092" rx="1.013" transform="translate(74.319 6.651) rotate(177.109)" fill="#f4e7f0"/>
        <rect id="Rectangle_2409" data-name="Rectangle 2409" width="74.078" height="2.092" rx="1.013" transform="matrix(-0.999, 0.05, -0.05, -0.999, 74.089, 2.09)" fill="#f4e7f0"/>
      </g>
      <g id="email" transform="translate(128.934 44.332)">
        <g id="Group_4061" data-name="Group 4061" transform="translate(0 0)">
          <path id="Path_2704" data-name="Path 2704" d="M1281.347,476.978l20.89-15.06-.137-2.676a3.225,3.225,0,0,0-3.416-3.085l-34.6,1.767a3.228,3.228,0,0,0-3.084,3.418l.146,2.868Z" transform="translate(-1260.991 -456.153)" fill="#af006e"/>
          <path id="Path_2705" data-name="Path 2705" d="M1281.276,475.907l-20.205-12.77.947,18.545a3.226,3.226,0,0,0,3.418,3.084L1300.041,483a3.23,3.23,0,0,0,3.085-3.418l-.957-18.735Z" transform="translate(-1260.905 -451.057)" fill="#af006e"/>
        </g>
      </g>
      <path id="Path_2702" data-name="Path 2702" d="M1451.427,668.18,1410.752,629.8c-10.623-10.022-21.492-20.378-27.663-33.614a58.458,58.458,0,0,1-3.771-38.245c1.7-6.966,4.726-13.849,4.088-20.992-.756-8.469-6.287-15.717-11.951-22.057-20.8-23.282-28.471-25.28-48.253-27.584-4.1-.476-9.073.169-10.935,3.847s.664,8.2,4.067,10.5,10.525,2.054,14.153,3.977c7.852,4.162,10.274,7.376,14.338,15.279,2.048,3.982,4.156,8.3,3.505,12.731-.816,5.552-5.617,9.471-9.218,13.775-6.485,7.748-8.408,18.057-10.4,27.962-2.09,10.394-3.131,21.476-1.916,31.506l-30.249,1.883c1.416,6.182,6.537,10.857,12.013,14.057s11.542,5.345,16.83,8.845c5.569,3.687,10.074,8.737,14.512,13.728,17.624,19.82,35.346,39.806,50.152,61.738C1414.008,701.438,1436.157,686.992,1451.427,668.18Z" transform="translate(-1143.258 -426.587)" fill="#652e18"/>
    </g>
    <ellipse id="Ellipse_430" data-name="Ellipse 430" cx="3.625" cy="3.625" rx="3.625" ry="3.625" transform="translate(232.541 258.58)" fill="#60003d"/>
    <g id="email-2" data-name="email" transform="translate(-43.997 -22.672) rotate(3)">
      <g id="Group_4061-2" data-name="Group 4061" transform="translate(0 0)">
        <path id="Path_2704-2" data-name="Path 2704" d="M19.416,19.863,39.341,5.5,39.21,2.946A3.075,3.075,0,0,0,35.952,0L2.947,1.689A3.078,3.078,0,0,0,0,4.95l.14,2.735Z" fill="#28c7c4"/>
        <path id="Path_2705-2" data-name="Path 2705" d="M19.272,14.364,0,2.184.9,19.873a3.077,3.077,0,0,0,3.26,2.942L37.171,21.13a3.081,3.081,0,0,0,2.943-3.26L39.2,0Z" transform="translate(0.157 9.338)" fill="#28c7c4"/>
      </g>
    </g>
    <rect id="Rectangle_2411" data-name="Rectangle 2411" width="91.815" height="3.601" rx="1.8" transform="translate(3.131 -18.547)" fill="#28c7c4"/>
    <rect id="Rectangle_2412" data-name="Rectangle 2412" width="91.815" height="3.601" rx="1.8" transform="translate(3.131 -7.746)" fill="#28c7c4"/>
    <rect id="Rectangle_2413" data-name="Rectangle 2413" width="50.408" height="3.601" rx="1.8" transform="translate(3.131 3.056)" fill="#28c7c4"/>
    <path id="paper-plane-top-solid" d="M40.955,17.877A2.562,2.562,0,0,1,39.4,20.233L3.574,35.69a2.564,2.564,0,0,1-3.3-3.5l5.9-11.8,19.4-2.434-19.4-2.436L.27,3.71a2.564,2.564,0,0,1,3.3-3.5l35.9,15.385A2.463,2.463,0,0,1,40.955,17.877Z" transform="translate(113.032 157.729) rotate(10)" fill="#af0a6e"/>
    <path id="Path_2706" data-name="Path 2706" d="M67.2,0C68.615,53.865,0,58.053,0,58.053" transform="translate(137.173 113.406) rotate(115)" fill="none" stroke="#ae0a6e" stroke-width="1" stroke-dasharray="1"/>
  </g>
</svg>
