<svg xmlns="http://www.w3.org/2000/svg" width="295.592" height="244.37" viewBox="0 0 295.592 244.37"><defs><style>.a{fill:#95dbdb;}.b{fill:#af006e;}.c{fill:#f5d25c;}.d{fill:#392f9a;}.e,.k{fill:#fff;}.e,.g{stroke:#fff;stroke-linecap:round;stroke-linejoin:round;}.e,.g,.o{stroke-width:1.185px;}.f{fill:#e4c1d9;}.g,.o,.v{fill:none;}.h{fill:#edf9f9;}.i{fill:#652e18;}.j{fill:#ac3681;}.l{fill:#f4e7f0;}.m{fill:#771b5c;mix-blend-mode:multiply;isolation:isolate;}.n{fill:#3a2495;}.o{stroke:#948bff;stroke-miterlimit:10;}.p{fill:#948bff;}.q{fill:#24175d;}.r{fill:#9181d6;}.s{fill:#c9c0ea;}.t{fill:#60c4c3;}.u{fill:#28c7c4;}.v{stroke:#f5d25d;stroke-dasharray:1;}</style></defs><g transform="translate(-840.408 -152.141)"><g transform="translate(1001.419 152.141)"><path class="a" d="M1306.444,313.055h-45.336a9.6,9.6,0,0,0-9.6,9.6v22.228a9.6,9.6,0,0,0,9.6,9.6h12.409l11.011,14.788,11.011-14.788h10.905a9.6,9.6,0,0,0,9.6-9.6V322.657A9.6,9.6,0,0,0,1306.444,313.055Zm-12.268,19.423a11.675,11.675,0,0,1-2.114,4.121,29.208,29.208,0,0,1-5.206,5.173c-.978.776-1.961,1.545-2.939,2.323a.19.19,0,0,1-.287,0c-1.329-1.064-2.682-2.1-3.989-3.191a25.791,25.791,0,0,1-4.284-4.475,11.5,11.5,0,0,1-1.981-3.934,6.731,6.731,0,0,1-.092-3.455A5.469,5.469,0,0,1,1283.461,328c.115.226.2.465.3.7a10.869,10.869,0,0,1,.478-.982,5.278,5.278,0,0,1,5.011-2.719,5.386,5.386,0,0,1,5.12,4.575A6.837,6.837,0,0,1,1294.176,332.478Z" transform="translate(-1251.507 -313.055)"/></g><g transform="translate(1081.429 196.979)"><g transform="translate(0 0)"><path class="b" d="M1406.674,376.9H1388.23a3.906,3.906,0,0,0-3.906,3.906v9.044a3.907,3.907,0,0,0,3.906,3.907h5.048l4.479,6.016,4.479-6.016h4.436a3.906,3.906,0,0,0,3.906-3.907v-9.044A3.906,3.906,0,0,0,1406.674,376.9Zm-4.991,7.9a4.756,4.756,0,0,1-.86,1.677,11.943,11.943,0,0,1-2.118,2.1c-.4.316-.8.628-1.2.945a.077.077,0,0,1-.117,0c-.541-.433-1.091-.854-1.623-1.3a10.5,10.5,0,0,1-1.742-1.82,4.693,4.693,0,0,1-.806-1.6,2.736,2.736,0,0,1-.037-1.405,2.225,2.225,0,0,1,4.14-.425c.047.092.083.19.124.284.064-.135.118-.275.194-.4a2.149,2.149,0,0,1,2.039-1.107,2.191,2.191,0,0,1,2.083,1.861A2.785,2.785,0,0,1,1401.683,384.8Z" transform="translate(-1384.324 -376.9)"/></g></g><g transform="translate(1072.021 180.251)"><g transform="translate(0 0)"><path class="c" d="M1373.334,363.539h-11.34a2.4,2.4,0,0,0-2.4,2.4V371.5a2.4,2.4,0,0,0,2.4,2.4h3.1l2.754,3.7,2.755-3.7h2.728a2.4,2.4,0,0,0,2.4-2.4v-5.561A2.4,2.4,0,0,0,1373.334,363.539Zm-3.069,4.858a2.918,2.918,0,0,1-.528,1.031,7.312,7.312,0,0,1-1.3,1.294c-.245.194-.49.386-.735.581a.048.048,0,0,1-.072,0c-.332-.266-.671-.525-1-.8a6.48,6.48,0,0,1-1.072-1.119,2.88,2.88,0,0,1-.5-.984,1.691,1.691,0,0,1-.024-.865,1.368,1.368,0,0,1,2.546-.261c.029.057.052.116.076.175.04-.083.073-.169.12-.246a1.32,1.32,0,0,1,1.254-.68,1.346,1.346,0,0,1,1.281,1.144A1.709,1.709,0,0,1,1370.265,368.4Z" transform="translate(-1359.592 -363.539)"/></g></g><g transform="translate(1055.576 213.714)"><g transform="translate(0 0)"><path class="d" d="M1362.74,395.265h-18.161a3.847,3.847,0,0,0-3.846,3.846v8.905a3.847,3.847,0,0,0,3.846,3.846h4.971l4.411,5.924,4.411-5.924h4.368a3.847,3.847,0,0,0,3.846-3.846v-8.905A3.846,3.846,0,0,0,1362.74,395.265Zm-4.914,7.781a4.68,4.68,0,0,1-.847,1.65,11.719,11.719,0,0,1-2.085,2.073c-.392.311-.786.618-1.177.93a.076.076,0,0,1-.115,0c-.532-.426-1.075-.841-1.6-1.278a10.4,10.4,0,0,1-1.716-1.792,4.618,4.618,0,0,1-.793-1.576,2.7,2.7,0,0,1-.037-1.384,2.191,2.191,0,0,1,4.077-.417c.046.091.082.186.122.278a4.1,4.1,0,0,1,.191-.393,2.114,2.114,0,0,1,2.008-1.09,2.157,2.157,0,0,1,2.05,1.832A2.747,2.747,0,0,1,1357.825,403.046Z" transform="translate(-1340.732 -395.265)"/></g></g><g transform="translate(917.504 194.537)"><g transform="translate(0 0)"><path class="e" d="M1127.955,373.307h48.1a.461.461,0,0,1,.461.462v40.9l-7.76-7.244h-40.8a.461.461,0,0,1-.462-.461V373.769A.461.461,0,0,1,1127.955,373.307Z" transform="translate(-1127.493 -373.307)"/><path class="f" d="M1131.357,376.387h48.1a.461.461,0,0,1,.462.461v40.9l-7.761-7.244h-40.8a.461.461,0,0,1-.461-.462V376.848A.461.461,0,0,1,1131.357,376.387Z" transform="translate(-1128.714 -374.412)"/></g><line class="g" x1="11.551" transform="translate(9.381 10.98)"/><line class="g" x1="27.39" transform="translate(9.381 16.47)"/><line class="g" x1="24.222" transform="translate(9.381 21.721)"/><line class="g" x1="30.558" transform="translate(9.381 27.45)"/></g><path class="h" d="M1356.173,562.125a71.473,71.473,0,0,1-80.649,60.929c-21.969-3.06-32.926-10.665-53.359-8.261-10.455,1.23-39.373,13.689-65.754-47.647-19.059-44.313,32.815-50.364,42.883-51.937,45.743-7.147,56.853-39.178,95.949-33.732A71.472,71.472,0,0,1,1356.173,562.125Z" transform="translate(-220.865 -227.235)"/><path class="i" d="M1252.132,540.224l-23.1-3.082a2.862,2.862,0,0,0-1.809.153,1.961,1.961,0,0,0-.442,2.641,5.7,5.7,0,0,0,2.28,1.863c4.711,2.636,9.522,5.309,14.818,6.358a7.009,7.009,0,0,0,3.758-.041,5.437,5.437,0,0,0,2.956-3.087,16.165,16.165,0,0,0,.946-4.28l-.939-1.048" transform="translate(-247.484 -247.396)"/><path class="i" d="M1226.384,481.546c5.377.639,10.2,3.479,14.853,6.255a11.815,11.815,0,0,1,4.292,3.608c1.1,1.789,1.155,4,1.181,6.1.027,2.071.5,1.557.526,3.628.015,1.147-.194,2.609-1.3,2.9a2.6,2.6,0,0,1-2.071-.711c-6.879-5.041-13.1-8.991-17.262-16.436-.959-1.718-1.77-4.05-.417-5.48" transform="translate(-247.126 -227.436)"/><path class="i" d="M1228.924,454.573c2.208-.482,4.445.495,6.494,1.447,2.75,1.278,5.716,2.768,6.96,5.532.85,1.888.734,4.05.6,6.115a5.7,5.7,0,0,1-.378,2.018,1.93,1.93,0,0,1-1.553,1.2,2.756,2.756,0,0,1-1.648-.675,35.519,35.519,0,0,1-10.078-11.062,6.554,6.554,0,0,1-.952-2.362,2.535,2.535,0,0,1,.79-2.32" transform="translate(-248.157 -217.764)"/><path class="i" d="M1263.137,438.366l-2.18-3.131c-1.1-1.578-2.251-3.38-1.922-5.275a1.8,1.8,0,0,1,.672-1.219,1.994,1.994,0,0,1,1.48-.171,8.286,8.286,0,0,1,4.08,2.234,22.814,22.814,0,0,1,2.96,3.66,2.909,2.909,0,0,1,.745,2.2c-.249,1.061-1.556,1.477-2.645,1.437a8.026,8.026,0,0,0-3.238.062" transform="translate(-259.145 -208.461)"/><rect class="j" width="58.752" height="110.686" rx="5.399" transform="matrix(0.999, -0.05, 0.05, 0.999, 991.32, 224.05)"/><path class="k" d="M3.089,0H51.24a3.089,3.089,0,0,1,3.089,3.089V99.174a0,0,0,0,1,0,0H0a0,0,0,0,1,0,0V3.089A3.089,3.089,0,0,1,3.089,0Z" transform="matrix(0.999, -0.05, 0.05, 0.999, 993.652, 226.374)"/><rect class="l" width="46.32" height="13.025" rx="4.226" transform="matrix(0.999, -0.05, 0.05, 0.999, 997.905, 236.077)"/><g transform="translate(997.905 227.654)"><rect class="l" width="9.763" height="1.299" rx="0.65" transform="matrix(0.999, -0.05, 0.05, 0.999, 0, 2.326)"/><rect class="l" width="27.259" height="1.299" rx="0.65" transform="matrix(0.999, -0.05, 0.05, 0.999, 18.838, 1.375)"/></g><rect class="l" width="28.113" height="1.299" rx="0.65" transform="matrix(0.999, -0.05, 0.05, 0.999, 999.236, 262.777)"/><rect class="l" width="28.113" height="1.299" rx="0.65" transform="matrix(0.999, -0.05, 0.05, 0.999, 999.396, 265.945)"/><rect class="l" width="28.113" height="1.299" rx="0.65" transform="matrix(0.999, -0.05, 0.05, 0.999, 999.236, 256.521)"/><rect class="l" width="28.113" height="1.299" rx="0.65" transform="matrix(0.999, -0.05, 0.05, 0.999, 999.236, 253.353)"/><rect class="l" width="28.113" height="1.299" rx="0.65" transform="matrix(0.999, -0.05, 0.05, 0.999, 999.396, 259.688)"/><path class="b" d="M.809.008l26.3.261a.763.763,0,0,1,.817.658h0a.723.723,0,0,1-.8.642L.825,1.308A.763.763,0,0,1,.008.65.723.723,0,0,1,.809.008Z" transform="translate(1011.854 238.626) rotate(-2.891)"/><path class="b" d="M.83.009,24.42.268a.78.78,0,0,1,.839.659.735.735,0,0,1-.821.641L.848,1.309A.78.78,0,0,1,.009.65.735.735,0,0,1,.83.009Z" transform="translate(1011.852 241.458) rotate(-2.891)"/><rect class="l" width="28.113" height="1.299" rx="0.65" transform="matrix(0.999, -0.05, 0.05, 0.999, 999.539, 268.777)"/><rect class="l" width="28.113" height="1.299" rx="0.65" transform="matrix(0.999, -0.05, 0.05, 0.999, 999.682, 271.61)"/><rect class="l" width="40.486" height="1.299" rx="0.65" transform="matrix(0.999, -0.05, 0.05, 0.999, 999.936, 276.642)"/><rect class="l" width="40.486" height="1.299" rx="0.65" transform="matrix(0.999, -0.05, 0.05, 0.999, 1000.079, 279.475)"/><rect class="l" width="13.495" height="11.755" transform="matrix(0.999, -0.05, 0.05, 0.999, 1000.583, 284.513)"/><rect class="l" width="13.495" height="11.755" transform="matrix(0.999, -0.05, 0.05, 0.999, 1017.142, 283.677)"/><rect class="l" width="13.495" height="11.755" transform="matrix(0.999, -0.05, 0.05, 0.999, 1033.702, 282.84)"/><rect class="l" width="13.495" height="11.755" transform="matrix(0.999, -0.05, 0.05, 0.999, 1002.802, 309.062)"/><g transform="translate(1001.754 299.225)"><rect class="l" width="28.113" height="1.299" rx="0.65" transform="matrix(-0.999, 0.05, -0.05, -0.999, 46.854, 17.995)"/><rect class="l" width="28.113" height="1.299" rx="0.65" transform="matrix(-0.999, 0.05, -0.05, -0.999, 46.694, 14.827)"/><rect class="l" width="28.113" height="1.299" rx="0.65" transform="matrix(-0.999, 0.05, -0.05, -0.999, 46.551, 11.995)"/><rect class="l" width="28.113" height="1.299" rx="0.65" transform="matrix(-0.999, 0.05, -0.05, -0.999, 46.408, 9.162)"/><rect class="l" width="46.004" height="1.299" rx="0.65" transform="translate(46.154 4.13) rotate(177.109)"/><rect class="l" width="46.004" height="1.299" rx="0.65" transform="matrix(-0.999, 0.05, -0.05, -0.999, 46.011, 1.298)"/></g><circle class="m" cx="2.349" cy="2.349" r="2.349" transform="translate(1023.726 326.156)"/><path class="i" d="M1392.731,599.583l-25.26-23.832c-6.6-6.224-13.347-12.655-17.18-20.875a36.3,36.3,0,0,1-2.342-23.751c1.058-4.326,2.935-8.6,2.539-13.036-.47-5.259-3.9-9.761-7.422-13.7-12.919-14.459-17.681-15.7-29.966-17.13-2.543-.3-5.634.105-6.791,2.389s.412,5.094,2.526,6.521,6.536,1.276,8.789,2.47c4.876,2.585,6.38,4.581,8.9,9.489,1.272,2.473,2.581,5.155,2.177,7.906-.507,3.448-3.488,5.882-5.725,8.555-4.027,4.811-5.221,11.214-6.458,17.365a63.294,63.294,0,0,0-1.19,19.566l-18.786,1.169c.879,3.839,4.06,6.743,7.46,8.73s7.168,3.32,10.452,5.493c3.459,2.29,6.256,5.426,9.012,8.526,10.945,12.309,21.95,24.721,31.146,38.341A71.418,71.418,0,0,0,1392.731,599.583Z" transform="translate(-272.618 -229.501)"/><g transform="translate(841 196.979)"><path class="n" d="M1037.05,463.794h44.26c1.419-11.346,1.223-24.71-5.028-30.816-.164.692.488,1.579.332,2.029-.027.065.08.35.035.47l-3.21,2.115c-.339,1.176,2.046,3.449,1.848,4.046-.106.312,1.08,1.115.975,1.44-.156.811-.965,1.138-1.142,1.6-.007.042-1.415,1.678-1.429,1.721-.106.332-1.515.381-1.623.713-.228.682-7.246,1.3-7.253,1.285-1.729-.378-5.762-4.414-5.127-6.507-.019-.042-.364-1.662-.371-1.707-.095-.249.717-9.367-4.052-9.182-10.175-.374-20.529,9.79-19.656,20.3C1036.008,456.084,1036.506,460.223,1037.05,463.794Z" transform="translate(-1018.018 -399.485)"/><rect class="o" width="68.255" height="39.01" rx="2.031" transform="translate(68.255 64.643) rotate(-180)"/><circle class="p" cx="3.452" cy="3.452" r="3.452" transform="translate(6.562 32.078)"/><g transform="translate(13.844)"><path class="q" d="M1060.395,427.65c-.264-.042-.471-.076-.676-.12a10.12,10.12,0,0,1-1.9-.493,3.223,3.223,0,0,1-1.2-.746,3.609,3.609,0,0,0-1.08-.713c-.909-.42-1.81-.847-2.73-1.255a2.816,2.816,0,0,1-1.329-1.187,12.893,12.893,0,0,1-1.514-3.785,5.859,5.859,0,0,1,.015-2.64,1.936,1.936,0,0,1,.71-1.115,8.592,8.592,0,0,1,2.376-1.362,2.3,2.3,0,0,1,1.466-.053c.591.2,1.183.406,1.782.6l.012.62a12.89,12.89,0,0,0,.537,3.6,5.966,5.966,0,0,0,.477,1.143,31.666,31.666,0,0,1,2.752,6.535c.083.314.185.626.3.983" transform="translate(-1036.978 -393.424)"/><path class="q" d="M1104.944,425.475a40.769,40.769,0,0,1,1.363-4.389c.374-.951.782-1.87,1.233-2.773a9.342,9.342,0,0,0,.928-3.356c.053-.65.063-1.307.071-1.956.013-.5-.009-.5.435-.669l1.134-.423a2.266,2.266,0,0,1,1.883.125c.624.332,1.263.675,1.877,1.017a1.877,1.877,0,0,1,.862,1.242,6.68,6.68,0,0,1,.208,1.683c.011.585,0,1.174-.031,1.762a2.146,2.146,0,0,1-.142.648,8.934,8.934,0,0,1-1.505,2.756,2.737,2.737,0,0,1-.956.751c-.646.326-1.3.654-1.941.979-.194.1-.4.2-.591.291a5.749,5.749,0,0,0-1.659,1.119,2.743,2.743,0,0,1-1.024.617c-.592.222-1.188.416-1.794.609a2.027,2.027,0,0,1-.336-.019" transform="translate(-1056.746 -392.59)"/><path class="r" d="M1050.059,396.344c-1.168-.117-2.033-.219-3.171-.416a29.292,29.292,0,0,1-7.276-2.08c-.73-.323-1.454-.65-2.17-1a2.834,2.834,0,0,1-1.33-1.33c-.48-.94-.975-1.873-1.454-2.814a16.794,16.794,0,0,0-1.725-2.78,6.99,6.99,0,0,0-1.939-1.792c-.033-.031-.061-.074-.093-.1v-.019a5.165,5.165,0,0,1-.537.009l-.015.021-.554.01.012.633-.012.008.014.755a.979.979,0,0,1,.2.151,10.442,10.442,0,0,1,1.385,1.984,24.481,24.481,0,0,1,1.212,2.88c.3.809.642,1.594,1,2.378.392.855.85,1.662,1.234,2.512a4.85,4.85,0,0,0,1.337,1.745,14.725,14.725,0,0,0,2.8,1.823c1.473.728,2.961,1.4,4.45,2.117a15.524,15.524,0,0,0,2.456.86,29.327,29.327,0,0,1,3.419,1.167c.262.1.557.16.863.245a16.149,16.149,0,0,1,1-3.522,15.823,15.823,0,0,1,1.785-3.15C1051.863,396.528,1051.105,396.447,1050.059,396.344Z" transform="translate(-1029.795 -382.636)"/><path class="r" d="M1127.352,382.672l-.015-.8h-.516s0,0,0,0l-.518.01c-.116.108-.239.22-.359.313a6.791,6.791,0,0,0-1.755,1.805,20.56,20.56,0,0,0-1.774,3.1c-.443.924-.886,1.852-1.308,2.776a3.614,3.614,0,0,1-1.484,1.6,12.312,12.312,0,0,1-2.151.983c-1.394.513-2.854.831-4.28,1.227a41.893,41.893,0,0,1-7.484,1.431c-.25.021-.479.042-.784.078a15.584,15.584,0,0,1,1.9,3.062,16.751,16.751,0,0,1,1.122,3.43,2.248,2.248,0,0,0,.316-.081c1.235-.374,2.478-.764,3.705-1.137a24.223,24.223,0,0,0,4.972-2.136,22.615,22.615,0,0,0,3.83-2.43,6.6,6.6,0,0,0,2.086-2.817c.262-.706.6-1.4.94-2.092a11.253,11.253,0,0,0,.741-1.818c.111-.368.23-.751.344-1.119a13.77,13.77,0,0,1,2.477-4.857l.008-.012-.01-.519Z" transform="translate(-1056.738 -381.87)"/><path class="q" d="M1085.905,423c.047.109.071.172.092.231l3.384,5.917c.069.241-1.215,4.96-1.565,6.178-.121.416-.234.835-.354,1.265a.142.142,0,0,1-.076-.036,4.554,4.554,0,0,0-2.5-.9,2.351,2.351,0,0,1-1.2-.428,8.748,8.748,0,0,0-3.207-1.664,9.966,9.966,0,0,0-5.39.2,8.992,8.992,0,0,0-3.149,1.975.388.388,0,0,1-.259.09,8.545,8.545,0,0,0-1.766.291,2.922,2.922,0,0,0-1.321.9c-.021.023-.052.049-.083.087a.5.5,0,0,1-.055-.1c-.618-1.638-1.241-2.493-1.773-4.187a.729.729,0,0,1-.045-.169c-.151-.451-2.3-6.988-2.16-7.465,0,0,3.716-6.693,3.745-6.794,0,0,4.816,8.775,4.794,8.775.022,0,3.913-6.491,3.913-6.491l5.246,8.98c0,.026,3.733-6.677,3.733-6.677" transform="translate(-1042.231 -394.97)"/><g transform="translate(26.123 37.762)"><path class="r" d="M1080.494,452.934c-1.212-.055-2.4-.083-3.6-.2a4.4,4.4,0,0,1-3.123-1.766,11.622,11.622,0,0,0-1.009-1.159,6.888,6.888,0,0,1-1.875-3.178c-.1-.339-.215-.659-.321-.988a1.059,1.059,0,0,1-.032-.394,2.909,2.909,0,0,1,.064-.307,1.24,1.24,0,0,1,.627-.951,2.993,2.993,0,0,1,1.31-.433c.26-.028,1-.041,1.258-.074a.508.508,0,0,0,.255-.11,6.3,6.3,0,0,1,1.489-1.351,8.107,8.107,0,0,1,2.826-1.135,13.142,13.142,0,0,1,2.786-.116,8.594,8.594,0,0,1,3.619,1.151,5.877,5.877,0,0,1,1.424,1.23.354.354,0,0,0,.3.1,8.972,8.972,0,0,1,1.895.135,2.159,2.159,0,0,1,.89.446,1.25,1.25,0,0,1,.366,1.288c-.131.475-.265.944-.4,1.419a8.343,8.343,0,0,1-1.316,2.669,3.347,3.347,0,0,1-.507.554,5.326,5.326,0,0,0-.807.927,4.254,4.254,0,0,1-3.1,1.922l-2.608.287-.421.007a.1.1,0,0,1,0,.021" transform="translate(-1070.526 -440.748)"/><path class="k" d="M1094.721,448.506a.706.706,0,0,0-.71-.7h-.02a1.2,1.2,0,0,0-.537.129,4.52,4.52,0,0,0-2.35,2.767,1.774,1.774,0,0,0-.069.661.6.6,0,0,0,.537.65.373.373,0,0,0,.066,0,1.524,1.524,0,0,0,.735-.187,4.529,4.529,0,0,0,2.152-2.5,4.7,4.7,0,0,0,.2-.821" transform="translate(-1077.879 -443.279)"/><path class="k" d="M1078.253,451.449a3.345,3.345,0,0,0-.1-.557,4.527,4.527,0,0,0-2.5-2.677,1.263,1.263,0,0,0-.589-.08.574.574,0,0,0-.555.593v.053a2.685,2.685,0,0,0,.158.882,4.571,4.571,0,0,0,2.244,2.429,1.607,1.607,0,0,0,.7.161c.387.017.6-.253.645-.79" transform="translate(-1071.954 -443.395)"/></g><path class="s" d="M1071.479,421.208l-4.806-8.808-4.544,8.237c-.056-.185-2.217-6.318-2.338-7.131a13.2,13.2,0,0,1-.144-3.091,10.548,10.548,0,0,1,.893-3.588,17.6,17.6,0,0,1,2.833-4.457,6.944,6.944,0,0,1,2.519-1.87,3.91,3.91,0,0,1,1.745-.278c.28.021.576-.011.859.022a2.835,2.835,0,0,1,.664.085,31.661,31.661,0,0,0,3.069.811,19.418,19.418,0,0,0,4.886.313,24.671,24.671,0,0,0,5.021-.962c.557-.158,1.134-.3,1.7-.421a2.622,2.622,0,0,1,.753-.014c.532.042,1.054.09,1.579.169a4.758,4.758,0,0,1,2.326,1.2,9.044,9.044,0,0,1,1.847,2.228,16.743,16.743,0,0,1,2.15,5.458,10.737,10.737,0,0,1-.211,5.085c-.06.221-1.367,3.719-2.021,5.428a13.222,13.222,0,0,0-.615,2.053c-.3,1.374-.406,2.122-.63,2.873-.032.085-.059.293-.109.452l-4.551-7.874-3.739,6.561-5.254-8.967Z" transform="translate(-1040.489 -388.384)"/><g transform="translate(16.135 40.822)"><path class="t" d="M1054.952,446.276v2.44a.756.756,0,1,0,1.513,0v-2.44a.756.756,0,1,0-1.513,0Z" transform="translate(-1054.952 -445.519)"/></g><g transform="translate(22.653 52.612)"><path class="t" d="M1065.116,464.657v3.66a.756.756,0,1,0,1.512,0v-3.66a.756.756,0,1,0-1.512,0Z" transform="translate(-1065.116 -463.901)"/></g><g transform="translate(32.395 56.272)"><path class="t" d="M1080.348,470.163a2.443,2.443,0,0,0-.03.706,3.964,3.964,0,0,0,.143.69,6.866,6.866,0,0,1,.294,1.039.755.755,0,0,0,.348.452.754.754,0,0,0,1.033-.272l.077-.18a.76.76,0,0,0,0-.4c-.076-.526-.332-1.005-.41-1.53l.027.2a1.782,1.782,0,0,1-.007-.434l-.027.2c0-.023.006-.046.01-.069a.824.824,0,0,0-.077-.582.757.757,0,0,0-1.034-.271.732.732,0,0,0-.348.452Z" transform="translate(-1080.305 -469.609)"/></g><g transform="translate(9.234 42.451)"><path class="t" d="M1045.633,448.275a4.073,4.073,0,0,0-.843,1.465l.076-.181a3.193,3.193,0,0,1-.364.673l.118-.153a1.976,1.976,0,0,1-.208.228.762.762,0,0,0,0,1.07.771.771,0,0,0,1.069,0,4.087,4.087,0,0,0,.879-1.506l-.077.181a3.088,3.088,0,0,1,.357-.662l-.118.153a1.767,1.767,0,0,1,.179-.2.764.764,0,0,0,0-1.069.772.772,0,0,0-1.07,0Z" transform="translate(-1044.193 -448.059)"/></g><g transform="translate(9.64 53.019)"><path class="t" d="M1044.928,465.672c.176.413.4.8.573,1.217l-.076-.181a3.172,3.172,0,0,1,.236.786l-.027-.2,0,.031a.822.822,0,0,0,.221.534.756.756,0,0,0,1.069,0h0a.727.727,0,0,0,.222-.534,3.492,3.492,0,0,0-.145-.7,6.965,6.965,0,0,0-.283-.689c-.158-.344-.34-.677-.489-1.025a.758.758,0,0,0-.453-.348.757.757,0,0,0-.93.529l-.027.2a.752.752,0,0,0,.1.382Z" transform="translate(-1044.825 -464.536)"/></g><g transform="translate(16.124 48.955)"><path class="t" d="M1055.364,458.953a2.283,2.283,0,0,1-.021.338l.027-.2a7.659,7.659,0,0,1-.3,1.051,3.11,3.11,0,0,0-.089,1.455.756.756,0,0,0,1.382.181h0a.858.858,0,0,0,.076-.582c-.005-.026-.01-.054-.013-.081l.026.2a2.04,2.04,0,0,1,0-.525l-.027.2a5.6,5.6,0,0,1,.253-.909,3.519,3.519,0,0,0,.193-1.126.756.756,0,1,0-1.512,0Z" transform="translate(-1054.936 -458.199)"/></g></g></g><g transform="translate(867.547 179.319) rotate(3)"><path class="u" d="M9.571,9.792l9.823-7.081-.064-1.258A1.516,1.516,0,0,0,17.723,0L1.453.833A1.517,1.517,0,0,0,0,2.44L.071,3.788Z"/><path class="u" d="M9.5,7.081l-9.5-6L.445,9.8a1.517,1.517,0,0,0,1.607,1.45l16.272-.831a1.519,1.519,0,0,0,1.451-1.607L19.324,0Z" transform="translate(0.077 4.603)"/></g><rect class="u" width="45.262" height="1.775" rx="0.887" transform="translate(890.78 181.353)"/><rect class="u" width="45.262" height="1.775" rx="0.887" transform="translate(890.78 186.677)"/><rect class="u" width="24.85" height="1.775" rx="0.887" transform="translate(890.78 192.002)"/><path class="c" d="M20.062,40.762a1.255,1.255,0,0,1-.762,1.155L1.749,49.489A1.256,1.256,0,0,1,.131,47.772L3.023,41.99l9.5-1.192L3.022,39.6.131,33.822a1.256,1.256,0,0,1,1.618-1.716l17.587,7.537A1.207,1.207,0,0,1,20.062,40.762Z" transform="matrix(0.999, 0.035, -0.035, 0.999, 949.774, 220.372)"/><path class="v" d="M-516.979-7757.423c.452,21.583-21.456,23.262-21.456,23.262" transform="translate(-6621.893 -1512.967) rotate(107)"/><path class="b" d="M40.541,0a1.139,1.139,0,1,0,1.139,1.139A1.139,1.139,0,0,0,40.541,0ZM32.29,2.585l3.776,2.938a.8.8,0,0,0,.98,0l3.446-2.68a1.707,1.707,0,0,1-1.659-1.7H32.854A.854.854,0,0,0,32,1.993.751.751,0,0,0,32.29,2.585Zm4.265,3.678a1.359,1.359,0,0,1-.839-.29L32,3.084V7.117a.854.854,0,0,0,.854.854h7.4a.854.854,0,0,0,.854-.854V3.084L37.395,5.975A1.368,1.368,0,0,1,36.555,6.263Z" transform="translate(968.627 239.227) rotate(-3)"/></g></svg>