<svg id="Layer_1" data-name="Layer 1" xmlns="http://www.w3.org/2000/svg" viewBox="0 0 290.37 94"><defs><style>.cls-1{fill:#b11769;}.cls-2{fill:#fff;}.cls-3{fill:#700e57;}.cls-4{isolation:isolate;}</style></defs><g id="Group_2248" data-name="Group 2248"><g id="Group_2246" data-name="Group 2246"><path id="Path_1319" data-name="Path 1319" class="cls-1" d="M41.48,83A41.49,41.49,0,1,1,83,41.48,41.49,41.49,0,0,1,41.48,83"/><path id="Path_1320" data-name="Path 1320" class="cls-2" d="M29.94,31.18H48.48V61s-.12,1.32,1.56,1.32h3.11v3.83H29.82V62.4h3.11s1.31,0,1.31-1.91V36a2,2,0,0,0-2-1.2h-2.4Z"/><path id="Path_1321" data-name="Path 1321" class="cls-2" d="M49.38,20.54a8,8,0,1,1-8-8,8,8,0,0,1,8,8h0"/><g id="Group_2245" data-name="Group 2245"><g id="Group_2243" data-name="Group 2243"><path id="Path_1322" data-name="Path 1322" class="cls-3" d="M71.73,66.12a1.5,1.5,0,0,1-1.48-1.49V19.17a1.5,1.5,0,0,1,1.48-1.49h9.45a1.5,1.5,0,0,1,1.48,1.49v14a.46.46,0,0,0,.47.46.45.45,0,0,0,.34-.15L96.7,18.8a3.42,3.42,0,0,1,2.48-1.12h13a.67.67,0,0,1,.49,1.12L95.46,37.55a1.51,1.51,0,0,0-.12,1.93l18.5,25.46a.74.74,0,0,1-.16,1,.81.81,0,0,1-.46.14H100.8a3,3,0,0,1-2.36-1.18L86.71,48.85a1,1,0,0,0-1.4-.2,1.07,1.07,0,0,0-.16.14l-1.67,1.8a3.47,3.47,0,0,0-.81,2.18V64.63a1.51,1.51,0,0,1-1.49,1.49Z"/><path id="Path_1323" data-name="Path 1323" class="cls-3" d="M130.36,64.63a1.51,1.51,0,0,1-1.49,1.49h-9.44a1.52,1.52,0,0,1-1.49-1.49V19.17a1.52,1.52,0,0,1,1.49-1.49H127a3,3,0,0,1,2.42,1.18l19.94,24.9a.4.4,0,0,0,.74-.25V19.17a1.51,1.51,0,0,1,1.49-1.49H161a1.51,1.51,0,0,1,1.49,1.49V64.63A1.51,1.51,0,0,1,161,66.12h-7.52A3.09,3.09,0,0,1,151,64.94L131.11,40.1a.42.42,0,0,0-.56-.14.39.39,0,0,0-.19.38Z"/><path id="Path_1324" data-name="Path 1324" class="cls-3" d="M167.63,41.9a25.72,25.72,0,1,1,26.28,25.15h-.57A25.61,25.61,0,0,1,167.63,41.9Zm12.55,0a13.13,13.13,0,1,0,0-.06Z"/></g><g id="Group_2244" data-name="Group 2244"><path id="Path_1325" data-name="Path 1325" class="cls-3" d="M246.26,64.69a2,2,0,0,1-1.93,1.43h-9.87a2,2,0,0,1-1.86-1.43L219.73,19.11a1.17,1.17,0,0,1,.87-1.4l.25,0H231.1A1.94,1.94,0,0,1,233,19.11l7.14,26.27a.36.36,0,0,0,.44.24.38.38,0,0,0,.25-.24L249,19.11A2,2,0,0,1,251,17.68H259A2,2,0,0,1,261,19.11l8.26,26.2a.36.36,0,0,0,.44.25.36.36,0,0,0,.24-.25l7.15-26.2a1.94,1.94,0,0,1,1.86-1.43h10.31a1.16,1.16,0,0,1,1.14,1.19,1.94,1.94,0,0,1,0,.24L277.49,64.69a2,2,0,0,1-1.86,1.43h-9.88a2,2,0,0,1-1.92-1.43l-8.45-25.52a.38.38,0,0,0-.48-.26.35.35,0,0,0-.26.26Z"/></g></g></g><g id="Group_2247" data-name="Group 2247"><g id="Community" class="cls-4"><g class="cls-4"><path class="cls-3" d="M182.87,77a4.67,4.67,0,0,1,3.48,1.57l-.92,1a3.32,3.32,0,0,0-2.54-1.18c-2.43,0-4,2-4,5.15s1.53,5.22,3.94,5.22a3.72,3.72,0,0,0,2.93-1.41l.92,1a4.94,4.94,0,0,1-3.89,1.84c-3.2,0-5.57-2.45-5.57-6.6S179.6,77,182.87,77Z"/><path class="cls-3" d="M192.54,80.26c2.31,0,4.37,1.81,4.37,5s-2.06,4.93-4.37,4.93-4.37-1.81-4.37-4.93S190.23,80.26,192.54,80.26Zm0,8.59c1.63,0,2.72-1.46,2.72-3.61s-1.09-3.66-2.72-3.66-2.72,1.48-2.72,3.66S190.93,88.85,192.54,88.85Z"/><path class="cls-3" d="M199.39,80.5h1.33l.13,1.36h.06a4.15,4.15,0,0,1,2.93-1.6,2.48,2.48,0,0,1,2.61,1.81,4.45,4.45,0,0,1,3.11-1.81c1.94,0,2.87,1.29,2.87,3.7v6h-1.59V84.17c0-1.77-.56-2.53-1.75-2.53a3.46,3.46,0,0,0-2.37,1.46v6.84h-1.59V84.17c0-1.77-.57-2.53-1.77-2.53A3.54,3.54,0,0,0,201,83.1v6.84h-1.6Z"/><path class="cls-3" d="M215.5,80.5h1.32l.13,1.36H217a4.15,4.15,0,0,1,2.93-1.6,2.48,2.48,0,0,1,2.61,1.81,4.45,4.45,0,0,1,3.11-1.81c1.94,0,2.87,1.29,2.87,3.7v6h-1.59V84.17c0-1.77-.56-2.53-1.75-2.53a3.46,3.46,0,0,0-2.37,1.46v6.84h-1.59V84.17c0-1.77-.57-2.53-1.77-2.53a3.54,3.54,0,0,0-2.37,1.46v6.84H215.5Z"/><path class="cls-3" d="M231.46,80.5h1.61v5.77c0,1.76.53,2.52,1.77,2.52,1,0,1.65-.48,2.54-1.59V80.5H239v9.44h-1.32l-.14-1.48h-.06a4,4,0,0,1-3.11,1.71c-2,0-2.89-1.28-2.89-3.69Z"/><path class="cls-3" d="M242.16,80.5h1.32l.14,1.36h.06a4.42,4.42,0,0,1,3.16-1.6c2,0,2.88,1.29,2.88,3.7v6h-1.59V84.17c0-1.77-.55-2.53-1.79-2.53-1,0-1.63.51-2.59,1.46v6.84h-1.59Z"/><path class="cls-3" d="M252.49,77.52a1.11,1.11,0,0,1,2.22,0,1.11,1.11,0,0,1-2.22,0Zm.29,3h1.6v9.44h-1.6Z"/><path class="cls-3" d="M257.83,81.8h-1.4V80.59l1.48-.09.2-2.65h1.34V80.5H262v1.3h-2.54V87c0,1.17.37,1.83,1.45,1.83a3.63,3.63,0,0,0,1.07-.25l.31,1.2a5.62,5.62,0,0,1-1.75.35c-2,0-2.7-1.28-2.7-3.15Z"/><path class="cls-3" d="M264.2,92.68c1.07,0,1.75-.86,2.14-2l.21-.7-3.78-9.46h1.65l1.92,5.22c.29.82.62,1.79.91,2.66h.08c.27-.85.55-1.82.8-2.66l1.69-5.22h1.55l-3.55,10.22c-.66,1.86-1.63,3.28-3.54,3.28a3.06,3.06,0,0,1-1.11-.2l.31-1.26A2.79,2.79,0,0,0,264.2,92.68Z"/></g></g></g></g></svg>