<svg xmlns="http://www.w3.org/2000/svg" width="16" height="16.003" viewBox="0 0 16 16.003">
  <path id="Icon_awesome-compress-arrows-alt" data-name="Icon awesome-compress-arrows-alt" d="M6.253,9h-3.5a.751.751,0,0,0-.531,1.282l1.028.969-3.1,3.1a.5.5,0,0,0,0,.706l.794.794a.5.5,0,0,0,.706,0l3.1-3.1.972,1.031A.749.749,0,0,0,7,13.255v-3.5A.748.748,0,0,0,6.253,9Zm3.5-2h3.5a.751.751,0,0,0,.531-1.281l-1.031-.969,3.1-3.1a.5.5,0,0,0,0-.706L15.064.149a.5.5,0,0,0-.706,0l-3.1,3.1-.972-1.031A.749.749,0,0,0,9,2.752v3.5A.748.748,0,0,0,9.754,7Zm3,4.251,1.031-.972A.749.749,0,0,0,13.255,9h-3.5a.748.748,0,0,0-.75.75v3.5a.751.751,0,0,0,1.282.531l.969-1.028,3.1,3.1a.5.5,0,0,0,.706,0l.794-.794a.5.5,0,0,0,0-.706ZM5.722,2.224,4.753,3.253l-3.1-3.1a.5.5,0,0,0-.706,0L.149.943a.5.5,0,0,0,0,.706l3.1,3.1-1.031.972A.749.749,0,0,0,2.752,7h3.5A.748.748,0,0,0,7,6.253v-3.5A.751.751,0,0,0,5.722,2.224Z" transform="translate(-0.004 -0.004)" fill="#af0e6e"/>
</svg>
