<svg xmlns="http://www.w3.org/2000/svg" width="16" height="16" viewBox="0 0 16 16">
  <path id="Icon_awesome-expand-arrows-alt" data-name="Icon awesome-expand-arrows-alt" d="M16,13.393v4a.855.855,0,0,1-.857.857h-4a.858.858,0,0,1-.607-1.464l1.293-1.293L8,11.664,4.17,15.5l1.294,1.289a.858.858,0,0,1-.607,1.464h-4A.855.855,0,0,1,0,17.393v-4a.858.858,0,0,1,1.464-.607l1.292,1.293L6.588,10.25,2.756,6.418l-1.292,1.3A.858.858,0,0,1,0,7.107v-4A.855.855,0,0,1,.857,2.25h4a.858.858,0,0,1,.607,1.464L4.171,5.007,8,8.836,11.83,5,10.536,3.714a.858.858,0,0,1,.607-1.464h4A.855.855,0,0,1,16,3.107v4a.858.858,0,0,1-1.464.607L13.243,6.421,9.412,10.25l3.831,3.832,1.292-1.293A.856.856,0,0,1,16,13.393Z" transform="translate(0 -2.25)" fill="#fff"/>
</svg>
