<?xml version="1.0" encoding="utf-8"?>
<!-- Generator: Adobe Illustrator 20.1.0, SVG Export Plug-In . SVG Version: 6.00 Build 0)  -->
<svg version="1.1" id="Layer_1" xmlns="http://www.w3.org/2000/svg" xmlns:xlink="http://www.w3.org/1999/xlink" x="0px" y="0px"
	 viewBox="0 0 100 100" style="enable-background:new 0 0 100 100;" xml:space="preserve">
<style type="text/css">
	.st0{fill:#1D1D1B;}
</style>
<path id="Path_32" class="st0" d="M61.7,7.7c-3.6-3.1-8.9-3.1-12.5,0c-1.6,1.7-2.4,3.9-2.3,6.3c-0.1,2.3,0.8,4.6,2.3,6.3l21.9,21.9
	H8.6c-4.7,0-8.6,3.8-8.6,8.6s3.8,8.6,8.6,8.6h61L49.2,79.5c-3.5,3.5-3.5,9.1,0,12.5c3.5,3.5,9.1,3.5,12.5,0l35.9-35.9
	c3.1-3.6,3.1-8.9,0-12.5L61.7,7.7z"/>
</svg>
