<?xml version="1.0" encoding="utf-8"?>
<!-- Generator: Adobe Illustrator 20.1.0, SVG Export Plug-In . SVG Version: 6.00 Build 0)  -->
<svg version="1.1" id="Layer_1" xmlns="http://www.w3.org/2000/svg" xmlns:xlink="http://www.w3.org/1999/xlink" x="0px" y="0px"
	 viewBox="0 0 100 100" style="enable-background:new 0 0 100 100;" xml:space="preserve">
<style type="text/css">
	.st0{fill:#1D1D1B;}
</style>
<path id="Path_32" class="st0" d="M92.3,61.7c3.1-3.6,3.1-8.9,0-12.5c-1.7-1.6-3.9-2.4-6.3-2.3c-2.3-0.1-4.6,0.8-6.3,2.3L57.9,71.1
	V8.6c0-4.7-3.8-8.6-8.6-8.6s-8.6,3.8-8.6,8.6v61L20.5,49.2c-3.5-3.5-9.1-3.5-12.5,0c-3.5,3.5-3.5,9.1,0,12.5l35.9,35.9
	c3.6,3.1,8.9,3.1,12.5,0L92.3,61.7z"/>
</svg>
