<?xml version="1.0" encoding="utf-8"?>
<!-- Generator: Adobe Illustrator 21.1.0, SVG Export Plug-In . SVG Version: 6.00 Build 0)  -->
<svg version="1.1" id="Layer_1" xmlns="http://www.w3.org/2000/svg" xmlns:xlink="http://www.w3.org/1999/xlink" x="0px" y="0px"
	 viewBox="0 0 50 50" style="enable-background:new 0 0 50 50;" xml:space="preserve">
<style type="text/css">
	.st0{fill:#020203;}
</style>
<g>
	<g id="Layer_2_1_">
	</g>
	<path class="st0" d="M25.4,0c-13.7,0-25,11.2-25,25s11.2,25,25,25s25-11.2,25-25S39.2,0,25.4,0z M37.4,33.3c0.2,0.2,0.2,0.7,0.2,1
		L34.9,37c-0.2,0.2-0.7,0.2-1,0l-8.2-8.2L17.4,37c-0.2,0.2-0.7,0.2-1,0l-2.7-2.7c-0.2-0.2-0.2-0.7,0.2-1l8.2-8.2l-8.2-8.2
		c-0.2-0.2-0.2-0.7-0.2-1l2.7-2.7c0,0,0.2-0.2,0.5-0.2c0.2,0,0.5,0.2,0.5,0.2l8.2,8.2l8.2-8.2c0.2-0.2,0.7-0.2,1-0.2l2.7,2.7
		c0.2,0.2,0.2,0.7-0.2,1l-8.2,8.2L37.4,33.3z"/>
</g>
</svg>
