<?xml version="1.0" encoding="utf-8"?>
<!-- Generator: Adobe Illustrator 21.1.0, SVG Export Plug-In . SVG Version: 6.00 Build 0)  -->
<svg version="1.1" id="Layer_1" xmlns="http://www.w3.org/2000/svg" xmlns:xlink="http://www.w3.org/1999/xlink" x="0px" y="0px"
	 viewBox="0 0 100 100" style="enable-background:new 0 0 100 100;" xml:space="preserve">
<path id="Path_6431" d="M97.1,83.6L63.5,49.9L97,16.4c1.8-1.8,2.9-4.2,2.9-6.8c0-2.6-1-5-2.9-6.8C95.2,1,92.8,0,90.3,0
	c-2.5,0-5,1-6.8,2.8L50,36.3L16.6,2.9C12.9-0.8,6.9-0.9,3.2,2.8c0,0-0.1,0.1-0.1,0.1L2.8,3.1C0.9,4.8-0.2,7.2,0,9.7
	c0.1,2.6,1.2,5,3,6.8l33.4,33.4L2.9,83.5c-3.7,3.7-3.8,9.6-0.1,13.4c0,0,0.1,0.1,0.1,0.1l0.2,0.2c1.7,1.9,4.1,2.9,6.6,2.8
	c2.5,0.2,5-0.9,6.6-2.8l0.2-0.2l33.5-33.5l33.6,33.6c3.7,3.7,9.8,3.7,13.5,0c1.8-1.8,2.8-4.2,2.8-6.8C100,87.7,98.9,85.3,97.1,83.6z
	"/>
</svg>
