<?xml version="1.0" encoding="utf-8"?>
<!-- Generator: Adobe Illustrator 21.1.0, SVG Export Plug-In . SVG Version: 6.00 Build 0)  -->
<svg version="1.1" id="Layer_1" xmlns="http://www.w3.org/2000/svg" xmlns:xlink="http://www.w3.org/1999/xlink" x="0px" y="0px"
	 viewBox="0 0 100 100" style="enable-background:new 0 0 100 100;" xml:space="preserve">
<style type="text/css">
	.st0{fill:#1D1D1B;}
</style>
<path id="Path_6419" class="st0" d="M99.3,84.6L77.8,62.7c-0.7-0.8-0.9-1.9-0.4-2.8c2.9-5.9,4.6-12.3,4.8-18.9
	C82.3,18.5,64,0.1,41.3,0c-0.2,0-0.3,0-0.5,0C18.1,0.7,0,19.3,0.1,41.9c-0.1,22.5,18.1,40.8,40.8,40.9c0.2,0,0.3,0,0.5,0
	c6.9,0.1,13.6-1.7,19.5-5.1c1-0.5,2.2-0.4,2.9,0.4l20.7,21c0.2,0.3,0.5,0.5,0.9,0.7c0.6,0.3,1.4,0.2,2-0.1c0.3-0.2,0.6-0.4,0.9-0.6
	L99.3,88C100.2,87.1,100.2,85.5,99.3,84.6z M41.3,16.3c13.8,0.1,25,11.4,24.9,25.1c0,13.5-11.7,25.1-24.9,25.1
	c-13.8-0.3-24.8-11.5-24.9-25.1C15.6,27.5,27.3,16.3,41.3,16.3z"/>
</svg>
