<?xml version="1.0" encoding="utf-8"?>
<!-- Generator: Adobe Illustrator 21.1.0, SVG Export Plug-In . SVG Version: 6.00 Build 0)  -->
<svg version="1.1" id="Layer_1" xmlns="http://www.w3.org/2000/svg" xmlns:xlink="http://www.w3.org/1999/xlink" x="0px" y="0px"
	 viewBox="0 0 50 50" style="enable-background:new 0 0 50 50;" xml:space="preserve">
<style type="text/css">
	.st0{fill:#020303;}
</style>
<g>
	<g id="Layer_1_15_">
		<g>
			<path class="st0" d="M25,0C11.2,0,0,11.2,0,25s11.2,25,25,25s25-11.2,25-25S38.8,0,25,0z M37.8,16.8l-15.5,20
				c0,0-0.3,0.5-0.5,0.5c-0.2,0-0.5-0.2-0.5-0.2c-0.2-0.3-8.7-8.5-8.7-8.5l-0.2-0.2V28v-0.2c0,0,0,0,0-0.2c1-1.2,2.7-3,2.7-3.2
				c0.2-0.3,0.2-0.3,0.5-0.3c0.2,0,0.5,0.3,0.5,0.3c0.2,0.2,5,4.7,5,4.7l12.5-16c0,0,0.2-0.2,0.5-0.2c0.2,0,0.2,0,0.5,0.2l3.5,2.8
				c0,0,0.3,0.2,0.3,0.5C38,16.5,38,16.5,37.8,16.8z"/>
		</g>
	</g>
	<g id="Layer_2_17_">
	</g>
</g>
</svg>
