<?xml version="1.0" encoding="utf-8"?>
<!-- Generator: Adobe Illustrator 20.1.0, SVG Export Plug-In . SVG Version: 6.00 Build 0)  -->
<svg version="1.1" id="Layer_1" xmlns="http://www.w3.org/2000/svg" xmlns:xlink="http://www.w3.org/1999/xlink" x="0px" y="0px"
	 viewBox="0 0 100 100" style="enable-background:new 0 0 100 100;" xml:space="preserve">
<style type="text/css">
	.st0{fill:#010202;}
</style>
<path class="st0" d="M97.9,25.8c-1.2-4.3-4.5-7.7-8.8-8.9C81.3,14.8,50,14.8,50,14.8s-31.3,0-39.1,2.1c-4.3,1.2-7.7,4.6-8.8,8.9
	C0,33.6,0,50,0,50s0,16.4,2.1,24.2c1.2,4.3,4.5,7.7,8.8,8.9c7.8,2.1,39.1,2.1,39.1,2.1s31.3,0,39.1-2.1c4.3-1.2,7.7-4.6,8.8-8.9
	C100,66.4,100,50,100,50S100,33.6,97.9,25.8z M39.8,64.9V35.1L65.9,50L39.8,64.9z"/>
</svg>
