<svg id="Layer_1" data-name="Layer 1" xmlns="http://www.w3.org/2000/svg" viewBox="0 0 32 40">
    <g fill="#E41E1C">
        <path d="M36,6.471,29.481,0H4V40H36Zm-2.37,10.47-6.519,6.471h-4.5L33.63,12.471Zm0,1.647v4.706H28.889Zm0-7.882L20.948,23.294h-4.5L33.037,6.824l.593.706ZM10.163,23.294,29.837,3.765,32.089,6l-17.3,17.294ZM29.007,2.941,8.5,23.294H6.37V20.941L25.1,2.353h3.319ZM6.37,8.706l6.4-6.353h4.5L6.37,13.176Zm0,6.118L18.933,2.353h4.5L6.37,19.294ZM10.993,2.353,6.37,6.941V2.353ZM6.37,37.647v-12H33.63v12Z"
            transform="translate(-4)" />
        <path d="M12.652,28.706h2.015c1.3,0,2.37.471,2.37,1.882s-1.067,2-2.37,2h-.948v2.235H12.652Zm1.9,3.059c.948,0,1.422-.353,1.422-1.176S15.5,29.53,14.552,29.53h-.83v2.235Z"
            transform="translate(-4)" />
        <path d="M18.222,28.706h1.659a2.711,2.711,0,0,1,2.963,3.059,2.711,2.711,0,0,1-2.963,3.059H18.222ZM19.763,34c1.3,0,2.015-.706,2.015-2.235s-.711-2.118-2.015-2.118h-.474V34Z"
            transform="translate(-4)" />
        <path d="M24.148,28.706h3.793v.941H25.333v1.765h2.252v.941H25.333v2.588H24.148Z"
            transform="translate(-4)" />
    </g>
</svg>
