<svg id="Layer_1" data-name="Layer 1" xmlns="http://www.w3.org/2000/svg" viewBox="0 0 32 40">
    <path id="Path_5252" data-name="Path 5252" d="M36,6.471,29.481,0H4V40H36Zm-2.37,10.47-6.519,6.471h-4.5L33.63,12.471Zm0,1.647v4.706H28.889Zm0-7.882L20.948,23.294h-4.5L33.037,6.824l.593.706ZM10.163,23.294,29.837,3.765,32.089,6l-17.3,17.294ZM29.007,2.941,8.5,23.294H6.37V20.941L25.1,2.353h3.319ZM6.37,8.706l6.4-6.353h4.5L6.37,13.176Zm0,6.118L18.933,2.353h4.5L6.37,19.294ZM10.993,2.353,6.37,6.941V2.353ZM6.37,37.647v-12H33.63v12Z"
        transform="translate(-4)" />
</svg>
