<svg xmlns="http://www.w3.org/2000/svg" width="16" height="16" viewBox="0 0 16 16"><g transform="translate(-1374 -610.999)"><path d="M8.21,15.415l.709-.695a.416.416,0,0,0,0-.6L3.377,8.681H15.571A.425.425,0,0,0,16,8.26V7.278a.425.425,0,0,0-.428-.421H3.377L8.92,1.413a.416.416,0,0,0,0-.6L8.21.123a.434.434,0,0,0-.606,0L.125,7.472a.416.416,0,0,0,0,.6l7.48,7.349a.434.434,0,0,0,.605,0Z" transform="translate(1390 626.538) rotate(180)" fill="#af006e"/><rect width="16" height="15.999" transform="translate(1374 611)" fill="none"/></g></svg>