<svg xmlns="http://www.w3.org/2000/svg" width="16" height="24" viewBox="0 0 16 24"><path d="M65.333,5.8A.77.77,0,0,0,64.4,5.05c-2.507.533-4.4,3.28-4.4,6.587a7.2,7.2,0,0,0,2.453,5.627.557.557,0,0,1,.213.427v10A1.32,1.32,0,0,0,64,29.023h0a1.32,1.32,0,0,0,1.333-1.333V5.8Z" transform="translate(-49.333 -5.024)"/><path d="M26.4,5.8v6.48a.717.717,0,0,1-.72.72h0a.708.708,0,0,1-.72-.747V5.8a.786.786,0,0,0-.8-.8h-.267a.786.786,0,0,0-.8.8v6.48a.717.717,0,0,1-.72.72h0a.717.717,0,0,1-.72-.72L21.6,5.8a.786.786,0,0,0-.8-.8h0a.786.786,0,0,0-.8.8v5.867a4.015,4.015,0,0,0,2.347,3.653.527.527,0,0,1,.32.48V27.667A1.32,1.32,0,0,0,24,29h0a1.32,1.32,0,0,0,1.333-1.333V15.8a.527.527,0,0,1,.32-.48A4.06,4.06,0,0,0,28,11.667V5.8a.786.786,0,0,0-.8-.8h0A.786.786,0,0,0,26.4,5.8Z" transform="translate(-20 -5)"/></svg>