<svg xmlns="http://www.w3.org/2000/svg" width="24" height="24" viewBox="0 0 24 24"><path d="M62.835,1.78l1.544-1.5a1,1,0,0,1,.7-.282H69V3.777a1,1,0,0,1-.3.718l-1.835,1.78a1,1,0,0,1-1.589-.266A6.591,6.591,0,0,0,63.68,3.96a9.415,9.415,0,0,0-.765-.673,1,1,0,0,1-.08-1.507Zm-6.082.5a9.088,9.088,0,0,1,6.062,2.4,8.542,8.542,0,0,1,2.474,5.88,7.494,7.494,0,0,1-1.361,4.32c-2.1,3.36-.866,9.12-7.052,9.12a5.492,5.492,0,0,1-4.082-1.68.8.8,0,0,1,.025-1.173l.194-.172A.839.839,0,0,1,54.155,21a4.526,4.526,0,0,0,2.722,1.08c4.33,0,3.216-4.92,5.443-8.16a6.309,6.309,0,0,0,.99-3.36A6.658,6.658,0,0,0,61.454,6a7.094,7.094,0,0,0-4.7-1.8A6.775,6.775,0,0,0,52.175,6a6.645,6.645,0,0,0-1.661,2.6,1,1,0,0,1-1.473.518.911.911,0,0,1-.386-1.049A8.108,8.108,0,0,1,50.691,4.68,9.088,9.088,0,0,1,56.753,2.28ZM52.307,7.8a4.091,4.091,0,0,1,.734-.956,5.218,5.218,0,0,1,3.711-1.56A5.411,5.411,0,0,1,62.2,10.56a4.7,4.7,0,0,1-.849,2.708,1,1,0,0,1-1.521.153l-.013-.012a.125.125,0,0,1,0-.176,3.755,3.755,0,0,0,1.025-2.672,4.837,4.837,0,0,0-1.055-2.8,1,1,0,0,0-.137-.154A4.115,4.115,0,0,0,56.753,6.6a4.533,4.533,0,0,0-2.719.981,1,1,0,0,0-.2.205c-.041.056-.082.109-.122.16a1,1,0,0,1-1.3.234A.285.285,0,0,1,52.307,7.8ZM57,15.84h0L49.621,23a1,1,0,0,1-.7.282H45V19.5a1,1,0,0,1,.3-.718l5.713-5.541a1,1,0,0,1,1.194-.15Z" transform="translate(-45)"/></svg>