<svg xmlns="http://www.w3.org/2000/svg" width="31.175" height="24.12" viewBox="0 0 31.175 24.12"><g transform="translate(-464.119 -115.126)"><path d="M494.3,139.246h-23.9a1.145,1.145,0,0,1,0-2.27h23.9a1.145,1.145,0,0,1,0,2.27Z" transform="translate(0 0)" fill="#161615"/><path d="M494.3,117.4h-23.9a1.145,1.145,0,0,1,0-2.27h23.9a1.145,1.145,0,0,1,0,2.27Z" fill="#161615"/><path d="M494.3,124.68h-23.9a1.145,1.145,0,0,1,0-2.271h23.9a1.145,1.145,0,0,1,0,2.271Z" fill="#161615"/><path d="M494.3,131.963h-23.9a1.145,1.145,0,0,1,0-2.271h23.9a1.145,1.145,0,0,1,0,2.271Z" fill="#161615"/><circle cx="1.116" cy="1.116" r="1.116" transform="translate(464.119 115.145)" fill="#161615"/><circle cx="1.116" cy="1.116" r="1.116" transform="translate(464.119 122.429)" fill="#161615"/><circle cx="1.116" cy="1.116" r="1.116" transform="translate(464.119 129.712)" fill="#161615"/><circle cx="1.116" cy="1.116" r="1.116" transform="translate(464.119 136.995)" fill="#161615"/></g></svg>