<svg xmlns="http://www.w3.org/2000/svg" width="23.953" height="23.413" viewBox="0 0 23.953 23.413"><path d="M539.836,204.463H519.306c-.944,0-1.711-.54-1.711-1.206s.766-1.207,1.711-1.207h20.531c.945,0,1.711.54,1.711,1.207S540.782,204.463,539.836,204.463Z" transform="translate(-517.595 -202.05)" fill="#161615"/><path d="M539.836,204.463H519.306c-.944,0-1.711-.54-1.711-1.206s.766-1.207,1.711-1.207h20.531c.945,0,1.711.54,1.711,1.207S540.782,204.463,539.836,204.463Z" transform="translate(-517.595 -191.05)" fill="#161615"/><path d="M539.836,204.463H519.306c-.944,0-1.711-.54-1.711-1.206s.766-1.207,1.711-1.207h20.531c.945,0,1.711.54,1.711,1.207S540.782,204.463,539.836,204.463Z" transform="translate(-517.595 -181.05)" fill="#161615"/></svg>