<svg xmlns="http://www.w3.org/2000/svg" width="23.999" height="24" viewBox="0 0 23.999 24"><path d="M366.2,130.714a2.248,2.248,0,0,1-2.245-2.246V111.7a2.247,2.247,0,0,1,2.245-2.246h.5v-1.08a1.664,1.664,0,0,1,1.663-1.663h17.932a1.664,1.664,0,0,1,1.663,1.663v17.932a1.665,1.665,0,0,1-1.663,1.663h-1.08v.5a2.248,2.248,0,0,1-2.245,2.246Zm1.993-22.337v1.08h14.772a2.248,2.248,0,0,1,2.245,2.246v14.771h1.08a.167.167,0,0,0,.166-.165V108.377a.168.168,0,0,0-.166-.166H368.361A.168.168,0,0,0,368.2,108.377Zm6.146,14.449,4.741-4.74,4.633,4.633V111.7a.749.749,0,0,0-.748-.749H366.2a.749.749,0,0,0-.748.749v10.678l4.221-4.222Zm4.533-8.255a1.672,1.672,0,1,1,1.672,1.673A1.672,1.672,0,0,1,378.875,114.57Z" transform="translate(-363.956 -106.714)" fill="#161615"/></svg>