<svg xmlns="http://www.w3.org/2000/svg" width="24" height="24" viewBox="0 0 24 24"><path d="M7.5,15c.75,0,1.05.45.45,1.05L5.7,18.3A8.982,8.982,0,0,0,12,21a9.073,9.073,0,0,0,9-7.8,1.517,1.517,0,0,1,3,.3v.3A12,12,0,0,1,12,24a12.543,12.543,0,0,1-8.55-3.45l-2.4,2.4c-.6.6-1.05.3-1.05-.45V15.75A.709.709,0,0,1,.75,15Zm9-6c-.75,0-1.05-.45-.45-1.05L18.3,5.7A8.982,8.982,0,0,0,12,3a9.073,9.073,0,0,0-9,7.8A1.425,1.425,0,0,1,1.5,12,1.417,1.417,0,0,1,0,10.5v-.3A12,12,0,0,1,12,0a12.543,12.543,0,0,1,8.55,3.45l2.4-2.4c.6-.6,1.05-.3,1.05.45V8.25a.709.709,0,0,1-.75.75Z" fill-rule="evenodd"/></svg>