<svg xmlns="http://www.w3.org/2000/svg" width="22.949" height="24" viewBox="0 0 22.949 24"><g transform="translate(0 7.63)"><path d="M12.85,30.267a.705.705,0,0,0-.576-.3H8.649a.7.7,0,0,0-.575.3A10.753,10.753,0,0,0,6.11,36.445a.7.7,0,1,0,1.406,0,9.375,9.375,0,0,1,.7-3.528.116.116,0,0,1,.223.045V43.14a.824.824,0,0,0,1.648,0v-6.2a.377.377,0,0,1,.754,0v6.2a.824.824,0,0,0,1.648,0V32.965a.118.118,0,0,1,.072-.107.116.116,0,0,1,.151.063,9.374,9.374,0,0,1,.7,3.528.7.7,0,1,0,1.405,0A10.755,10.755,0,0,0,12.85,30.267Z" transform="translate(-6.11 -29.97)"/></g><g transform="translate(11.015)"><path d="M0,.46a.46.46,0,0,1,.919,0V23.54a.46.46,0,1,1-.919,0Z" transform="translate(0)"/></g><g transform="translate(13.609 7.63)"><path d="M69.593,30.273a.767.767,0,0,0-.617-.3H65.085a.768.768,0,0,0-.617.3,10.589,10.589,0,0,0-2.107,6.3.756.756,0,0,0,1.51,0,9.124,9.124,0,0,1,.748-3.595.125.125,0,0,1,.115-.072.121.121,0,0,1,.124.117v.935l-1.042,4.561h1.042v4.873a.886.886,0,0,0,1.769,0V38.517h.81v4.873a.886.886,0,0,0,1.77,0V38.517h1.042l-1.042-4.523v-.973a.119.119,0,0,1,.077-.109.127.127,0,0,1,.162.064,9.124,9.124,0,0,1,.748,3.595.755.755,0,0,0,1.508,0A10.586,10.586,0,0,0,69.593,30.273Z" transform="translate(-62.361 -29.97)"/></g><g transform="translate(2.924 3)"><path d="M20.2,15a1.665,1.665,0,1,0-1.666,1.666A1.665,1.665,0,0,0,20.2,15Z" transform="translate(-16.865 -13.337)"/></g><g transform="translate(16.533 3)"><path d="M76.692,15.124A1.787,1.787,0,1,0,74.9,16.912a1.788,1.788,0,0,0,1.788-1.788Z" transform="translate(-73.118 -13.337)"/></g></svg>