<?xml version="1.0" encoding="utf-8"?>
<svg version="1.1" id="Layer_1" xmlns="http://www.w3.org/2000/svg" xmlns:xlink="http://www.w3.org/1999/xlink" x="0px" y="0px"
	 viewBox="0 0 100 100" style="enable-background:new 0 0 100 100;" xml:space="preserve">
		<path d="M93,0H46.8C43,0,42,2.1,44.8,4.8l12.8,12.7L32.3,42.6c-2.8,2.7-2.8,7.2,0,9.6l14.6,14.4c2.8,2.7,7.3,2.7,9.7,0l25.3-25.1
			l12.8,12.4c2.8,2.7,5.2,1.7,5.2-2.1v-45C100.6,3.1,96.8,0,93,0z"/>
		<path d="M69.4,80.8c0,4.8-3.8,8.9-8.7,8.9H19.4c-4.9,0-9-4.1-9-8.9V38.5c0-4.8,4.2-7.2,9-7.2H34L44.4,21h-25C9,21,0,28.2,0,38.5
			v42.3C0,91.1,8.7,100,19.4,100h41.3c10.4,0,19.1-8.6,19.1-19.2V56.7L69.4,67V80.8z"/>
</svg>
