            <svg xmlns="http://www.w3.org/2000/svg" viewBox="0 0 448 512">
                <path d="M331.5,30.7c-1.2,0-1.5,0.3-1.8,1.1l-0.4,1.3c0,0.1,0,0.2,0,0.2c0,0.6,0.7,0.9,1.4,1.2c0.7,0.3,1.4,0.5,1.8,1
                    c0.3,0.3,0.6,0.6,0.6,1.5c0,0.3,0,0.7-0.1,1.1c0,0-1.5,7.7-1.9,9.8c-1.2-0.7-3.8-1.3-6.7-1.3c-12.9,0-22.6,12.9-22.6,24.4
                    c0,9.6,5.5,14,10.7,14c4.7,0,10.5-4.5,13.5-9.2c-0.4,1.8-1.5,6.5-1.5,6.5c-0.1,0.3-0.1,0.5-0.1,0.8c0,0.5,0.1,0.9,0.4,1.3
                    c0.4,0.5,1.1,0.7,2.2,0.7l0.1,0L336,82c0,0,0.4-0.2,0.4-0.2c1-0.4,1.9-0.7,1.9-1.7c0,0-0.3-1.6-0.3-1.6c-0.3-0.9-1.4-0.6-2.5-0.4
                    l-1.4,0.3c-0.5,0.1-0.9,0-1.1-0.2c-0.4-0.4-0.2-1.7,0-2.8l8-42.1c0.2-1,0.1-1.7-0.2-2.1c-0.3-0.4-0.8-0.5-1.5-0.5H331.5 M309.5,72.1
                    c0-10.2,6.3-21.6,14.7-21.6c1.6,0,5.4,0.5,5.4,5.6c0,10.9-9.4,24.1-15.3,24.1C309.7,80.1,309.5,73.4,309.5,72.1"/>
                <path d="M274.7,54.6c0.3-1.4,1-5.2,1-5.2c0-0.2,0.1-0.4,0.1-0.6c0-0.3-0.1-0.6-0.3-0.8c-0.3-0.4-0.9-0.4-1.3-0.4h-7.9
                    c-1.2,0-1.6,0.3-1.8,1.1c0,0-0.4,1.3-0.4,1.3c-0.2,0.8,0.6,1.2,1.5,1.5c0.6,0.3,1.3,0.5,1.8,1c0.3,0.3,0.6,0.6,0.3,2.6l-5.6,29.1
                    h7.1l2.3-12.1c1.1-5.9,2-10.9,6.5-16c2.4-2.7,5-4.3,7.2-4.3c1.6,0,2.8,0.4,3.4,1.2c1.2,1.5,1.3,4.5,0.2,10L285,82.4
                    c-0.1,1,0,1.7,0.4,2.1c0.4,0.4,0.9,0.6,1.7,0.6l0.1,0l9.1-3.1c0,0,0.4-0.2,0.4-0.2c1-0.4,1.9-0.7,1.9-1.7c0,0-0.3-1.6-0.3-1.6
                    c-0.3-0.9-1.4-0.6-2.5-0.4l-1.4,0.3c-0.5,0.1-0.9,0-1.1-0.2c-0.4-0.4-0.2-1.7,0-2.8l3.2-15.9c1-5,0.7-8.5-1-10.5
                    c-1.3-1.5-3.2-2.3-6.1-2.3C283.9,46.9,278.1,50,274.7,54.6"/>
                <path d="M222.1,71.1c0,9.6,5.5,14,10.7,14c4.7,0,10.5-4.6,13.5-9.2c-0.4,1.8-1.4,6.5-1.4,6.5c-0.1,0.3-0.1,0.6-0.1,0.9
                    c0,0.4,0.1,0.8,0.3,1.1c0.4,0.5,1.1,0.8,2.2,0.8l0.1,0l8.8-3.1l0.4-0.2c1-0.4,1.9-0.7,1.9-1.7c0,0-0.3-1.6-0.3-1.6
                    c-0.3-0.9-1.3-0.6-2.5-0.4l-1.4,0.3c-0.5,0.1-0.8,0-1-0.2c-0.4-0.4-0.2-1.7,0-2.8l3.9-20.3c0.7-4.2-0.6-5-2.2-5.9l-0.8-0.5
                    c-2.9-1.3-6-2-9.2-2C231.5,46.7,222.1,59.6,222.1,71.1 M229.7,72.1c0-10.2,6.3-21.6,14.7-21.6c1.6,0,5.4,0.5,5.4,5.6
                    c0,10.9-9.4,24.1-15.3,24.1C229.9,80.1,229.7,73.4,229.7,72.1"/>
                <path d="M219.1,30.7h-7.3c-1.2,0-1.6,0.3-1.8,1.1c0,0-0.4,1.3-0.4,1.3c-0.2,0.8,0.7,1.2,1.5,1.5c0.6,0.3,1.3,0.5,1.8,1
                    c0.4,0.4,0.8,0.8,0.4,2.6c0,0-8.6,44.2-8.6,44.2c-0.2,1,0,1.7,0.4,2.1c0.4,0.4,0.9,0.6,1.6,0.5l0.1,0l9.3-3.1c0,0,0.4-0.2,0.4-0.2
                    c1-0.4,1.9-0.7,1.9-1.7c0,0-0.3-1.6-0.3-1.6c-0.4-0.9-1.4-0.6-2.5-0.4l-1.4,0.3c-0.5,0.1-0.9,0-1.1-0.2c-0.4-0.4-0.2-1.7,0-2.8
                    l8.1-42.1c0.2-1,0.1-1.6-0.3-2C220.6,30.8,220,30.7,219.1,30.7"/>
                <path d="M195.6,37.2l-4.2,3.2l-0.1,0.2c0,0-1.2,6.4-1.3,6.9h-5.4l-0.7,3.7h5.6C189.2,52,185,74,185,74
                    c-0.3,1.4-0.4,2.7-0.4,3.9c0,2.3,0.5,4.1,1.5,5.3c1,1.2,2.5,1.8,4.4,1.8c3.3,0,6.7-2.2,7.3-2.7c0,0,1-0.6,1-0.6
                    c0.3-0.1,1.1-0.6,0.8-1.3c0,0-0.8-1.7-0.8-1.7c0-0.1-0.1-0.2-0.3-0.3c-0.3-0.1-0.6,0-0.9,0.1c-0.9,0.5-2.1,1-4,1
                    c-0.6,0-1.1-0.2-1.4-0.6c-0.4-0.5-0.6-1.2-0.6-2.2c0-0.6,0.1-1.4,0.2-2.2c0,0,4-20.7,4.5-23.2h7.2l0.2-0.1l1.6-1.5l0.1-0.2l0.1-1.5
                    l-0.3-0.4H197c0.1-0.7,1.9-9.8,1.9-9.8c0-0.1,0-0.1,0-0.2c0-0.3-0.2-0.6-0.5-0.8C197.7,36.4,196.5,36.6,195.6,37.2"/>
                <path d="M147.4,70.9c0,6.8,4.3,14.1,13.8,14.1c13.4,0,20.8-14.1,20.8-23.8c0-8.7-5.2-14.5-13.1-14.5
                    C157.1,46.7,147.4,57.6,147.4,70.9 M154.9,69.4c0-11.9,8.1-18.1,12.5-18.1c6.6,0,7.1,7.2,7.1,9.4c0,6.7-3.8,19.7-12.5,19.7
                    C157.1,80.5,154.9,74.9,154.9,69.4"/>
                <path d="M117.5,69.6c0,10,7,15.4,13.5,15.4c4.3,0,6.8-1.1,8.9-2l0.2-0.1c1.6-0.8,2.2-1.4,2.4-2.5c0,0,0.4-1.6,0.4-1.6
                    c0.1-0.5-0.1-0.9-0.5-1.2c-0.6-0.4-1.7-0.2-2.9,0.6c-1.6,1-3.8,1.6-6.2,1.6c-5,0-8.2-4.2-8.2-10.8c0-9.6,6.3-17.9,13.5-17.9
                    c3.2,0,4.6,0.7,5.4,2.6l0.2,0.6c0.3,1,0.6,2,1.2,2.2c0.2,0.1,0.4,0.1,0.8-0.1c0,0,0.8-0.5,0.8-0.5c0.7-0.3,0.8-0.8,0.8-1.1
                    c0,0.1,0.9-4.5,0.9-4.5c0.3-1.5-0.3-2.5-1.8-2.9c-1.6-0.5-3.9-0.7-6.3-0.7C125.4,46.7,117.5,60,117.5,69.6"/>
                <path d="M89.8,36.8c0,5.1,2.6,10.3,8.6,17.3c3.4,3.9,7.4,9.8,7.4,15.2c0,3-2.3,11.3-9.7,11.3c-3.9,0-6.9-2-7.6-5.1
                    c-0.6-1.6-0.8-3.2-1-4.5c-0.1-1.3-0.2-2-0.7-2.3c-0.1-0.1-0.3-0.2-0.6-0.1c0,0-2,0.7-2,0.7c-0.8,0.3-0.9,1.3-1,2.1l-0.1,0.5
                    l-1.3,7.8c-0.4,2.3,0,2.5,3.4,3.7C87,84.3,89.6,85,95.5,85c12.7,0,18.6-10.1,18.6-16.9c0-4.9-0.6-7.9-6.7-15.8l-3.2-4
                    c-3.9-4.7-6.9-8.4-6.9-12.8c0-4.1,4.2-6.9,8.2-6.9c2.2,0,6,0.6,6.9,4.4c0,0,0.4,1.2,0.4,1.2c0.7,2.4,1.1,3.5,1.7,3.7
                    c0.2,0.1,0.4,0,0.5-0.1l1.8-1.4l0.1-0.1L117,36c0.2-0.2,0.4-0.5,0.5-0.8c0,0,1.1-6,1.1-6c0.5-1.7-1.2-2.6-2.8-3.3
                    c-2.3-1.1-5.1-1.6-8.9-1.6C96.3,24.3,89.8,29.1,89.8,36.8"/>
            </svg>