<?xml version="1.0" encoding="utf-8"?>
<!-- Generator: Adobe Illustrator 25.0.0, SVG Export Plug-In . SVG Version: 6.00 Build 0)  -->
<svg version="1.1" id="Layer_1" xmlns="http://www.w3.org/2000/svg" xmlns:xlink="http://www.w3.org/1999/xlink" x="0px" y="0px"
	 viewBox="0 0 394.2 94.1" style="enable-background:new 0 0 394.2 94.1;" xml:space="preserve">
<style type="text/css">
	.st0{fill:#AF2071;}
	.st1{fill:#FFFFFF;}
	.st2{fill:#701C58;}
</style>
<g>
	<g>
		<path class="st0" d="M47,94.1C21.1,94.1,0,73,0,47C0,21.1,21.1,0,47,0s47,21.1,47,47C94.1,73,73,94.1,47,94.1"/>
		<path class="st1" d="M34,35.4h21v33.8c0,0-0.1,1.5,1.8,1.5h3.5V75H33.8v-4.2h3.5c0,0,1.5,0,1.5-2.2V40.8c0,0-0.4-1.4-2.3-1.4h-2.7
			L34,35.4z"/>
		<path class="st1" d="M56,23.3c0,5-4,9-9,9s-9-4-9-9c0-5,4-9,9-9S56,18.3,56,23.3"/>
	</g>
	<g>
		<path class="st2" d="M121.5,56.1c0.6-0.9,1.5-1.2,2.5-0.8l9.8,4.3c0.8,0.3,1.1,1.4,0.6,2.1c-5,8.6-14.5,14.3-25.2,14.3
			c-15.8,0-29.2-12.8-29.2-28.5c0-15.7,13.3-28.5,29.2-28.5c10.7,0,20.1,5.7,25.1,14.2c0.4,0.7,0.1,1.8-0.6,2.2l-9.7,4.3
			c-0.9,0.5-1.9,0.2-2.5-0.7c-2.7-3.8-7.2-6.3-12.3-6.3c-8.2,0-14.9,6.6-14.9,14.9c0,8.3,6.7,14.9,14.9,14.9
			C114.4,62.4,118.9,59.9,121.5,56.1z"/>
		<path class="st2" d="M141.9,75c-0.9,0-1.7-0.8-1.7-1.7V21.7c0-0.9,0.8-1.7,1.7-1.7h38.8c0.9,0,1.7,0.8,1.7,1.7V32
			c0,0.9-0.8,1.7-1.7,1.7h-25c-0.8,0-1.4,0.6-1.4,1.4v5.1c0,0.8,0.6,1.4,1.4,1.4h20c0.9,0,1.7,0.8,1.7,1.7v9.4
			c0,0.9-0.8,1.7-1.7,1.7h-20c-0.8,0-1.4,0.6-1.4,1.4V60c0,0.8,0.6,1.4,1.4,1.4h25c0.9,0,1.7,0.8,1.7,1.7v10.2
			c0,0.9-0.8,1.7-1.7,1.7H141.9z"/>
		<path class="st2" d="M203.2,73.3c0,0.9-0.8,1.7-1.7,1.7h-10.6c-0.9,0-1.7-0.8-1.7-1.7V21.7c0-0.9,0.8-1.7,1.7-1.7h8.5
			c1.1,0,2.1,0.5,2.7,1.3l22.6,28.2c0.3,0.4,0.8,0.2,0.8-0.3V21.7c0-0.9,0.8-1.7,1.7-1.7H238c0.9,0,1.7,0.8,1.7,1.7v51.6
			c0,0.9-0.8,1.7-1.7,1.7h-8.5c-1.1,0-2.1-0.5-2.7-1.3l-22.6-28.2c-0.3-0.4-0.8-0.2-0.8,0.3V73.3z"/>
		<path class="st2" d="M246.4,33.7c-0.9,0-1.7-0.8-1.7-1.7V21.7c0-0.9,0.8-1.7,1.7-1.7h44.9c0.9,0,1.7,0.8,1.7,1.7V32
			c0,0.9-0.8,1.7-1.7,1.7h-14c-0.8,0-1.4,0.6-1.4,1.4v38.2c0,0.9-0.8,1.7-1.7,1.7h-10.7c-0.9,0-1.7-0.8-1.7-1.7V35.1
			c0-0.8-0.6-1.4-1.4-1.4H246.4z"/>
		<path class="st2" d="M298.1,21.7c0-0.9,0.8-1.7,1.7-1.7h25.1c14.1,0,20.6,9.2,20.6,20.1c0,7.3-3,14-9.6,17.6
			c-0.7,0.4-0.8,1.2-0.4,1.8l10.1,14c0.4,0.6,0,1.4-0.7,1.4h-13.5c-1.1,0-2-0.6-2.7-1.4l-8.6-12.2c-0.5-0.7-1.4-1.1-2.3-1.1h-4.4
			c-0.8,0-1.4,0.6-1.4,1.4v11.6c0,0.9-0.8,1.7-1.7,1.7h-10.6c-0.9,0-1.7-0.8-1.7-1.7V21.7z M324.2,32.9h-10.6
			c-0.8,0-1.4,0.6-1.4,1.4v11.8c0,0.8,0.6,1.4,1.4,1.4h10.6c5.6,0,7.7-3.5,7.7-7.3C331.9,36,329.8,32.9,324.2,32.9z"/>
		<path class="st2" d="M353.7,75c-0.9,0-1.7-0.8-1.7-1.7V21.7c0-0.9,0.8-1.7,1.7-1.7h38.8c0.9,0,1.7,0.8,1.7,1.7V32
			c0,0.9-0.8,1.7-1.7,1.7h-25c-0.8,0-1.4,0.6-1.4,1.4v5.1c0,0.8,0.6,1.4,1.4,1.4h20c0.9,0,1.7,0.8,1.7,1.7v9.4
			c0,0.9-0.8,1.7-1.7,1.7h-20c-0.8,0-1.4,0.6-1.4,1.4V60c0,0.8,0.6,1.4,1.4,1.4h25c0.9,0,1.7,0.8,1.7,1.7v10.2
			c0,0.9-0.8,1.7-1.7,1.7H353.7z"/>
	</g>
</g>
</svg>
