<svg xmlns="http://www.w3.org/2000/svg" width="24" height="24" viewBox="0 0 24 24"><defs><style>.a{fill:#3d3d3d;}.b{fill:#fff;}</style></defs><rect class="a" width="24" height="24" rx="8" transform="translate(0)"/><path class="b" d="M16.5,0h-9A7.5,7.5,0,0,0,0,7.5v9A7.5,7.5,0,0,0,7.5,24h9A7.5,7.5,0,0,0,24,16.5v-9A7.5,7.5,0,0,0,16.5,0Zm5.25,16.5a5.256,5.256,0,0,1-5.25,5.25h-9A5.256,5.256,0,0,1,2.25,16.5v-9A5.256,5.256,0,0,1,7.5,2.25h9A5.256,5.256,0,0,1,21.75,7.5Z"/><g transform="translate(6.939 6.939)"><path class="b" d="M133.061,128a5.061,5.061,0,1,0,5.061,5.061A5.062,5.062,0,0,0,133.061,128Zm0,8.225a3.163,3.163,0,1,1,3.163-3.163A3.168,3.168,0,0,1,133.061,136.225Z" transform="translate(-128 -128)"/></g><g transform="translate(17.061 4.804)"><circle class="b" cx="1.068" cy="1.068" r="1.068"/></g></svg>