<svg xmlns="http://www.w3.org/2000/svg" xmlns:xlink="http://www.w3.org/1999/xlink" width="18.686" height="29.307" viewBox="0 0 18.686 29.307">
  <defs>
    <clipPath id="clip-path">
      <rect id="Rectangle_2382" data-name="Rectangle 2382" width="18.686" height="29.307" transform="translate(0 0)" fill="none"/>
    </clipPath>
  </defs>
  <g id="Group_5528" data-name="Group 5528" transform="translate(0 0)">
    <g id="Group_5527" data-name="Group 5527" clip-path="url(#clip-path)">
      <path id="Path_3219" data-name="Path 3219" d="M15.878,17.908l2.752-5.154a.476.476,0,0,0,.006-.436l-.847-1.694a.472.472,0,0,0-.425-.262H12.781a.465.465,0,0,0-.2.045l-1.371.641.3-1.234,2.505-2.505a.473.473,0,0,0,.14-.337V5.2a.475.475,0,0,0-.567-.466l-3.745.748L7.777,4.753a.467.467,0,0,0-.551.18L6.019,6.7a.481.481,0,0,0-.071.369l.47,2.141-1.373.318a.472.472,0,0,0-.368.462v2.483l-.959-2a.474.474,0,0,0-.363-.266.489.489,0,0,0-.42.155L1.764,11.677a.476.476,0,0,0-.006.624L3.966,14.89a.473.473,0,0,0,.361.167h.035a.481.481,0,0,0,.368-.222l.472-.755a.435.435,0,0,0,.02-.061l.036.092L4.1,15.95a.472.472,0,0,0-.073.253v1.482a.479.479,0,0,0,.193.383.469.469,0,0,0,.423.071l1.6-.5-.912,2.785a.459.459,0,0,0-.024.148v2.254a.475.475,0,0,0,.475.475h1.2a.475.475,0,0,0,.475-.475V21.26l.306-.54.6.453-.573.537a.474.474,0,0,0-.106.547L8.541,24.1,6.616,26.409a.473.473,0,0,0,.03.641l2.122,2.119a.479.479,0,0,0,.5.108l2.816-1.057a.509.509,0,0,0,.2-.147L13,27.19h1.456a.478.478,0,0,0,.355-.158l2.265-2.541a.475.475,0,0,0,.119-.315V23l.528-.642a.475.475,0,0,0-.075-.676l-1.9-1.483a.474.474,0,0,0-.292-.1h-.292l.428-.127a.479.479,0,0,0,.333-.383.474.474,0,0,0-.2-.465l-.994-.677.888-.318a.482.482,0,0,0,.259-.224M4.228,13.734,2.749,12l.421-.472Zm9.3,4.138a.474.474,0,0,0-.106.84l.94.639-2.579.771a.475.475,0,0,0,.137.93H15.3l1.386,1.082-.326.395a.479.479,0,0,0-.107.3v1.162l-2,2.247h-1.47a.478.478,0,0,0-.37.176l-.775.958-2.408.9-1.6-1.595,1.84-2.208a.475.475,0,0,0,.066-.5l-.839-1.805.733-.687a.473.473,0,0,0-.039-.725L7.9,19.635a.468.468,0,0,0-.382-.086.472.472,0,0,0-.318.23L6.568,20.9a.484.484,0,0,0-.061.235v1.218h-.25v-1.7L7.433,17.06a.473.473,0,0,0-.113-.482.486.486,0,0,0-.48-.119l-1.859.581v-.7l1.208-1.927a.477.477,0,0,0,.041-.425l-.6-1.547V10.368l1.462-.338a.477.477,0,0,0,.358-.565l-.527-2.4.884-1.3,1.847.652a.464.464,0,0,0,.251.018l3.3-.66v1l-2.46,2.461a.46.46,0,0,0-.126.223l-.572,2.328a.476.476,0,0,0,.663.543l2.174-1.018H17.07l.607,1.211L15.126,17.3Z" fill="#7a074d"/>
      <path id="Path_3220" data-name="Path 3220" d="M13.039,4.033l1.512.427a.473.473,0,0,0,.129.018.479.479,0,0,0,.424-.26l1.5-2.964a.48.48,0,0,0,.012-.4.469.469,0,0,0-.3-.269L14.486.022A.474.474,0,0,0,13.9.307l-1.177,3.1a.477.477,0,0,0,.315.627M13.8,3.26l.836-2.2.869.267L14.432,3.439Z" fill="#7a074d"/>
      <path id="Path_3221" data-name="Path 3221" d="M4.554,7.546a.472.472,0,0,0,.052-.525L3.9,5.7a.483.483,0,0,0-.3-.237.471.471,0,0,0-.378.064L.214,7.505a.477.477,0,0,0-.192.542l.89,2.779a.474.474,0,0,0,.362.321.468.468,0,0,0,.091.009.475.475,0,0,0,.367-.174Zm-.936-.357L1.551,9.7,1.037,8.1l2.27-1.493Z" fill="#7a074d"/>
      <path id="Path_3222" data-name="Path 3222" d="M4.864,19.685a.467.467,0,0,0-.516.091L2.005,22a.474.474,0,0,0,.039.723L3.435,23.78a.479.479,0,0,0,.287.1.512.512,0,0,0,.105-.011.477.477,0,0,0,.319-.247l.953-1.87a.471.471,0,0,0,.051-.214V20.121a.473.473,0,0,0-.286-.436M4.2,21.226v.193l-.643,1.26L3.064,22.3Z" fill="#7a074d"/>
    </g>
  </g>
</svg>
