<svg id="Component_143_23" data-name="Component 143 – 23" xmlns="http://www.w3.org/2000/svg" width="24" height="32" viewBox="0 0 24 32">
  <defs>
    <style>
      .cls-1 {
        fill: #af0e6e;
      }

      .cls-2 {
        fill: #fff;
      }
    </style>
  </defs>
  <g id="Group_2497" data-name="Group 2497" transform="translate(-19 -145.954)">
    <path id="map-marker" class="cls-1" d="M10.767,31.354C1.686,18.189,0,16.838,0,12a12,12,0,0,1,24,0c0,4.838-1.686,6.189-10.767,19.354a1.5,1.5,0,0,1-2.467,0Z" transform="translate(19 145.954)"/>
  </g>
  <path id="accommodation" class="cls-2" d="M3.675,69.25A1.925,1.925,0,1,0,1.75,67.325,1.927,1.927,0,0,0,3.675,69.25Zm0-2.8a.875.875,0,1,1-.875.875A.876.876,0,0,1,3.675,66.45ZM11.55,65.4H6.65a.35.35,0,0,0-.35.35v4.2H1.05v-5.6A.35.35,0,0,0,.7,64H.35a.35.35,0,0,0-.35.35v7.7a.35.35,0,0,0,.35.35H.7a.35.35,0,0,0,.35-.35V71h11.9v1.05a.35.35,0,0,0,.35.35h.35a.35.35,0,0,0,.35-.35v-4.2A2.45,2.45,0,0,0,11.55,65.4Zm1.4,4.55H7.35v-3.5h4.2a1.4,1.4,0,0,1,1.4,1.4Z" transform="translate(5 -57.979)"/>
</svg>
