<svg xmlns="http://www.w3.org/2000/svg" width="23.5" height="31" viewBox="0 0 23.5 31">
  <defs>
    <style>
      .cls-1 {
        fill: #1066d6;
        stroke: #fff;
      }

      .cls-2 {
        fill: #fff;
      }
    </style>
  </defs>
  <g id="Group_2413" data-name="Group 2413" transform="translate(-325.276 -227.5)">
    <path id="map-marker" class="cls-1" d="M10.094,29.395C1.58,17.053,0,15.786,0,11.25a11.25,11.25,0,0,1,22.5,0c0,4.536-1.58,5.8-10.094,18.145a1.407,1.407,0,0,1-2.312,0Z" transform="translate(325.776 228)"/>
    <path id="calendar-alt" class="cls-2" d="M3.469,6.75H2.531a.282.282,0,0,1-.281-.281V5.531a.282.282,0,0,1,.281-.281h.938a.282.282,0,0,1,.281.281v.938A.282.282,0,0,1,3.469,6.75ZM6,6.469V5.531a.282.282,0,0,0-.281-.281H4.781a.282.282,0,0,0-.281.281v.938a.282.282,0,0,0,.281.281h.938A.282.282,0,0,0,6,6.469Zm2.25,0V5.531a.282.282,0,0,0-.281-.281H7.031a.282.282,0,0,0-.281.281v.938a.282.282,0,0,0,.281.281h.938A.282.282,0,0,0,8.25,6.469ZM6,8.719V7.781A.282.282,0,0,0,5.719,7.5H4.781a.282.282,0,0,0-.281.281v.938A.282.282,0,0,0,4.781,9h.938A.282.282,0,0,0,6,8.719Zm-2.25,0V7.781A.282.282,0,0,0,3.469,7.5H2.531a.282.282,0,0,0-.281.281v.938A.282.282,0,0,0,2.531,9h.938A.282.282,0,0,0,3.75,8.719Zm4.5,0V7.781A.282.282,0,0,0,7.969,7.5H7.031a.282.282,0,0,0-.281.281v.938A.282.282,0,0,0,7.031,9h.938A.282.282,0,0,0,8.25,8.719ZM10.5,2.625v8.25A1.125,1.125,0,0,1,9.375,12H1.125A1.125,1.125,0,0,1,0,10.875V2.625A1.125,1.125,0,0,1,1.125,1.5H2.25V.281A.282.282,0,0,1,2.531,0h.938A.282.282,0,0,1,3.75.281V1.5h3V.281A.282.282,0,0,1,7.031,0h.938A.282.282,0,0,1,8.25.281V1.5H9.375A1.125,1.125,0,0,1,10.5,2.625ZM9.375,10.734V3.75H1.125v6.984a.141.141,0,0,0,.141.141H9.234A.141.141,0,0,0,9.375,10.734Z" transform="translate(331.776 233)"/>
  </g>
</svg>
