<svg xmlns="http://www.w3.org/2000/svg" width="23.5" height="31" viewBox="0 0 23.5 31">
  <g id="Group_2489" data-name="Group 2489" transform="translate(-216.773 -210.672)">
    <path id="map-marker" d="M10.094,29.395C1.58,17.053,0,15.786,0,11.25a11.25,11.25,0,0,1,22.5,0c0,4.536-1.58,5.8-10.094,18.145a1.407,1.407,0,0,1-2.312,0Z" transform="translate(217.273 211.172)" fill="#432fb2" stroke="#fff" stroke-width="1"/>
    <path id="city" d="M4.659,7.332H3.9a.229.229,0,0,0-.229.229v.764a.229.229,0,0,0,.229.229h.764a.229.229,0,0,0,.229-.229V7.561A.229.229,0,0,0,4.659,7.332Zm0-3.666H3.9a.229.229,0,0,0-.229.229v.764a.229.229,0,0,0,.229.229h.764a.229.229,0,0,0,.229-.229V3.9A.229.229,0,0,0,4.659,3.666Zm-1.833,0H2.062a.229.229,0,0,0-.229.229v.764a.229.229,0,0,0,.229.229h.764a.229.229,0,0,0,.229-.229V3.9A.229.229,0,0,0,2.826,3.666Zm0,3.666H2.062a.229.229,0,0,0-.229.229v.764a.229.229,0,0,0,.229.229h.764a.229.229,0,0,0,.229-.229V7.561A.229.229,0,0,0,2.826,7.332Zm0-1.833H2.062a.229.229,0,0,0-.229.229v.764a.229.229,0,0,0,.229.229h.764a.229.229,0,0,0,.229-.229V5.728A.229.229,0,0,0,2.826,5.5Zm1.833,0H3.9a.229.229,0,0,0-.229.229v.764a.229.229,0,0,0,.229.229h.764a.229.229,0,0,0,.229-.229V5.728A.229.229,0,0,0,4.659,5.5Zm5.5,1.833H9.394a.229.229,0,0,0-.229.229v.764a.229.229,0,0,0,.229.229h.764a.229.229,0,0,0,.229-.229V7.561A.229.229,0,0,0,10.158,7.332Zm0-1.833H9.394a.229.229,0,0,0-.229.229v.764a.229.229,0,0,0,.229.229h.764a.229.229,0,0,0,.229-.229V5.728A.229.229,0,0,0,10.158,5.5Zm1.6-1.833H9.776V.458A.458.458,0,0,0,9.318,0H5.346a.458.458,0,0,0-.458.458V1.833H4.277V.306A.305.305,0,0,0,3.971,0H3.666a.305.305,0,0,0-.305.306V1.833H2.138V.306A.305.305,0,0,0,1.833,0H1.528a.305.305,0,0,0-.306.306V1.833H.458A.458.458,0,0,0,0,2.291V9.47a.305.305,0,0,0,.306.306H.611A.305.305,0,0,0,.916,9.47V2.749H5.8V.916H8.86V4.582H11.3V9.47a.305.305,0,0,0,.306.306h.306a.305.305,0,0,0,.306-.306V4.124A.458.458,0,0,0,11.762,3.666ZM7.714,1.833H6.95a.229.229,0,0,0-.229.229v.764a.229.229,0,0,0,.229.229h.764a.229.229,0,0,0,.229-.229V2.062A.229.229,0,0,0,7.714,1.833Zm0,3.666H6.95a.229.229,0,0,0-.229.229v.764a.229.229,0,0,0,.229.229h.764a.229.229,0,0,0,.229-.229V5.728A.229.229,0,0,0,7.714,5.5Zm0-1.833H6.95a.229.229,0,0,0-.229.229v.764a.229.229,0,0,0,.229.229h.764a.229.229,0,0,0,.229-.229V3.9A.229.229,0,0,0,7.714,3.666Z" transform="translate(222.398 216.396)" fill="#fff"/>
  </g>
</svg>
