<svg xmlns="http://www.w3.org/2000/svg" width="23.5" height="31" viewBox="0 0 23.5 31">
  <defs>
    <style>
      .cls-1 {
        fill: #700e57;
        stroke: #fff;
      }

      .cls-2 {
        fill: #fff;
      }
    </style>
  </defs>
  <g id="Group_2411" data-name="Group 2411" transform="translate(-19 -8)">
    <path id="map-marker" class="cls-1" d="M10.094,29.395C1.58,17.053,0,15.786,0,11.25a11.25,11.25,0,0,1,22.5,0c0,4.536-1.58,5.8-10.094,18.145a1.407,1.407,0,0,1-2.312,0Z" transform="translate(19.5 8.5)"/>
    <path id="walking" class="cls-2" d="M2.172,8.148a.008.008,0,0,1,0,0L1.692,9.338a.909.909,0,0,1-.209.314L.115,11.023a.561.561,0,0,0,.4.958.553.553,0,0,0,.4-.164l1.368-1.371a2.049,2.049,0,0,0,.454-.691l.316-.79L2.2,8.181Zm2.647-5.9A1.125,1.125,0,1,0,3.7,1.125,1.123,1.123,0,0,0,4.819,2.249Zm2.453,4.1-.686-.677a.193.193,0,0,1-.047-.075l-.3-.909A2.461,2.461,0,0,0,3.9,3a5.307,5.307,0,0,0-2.242.609A2.155,2.155,0,0,0,.527,4.657L.19,5.386a.562.562,0,0,0,1.019.473l.328-.712a1.024,1.024,0,0,1,.534-.492c.508-.2.775-.316,1.038-.4L2.645,6.11a1.372,1.372,0,0,0,.349,1.279L4.845,9.1a.934.934,0,0,1,.276.478l.457,1.987a.56.56,0,1,0,1.092-.253L6.213,9.326A2.068,2.068,0,0,0,5.6,8.275L4.344,7.113l.614-2.455c.173.227.176.3.511,1.3a1.342,1.342,0,0,0,.323.52l.686.679a.567.567,0,0,0,.794-.808Z" transform="translate(27.051 14.644)"/>
  </g>
</svg>
