<svg xmlns="http://www.w3.org/2000/svg" width="23.5" height="31" viewBox="0 0 23.5 31">
  <defs>
    <style>
      .cls-1 {
        fill: #187776;
        stroke: #fff;
      }

      .cls-2 {
        fill: #fff;
      }
    </style>
  </defs>
  <g id="Group_2409" data-name="Group 2409" transform="translate(-19 -5.5)">
    <path id="map-marker" class="cls-1" d="M10.094,29.395C1.58,17.053,0,15.786,0,11.25a11.25,11.25,0,0,1,22.5,0c0,4.536-1.58,5.8-10.094,18.145a1.407,1.407,0,0,1-2.312,0Z" transform="translate(19.5 6)"/>
    <path id="camera" class="cls-2" d="M8.032,34.625h2.843v6.75H1.125v-6.75H3.968l.562-1.5H7.472ZM7.6,32H4.53a1.123,1.123,0,0,0-1.052.729l-.291.771H1.125A1.125,1.125,0,0,0,0,34.625v6.75A1.125,1.125,0,0,0,1.125,42.5h9.75A1.125,1.125,0,0,0,12,41.375v-6.75A1.125,1.125,0,0,0,10.875,33.5H8.813l-.335-.891A.932.932,0,0,0,7.6,32ZM6,40.813A2.812,2.812,0,1,1,8.813,38,2.815,2.815,0,0,1,6,40.813Zm0-4.5A1.688,1.688,0,1,0,7.688,38,1.689,1.689,0,0,0,6,36.313Z" transform="translate(25 -20.816)"/>
  </g>
</svg>
