<svg xmlns="http://www.w3.org/2000/svg" width="23.131" height="30.508" viewBox="0 0 23.131 30.508">
  <defs>
    <style>
      .cls-1 {
        fill: #bb2684;
        stroke: #fff;
      }

      .cls-2 {
        fill: #fff;
      }
    </style>
  </defs>
  <g id="Group_5601" data-name="Group 5601" transform="translate(20900.5 14165.609)">
    <g id="Group_5595" data-name="Group 5595" transform="translate(-20900 -14165.109)">
      <g id="Group_2497" data-name="Group 2497" transform="translate(-19 -145.954)">
        <path id="map-marker" class="cls-1" d="M9.928,28.912C1.554,16.773,0,15.527,0,11.065a11.065,11.065,0,0,1,22.131,0c0,4.461-1.554,5.707-9.928,17.847a1.384,1.384,0,0,1-2.274,0Z" transform="translate(19 145.954)"/>
      </g>
    </g>
    <path id="info" class="cls-2" d="M19.817,13.323a1.895,1.895,0,1,1-1.895,1.895A1.895,1.895,0,0,1,19.817,13.323Zm2.526,11.459a.541.541,0,0,1-.541.541h-3.97a.541.541,0,0,1-.541-.541V23.7a.541.541,0,0,1,.541-.541h.541V20.27h-.541a.541.541,0,0,1-.541-.541V18.646a.541.541,0,0,1,.541-.541h2.887a.541.541,0,0,1,.541.541v4.511H21.8a.541.541,0,0,1,.541.541Z" transform="translate(-20908.752 -14174.14)"/>
  </g>
</svg>
