<svg id="Component_139" data-name="Component 139" xmlns="http://www.w3.org/2000/svg" width="24" height="32" viewBox="0 0 24 32">
  <defs>
    <style>
      .cls-1 {
        fill: #ca5c2e;
      }

      .cls-2 {
        fill: #fff;
      }
    </style>
  </defs>
  <g id="Group_2497" data-name="Group 2497" transform="translate(-19 -145.954)">
    <path id="map-marker" class="cls-1" d="M10.767,31.354C1.686,18.189,0,16.838,0,12a12,12,0,0,1,24,0c0,4.838-1.686,6.189-10.767,19.354a1.5,1.5,0,0,1-2.467,0Z" transform="translate(19 145.954)"/>
  </g>
  <g id="Group_5593" data-name="Group 5593" transform="translate(-40.199 11.5)">
    <path id="Icon_awesome-star" data-name="Icon awesome-star" class="cls-2" d="M7.244.432,5.657,3.649l-3.55.518a.778.778,0,0,0-.43,1.327L4.245,8l-.607,3.536a.777.777,0,0,0,1.127.819l3.176-1.669,3.176,1.669a.778.778,0,0,0,1.127-.819L11.637,8l2.568-2.5a.778.778,0,0,0-.43-1.327l-3.55-.518L8.639.432a.778.778,0,0,0-1.395,0Z" transform="translate(44.259 -7.22)"/>
  </g>
</svg>
