<svg id="Component_143_28" data-name="Component 143 – 28" xmlns="http://www.w3.org/2000/svg" width="24" height="32" viewBox="0 0 24 32">
  <defs>
    <style>
      .cls-1 {
        fill: #432fb2;
      }

      .cls-2 {
        fill: #fff;
      }
    </style>
  </defs>
  <g id="Group_2497" data-name="Group 2497" transform="translate(-19 -145.954)">
    <path id="map-marker" class="cls-1" d="M10.767,31.354C1.686,18.189,0,16.838,0,12a12,12,0,0,1,24,0c0,4.838-1.686,6.189-10.767,19.354a1.5,1.5,0,0,1-2.467,0Z" transform="translate(19 145.954)"/>
  </g>
  <path id="Icon_awesome-shopping-bag" data-name="Icon awesome-shopping-bag" class="cls-2" d="M9.429,4.286V3.429a3.429,3.429,0,0,0-6.857,0v.857H0v7.286a2.143,2.143,0,0,0,2.143,2.143H9.857A2.143,2.143,0,0,0,12,11.571V4.286ZM4.286,3.429a1.714,1.714,0,0,1,3.429,0v.857H4.286ZM8.571,6.643A.643.643,0,1,1,9.214,6,.643.643,0,0,1,8.571,6.643Zm-5.143,0A.643.643,0,1,1,4.071,6,.643.643,0,0,1,3.429,6.643Z" transform="translate(6 3.856)"/>
</svg>
