<svg xmlns="http://www.w3.org/2000/svg" width="23.131" height="30.507" viewBox="0 0 23.131 30.507">
  <defs>
    <style>
      .cls-1 {
        fill: #700e57;
        stroke: #fff;
      }
    </style>
  </defs>
  <path id="Exclusion_3" data-name="Exclusion 3" class="cls-1" d="M11.066,29.507a1.367,1.367,0,0,1-1.138-.595c-1.494-2.166-2.751-3.957-3.861-5.538C1.045,16.22,0,14.731,0,11.066A11.065,11.065,0,0,1,18.89,3.241a10.993,10.993,0,0,1,3.241,7.824c0,3.665-1.045,5.155-6.068,12.31-1.109,1.58-2.366,3.37-3.86,5.537A1.364,1.364,0,0,1,11.066,29.507Zm0-22.754a4,4,0,1,0,4,4A4.005,4.005,0,0,0,11.066,6.754Z" transform="translate(0.5 0.5)"/>
</svg>
