<svg id="Component_143_25" data-name="Component 143 – 25" xmlns="http://www.w3.org/2000/svg" width="24" height="32" viewBox="0 0 24 32">
  <defs>
    <style>
      .cls-1 {
        fill: #700e57;
      }

      .cls-2 {
        fill: #fff;
      }
    </style>
  </defs>
  <g id="Group_2497" data-name="Group 2497" transform="translate(-19 -145.954)">
    <path id="map-marker" class="cls-1" d="M10.767,31.354C1.686,18.189,0,16.838,0,12a12,12,0,0,1,24,0c0,4.838-1.686,6.189-10.767,19.354a1.5,1.5,0,0,1-2.467,0Z" transform="translate(19 145.954)"/>
  </g>
  <path id="Icon_awesome-walking" data-name="Icon awesome-walking" class="cls-2" d="M4.875,2.25A1.125,1.125,0,1,0,3.751,1.125,1.125,1.125,0,0,0,4.875,2.25ZM7.09,5.744l-.546-.277-.227-.689A2.555,2.555,0,0,0,3.922,3a5.153,5.153,0,0,0-2.186.591A2.235,2.235,0,0,0,.571,4.673l-.157.319A.752.752,0,0,0,.746,6a.74.74,0,0,0,1-.335L1.9,5.343a.745.745,0,0,1,.387-.361l.628-.253L2.558,6.151a1.505,1.505,0,0,0,.349,1.378l1.4,1.533a1.512,1.512,0,0,1,.349.649l.429,1.718a.75.75,0,1,0,1.455-.363L6.024,8.98a1.5,1.5,0,0,0-.349-.649L4.608,7.166l.4-1.61.129.387a1.5,1.5,0,0,0,.743.867l.546.277a.74.74,0,0,0,1-.335A.759.759,0,0,0,7.09,5.744Zm-5.364,3.3a1.454,1.454,0,0,1-.333.5L.221,10.719A.75.75,0,0,0,1.281,11.78l1.392-1.392a1.523,1.523,0,0,0,.333-.5l.316-.792c-1.3-1.413-.907-.98-1.111-1.258L1.726,9.041Z" transform="translate(8.248 4)"/>
</svg>
