<svg xmlns="http://www.w3.org/2000/svg" width="23.5" height="31" viewBox="0 0 23.5 31">
  <defs>
    <style>
      .cls-1 {
        fill: #432fb2;
        stroke: #fff;
      }

      .cls-2 {
        fill: #fff;
      }
    </style>
  </defs>
  <g id="Group_2417" data-name="Group 2417" transform="translate(-909.5 -225.505)">
    <g id="Group_2243" data-name="Group 2243" transform="translate(225.893 -369.01)">
      <path id="map-marker" class="cls-1" d="M10.094,29.395C1.58,17.053,0,15.786,0,11.25a11.25,11.25,0,0,1,22.5,0c0,4.536-1.58,5.8-10.094,18.145a1.407,1.407,0,0,1-2.312,0Z" transform="translate(684.107 595.015)"/>
      <path id="theme-shopping" class="cls-2" d="M8.25,3a3,3,0,0,0-6,0H0v7.125A1.875,1.875,0,0,0,1.875,12h6.75A1.875,1.875,0,0,0,10.5,10.125V3Zm-3-1.875A1.877,1.877,0,0,1,7.125,3H3.375A1.877,1.877,0,0,1,5.25,1.125Zm4.125,9a.751.751,0,0,1-.75.75H1.875a.751.751,0,0,1-.75-.75v-6H2.25v.938a.563.563,0,0,0,1.125,0V4.125h3.75v.938a.563.563,0,0,0,1.125,0V4.125H9.375Z" transform="translate(690.229 600)"/>
    </g>
  </g>
</svg>
