<svg xmlns="http://www.w3.org/2000/svg" width="23.131" height="30.508" viewBox="0 0 23.131 30.508">
  <defs>
    <style>
      .cls-1 {
        fill: #ca5c2e;
        stroke: #fff;
      }

      .cls-2 {
        fill: #fff;
      }
    </style>
  </defs>
  <g id="Group_2496" data-name="Group 2496" transform="translate(-18.5 -144.962)">
    <path id="map-marker" class="cls-1" d="M9.928,28.912C1.554,16.773,0,15.527,0,11.065a11.065,11.065,0,0,1,22.131,0c0,4.461-1.554,5.707-9.928,17.847a1.384,1.384,0,0,1-2.274,0Z" transform="translate(19 145.462)"/>
    <path id="Icon_awesome-star" data-name="Icon awesome-star" class="cls-2" d="M7.244.432,5.657,3.649l-3.55.518a.778.778,0,0,0-.43,1.327L4.245,8l-.607,3.536a.777.777,0,0,0,1.127.819l3.176-1.669,3.176,1.669a.778.778,0,0,0,1.127-.819L11.637,8l2.568-2.5a.778.778,0,0,0-.43-1.327l-3.55-.518L8.639.432a.778.778,0,0,0-1.395,0Z" transform="translate(22.124 149.963)"/>
  </g>
</svg>
