<svg xmlns="http://www.w3.org/2000/svg" width="23.5" height="31" viewBox="0 0 23.5 31">
  <g id="Group_2491" data-name="Group 2491" transform="translate(0.5 0.5)">
    <path id="map-marker" d="M10.094,29.395C1.58,17.053,0,15.786,0,11.25a11.25,11.25,0,0,1,22.5,0c0,4.536-1.58,5.8-10.094,18.145a1.407,1.407,0,0,1-2.312,0Z" fill="#1066d6" stroke="#fff" stroke-width="1"/>
    <path id="boat" d="M9.736,7.618l1.489-1.26a.964.964,0,0,0-.307-1.647L9.8,4.325V1.767a.482.482,0,0,0-.482-.482H8.354v-.8A.482.482,0,0,0,7.872,0H4.98A.482.482,0,0,0,4.5.482v.8H3.534a.482.482,0,0,0-.482.482V4.325l-1.119.387a.964.964,0,0,0-.307,1.647l1.489,1.26a2.921,2.921,0,0,1-2.875,1.7A.241.241,0,0,0,0,9.558v.482a.241.241,0,0,0,.241.241A3.883,3.883,0,0,0,3.4,8.946,1.609,1.609,0,0,0,4.98,10.281H7.872A1.609,1.609,0,0,0,9.455,8.946a3.883,3.883,0,0,0,3.156,1.335.241.241,0,0,0,.241-.241V9.558a.241.241,0,0,0-.241-.241A2.921,2.921,0,0,1,9.736,7.618ZM5.3.8H7.55v.482H5.3ZM4.016,2.249H8.835V3.991L6.741,3.266a.964.964,0,0,0-.631,0l-2.094.725Zm4.5,6.426a.643.643,0,0,1-.643.643H4.98a.643.643,0,0,1-.643-.643V7.39L2.249,5.623,6.426,4.177,10.6,5.623,8.514,7.39Z" transform="translate(4.891 4.719)" fill="#fff"/>
  </g>
</svg>
