<svg xmlns="http://www.w3.org/2000/svg" width="23.5" height="31" viewBox="0 0 23.5 31">
  <defs>
    <style>
      .cls-1 {
        fill: #af0e6e;
        stroke: #fff;
      }

      .cls-2 {
        fill: #fff;
      }
    </style>
  </defs>
  <g id="Group_5617" data-name="Group 5617" transform="translate(-20.5 -11)">
    <path id="map-marker" class="cls-1" d="M10.094,29.395C1.58,17.053,0,15.786,0,11.25a11.25,11.25,0,0,1,22.5,0c0,4.536-1.58,5.8-10.094,18.145a1.407,1.407,0,0,1-2.312,0Z" transform="translate(21 11.5)"/>
    <path id="accommodation" class="cls-2" d="M3.15,68.5A1.65,1.65,0,1,0,1.5,66.85,1.652,1.652,0,0,0,3.15,68.5Zm0-2.4a.75.75,0,1,1-.75.75A.751.751,0,0,1,3.15,66.1Zm6.75-.9H5.7a.3.3,0,0,0-.3.3v3.6H.9V64.3A.3.3,0,0,0,.6,64H.3a.3.3,0,0,0-.3.3v6.6a.3.3,0,0,0,.3.3H.6a.3.3,0,0,0,.3-.3V70H11.1v.9a.3.3,0,0,0,.3.3h.3a.3.3,0,0,0,.3-.3V67.3A2.1,2.1,0,0,0,9.9,65.2Zm1.2,3.9H6.3v-3H9.9a1.2,1.2,0,0,1,1.2,1.2Z" transform="translate(26 -45.5)"/>
  </g>
</svg>
