<svg xmlns="http://www.w3.org/2000/svg" width="23.131" height="30.508" viewBox="0 0 23.131 30.508">
  <g id="Group_2497" data-name="Group 2497" transform="translate(-18.5 -144.962)">
    <path id="map-marker" d="M9.928,28.912C1.554,16.773,0,15.527,0,11.065a11.065,11.065,0,0,1,22.131,0c0,4.461-1.554,5.707-9.928,17.847a1.384,1.384,0,0,1-2.274,0Z" transform="translate(19 145.462)" fill="#c31613" stroke="#fff" stroke-width="1"/>
    <path id="sightseeing" d="M12.484,40.686c-.084-3.166-1.49-3.664-1.551-5.953a.788.788,0,0,0-.779-.781h0V32.781A.781.781,0,0,0,9.369,32H7.417a.781.781,0,0,0-.781.781v1.171H5.856V32.781A.781.781,0,0,0,5.075,32H3.123a.781.781,0,0,0-.781.781v1.171h0a.788.788,0,0,0-.779.781C1.5,37.022.092,37.52.008,40.686L0,41.76a1.171,1.171,0,0,0,1.171,1.171H4.294A1.171,1.171,0,0,0,5.465,41.76V38.246H7.027V41.76A1.171,1.171,0,0,0,8.2,42.931h3.123a1.171,1.171,0,0,0,1.171-1.171ZM7.808,33.171H8.979v.781H7.808Zm-4.294,0H4.685v.781H3.513Zm.781,8.588-3.123.009.008-1.051a6.7,6.7,0,0,1,.766-3.039,7.069,7.069,0,0,0,.766-2.556H4.294Zm1.171-4.685V35.123H7.027v1.952ZM8.2,41.76V35.123H9.781a7.068,7.068,0,0,0,.766,2.556,6.674,6.674,0,0,1,.765,3.016l.008,1.065Z" transform="translate(23.82 117.285)" fill="#fff"/>
  </g>
</svg>
