<svg xmlns="http://www.w3.org/2000/svg" width="12" height="10.222" viewBox="0 0 12 10.222">
  <path id="theme-food-and-drink" d="M4.291,9.259H3.332V6.954A2.888,2.888,0,0,0,5.716,3.842L5.4.286A.317.317,0,0,0,5.084,0H.623a.316.316,0,0,0-.313.29L-.01,3.842A2.888,2.888,0,0,0,2.374,6.954V9.259H1.416a.8.8,0,0,0-.8.8.16.16,0,0,0,.16.16H4.93a.16.16,0,0,0,.16-.16A.8.8,0,0,0,4.291,9.259ZM4.5.954l.143,1.6H1.068l.143-1.6ZM.945,3.927l.037-.418H4.724l.038.418a1.926,1.926,0,0,1-1.649,2.1H2.594a1.926,1.926,0,0,1-1.648-2.1ZM10.433,0a1.428,1.428,0,0,0-.665.156,1.5,1.5,0,0,0-1.33,0A1.422,1.422,0,0,0,7.774,0,1.181,1.181,0,0,0,6.54.91a16.758,16.758,0,0,0-.311,2.23A2.58,2.58,0,0,0,7.622,5.47l-.2,3.607A1.082,1.082,0,0,0,8.5,10.217H9.7a1.082,1.082,0,0,0,1.086-1.14l-.2-3.609A2.577,2.577,0,0,0,11.978,3.14,16.856,16.856,0,0,0,11.667.91,1.182,1.182,0,0,0,10.433,0ZM9.588,4.809l.244,4.322a.125.125,0,0,1-.13.128H8.5a.125.125,0,0,1-.13-.128l.244-4.322A1.664,1.664,0,0,1,7.187,3.14a17.506,17.506,0,0,1,.3-2.05c.032-.184.565-.18.589,0v2.27c.018.212.563.216.589,0L8.808,1.09c.032-.18.557-.18.589,0l.148,2.278c.026.212.571.208.589,0V1.094c.024-.184.557-.188.589,0a17.506,17.506,0,0,1,.3,2.05A1.661,1.661,0,0,1,9.588,4.809ZM11.978,3.14Z" transform="translate(0.022 0.005)" fill="#fff"/>
</svg>
