<svg xmlns="http://www.w3.org/2000/svg" width="23.5" height="31" viewBox="0 0 23.5 31">
  <defs>
    <style>
      .cls-1 {
        fill: #c31600;
        stroke: #fff;
      }

      .cls-2 {
        fill: #fff;
      }
    </style>
  </defs>
  <g id="Group_2415" data-name="Group 2415" transform="translate(-909.836 -435.49)">
    <g id="Group_2244" data-name="Group 2244" transform="translate(622.236 -159.01)">
      <path id="map-marker" class="cls-1" d="M10.094,29.395C1.58,17.053,0,15.786,0,11.25a11.25,11.25,0,0,1,22.5,0c0,4.536-1.58,5.8-10.094,18.145a1.407,1.407,0,0,1-2.312,0Z" transform="translate(288.1 595)"/>
      <path id="theme-food-and-drink" class="cls-2" d="M4.65,10.031H3.612v-2.5A3.129,3.129,0,0,0,6.194,4.162L5.849.31A.343.343,0,0,0,5.51,0H.676A.343.343,0,0,0,.337.31L-.008,4.162A3.129,3.129,0,0,0,2.574,7.534v2.5H1.536a.865.865,0,0,0-.865.865.173.173,0,0,0,.173.173h4.5a.173.173,0,0,0,.173-.173A.865.865,0,0,0,4.65,10.031Zm.222-9,.155,1.73H1.159l.155-1.73ZM1.026,4.255l.04-.453H5.12l.041.453A2.087,2.087,0,0,1,3.374,6.533H2.812A2.087,2.087,0,0,1,1.026,4.255ZM11.3,0a1.547,1.547,0,0,0-.72.169,1.622,1.622,0,0,0-1.44,0A1.541,1.541,0,0,0,8.423,0,1.279,1.279,0,0,0,7.087.986,18.155,18.155,0,0,0,6.749,3.4a2.8,2.8,0,0,0,1.51,2.524L8.038,9.834a1.173,1.173,0,0,0,1.177,1.235h1.3a1.173,1.173,0,0,0,1.177-1.235l-.221-3.91A2.792,2.792,0,0,0,12.978,3.4,18.261,18.261,0,0,0,12.641.986,1.28,1.28,0,0,0,11.3,0ZM10.389,5.21l.264,4.682a.136.136,0,0,1-.141.138h-1.3a.136.136,0,0,1-.141-.138L9.338,5.21A1.8,1.8,0,0,1,7.787,3.4a18.965,18.965,0,0,1,.32-2.221c.035-.2.612-.195.638,0V3.644c.019.229.61.234.638,0l.16-2.468c.035-.195.6-.195.638,0l.16,2.468c.028.229.619.225.638,0V1.185c.026-.2.6-.2.638,0a18.964,18.964,0,0,1,.32,2.221A1.8,1.8,0,0,1,10.389,5.21ZM12.978,3.4Z" transform="translate(293.122 601.005)"/>
    </g>
  </g>
</svg>
