<svg id="Component_143_26" data-name="Component 143 – 26" xmlns="http://www.w3.org/2000/svg" width="24" height="32" viewBox="0 0 24 32">
  <defs>
    <style>
      .cls-1 {
        fill: #534edd;
      }

      .cls-2 {
        fill: #fff;
      }
    </style>
  </defs>
  <g id="Group_2497" data-name="Group 2497" transform="translate(-19 -145.954)">
    <path id="map-marker" class="cls-1" d="M10.767,31.354C1.686,18.189,0,16.838,0,12a12,12,0,0,1,24,0c0,4.838-1.686,6.189-10.767,19.354a1.5,1.5,0,0,1-2.467,0Z" transform="translate(19 145.954)"/>
  </g>
  <path id="calendar-alt" class="cls-2" d="M3.964,7.714H2.893a.322.322,0,0,1-.321-.321V6.321A.322.322,0,0,1,2.893,6H3.964a.322.322,0,0,1,.321.321V7.393A.322.322,0,0,1,3.964,7.714Zm2.893-.321V6.321A.322.322,0,0,0,6.536,6H5.464a.322.322,0,0,0-.321.321V7.393a.322.322,0,0,0,.321.321H6.536A.322.322,0,0,0,6.857,7.393Zm2.571,0V6.321A.322.322,0,0,0,9.107,6H8.036a.322.322,0,0,0-.321.321V7.393a.322.322,0,0,0,.321.321H9.107A.322.322,0,0,0,9.429,7.393ZM6.857,9.964V8.893a.322.322,0,0,0-.321-.321H5.464a.322.322,0,0,0-.321.321V9.964a.322.322,0,0,0,.321.321H6.536A.322.322,0,0,0,6.857,9.964Zm-2.571,0V8.893a.322.322,0,0,0-.321-.321H2.893a.322.322,0,0,0-.321.321V9.964a.322.322,0,0,0,.321.321H3.964A.322.322,0,0,0,4.286,9.964Zm5.143,0V8.893a.322.322,0,0,0-.321-.321H8.036a.322.322,0,0,0-.321.321V9.964a.322.322,0,0,0,.321.321H9.107A.322.322,0,0,0,9.429,9.964ZM12,3v9.429a1.286,1.286,0,0,1-1.286,1.286H1.286A1.286,1.286,0,0,1,0,12.429V3A1.286,1.286,0,0,1,1.286,1.714H2.571V.321A.322.322,0,0,1,2.893,0H3.964a.322.322,0,0,1,.321.321V1.714H7.714V.321A.322.322,0,0,1,8.036,0H9.107a.322.322,0,0,1,.321.321V1.714h1.286A1.286,1.286,0,0,1,12,3Zm-1.286,9.268V4.286H1.286v7.982a.161.161,0,0,0,.161.161h9.107A.161.161,0,0,0,10.714,12.268Z" transform="translate(6 3.61)"/>
</svg>
