<svg xmlns="http://www.w3.org/2000/svg" width="368.391" height="207.75" viewBox="0 0 368.391 207.75"><defs><style>.a{fill:#28c7c4;}.b{fill:#efefef;opacity:0.5;}.c{fill:#3a2495;}.d{fill:#24175d;}.e{fill:#9181d6;}.f,.i{fill:#fff;}.g{fill:#c9c0ea;}.h{fill:#60c4c3;}.j{fill:#af006e;font-size:48px;font-family:SourceSansPro-Semibold, Source Sans Pro;font-weight:600;}.k,.l{stroke:none;}.l{fill:#a0226c;}</style></defs><g transform="translate(-535.805 -242.919)"><g transform="translate(480.362 323.432) rotate(-3)"><g transform="translate(55.519)"><path class="a" d="M1612.2,617.948c18.35-5.4,52.033,3.12,54.654-14.714,3.957-26.93,59.255-24.991,110.228-11.843,31.168,8.038,260.287,83.573,143.861,89.7-43.217.254-81.687-1.29-112.128-.678-94.314,1.9,26.838-17.056-67.347-15.537-10.583.171-22.569.241-51.709-.452-20.876-.5-35.385,2.581-58.879,2.771C1563.556,667.739,1595.886,622.745,1612.2,617.948Z" transform="translate(-1589.973 -582.05)"/></g></g><g transform="translate(625.075 242.919)"><ellipse class="b" cx="78.086" cy="9.138" rx="78.086" ry="9.138" transform="translate(0 189.473)"/><path class="c" d="M1589.217,607.124c-.394,1.665,1.175,3.8.8,4.884-.067.155.191.843.085,1.131l-7.726,5.09c-.817,2.829,4.924,8.3,4.447,9.738-.254.752,2.6,2.685,2.348,3.465-.376,1.953-2.323,2.74-2.748,3.843-.016.1-3.405,4.04-3.439,4.143-.254.8-3.646.916-3.905,1.715-.549,1.64-17.44,3.126-17.456,3.091-4.163-.909-13.868-10.623-12.341-15.661-.046-.1-.876-4-.893-4.107-.229-.6,1.726-22.545-9.751-22.1-24.49-.9-49.41,23.561-47.308,48.866,4.977,59.918,16.485,78.005,16.485,78.005l9.369-.073s1.734-5.574-.272-15.868a98.761,98.761,0,0,0,11.2,1.041l.2,13.771s14.308,1.665,16.388-.307c.4-.381.927-14.617.927-14.617l26.45-.818,5.156,15.168s9.244.586,13.219-.607C1593.821,725.9,1617.78,635.024,1589.217,607.124Z" transform="translate(-1462.437 -526.518)"/><path class="d" d="M1534.792,613.481c-.635-.1-1.135-.183-1.628-.289a24.35,24.35,0,0,1-4.575-1.187,7.772,7.772,0,0,1-2.883-1.795,8.674,8.674,0,0,0-2.6-1.716c-2.187-1.012-4.356-2.04-6.569-3.022a6.772,6.772,0,0,1-3.2-2.857,31.015,31.015,0,0,1-3.644-9.11,14.082,14.082,0,0,1,.037-6.354,4.649,4.649,0,0,1,1.709-2.683,20.616,20.616,0,0,1,5.719-3.278,5.524,5.524,0,0,1,3.528-.126c1.424.473,2.847.977,4.29,1.434l.028,1.492a31,31,0,0,0,1.291,8.655,14.415,14.415,0,0,0,1.149,2.751,76.168,76.168,0,0,1,6.623,15.728c.2.754.445,1.506.717,2.364" transform="translate(-1458.561 -531.109)"/><path class="d" d="M1579.458,610.885a98.031,98.031,0,0,1,3.28-10.564c.9-2.289,1.884-4.5,2.969-6.674a22.483,22.483,0,0,0,2.234-8.077c.126-1.563.151-3.146.17-4.706.031-1.212-.023-1.211,1.047-1.61l2.729-1.019a5.457,5.457,0,0,1,4.533.3c1.5.8,3.041,1.625,4.518,2.447a4.521,4.521,0,0,1,2.075,2.99,16.051,16.051,0,0,1,.5,4.05c.026,1.409,0,2.825-.076,4.243a5.181,5.181,0,0,1-.342,1.558,21.531,21.531,0,0,1-3.623,6.634,6.588,6.588,0,0,1-2.3,1.807c-1.555.786-3.136,1.573-4.671,2.358-.467.237-.954.488-1.422.7a13.867,13.867,0,0,0-3.992,2.694,6.619,6.619,0,0,1-2.465,1.485c-1.425.533-2.858,1-4.318,1.465a5.016,5.016,0,0,1-.809-.045" transform="translate(-1443.586 -531.741)"/><path class="e" d="M1532.646,572.269c-2.813-.282-4.893-.528-7.634-1a70.442,70.442,0,0,1-17.512-5.006c-1.756-.777-3.5-1.563-5.223-2.417a6.817,6.817,0,0,1-3.2-3.2c-1.156-2.263-2.348-4.507-3.5-6.771a40.432,40.432,0,0,0-4.15-6.691,16.81,16.81,0,0,0-4.667-4.312c-.078-.074-.146-.178-.223-.252v-.047a12.1,12.1,0,0,1-1.293.023l-.037.049-1.334.024.029,1.524-.029.018.034,1.818a2.315,2.315,0,0,1,.493.362,25.114,25.114,0,0,1,3.334,4.774,58.939,58.939,0,0,1,2.917,6.933c.731,1.947,1.546,3.835,2.4,5.723.943,2.058,2.045,4,2.969,6.047a11.676,11.676,0,0,0,3.219,4.2,35.446,35.446,0,0,0,6.744,4.387c3.545,1.752,7.126,3.38,10.709,5.095a37.27,37.27,0,0,0,5.911,2.07,70.816,70.816,0,0,1,8.228,2.808c.632.245,1.34.384,2.076.59a38.91,38.91,0,0,1,2.4-8.478,38.076,38.076,0,0,1,4.295-7.581C1536.986,572.712,1535.164,572.518,1532.646,572.269Z" transform="translate(-1464.002 -539.281)"/><path class="e" d="M1633.418,541.787l-.036-1.926-1.241,0c0-.007,0,0-.006,0l-1.248.023c-.279.261-.576.53-.865.754a16.33,16.33,0,0,0-4.224,4.345,49.451,49.451,0,0,0-4.27,7.467c-1.065,2.223-2.131,4.456-3.149,6.68a8.7,8.7,0,0,1-3.572,3.849,29.7,29.7,0,0,1-5.177,2.366c-3.354,1.234-6.869,2-10.3,2.953a100.953,100.953,0,0,1-18.013,3.445c-.6.049-1.153.1-1.888.186a37.508,37.508,0,0,1,4.581,7.37,40.3,40.3,0,0,1,2.7,8.255,5.669,5.669,0,0,0,.762-.194c2.973-.9,5.964-1.841,8.917-2.738a58.19,58.19,0,0,0,11.966-5.14,54.36,54.36,0,0,0,9.218-5.847,15.87,15.87,0,0,0,5.021-6.78c.631-1.7,1.451-3.365,2.262-5.036a26.954,26.954,0,0,0,1.783-4.375c.267-.885.553-1.807.83-2.692,1.369-4.216,3.044-8.286,5.961-11.689l.018-.028-.023-1.249Z" transform="translate(-1443.594 -539.861)"/><path class="d" d="M1579.569,597.4c.113.263.17.414.22.556l8.145,14.239c.166.58-2.925,11.937-3.767,14.868-.291,1-.562,2.01-.853,3.045a.353.353,0,0,1-.183-.087c-1.439-1.382-4.172-1.983-6.009-2.161a5.667,5.667,0,0,1-2.894-1.029c-2.329-1.691-4.982-3.467-7.72-4.007a24,24,0,0,0-12.972.474c-2.728.755-5.336,2.833-7.578,4.753a.931.931,0,0,1-.623.216,20.612,20.612,0,0,0-4.251.7,7.035,7.035,0,0,0-3.18,2.178c-.052.055-.126.117-.2.209a1.213,1.213,0,0,1-.132-.232c-1.487-3.942-2.987-6-4.268-10.078a1.705,1.705,0,0,1-.108-.407c-.364-1.084-5.525-16.817-5.2-17.966,0,0,8.944-16.107,9.013-16.351,0,0,11.592,21.12,11.539,21.12.053,0,9.417-15.623,9.417-15.623l12.626,21.614c0,.061,8.985-16.069,8.985-16.069" transform="translate(-1454.583 -529.938)"/><g transform="translate(82.743 90.881)"><path class="e" d="M1559.673,644.076c-2.917-.133-5.781-.2-8.672-.47a10.608,10.608,0,0,1-7.517-4.251,28.027,28.027,0,0,0-2.427-2.79,16.582,16.582,0,0,1-4.513-7.649c-.24-.814-.517-1.587-.772-2.377a2.546,2.546,0,0,1-.076-.949,6.607,6.607,0,0,1,.154-.74,2.979,2.979,0,0,1,1.51-2.289,7.2,7.2,0,0,1,3.151-1.041c.625-.068,2.4-.1,3.027-.178a1.221,1.221,0,0,0,.615-.266,15.127,15.127,0,0,1,3.583-3.252c2.525-1.317,4.067-2.328,6.8-2.731a31.7,31.7,0,0,1,6.705-.279c3.4.223,5.567,1.2,8.708,2.771a14.127,14.127,0,0,1,3.427,2.96.856.856,0,0,0,.733.24,21.621,21.621,0,0,1,4.561.325,5.194,5.194,0,0,1,2.14,1.074,3.007,3.007,0,0,1,.881,3.1c-.314,1.144-.636,2.273-.957,3.417a20.06,20.06,0,0,1-3.166,6.424,8.148,8.148,0,0,1-1.222,1.334,12.791,12.791,0,0,0-1.941,2.231,10.238,10.238,0,0,1-7.455,4.627l-6.276.689-1.012.018a.24.24,0,0,1,0,.05" transform="translate(-1535.68 -614.747)"/><path class="f" d="M1570.645,625.413a1.7,1.7,0,0,0-1.715-1.691l-.042,0a2.9,2.9,0,0,0-1.292.311,10.881,10.881,0,0,0-5.655,6.658,4.267,4.267,0,0,0-.167,1.592,1.454,1.454,0,0,0,1.292,1.566,1.134,1.134,0,0,0,.158,0,3.677,3.677,0,0,0,1.769-.45,10.906,10.906,0,0,0,5.179-6.01,11.349,11.349,0,0,0,.473-1.976" transform="translate(-1530.11 -612.83)"/><path class="f" d="M1549.758,632.127a8.017,8.017,0,0,0-.251-1.339,10.891,10.891,0,0,0-6.006-6.443,3.031,3.031,0,0,0-1.416-.194,1.383,1.383,0,0,0-1.336,1.439c0,.039,0,.078,0,.117a6.5,6.5,0,0,0,.381,2.123,11,11,0,0,0,5.4,5.847,3.845,3.845,0,0,0,1.676.387c.933.04,1.445-.608,1.552-1.9" transform="translate(-1534.598 -612.742)"/></g><path class="g" d="M1550.358,613.922l-11.567-21.2-10.937,19.824c-.136-.444-5.334-15.206-5.626-17.163a31.725,31.725,0,0,1-.346-7.438,25.387,25.387,0,0,1,2.15-8.635,42.342,42.342,0,0,1,6.82-10.729,16.7,16.7,0,0,1,6.061-4.5,9.412,9.412,0,0,1,4.2-.669c.675.049,1.387-.026,2.069.052a6.8,6.8,0,0,1,1.6.206c2.445.711,4.892,1.492,7.386,1.953a46.723,46.723,0,0,0,11.761.752,59.452,59.452,0,0,0,12.083-2.314c1.341-.38,2.728-.732,4.084-1.015a6.3,6.3,0,0,1,1.812-.033c1.281.1,2.536.217,3.8.407a11.457,11.457,0,0,1,5.6,2.88,21.767,21.767,0,0,1,4.444,5.363,40.293,40.293,0,0,1,5.175,13.135,25.839,25.839,0,0,1-.508,12.24c-.145.533-3.29,8.952-4.864,13.063a31.89,31.89,0,0,0-1.478,4.942c-.721,3.308-.977,5.108-1.516,6.913-.078.205-.142.706-.263,1.087l-10.953-18.95-9,15.79L1559.7,598.3Z" transform="translate(-1455.901 -534.926)"/><g transform="translate(58.705 98.245)"><path class="h" d="M1515.873,622.637v5.873a1.82,1.82,0,1,0,3.641,0v-5.873a1.82,1.82,0,1,0-3.641,0Z" transform="translate(-1515.873 -620.815)"/></g><g transform="translate(74.39 126.619)"><path class="h" d="M1528.8,646.017v8.808a1.82,1.82,0,1,0,3.641,0v-8.808a1.82,1.82,0,1,0-3.641,0Z" transform="translate(-1528.797 -644.195)"/></g><g transform="translate(97.837 135.435)"><path class="h" d="M1548.224,652.789a5.86,5.86,0,0,0-.072,1.7,9.561,9.561,0,0,0,.343,1.661,16.531,16.531,0,0,1,.708,2.5,1.816,1.816,0,0,0,.836,1.089,1.863,1.863,0,0,0,1.4.183,1.843,1.843,0,0,0,1.087-.837l.185-.434a1.847,1.847,0,0,0,0-.967c-.182-1.266-.8-2.419-.987-3.682l.066.483a4.311,4.311,0,0,1-.017-1.046l-.065.483c.007-.055.014-.109.024-.164a1.984,1.984,0,0,0-.183-1.4,1.821,1.821,0,0,0-2.49-.653,1.762,1.762,0,0,0-.837,1.087Z" transform="translate(-1548.118 -651.459)"/></g><g transform="translate(92.993 155.981)"><path class="h" d="M1544.183,670.695a31.767,31.767,0,0,1,.944,3.177l-.066-.483a4.805,4.805,0,0,1,.035.737,1.82,1.82,0,1,0,3.641,0,7.152,7.152,0,0,0-.4-2.453c-.216-.649-.479-1.282-.642-1.947a1.821,1.821,0,1,0-3.511.968Z" transform="translate(-1544.126 -668.389)"/></g><g transform="translate(42.098 102.167)"><path class="h" d="M1505.652,624.565a9.8,9.8,0,0,0-2.028,3.526l.183-.435a7.665,7.665,0,0,1-.877,1.621l.284-.368a4.626,4.626,0,0,1-.5.549,1.834,1.834,0,0,0,0,2.574,1.857,1.857,0,0,0,2.574,0,9.845,9.845,0,0,0,2.115-3.625l-.185.436a7.427,7.427,0,0,1,.859-1.595l-.284.369a4.476,4.476,0,0,1,.43-.478,1.836,1.836,0,0,0,0-2.574,1.856,1.856,0,0,0-2.574,0Z" transform="translate(-1502.188 -624.047)"/></g><g transform="translate(43.071 127.603)"><path class="h" d="M1503.239,647.74c.423.993.956,1.935,1.38,2.927l-.183-.435a7.66,7.66,0,0,1,.568,1.893l-.066-.484.01.074a1.981,1.981,0,0,0,.533,1.286,1.818,1.818,0,0,0,2.574,0,1.75,1.75,0,0,0,.534-1.286,8.393,8.393,0,0,0-.35-1.686,17.14,17.14,0,0,0-.68-1.66c-.38-.828-.819-1.629-1.177-2.467a1.822,1.822,0,0,0-1.089-.836,1.859,1.859,0,0,0-1.4.183,1.836,1.836,0,0,0-.837,1.089l-.064.483a1.809,1.809,0,0,0,.249.919Z" transform="translate(-1502.99 -645.006)"/></g><g transform="translate(67.543 161.873)"><path class="h" d="M1525.642,673.759a4.561,4.561,0,0,0-1.47,3.1c-.086.762-.016,1.531-.118,2.291l.066-.484a3.633,3.633,0,0,1-.205.791l.183-.435a2.83,2.83,0,0,1-.347.6l.284-.369a3.27,3.27,0,0,1-.351.371,1.832,1.832,0,0,0,0,2.574,1.862,1.862,0,0,0,2.574,0,4.777,4.777,0,0,0,1.448-3.125c.087-.749.019-1.5.112-2.254l-.065.484a3.455,3.455,0,0,1,.221-.847l-.183.436a2.687,2.687,0,0,1,.3-.519l-.285.368a3.059,3.059,0,0,1,.406-.415,1.831,1.831,0,0,0,.533-1.286,1.82,1.82,0,0,0-3.107-1.288Z" transform="translate(-1523.156 -673.244)"/></g><g transform="translate(58.681 117.811)"><path class="h" d="M1516.881,638.759a5.556,5.556,0,0,1-.05.814l.065-.483a18.21,18.21,0,0,1-.716,2.528,7.5,7.5,0,0,0-.214,3.5,1.831,1.831,0,0,0,.836,1.089,1.82,1.82,0,0,0,2.49-.653,2.069,2.069,0,0,0,.184-1.4c-.012-.064-.023-.13-.031-.194l.064.484a4.945,4.945,0,0,1,0-1.263l-.066.484a13.4,13.4,0,0,1,.609-2.189,8.487,8.487,0,0,0,.465-2.71,1.82,1.82,0,1,0-3.641,0Z" transform="translate(-1515.853 -636.937)"/></g></g><g class="i" transform="translate(795 248)"><path class="k" d="M 71.20201873779297 73.50000762939453 L 11.79799175262451 73.50000762939453 C 10.19342708587646 73.50000762939453 8.746674537658691 72.67616271972656 7.927921295166016 71.29620361328125 C 7.109168529510498 69.91625213623047 7.079451084136963 68.25163269042969 7.848450660705566 66.84334564208984 L 37.55046081542969 12.44930076599121 C 38.35169982910156 10.98197174072266 39.82815551757812 10.10595989227295 41.50000381469727 10.10595989227295 C 43.17184066772461 10.10595989227295 44.64829635620117 10.98197174072266 45.44953155517578 12.44930076599121 L 75.15155792236328 66.84334564208984 C 75.92055511474609 68.25163269042969 75.89085388183594 69.91625213623047 75.07208251953125 71.29620361328125 C 74.25333404541016 72.67616271972656 72.80657958984375 73.50000762939453 71.20201873779297 73.50000762939453 Z"/><path class="l" d="M 41.4999885559082 12.60595703125 C 41.05681991577148 12.60595703125 40.23945999145508 12.74125671386719 39.74464797973633 13.64744567871094 L 10.04263305664062 68.04148864746094 C 9.567718505859375 68.91120147705078 9.860916137695312 69.65472412109375 10.07794952392578 70.02053070068359 C 10.29499053955078 70.38632965087891 10.80704498291016 71 11.79798889160156 71 L 71.20201873779297 71 C 72.19296264648438 71 72.70501708984375 70.38632965087891 72.92204284667969 70.02053070068359 C 73.13909149169922 69.65472412109375 73.43227386474609 68.91121673583984 72.95735931396484 68.04148864746094 L 43.25534820556641 13.64744567871094 C 42.76051712036133 12.74125671386719 41.94316101074219 12.60595703125 41.4999885559082 12.60595703125 M 41.49999237060547 7.605949401855469 C 43.90835952758789 7.605949401855469 46.31673049926758 8.821022033691406 47.64371871948242 11.25115966796875 L 77.34573364257812 65.64520263671875 C 79.89292144775391 70.30989837646484 76.51686096191406 76 71.20201873779297 76 L 11.79798889160156 76 C 6.483146667480469 76 3.107086181640625 70.30989837646484 5.654258728027344 65.64520263671875 L 35.35627365112305 11.25115966796875 C 36.68325424194336 8.821022033691406 39.09162139892578 7.605949401855469 41.49999237060547 7.605949401855469 Z"/></g><text class="j" transform="translate(807 264)"><tspan x="22.368" y="49">!</tspan></text></g></svg>