<svg xmlns="http://www.w3.org/2000/svg" viewBox="0 0 1988.9657 213"><title>scotland-alba-logo</title><path d="M75.85,91.07C58.06,85,51.17,81.89,51.17,76c0-5,5.16-10.14,18.17-10.14,12.63,0,19.9,5.74,22.19,12.05C92.68,81.31,94.4,83,98,83h26.59a5.28,5.28,0,0,0,5-5.36c-1.92-26.78-26.21-45-61-45-34,0-58.35,17.79-58.35,46.29,0,30.8,31.18,42.27,54.9,50.12,18,6.12,25.44,9.94,25.44,16.26,0,4.39-4.59,9.18-18.93,9.18-13.39,0-21.24-4.59-23.91-9.57-2.3-4-3.26-5-7.65-5H14.25a5.27,5.27,0,0,0-5,5.36C12,172.75,38.54,187.67,72.4,187.67c34.05,0,59.3-15.3,59.3-44.38C131.7,110.58,96.5,98.34,75.85,91.07Z" transform="translate(-9.2491 -3)" fill="#771b5c"/><path d="M287.6,143.1,261,131.43a5.08,5.08,0,0,0-6.7,2.11,40.55,40.55,0,1,1,0-46.68,4.85,4.85,0,0,0,6.5619,1.9966q.07-.0372.1381-.0766l26.4-11.67a4.39,4.39,0,0,0,1.72-5.93,79.55,79.55,0,0,0-68.29-38.45c-43,0-79.19,34.81-79.19,77.47s36.15,77.47,79.19,77.47c29.07,0,54.9-15.5,68.48-38.83a4,4,0,0,0-1.71-5.74Z" transform="translate(-9.2491 -3)" fill="#771b5c"/><path d="M377.12,32.73c-43,0-79.19,34.81-79.19,77.47s36.15,77.47,79.19,77.47c43.61,0,79.19-34.81,79.19-77.47S420.73,32.73,377.12,32.73Zm0,118a40.55,40.55,0,1,1,40.55-40.55h0a40.45,40.45,0,0,1-40.33,40.57q-.11,0-.22,0Z" transform="translate(-9.2491 -3)" fill="#771b5c"/><path d="M586.58,35.6h-122A4.65,4.65,0,0,0,460,40.19V68.12a4.66,4.66,0,0,0,4.59,4.59H502.6a3.83,3.83,0,0,1,3.83,3.82V180.21A4.65,4.65,0,0,0,511,184.8h29.1a4.66,4.66,0,0,0,4.59-4.59V76.53a3.83,3.83,0,0,1,3.82-3.82h38.07a4.66,4.66,0,0,0,4.59-4.59V40.19A4.66,4.66,0,0,0,586.58,35.6Z" transform="translate(-9.2491 -3)" fill="#771b5c"/><path d="M710,147.88H646.83a3.83,3.83,0,0,1-3.82-3.82V40.19a4.66,4.66,0,0,0-4.59-4.59H609.53a4.66,4.66,0,0,0-4.59,4.59v140a4.66,4.66,0,0,0,4.59,4.59H710a4.66,4.66,0,0,0,4.59-4.59V152.47A4.66,4.66,0,0,0,710,147.88Z" transform="translate(-9.2491 -3)" fill="#771b5c"/><path d="M817.08,39.81a6.92,6.92,0,0,0-6.31-4.21h-28.7a6.91,6.91,0,0,0-6.31,4.21l-57,140.78a3.07,3.07,0,0,0,2.87,4.21h32.52a6.66,6.66,0,0,0,6.12-4.21l5.35-14a5.6,5.6,0,0,1,5.17-3.64h51.07a5.58,5.58,0,0,1,5.16,3.64l5.36,14a6.65,6.65,0,0,0,6.12,4.21H871a3.08,3.08,0,0,0,2.87-4.21Zm-8.23,88.56H783.79a2.7,2.7,0,0,1-2.48-3.63L795.08,88.2a1.4,1.4,0,0,1,2.68,0l13.58,36.54a2.7,2.7,0,0,1-2.49,3.63Z" transform="translate(-9.2491 -3)" fill="#771b5c"/><path d="M1019.46,35.6H990.57A4.66,4.66,0,0,0,986,40.19v75a1.24,1.24,0,0,1-2.29.77l-61.4-76.71a9.45,9.45,0,0,0-7.46-3.63H891.68a4.65,4.65,0,0,0-4.59,4.59v140a4.65,4.65,0,0,0,4.59,4.59h28.88a4.66,4.66,0,0,0,4.6-4.59V105.42a1.24,1.24,0,0,1,2.29-.77l61.4,76.52a9.43,9.43,0,0,0,7.46,3.63h23.15a4.65,4.65,0,0,0,4.59-4.59v-140A4.65,4.65,0,0,0,1019.46,35.6Z" transform="translate(-9.2491 -3)" fill="#771b5c"/><path d="M1116.25,35.6H1051.6a4.65,4.65,0,0,0-4.59,4.59v140a4.65,4.65,0,0,0,4.59,4.59h64.65c46.67,0,70.58-33.86,70.58-74.6C1186.83,69.65,1162.92,35.6,1116.25,35.6Zm-2.87,112.28h-24.29a3.83,3.83,0,0,1-3.83-3.82V76.53a3.83,3.83,0,0,1,3.83-3.82h24.29c22.76,0,34.81,15.11,34.81,37.49S1136.14,147.88,1113.38,147.88Z" transform="translate(-9.2491 -3)" fill="#771b5c"/><path d="M1515.58,39.81a6.91,6.91,0,0,0-6.31-4.21h-28.69a6.92,6.92,0,0,0-6.32,4.21l-57,140.78a3.08,3.08,0,0,0,2.87,4.21h32.52a6.65,6.65,0,0,0,6.12-4.21l5.36-14a5.59,5.59,0,0,1,5.16-3.64h51.07a5.6,5.6,0,0,1,5.17,3.64l5.35,14a6.66,6.66,0,0,0,6.13,4.21h32.51a3.07,3.07,0,0,0,2.87-4.21Zm-8.22,88.56H1482.3a2.7,2.7,0,0,1-2.49-3.63l13.77-36.54a1.4,1.4,0,0,1,2.68,0l13.58,36.54a2.7,2.7,0,0,1-2.48,3.63Z" transform="translate(-9.2491 -3)" fill="#929091"/><path d="M1690.61,147.88h-63.13a3.83,3.83,0,0,1-3.82-3.82V40.19a4.66,4.66,0,0,0-4.59-4.59h-28.89a4.66,4.66,0,0,0-4.59,4.59v140a4.66,4.66,0,0,0,4.59,4.59h100.43a4.65,4.65,0,0,0,4.59-4.59V152.47A4.66,4.66,0,0,0,1690.61,147.88Z" transform="translate(-9.2491 -3)" fill="#929091"/><path d="M1817.05,109.62a1.91,1.91,0,0,1-.19-3.44c9.18-6.31,14.92-15.87,14.92-29.46,0-23.72-16.26-41.12-48.4-41.12h-69.62a4.66,4.66,0,0,0-4.6,4.59v140a4.66,4.66,0,0,0,4.6,4.59h76.13c30.22,0,48.58-17.41,48.58-42.08C1838.47,126.65,1830.25,115.75,1817.05,109.62Zm-69.63-35.38a3.84,3.84,0,0,1,3.83-3.83h29.84c8,0,12.05,4.78,12.05,11.86s-3.83,11.86-14.16,11.86h-27.73a3.83,3.83,0,0,1-3.83-3.82Zm38.26,75.94h-34.43a3.84,3.84,0,0,1-3.83-3.83V127.8a3.84,3.84,0,0,1,3.83-3.83h34.43c10.33,0,14.15,5.17,14.15,12.82,0,7.84-3.83,13.39-14.15,13.39Z" transform="translate(-9.2491 -3)" fill="#929091"/><path d="M1998,180.59,1941.2,39.81a6.92,6.92,0,0,0-6.32-4.21h-28.69a6.9,6.9,0,0,0-6.31,4.21l-57,140.78a3.07,3.07,0,0,0,2.86,4.21h32.52a6.63,6.63,0,0,0,6.12-4.21l5.36-14a5.59,5.59,0,0,1,5.16-3.64H1946a5.59,5.59,0,0,1,5.16,3.64l5.36,14a6.63,6.63,0,0,0,6.12,4.21h32.52a3.08,3.08,0,0,0,2.84-4.21Zm-65-52.22h-25.06a2.71,2.71,0,0,1-2.49-3.63L1919.2,88.2a1.4,1.4,0,0,1,2.68,0l13.58,36.54a2.71,2.71,0,0,1-2.46,3.63Z" transform="translate(-9.2491 -3)" fill="#929091"/><rect x="1278.7509" width="23" height="213" rx="4.02" fill="#929091"/></svg>