<svg id="VS_corporate_logo" data-name="VS corporate logo" xmlns="http://www.w3.org/2000/svg" width="195.499" height="32.864" viewBox="0 0 195.499 32.864">
  <path id="Path_1261" data-name="Path 1261" d="M.785,169.546A5.655,5.655,0,0,1,2.1,164.64l.108.3a.137.137,0,0,1,.014.059.165.165,0,0,1-.01.064,6.783,6.783,0,0,0,3.316,7.33c1.8.957,3.155,2.028,3.477,4.306a5.269,5.269,0,0,1,.035,1.068l-.3-.107a.158.158,0,0,1-.062-.036.2.2,0,0,1-.04-.057c-.985-2.075-2.047-2.266-3.737-3.153a8.8,8.8,0,0,1-3.194-2.338A5.13,5.13,0,0,1,.785,169.546Z" transform="translate(-0.713 -148.687)" fill="#fff"/>
  <path id="Path_1262" data-name="Path 1262" d="M124.015,149.1a.157.157,0,0,1-.041.071.15.15,0,0,1-.067.043l-.278.1a4.709,4.709,0,0,1-.122-1.325c.172-2.23,1.773-4.132,4.306-5.43,1.917-.905,4.414-2.913,4.384-5.823a6.557,6.557,0,0,0-.669-3.219.205.205,0,0,1-.025-.079.16.16,0,0,1,.012-.074l.1-.286a5.261,5.261,0,0,1,2.168,5.277c-.361,2.552-1.182,4.253-3.547,5.53C126.178,146.082,124.7,146.708,124.015,149.1Z" transform="translate(-111.403 -120.237)" fill="#fff"/>
  <path id="Path_1263" data-name="Path 1263" d="M38.638,95.045c-1.3-2.548.849-6.243,4.8-8.254a9.685,9.685,0,0,1,7.088-.946,1.3,1.3,0,0,1,.168.068c.947.336,1.567.926,1.469,1.478-.108.611-1.068.967-2.232.868a.536.536,0,0,1-.136-.013c-.1-.013-.2-.026-.3-.043l-.076-.014a10.261,10.261,0,0,0-5.571.8c-2.34,1.242-3.561,3.422-2.726,4.866s3.769,1.551,6.108.305c2.168-1.149,2.914-3.08,2.433-3.7-.35-.448-1.242-.375-2.257.1.851.629,1.362,1.458,1.029,2.026a.6.6,0,0,1-.549.329.643.643,0,0,1-.546-.46,2.608,2.608,0,0,0-.909-1.328c-.127.09-.259.183-.386.285a6.349,6.349,0,0,0-1.655,1.847.231.231,0,0,1-.041.051.154.154,0,0,1-.056.032l-.153.056a5.422,5.422,0,0,1,1.433-2.857,3.378,3.378,0,0,0-1.144-.365l.082-.226a2.924,2.924,0,0,1,1.649.019l.082-.069c2.029-1.7,4.439-1.6,5.6-.219s.556,3.485-1.445,5.216a4.313,4.313,0,0,1-.6.424,9.961,9.961,0,0,1-1.055.616C44.783,97.957,39.937,97.594,38.638,95.045Z" transform="translate(-34.56 -77.369)" fill="#fff"/>
  <path id="Path_1264" data-name="Path 1264" d="M92.23,223.244c-1.707-2.616-1.76-7.327.1-12.091a.2.2,0,0,0-.23-.259,14.155,14.155,0,0,1-3.547.522c-.055.362-.1.728-.137,1.1-.427,4.443.621,8.457,2.528,10.725Z" transform="translate(-79.689 -190.38)" fill="#fff"/>
  <path id="Path_1265" data-name="Path 1265" d="M510.62,41.409a.882.882,0,0,1,.887-.939.753.753,0,0,1,.723.778.882.882,0,0,1-.87.966A.744.744,0,0,1,510.62,41.409Z" transform="translate(-460.382 -36.751)" fill="#fff"/>
  <path id="Path_1266" data-name="Path 1266" d="M604.17,41.409a.882.882,0,0,1,.887-.939.754.754,0,0,1,.724.778.879.879,0,0,1-.872.966A.744.744,0,0,1,604.17,41.409Z" transform="translate(-544.715 -36.751)" fill="#fff"/>
  <path id="Path_1267" data-name="Path 1267" d="M109.406,16.9a5.943,5.943,0,0,1,3.532-5.32A4.294,4.294,0,0,0,110.285,10a10.883,10.883,0,0,0-1.5,6.98A5.73,5.73,0,0,1,109.406,16.9Z" transform="translate(-98.04 -9.283)" fill="#fff"/>
  <path id="Path_1268" data-name="Path 1268" d="M85.539,10.534a11.951,11.951,0,0,1,1-7.426A4.841,4.841,0,0,0,83.5,2.87a24.645,24.645,0,0,0,1.334,7.882A6.189,6.189,0,0,1,85.539,10.534Z" transform="translate(-75.348 -2.724)" fill="#fff"/>
  <path id="Path_1269" data-name="Path 1269" d="M41.641,13.153A36.376,36.376,0,0,1,39.734,5.2,4.507,4.507,0,0,0,36.16,6.476a24.823,24.823,0,0,1,4.819,7.007,6.579,6.579,0,0,1,.662-.33Z" transform="translate(-32.668 -4.921)" fill="#fff"/>
  <path id="Path_1270" data-name="Path 1270" d="M14.533,32.981a6.237,6.237,0,0,1,.551-.428A18.012,18.012,0,0,0,9.843,26a4.209,4.209,0,0,0-1.9,2.986,8.751,8.751,0,0,1,4.375,1.821A11.452,11.452,0,0,1,14.533,32.981Z" transform="translate(-7.228 -23.707)" fill="#fff"/>
  <path id="Path_1271" data-name="Path 1271" d="M1058.5,109.231c-.406,0-.5.092-.6.369l-.145.442a.284.284,0,0,0-.009.076c0,.218.251.317.492.409a1.487,1.487,0,0,1,.615.359.614.614,0,0,1,.214.515,2.163,2.163,0,0,1-.038.378s-.514,2.648-.655,3.362a5.048,5.048,0,0,0-2.285-.432c-4.409,0-7.709,4.394-7.709,8.324,0,3.285,1.895,4.783,3.653,4.783,1.617,0,3.575-1.552,4.607-3.134-.145.613-.512,2.208-.512,2.208a1.2,1.2,0,0,0-.028.259.646.646,0,0,0,.139.43.885.885,0,0,0,.741.237l.03-.009,3.027-1.057.15-.054c.343-.122.665-.235.635-.6,0-.015-.1-.554-.1-.554-.105-.319-.493-.219-.866-.119l-.464.1c-.185.026-.3.006-.367-.059-.131-.143-.074-.568,0-.964l2.73-14.38a.841.841,0,0,0-.077-.713.6.6,0,0,0-.5-.18H1058.5m-7.534,14.146c0-3.485,2.148-7.384,5.025-7.384a1.7,1.7,0,0,1,1.83,1.9c0,3.731-3.207,8.222-5.222,8.222-1.556,0-1.633-2.281-1.633-2.739Z" transform="translate(-945.16 -98.737)" fill="#fff"/>
  <path id="Path_1272" data-name="Path 1272" d="M914.321,167.53l.353-1.786a1.335,1.335,0,0,0,.022-.2.444.444,0,0,0-.087-.286.547.547,0,0,0-.453-.137h-2.711c-.394,0-.536.088-.6.381l-.144.431c-.065.28.222.394.5.507a1.687,1.687,0,0,1,.6.344c.1.1.219.218.118.893L910,177.634h2.421l.78-4.126c.368-2,.684-3.729,2.209-5.455a3.675,3.675,0,0,1,2.474-1.458,1.453,1.453,0,0,1,1.182.422c.418.51.438,1.535.066,3.427l-1.281,6.564a.864.864,0,0,0,.14.724.713.713,0,0,0,.591.2l.029-.009,3.121-1.057.151-.054c.342-.122.664-.235.638-.6,0-.015-.1-.554-.1-.554-.106-.319-.493-.219-.868-.123l-.463.1c-.185.026-.3.006-.365-.059-.135-.143-.075-.568,0-.964l1.084-5.43c.337-1.726.225-2.9-.339-3.589a2.536,2.536,0,0,0-2.084-.775A6.77,6.77,0,0,0,914.321,167.53Z" transform="translate(-820.414 -148.85)" fill="#fff"/>
  <path id="Path_1273" data-name="Path 1273" d="M771.3,173.192c0,3.285,1.892,4.783,3.651,4.783,1.62,0,3.582-1.562,4.613-3.145-.134.607-.493,2.219-.493,2.219a1.151,1.151,0,0,0-.039.3.577.577,0,0,0,.117.37.886.886,0,0,0,.743.262l.036-.009,3.025-1.057.15-.054c.345-.122.665-.235.637-.6,0-.015-.1-.554-.1-.554-.1-.315-.461-.222-.838-.125l-.493.105c-.173.023-.287.006-.345-.054-.132-.143-.068-.591,0-.968l1.327-6.931c.224-1.446-.214-1.695-.767-2.011l-.287-.17a7.528,7.528,0,0,0-3.16-.682c-4.583,0-7.783,4.387-7.783,8.324m2.582.343c0-3.485,2.15-7.384,5.025-7.384a1.707,1.707,0,0,1,1.834,1.9c0,3.731-3.21,8.222-5.222,8.222-1.553,0-1.632-2.284-1.632-2.742Z" transform="translate(-695.379 -148.894)" fill="#fff"/>
  <path id="Path_1274" data-name="Path 1274" d="M715.659,109.221h-2.509c-.394,0-.534.088-.6.381,0-.012-.144.431-.144.431-.066.277.223.394.5.506a1.767,1.767,0,0,1,.6.343c.138.138.278.279.143.887l-2.924,15.121a.887.887,0,0,0,.136.735.657.657,0,0,0,.543.185l.03-.009,3.2-1.057.153-.054c.343-.122.665-.235.635-.6,0-.015-.1-.554-.1-.554-.128-.319-.493-.222-.867-.123l-.467.1c-.184.026-.306.006-.367-.059-.132-.143-.074-.568,0-.964l2.759-14.405a.778.778,0,0,0-.09-.683A.742.742,0,0,0,715.659,109.221Z" transform="translate(-640.76 -98.727)" fill="#fff"/>
  <path id="Path_1275" data-name="Path 1275" d="M642.495,129.914l-1.431,1.109-.039.065s-.418,2.2-.45,2.365H638.71l-.25,1.257h1.9l-1.478,7.783a7.245,7.245,0,0,0-.131,1.322,2.8,2.8,0,0,0,.52,1.821,1.842,1.842,0,0,0,1.493.63,5.03,5.03,0,0,0,2.5-.908l.344-.218c.087-.042.394-.2.288-.453l-.275-.6a.146.146,0,0,0-.092-.1.355.355,0,0,0-.3.05,2.808,2.808,0,0,1-1.379.331.6.6,0,0,1-.493-.2,1.178,1.178,0,0,1-.191-.747,4.152,4.152,0,0,1,.082-.764s1.359-7.064,1.531-7.947h2.463l.075-.033.542-.515.033-.071.05-.516-.112-.122h-2.86c.049-.244.641-3.357.641-3.357v-.058a.309.309,0,0,0-.156-.273A.953.953,0,0,0,642.495,129.914Z" transform="translate(-575.627 -117.187)" fill="#fff"/>
  <path id="Path_1276" data-name="Path 1276" d="M512.045,173.09a4.583,4.583,0,0,0,4.729,4.828c4.582,0,7.117-4.82,7.117-8.151,0-2.965-1.794-4.957-4.462-4.957-4.073,0-7.389,3.715-7.389,8.276m2.582-.518c0-4.06,2.774-6.182,4.262-6.182,2.245,0,2.421,2.456,2.421,3.208,0,2.279-1.288,6.748-4.264,6.748-1.667,0-2.414-1.889-2.414-3.77Z" transform="translate(-461.662 -148.841)" fill="#fff"/>
  <path id="Path_1277" data-name="Path 1277" d="M408.29,172.665c0,3.427,2.376,5.276,4.612,5.276a6.968,6.968,0,0,0,3.054-.7l.066-.029c.559-.267.765-.481.827-.845l.123-.562a.377.377,0,0,0-.158-.394c-.216-.137-.6-.057-1,.2a3.894,3.894,0,0,1-2.125.544c-1.71,0-2.814-1.449-2.814-3.695,0-3.27,2.153-6.133,4.608-6.133,1.084,0,1.588.239,1.837.887l.064.213c.1.334.2.678.406.761a.286.286,0,0,0,.258-.031l.272-.17a.435.435,0,0,0,.274-.394c0,.02.317-1.526.317-1.526a.751.751,0,0,0-.623-.992,8.474,8.474,0,0,0-2.168-.251A7.966,7.966,0,0,0,408.29,172.665Z" transform="translate(-368.134 -148.86)" fill="#fff"/>
  <path id="Path_1278" data-name="Path 1278" d="M286.7,91.381c0,1.753.877,3.522,2.924,5.911,1.161,1.348,2.542,3.339,2.542,5.207,0,1.032-.788,3.864-3.329,3.864a2.51,2.51,0,0,1-2.615-1.732,5.736,5.736,0,0,1-.332-1.525c-.051-.441-.078-.69-.228-.788a.226.226,0,0,0-.2-.027c-.009,0-.68.242-.68.242-.259.114-.3.434-.341.716l-.026.176-.459,2.66c-.153.8,0,.852,1.147,1.281a9.34,9.34,0,0,0,3.56.493,6.1,6.1,0,0,0,6.358-5.787c0-1.675-.216-2.69-2.28-5.39L291.636,95.3c-1.315-1.614-2.361-2.884-2.361-4.4a2.66,2.66,0,0,1,2.806-2.365,2.195,2.195,0,0,1,2.365,1.5c0,.008.12.412.12.412.234.815.365,1.2.568,1.271a.2.2,0,0,0,.187-.034l.615-.484.021-.023.05-.065a.7.7,0,0,0,.158-.269c0-.008.377-2.05.377-2.05.174-.591-.4-.9-.952-1.143a6.891,6.891,0,0,0-3.054-.548C288.942,87.11,286.7,88.746,286.7,91.381Z" transform="translate(-256.006 -78.796)" fill="#fff"/>
  <path id="Path_1279" data-name="Path 1279" d="M424.925,37.587h-1.783a.345.345,0,0,0-.285.166l-.029.036-.152.2a.263.263,0,0,0-.054.148.155.155,0,0,0,.008.051c.03.1.133.147.244.191s.22.09.252.183a.182.182,0,0,1,.011.068.7.7,0,0,1-.108.322l-3.107,5.757-.905-5.678a.828.828,0,0,1-.01-.132c0-.275.165-.348.365-.436a.7.7,0,0,0,.357-.25c0,.006.156-.235.156-.235a.272.272,0,0,0,.023-.278.284.284,0,0,0-.257-.115h-2.365c-.2,0-.317.014-.432.2l-.146.239a.289.289,0,0,0-.047.151.186.186,0,0,0,.014.074.3.3,0,0,0,.206.16c.507.144.548.156.644.729l1.259,7.425.017.12c.03.239.062.508.308.508h.254c.153,0,.31-.174.528-.581l3.965-7.216a2.289,2.289,0,0,1,.712-.887l.2-.1a.68.68,0,0,0,.389-.285l.107-.217a.3.3,0,0,0,.044-.146.173.173,0,0,0-.024-.092C425.217,37.58,425.075,37.583,424.925,37.587Z" transform="translate(-375.679 -34.15)" fill="#fff"/>
  <path id="Path_1280" data-name="Path 1280" d="M498.507,64.785h-1.478c-.207,0-.344.04-.389.249,0-.006-.067.235-.067.235-.043.191.151.271.3.333a.887.887,0,0,1,.311.173c.05.05.1.1.038.44l-1,5.089a.521.521,0,0,0,.086.44.439.439,0,0,0,.363.122l.031-.006,1.7-.574.083-.032c.185-.066.394-.143.378-.379,0-.011-.055-.306-.055-.306-.074-.227-.316-.161-.534-.106l-.247.056a.2.2,0,0,1-.144-.017c-.042-.044-.037-.206.014-.483l.939-4.836a.367.367,0,0,0-.046-.309.343.343,0,0,0-.288-.091Z" transform="translate(-447.394 -58.667)" fill="#fff"/>
  <path id="Path_1281" data-name="Path 1281" d="M530.9,64.814a1.9,1.9,0,0,0-.05.435,2.149,2.149,0,0,0,.954,1.616l.134.119.082.07c.43.368,1.006.862,1.006,1.5a.993.993,0,0,1-.012.159,1.1,1.1,0,0,1-2.033.406l-.427-.69a.248.248,0,0,0-.154-.113.241.241,0,0,0-.2.053l-.409.281a.328.328,0,0,0-.11.382l.23.875.034.057a3.077,3.077,0,0,0,4.455-1.317c.261-1.076-.329-1.856-1.295-2.7l-.109-.093c-.467-.407-.84-.727-.748-1.264a.864.864,0,0,1,.881-.591c.533,0,.778.2.855.67a.3.3,0,0,0,.3.256h.215c.2,0,.241-.17.3-.368l.1-.307.133-.394a.283.283,0,0,0-.01-.245.492.492,0,0,0-.314-.232,4.532,4.532,0,0,0-1.261-.177A2.514,2.514,0,0,0,530.9,64.814Z" transform="translate(-477.541 -57.242)" fill="#fff"/>
  <path id="Path_1282" data-name="Path 1282" d="M592.063,64.79h-1.478c-.206,0-.343.04-.394.249,0-.006-.064.235-.064.235-.048.191.148.271.3.333a.876.876,0,0,1,.309.173c.05.05.1.1.039.44l-1,5.089a.521.521,0,0,0,.087.44.439.439,0,0,0,.364.122l.031-.006,1.7-.572.085-.032c.184-.066.394-.143.38-.379,0-.011-.055-.306-.055-.306-.074-.227-.32-.161-.537-.106l-.246.056a.2.2,0,0,1-.143-.017c-.043-.044-.037-.206.014-.483l.938-4.836a.366.366,0,0,0-.045-.309A.342.342,0,0,0,592.063,64.79Z" transform="translate(-531.731 -58.672)" fill="#fff"/>
  <path id="Path_1283" data-name="Path 1283" d="M630.868,44.137l-.823.672s-.207,1.091-.236,1.249h-1.016l-.153.788h1.034c-.048.249-.794,4.183-.794,4.183a4.178,4.178,0,0,0-.076.738,1.557,1.557,0,0,0,.3,1.017,1.059,1.059,0,0,0,.854.361,2.829,2.829,0,0,0,1.39-.5l.183-.119c.21-.1.214-.225.178-.31l-.149-.327a.133.133,0,0,0-.075-.08.234.234,0,0,0-.21.028,1.49,1.49,0,0,1-.727.177.282.282,0,0,1-.231-.092.591.591,0,0,1-.1-.372,2.193,2.193,0,0,1,.046-.41s.788-4.117.825-4.292h1.3l.4-.384.028-.279.006-.125H631.21c.041-.23.337-1.773.337-1.773a.265.265,0,0,0,0-.039.213.213,0,0,0-.109-.2A.591.591,0,0,0,630.868,44.137Z" transform="translate(-566.774 -39.94)" fill="#fff"/>
  <path id="Path_1284" data-name="Path 1284" d="M1929.1,58.48h.788l.7,1.97.709-1.97h.78v2.745h-.5V59.011l-.762,2.214h-.439l-.765-2.214v2.214h-.5Zm-1.907.46h-.9v-.46h2.34v.46h-.9v2.285h-.544Z" transform="translate(-1736.584 -52.987)" fill="#fff"/>
  <path id="Path_1285" data-name="Path 1285" d="M1606.073,127.065a.486.486,0,0,1-.5-.2.959.959,0,0,1-.075-.6l2.974-15.37a1.154,1.154,0,0,0,.037-.69,1.076,1.076,0,0,0-.213-.312,1.118,1.118,0,0,0-.35-.237l-.374-.163a1.857,1.857,0,0,1-.288-.15.184.184,0,0,1-.088-.2l.15-.449a.425.425,0,0,1,.138-.237.7.7,0,0,1,.363-.062h2.55q.449-.025.574.162a.814.814,0,0,1,.05.591l-2.8,14.65a2.231,2.231,0,0,0-.037.962c.061.173.237.246.538.213a3.745,3.745,0,0,0,.761-.175c.242-.083.394-.05.463.1l.1.55a.3.3,0,0,1-.2.338c-.151.058-.325.128-.525.213Z" transform="translate(-1447.373 -97.985)" fill="#fff"/>
  <path id="Path_1286" data-name="Path 1286" d="M1670.809,110.823a1.29,1.29,0,0,0,.013-.69,1.1,1.1,0,0,0-.212-.312,1.174,1.174,0,0,0-.338-.237c-.125-.058-.246-.112-.363-.163a1.874,1.874,0,0,1-.288-.15.183.183,0,0,1-.088-.2l.125-.449a.394.394,0,0,1,.15-.237.783.783,0,0,1,.375-.062h2.525q.474-.025.591.174a.907.907,0,0,1,.037.6l-1.35,7,.05.05a6.22,6.22,0,0,1,1.2-1.056,7.285,7.285,0,0,1,1.287-.7,6.481,6.481,0,0,1,1.213-.374,5.32,5.32,0,0,1,1-.113,3.071,3.071,0,0,1,2.449,1.151,4.868,4.868,0,0,1,.975,3.225,8.592,8.592,0,0,1-.625,3.213,9.468,9.468,0,0,1-1.715,2.784,8.736,8.736,0,0,1-2.538,1.97,6.7,6.7,0,0,1-3.125.751,7.256,7.256,0,0,1-1.637-.188,5.2,5.2,0,0,1-1.312-.462c-.167-.084-.321-.167-.462-.25a1.035,1.035,0,0,1-.35-.338,1.4,1.4,0,0,1-.187-.574,4.547,4.547,0,0,1,0-.963Zm1.576,14.95a3.189,3.189,0,0,0,1.963-.463,5.948,5.948,0,0,0,1.725-1.563,8.538,8.538,0,0,0,1.687-5.1,4.5,4.5,0,0,0-.275-1.725,3,3,0,0,0-.637-1,1.717,1.717,0,0,0-.738-.45,2.436,2.436,0,0,0-.55-.1,2.787,2.787,0,0,0-1.6.475,5.249,5.249,0,0,0-1.249,1.212,7.942,7.942,0,0,0-.938,1.65,16.809,16.809,0,0,0-.653,1.8,12.025,12.025,0,0,0-.375,1.65,8.724,8.724,0,0,0-.112,1.182v.616a2.049,2.049,0,0,0,.15.763,1.686,1.686,0,0,0,.512.675,2.007,2.007,0,0,0,1.091.379Z" transform="translate(-1503.896 -97.918)" fill="#fff"/>
  <path id="Path_1287" data-name="Path 1287" d="M1808.04,174.478l-.05-.05a6.881,6.881,0,0,1-.912,1.288,8.289,8.289,0,0,1-1.225,1.138,6.813,6.813,0,0,1-1.379.812,3.331,3.331,0,0,1-1.337.313,3.194,3.194,0,0,1-1.3-.288,3.318,3.318,0,0,1-1.163-.875,4.5,4.5,0,0,1-.826-1.478,6.4,6.4,0,0,1-.312-2.113,8.267,8.267,0,0,1,.563-2.937,9.025,9.025,0,0,1,1.588-2.688,8.351,8.351,0,0,1,2.463-1.962,6.693,6.693,0,0,1,3.187-.764,7.385,7.385,0,0,1,1.712.188,7.67,7.67,0,0,1,1.438.493,3.419,3.419,0,0,0,.493.288,1.031,1.031,0,0,1,.387.312,1.2,1.2,0,0,1,.2.55,3.319,3.319,0,0,1-.05.95l-1.35,7.05a2.219,2.219,0,0,0-.037.962c.061.173.229.246.512.213a3.745,3.745,0,0,0,.788-.175q.362-.124.437.1l.1.55a.3.3,0,0,1-.2.338c-.15.058-.325.128-.525.213l-3.075,1.075a.811.811,0,0,1-.663-.213.66.66,0,0,1-.062-.591Zm-4.321,2a2.841,2.841,0,0,0,1.774-.8,9.307,9.307,0,0,0,1.762-2.037,12.933,12.933,0,0,0,1.35-2.737,8.573,8.573,0,0,0,.538-2.9,2.5,2.5,0,0,0-.175-1,1.577,1.577,0,0,0-.463-.626,1.852,1.852,0,0,0-.637-.325,2.562,2.562,0,0,0-.7-.1,3.522,3.522,0,0,0-2.05.662,6.224,6.224,0,0,0-1.649,1.738,9.4,9.4,0,0,0-1.112,2.449,9.613,9.613,0,0,0-.413,2.775q0,.225.05.7a4.151,4.151,0,0,0,.225.963,2.472,2.472,0,0,0,.525.862A1.269,1.269,0,0,0,1803.719,176.479Z" transform="translate(-1622.309 -148.899)" fill="#fff"/>
  <rect id="Rectangle_1659" data-name="Rectangle 1659" width="0.789" height="28.389" transform="translate(127.725 4.476)" fill="#fff"/>
  <path id="Path_1288" data-name="Path 1288" d="M1408.02,107.732a.467.467,0,0,1-.312-.09c-.069-.058-.054-.168.045-.325l.356-.535a.6.6,0,0,1,.4-.237,1.893,1.893,0,0,0,.563-.223,1.359,1.359,0,0,0,.475-.475,1.528,1.528,0,0,0,.1-.994l-.505-3.355H1401.7l-2.019,3.651q-.3.535-.118.788a1.272,1.272,0,0,0,.46.4c.187.1.361.189.519.267s.178.2.059.357l-.238.326c-.059.08-.133.173-.223.283a.493.493,0,0,1-.4.163h-4.007a3.573,3.573,0,0,1-.668-.059q-.313-.059-.045-.445l.238-.386a.5.5,0,0,1,.267-.281,4.406,4.406,0,0,1,.5-.165,5.563,5.563,0,0,0,.728-.237,2.125,2.125,0,0,0,.519-.311,2.436,2.436,0,0,0,.445-.493q.207-.3.5-.8l7.539-13.713a2.376,2.376,0,0,0,.312-.817,1.557,1.557,0,0,0-.016-.578.89.89,0,0,0-.2-.385,3.446,3.446,0,0,1-.223-.268,1.1,1.1,0,0,0-.475-.311c-.2-.069-.376-.133-.535-.2a.835.835,0,0,1-.341-.207c-.07-.08-.045-.209.074-.387l.208-.415a.48.48,0,0,1,.3-.282,1.731,1.731,0,0,1,.416-.045h3.918a.4.4,0,0,1,.386.268,1.462,1.462,0,0,1,.118.591q.563,4.452,1.321,8.769t1.416,8.04a4.68,4.68,0,0,0,.2.846,1.1,1.1,0,0,0,.282.444,1.072,1.072,0,0,0,.493.237,8.537,8.537,0,0,1,.816.252c.159.04.252.1.282.2a.31.31,0,0,1-.015.252l-.416.653a.445.445,0,0,1-.311.208,2.324,2.324,0,0,1-.37.03Zm.86-7.866-1.365-9.261h-.06l-4.926,9.261Z" transform="translate(-1257.536 -78.65)" fill="#fff"/>
</svg>
