<svg xmlns="http://www.w3.org/2000/svg" width="40" height="40" viewBox="0 0 40 40"><defs><style>.a{fill:none;}</style></defs><g transform="translate(-185 -270)"><path class="a" d="M0,0H40V40H0Z" transform="translate(185 270)"/><path d="M42.257,146.082l-1.788-1.788a1.085,1.085,0,0,0-1.536,0L22.575,160.615,6.217,144.293a1.085,1.085,0,0,0-1.536,0l-1.788,1.788a1.085,1.085,0,0,0,0,1.536l18.914,18.914a1.085,1.085,0,0,0,1.536,0l18.914-18.914A1.085,1.085,0,0,0,42.257,146.082Z" transform="translate(227.575 445.85) rotate(180)"/></g></svg>