<svg width="40" height="40" xmlns="http://www.w3.org/2000/svg">
  <path style="fill:#000000" d="M32.718 24.027a.792.792 0 0 0-1.072.325 3.7 3.7 0 1 1-4.512-5.215.792.792 0 0 0-.536-1.49 5.28 5.28 0 1 0 6.447 7.453.792.792 0 0 0-.327-1.073Zm-3.277-9.859a1.584 1.584 0 1 0-1.583-1.584 1.584 1.584 0 0 0 1.583 1.584Zm10.519 11.1a.79.79 0 0 0-1-.5l-.9.3-1.554-3.562a.8.8 0 0 0-.756-.475h-4.593l-.478-2.64h3.778a.792.792 0 0 0 0-1.584h-4.065l-.172-.934a.792.792 0 0 0-1.557.284l1.056 5.807a.792.792 0 0 0 .779.65h4.761l1.641 3.748a.779.779 0 0 0 .7.475.787.787 0 0 0 .251-.041l1.554-.528a.793.793 0 0 0 .556-1ZM10.529 11a.789.789 0 0 0-.762.792V27.1a.789.789 0 0 0 .762.792.814.814 0 0 0 .792-.792V11.792a.758.758 0 0 0-.792-.792Zm-3.478 5.669a2.115 2.115 0 0 0-2.006-1.445H3.4a2.107 2.107 0 0 0-2 1.445L.054 20.7a1.056 1.056 0 0 0 1.793 1.033v5.108A1.056 1.056 0 0 0 2.9 27.894a1.031 1.031 0 0 0 1.03-1.055v-4.752h.528v4.752a1.056 1.056 0 0 0 1.056 1.056 1.031 1.031 0 0 0 1.026-1.056v-5.122A1.05 1.05 0 0 0 8.333 20.7Zm-2.828-2.5a1.559 1.559 0 0 0 1.554-1.585A1.559 1.559 0 0 0 4.223 11a1.584 1.584 0 0 0 0 3.168Zm12.641 0a1.584 1.584 0 0 0 1.584-1.584A1.566 1.566 0 0 0 16.864 11a1.541 1.541 0 0 0-1.554 1.584 1.578 1.578 0 0 0 1.554 1.584Zm4.2 6.53-1.345-4.03a2.108 2.108 0 0 0-2-1.445H16.07a2.107 2.107 0 0 0-2 1.444L12.724 20.7a1.056 1.056 0 0 0 .667 1.336 1.041 1.041 0 0 0 .338.042l-.56 1.6h1.32v3.168a1.05 1.05 0 0 0 1.026 1.056 1.075 1.075 0 0 0 1.056-1.056v-3.175h.529v3.168a1.05 1.05 0 0 0 1.026 1.056 1.075 1.075 0 0 0 1.056-1.056v-3.168h1.29l-.528-1.583a1.053 1.053 0 0 0 .334-.055 1.036 1.036 0 0 0 .784-1.333Z"/>
</svg>
