<svg width="40" height="40" xmlns="http://www.w3.org/2000/svg">
  <path style="fill:#000000" d="M38.929 8H1.071A1.071 1.071 0 0 1 0 6.929V4.071A1.072 1.072 0 0 1 1.071 3h37.858A1.072 1.072 0 0 1 40 4.071v2.857A1.071 1.071 0 0 1 38.929 8Zm0 14.286H1.071A1.071 1.071 0 0 1 0 21.214v-2.857a1.071 1.071 0 0 1 1.071-1.071h37.858A1.071 1.071 0 0 1 40 18.357v2.857a1.071 1.071 0 0 1-1.071 1.072Zm0 14.286H1.071A1.071 1.071 0 0 1 0 35.5v-2.857a1.071 1.071 0 0 1 1.071-1.071h37.858A1.071 1.071 0 0 1 40 32.643V35.5a1.071 1.071 0 0 1-1.071 1.071Z"/>
</svg>
