<svg width="40" height="40" xmlns="http://www.w3.org/2000/svg">
  <path style="fill:#000000" d="m30.3 27.712 4.635-3.922a3 3 0 0 0-.956-5.125L30.5 17.46V9.5A1.5 1.5 0 0 0 29 8h-3V5.5A1.5 1.5 0 0 0 24.5 4h-9A1.5 1.5 0 0 0 14 5.5V8h-3a1.5 1.5 0 0 0-1.5 1.5v7.96l-3.481 1.205a3 3 0 0 0-.957 5.125L9.7 27.712C8.237 30.924 5.286 33 .75 33a.75.75 0 0 0-.75.75v1.5a.75.75 0 0 0 .75.75c3.855 0 7.146-1.063 9.823-4.156A5.007 5.007 0 0 0 15.5 36h9a5.007 5.007 0 0 0 4.927-4.156c2.695 3.113 6 4.156 9.823 4.156a.75.75 0 0 0 .75-.75v-1.5a.75.75 0 0 0-.75-.75c-4.499 0-7.472-2.042-8.95-5.288ZM16.5 6.5h7V8h-7Zm-4 4.5h15v5.421l-6.519-2.256a3 3 0 0 0-1.963 0L12.5 16.421Zm14 20a2 2 0 0 1-2 2h-9a2 2 0 0 1-2-2v-4L7 21.5 20 17l13 4.5-6.5 5.5Z"/>
</svg>
