<svg width="40" height="40" xmlns="http://www.w3.org/2000/svg">
  <path style="fill:#000000" d="M28.75 28.75a2.5 2.5 0 1 0-2.5-2.5 2.5 2.5 0 0 0 2.5 2.5Zm-17.5 0a2.5 2.5 0 1 0-2.5-2.5 2.5 2.5 0 0 0 2.5 2.5ZM38.125 10H37.5V6.25C37.5 2.75 29.75 0 20 0S2.5 2.75 2.5 6.25V10h-.625A1.875 1.875 0 0 0 0 11.875v6.25A1.875 1.875 0 0 0 1.875 20H2.5v12.5A2.5 2.5 0 0 0 5 35v2.5A2.5 2.5 0 0 0 7.5 40h1.25a2.5 2.5 0 0 0 2.5-2.5V35h17.5v2.5a2.5 2.5 0 0 0 2.5 2.5h1.25a2.5 2.5 0 0 0 2.5-2.5V35a2.5 2.5 0 0 0 2.5-2.5V20h.625A1.875 1.875 0 0 0 40 18.125v-6.25A1.875 1.875 0 0 0 38.125 10ZM33.75 31.25H6.25v-10h27.5Zm0-13.75H6.25v-5h27.5Zm0-8.75H6.25V6.674C7.358 5.594 12.241 3.75 20 3.75s12.642 1.844 13.75 2.924Z"/>
</svg>
