<svg width="40" height="40" xmlns="http://www.w3.org/2000/svg">
  <path style="fill:#000000" d="M31.794 4H6.152a1.029 1.029 0 0 0-1.026 1.026v19.462a5.127 5.127 0 0 0 5.128 5.128h14.36a5.127 5.127 0 0 0 5.128-5.128v-4.077h2.052a8.206 8.206 0 1 0 0-16.411Zm-5.13 20.488a2.057 2.057 0 0 1-2.051 2.051H10.254a2.057 2.057 0 0 1-2.051-2.051V7.077h18.461Zm5.128-7.154h-2.049V7.077h2.051a5.128 5.128 0 1 1 0 10.257ZM33.32 35.77H2.574c-2.391 0-3.218-3.077-2.051-3.077h34.855c1.16 0 .333 3.077-2.058 3.077Z"/>
</svg>
