<svg width="40" height="40" xmlns="http://www.w3.org/2000/svg">
  <path style="fill:#000000" d="M34.25 5H30.5V.938A.938.938 0 0 0 29.563 0h-3.125a.938.938 0 0 0-.938.938V5h-10V.938A.938.938 0 0 0 14.563 0h-3.125a.938.938 0 0 0-.938.938V5H6.75A3.75 3.75 0 0 0 3 8.75v27.5A3.75 3.75 0 0 0 6.75 40h27.5A3.75 3.75 0 0 0 38 36.25V8.75A3.75 3.75 0 0 0 34.25 5Zm-.469 31.25H7.219a.469.469 0 0 1-.469-.469V12.5h27.5v23.281a.469.469 0 0 1-.469.469Zm-4.129-15.676L18.535 31.6a.938.938 0 0 1-1.326-.005l-5.867-5.911a.938.938 0 0 1 .005-1.326l1.775-1.758a.937.937 0 0 1 1.326.005l3.446 3.474 8.677-8.608a.938.938 0 0 1 1.326.005l1.761 1.775a.937.937 0 0 1-.005 1.326Z"/>
</svg>
