<svg width="40" height="40" xmlns="http://www.w3.org/2000/svg">
  <path style="fill:#000000" d="M33.846 16.282h-1.025L25.847 6.54a4.1 4.1 0 0 0-3.2-1.54H9.957a4.1 4.1 0 0 0-3.809 2.579l-3.071 8.848A4.093 4.093 0 0 0 0 20.385v8.205a1.025 1.025 0 0 0 1.026 1.026H4.1a6.154 6.154 0 0 0 12.308 0h7.182a6.154 6.154 0 0 0 12.308 0h3.077A1.025 1.025 0 0 0 40 28.59v-6.154a6.154 6.154 0 0 0-6.154-6.154ZM16.923 8.077h5.721a1.021 1.021 0 0 1 .8.385l5.436 7.821H16.923ZM9 8.722a1.022 1.022 0 0 1 .953-.645h3.889v8.205H6.391Zm1.252 23.97a3.077 3.077 0 1 1 3.077-3.077 3.077 3.077 0 0 1-3.073 3.077Zm19.487 0a3.077 3.077 0 1 1 3.077-3.077 3.077 3.077 0 0 1-3.072 3.077Zm7.179-6.154h-1.874a6.1 6.1 0 0 0-10.6 0h-8.887a6.1 6.1 0 0 0-10.6 0h-1.88v-6.153A1.027 1.027 0 0 1 4.1 19.359h29.746a3.08 3.08 0 0 1 3.077 3.077Z"/>
</svg>
