<svg width="40" height="40" xmlns="http://www.w3.org/2000/svg">
  <path style="fill:#000000" d="m34 33.143-2.286-1.714v-2.143a2.112 2.112 0 0 0-1.614-2.037l-.477-10.5 2.387-1.8a2.857 2.857 0 0 0 1.138-2.281V2.857A2.857 2.857 0 0 0 30.286 0h-20a2.857 2.857 0 0 0-2.857 2.857v9.821a2.857 2.857 0 0 0 1.141 2.284l2.383 1.79-.477 10.5a2.1 2.1 0 0 0-1.619 2.033v2.143l-2.286 1.715A1.429 1.429 0 0 0 6 34.286v4.286A1.429 1.429 0 0 0 7.429 40h25.714a1.429 1.429 0 0 0 1.429-1.429v-4.285A1.429 1.429 0 0 0 34 33.143ZM11.714 4.286h3.572v2.857h2.857V4.286h4.286v2.857h2.857V4.286h3.571v7.668l-3.619 2.729.543 12.461H14.79l.543-12.463-3.619-2.722Zm-1.428 31.428 2.857-2.143v-2.142h14.286v2.143l2.857 2.143Zm12.143-19.322a2.107 2.107 0 1 0-4.213 0V20h4.213Z"/>
</svg>
