<svg width="40" height="40" xmlns="http://www.w3.org/2000/svg">
  <path style="fill:#000000" d="M15.25 28h-2.5a.75.75 0 0 0-.75.75v2.5a.75.75 0 0 0 .75.75h2.5a.75.75 0 0 0 .75-.75v-2.5a.75.75 0 0 0-.75-.75Zm0-12h-2.5a.75.75 0 0 0-.75.75v2.5a.75.75 0 0 0 .75.75h2.5a.75.75 0 0 0 .75-.75v-2.5a.75.75 0 0 0-.75-.75Zm-6 0h-2.5a.75.75 0 0 0-.75.75v2.5a.75.75 0 0 0 .75.75h2.5a.75.75 0 0 0 .75-.75v-2.5a.75.75 0 0 0-.75-.75Zm0 12h-2.5a.75.75 0 0 0-.75.75v2.5a.75.75 0 0 0 .75.75h2.5a.75.75 0 0 0 .75-.75v-2.5a.75.75 0 0 0-.75-.75Zm0-6h-2.5a.75.75 0 0 0-.75.75v2.5a.75.75 0 0 0 .75.75h2.5a.75.75 0 0 0 .75-.75v-2.5a.75.75 0 0 0-.75-.75Zm6 0h-2.5a.75.75 0 0 0-.75.75v2.5a.75.75 0 0 0 .75.75h2.5a.75.75 0 0 0 .75-.75v-2.5a.75.75 0 0 0-.75-.75Zm18 6h-2.5a.75.75 0 0 0-.75.75v2.5a.75.75 0 0 0 .75.75h2.5a.75.75 0 0 0 .75-.75v-2.5a.75.75 0 0 0-.75-.75Zm0-6h-2.5a.75.75 0 0 0-.75.75v2.5a.75.75 0 0 0 .75.75h2.5a.75.75 0 0 0 .75-.75v-2.5a.75.75 0 0 0-.75-.75Zm5.25-6H32V5.5A1.5 1.5 0 0 0 30.5 4h-13A1.5 1.5 0 0 0 16 5.5V10h-2V5a1 1 0 0 0-1-1h-1a1 1 0 0 0-1 1v5H7V5a1 1 0 0 0-1-1H5a1 1 0 0 0-1 1v5H1.5A1.5 1.5 0 0 0 0 11.5V35a1 1 0 0 0 1 1h1a1 1 0 0 0 1-1V13h16V7h10v12h8v16a1 1 0 0 0 1 1h1a1 1 0 0 0 1-1V17.5a1.5 1.5 0 0 0-1.5-1.5Zm-13.25-6h-2.5a.75.75 0 0 0-.75.75v2.5a.75.75 0 0 0 .75.75h2.5a.75.75 0 0 0 .75-.75v-2.5a.75.75 0 0 0-.75-.75Zm0 12h-2.5a.75.75 0 0 0-.75.75v2.5a.75.75 0 0 0 .75.75h2.5a.75.75 0 0 0 .75-.75v-2.5a.75.75 0 0 0-.75-.75Zm0-6h-2.5a.75.75 0 0 0-.75.75v2.5a.75.75 0 0 0 .75.75h2.5a.75.75 0 0 0 .75-.75v-2.5a.75.75 0 0 0-.75-.75Z"/>
</svg>
