<svg width="40" height="40" xmlns="http://www.w3.org/2000/svg">
  <path style="fill:#000000" d="M20 0a20 20 0 1 0 20 20A20 20 0 0 0 20 0Zm0 36.129A16.129 16.129 0 1 1 36.129 20 16.125 16.125 0 0 1 20 36.129Zm8.21-21.145L23.194 20l5.016 5.016a.969.969 0 0 1 0 1.371l-1.823 1.823a.969.969 0 0 1-1.371 0L20 23.194l-5.016 5.016a.969.969 0 0 1-1.371 0l-1.823-1.823a.969.969 0 0 1 0-1.371L16.806 20l-5.016-5.016a.969.969 0 0 1 0-1.371l1.823-1.823a.969.969 0 0 1 1.371 0L20 16.806l5.016-5.016a.969.969 0 0 1 1.371 0l1.823 1.823a.969.969 0 0 1 0 1.371Z"/>
</svg>
