<svg width="40" height="40" xmlns="http://www.w3.org/2000/svg">
  <path style="fill:#000000" d="M34.116 17.866 20.9 31.116a1.072 1.072 0 0 1-1.518 0L6.17 17.866a1.072 1.072 0 0 1 0-1.518L7.92 14.6a1.06 1.06 0 0 1 1.527.018l8.366 8.67V1.071A1.075 1.075 0 0 1 18.884 0h2.5a1.075 1.075 0 0 1 1.071 1.071v22.215l8.366-8.67a1.075 1.075 0 0 1 1.527-.018l1.75 1.75a1.057 1.057 0 0 1 .018 1.518Zm2.1 17.491H4.071A1.075 1.075 0 0 0 3 36.429v2.5A1.075 1.075 0 0 0 4.071 40h32.143a1.075 1.075 0 0 0 1.071-1.071v-2.5a1.075 1.075 0 0 0-1.071-1.072Z"/>
</svg>
