<svg width="40" height="40" xmlns="http://www.w3.org/2000/svg">
  <path style="fill:#000000" d="M33.027 0a10 10 0 0 1 1.22.4 4.494 4.494 0 0 1 2.823 4.326c.032 4.6 0 9.2 0 13.806a1.165 1.165 0 0 1-.028.3 4.866 4.866 0 0 0-3.055.364V6.217H3.107c0 .128-.024.268-.024.4v25.534A1.6 1.6 0 0 0 4.9 33.982h15.2c-.3 1.008-.576 2-.876 2.947a.344.344 0 0 1-.268.144H4.85a4.65 4.65 0 0 1-4.634-3.259c-.08-.26-.144-.524-.216-.8V4.066a1.487 1.487 0 0 0 .076-.2A4.51 4.51 0 0 1 2.743.424 10.368 10.368 0 0 1 4.078 0Zm-1.759 25.714 4.894 4.854c-.076.084-.164.18-.252.268q-3.6 3.6-7.229 7.2a1.655 1.655 0 0 1-.656.4c-1.707.52-3.423 1.02-5.142 1.511a1.224 1.224 0 0 1-.608.032.64.64 0 0 1-.432-.8q.8-2.8 1.627-5.554a.9.9 0 0 1 .232-.356q3.742-3.77 7.485-7.5a.244.244 0 0 1 .081-.055Zm-3.713 11.403c-.144-.764-.28-1.5-.428-2.219a.32.32 0 0 0-.18-.216c-.732-.164-1.471-.312-2.223-.464-.272.928-.508 1.823-.8 2.7a.8.8 0 0 0 .268.876.584.584 0 0 0 .736.108Z"/>
  <path style="fill:#000000" d="M29.328 18.561v3.031H7.737v-3.031Zm-.004-6.166v3.035H7.733v-3.035Zm-1.443 12.351c-1.427 1-2.8 2-4.214 2.951a1.043 1.043 0 0 1-.512.112H8.145a2.023 2.023 0 0 1-.42-.032v-3.031Zm9.764 4.043-4.622-4.56c.684-.728 1.323-1.487 2.051-2.143a1.483 1.483 0 0 1 1.947.1 58.731 58.731 0 0 1 2.543 2.547 1.6 1.6 0 0 1 0 2.143 3.8 3.8 0 0 1-.268.288Z"/>
</svg>
