<svg width="40" height="30" xmlns="http://www.w3.org/2000/svg">
  <path style="fill:#000000" d="M36.25 0H3.75A3.75 3.75 0 0 0 0 3.75v22.5A3.75 3.75 0 0 0 3.75 30h32.5A3.75 3.75 0 0 0 40 26.25V3.75A3.75 3.75 0 0 0 36.25 0Zm0 3.75v3.188c-1.752 1.426-4.544 3.645-10.515 8.32-1.315 1.034-3.922 3.521-5.735 3.492-1.813.029-4.42-2.458-5.735-3.492C8.3 10.583 5.5 8.365 3.75 6.938V3.75Zm-32.5 22.5v-14.5c1.79 1.426 4.329 3.427 8.2 6.457 1.708 1.344 4.7 4.311 8.052 4.293 3.337.018 6.29-2.906 8.051-4.293a1380.04 1380.04 0 0 0 8.2-6.457v14.5Z"/>
</svg>
