<svg width="40" height="40" xmlns="http://www.w3.org/2000/svg">
  <path style="fill:#000000" d="M39.991 26.786 40 38.929A1.075 1.075 0 0 1 38.929 40l-12.143-.009a1.075 1.075 0 0 1-1.071-1.071v-2.483a1.073 1.073 0 0 1 1.085-1.071l5.482.205.125-.125L20 23.036 7.589 35.446l.125.125 5.482-.205a1.073 1.073 0 0 1 1.089 1.071v2.483a1.075 1.075 0 0 1-1.071 1.071L1.071 40A1.075 1.075 0 0 1 0 38.929l.009-12.143a1.075 1.075 0 0 1 1.071-1.072h2.483A1.073 1.073 0 0 1 4.634 26.8l-.205 5.482.125.125L16.964 20 4.554 7.589l-.125.125.205 5.486a1.073 1.073 0 0 1-1.071 1.089H1.08a1.075 1.075 0 0 1-1.071-1.075L0 1.071A1.075 1.075 0 0 1 1.071 0l12.143.009a1.075 1.075 0 0 1 1.071 1.071v2.482A1.073 1.073 0 0 1 13.2 4.634l-5.482-.205-.125.125L20 16.964l12.411-12.41-.125-.125-5.482.205a1.073 1.073 0 0 1-1.089-1.071V1.08A1.075 1.075 0 0 1 26.786.009L38.929 0A1.075 1.075 0 0 1 40 1.071l-.009 12.143a1.075 1.075 0 0 1-1.071 1.071h-2.482a1.073 1.073 0 0 1-1.072-1.085l.205-5.482-.125-.125L23.036 20l12.41 12.411.125-.125-.205-5.486a1.073 1.073 0 0 1 1.071-1.089h2.483a1.075 1.075 0 0 1 1.071 1.075Z"/>
</svg>
