<svg width="40" height="40" xmlns="http://www.w3.org/2000/svg">
  <path style="fill:#000000" d="M35.714 0H4.286A4.286 4.286 0 0 0 0 4.286v31.428A4.286 4.286 0 0 0 4.286 40h31.428A4.286 4.286 0 0 0 40 35.714V4.286A4.286 4.286 0 0 0 35.714 0Zm-.536 35.714H4.821a.536.536 0 0 1-.536-.536V4.821a.536.536 0 0 1 .536-.536h30.358a.536.536 0 0 1 .536.536v30.358a.536.536 0 0 1-.536.535ZM30.357 8.571l-12.143.013a1.071 1.071 0 0 0-1.071 1.071v2.478a1.072 1.072 0 0 0 1.093 1.071l5.179-.191-14.53 14.53a1.072 1.072 0 0 0 0 1.515l2.056 2.056a1.071 1.071 0 0 0 1.515 0l14.53-14.529-.191 5.179a1.071 1.071 0 0 0 1.071 1.093h2.478a1.071 1.071 0 0 0 1.071-1.071l.013-12.143a1.071 1.071 0 0 0-1.071-1.072Z"/>
</svg>
