<svg width="40" height="40" xmlns="http://www.w3.org/2000/svg">
  <path style="fill:#000000" d="M28.889 10.077A1.155 1.155 0 1 0 30 11.231a1.133 1.133 0 0 0-1.111-1.154Zm8.333-3.461h-3.414l-.037-.074a3.854 3.854 0 0 0-3.478-2.234H25c-.037 0-.07.01-.107.012l.01-.012-1.895-1.967a1.106 1.106 0 0 0-1.9.816v11.842L4.664 2.23a1.084 1.084 0 0 0-1.555.233l-.665.924a1.183 1.183 0 0 0 .224 1.612l13.97 10.844h-3.86a8.116 8.116 0 0 0-5.622 2.308H6.111a2.836 2.836 0 0 1-2.778-2.882 1.7 1.7 0 0 0-1.667-1.731A1.7 1.7 0 0 0 0 15.269a6.287 6.287 0 0 0 4.992 6.23 8.859 8.859 0 0 0-.547 3v12.116a2.268 2.268 0 0 0 2.222 2.308h5.556a2.268 2.268 0 0 0 2.222-2.308v-6.923h8.889v6.923a2.268 2.268 0 0 0 2.222 2.308h5.556a2.268 2.268 0 0 0 2.222-2.308V19.307h.556A6.238 6.238 0 0 0 40 12.962V9.499a2.836 2.836 0 0 0-2.778-2.883ZM19.444 26.23h-8.333v9.23H7.778V24.499a5.105 5.105 0 0 1 5-5.192h6.667ZM30 35.461h-3.333v-9.23h-3.889v-6.727L30 21.379Zm6.667-22.5a2.836 2.836 0 0 1-2.778 2.885H30v1.967l-5.556-1.442V8.346A.567.567 0 0 1 25 7.769h5.293a.551.551 0 0 1 .5.319l.957 1.989h4.919Z"/>
</svg>
