<svg width="40" height="40" xmlns="http://www.w3.org/2000/svg">
  <path style="fill:#000000" d="M35.714 0H4.286A4.287 4.287 0 0 0 0 4.286v31.428A4.287 4.287 0 0 0 4.286 40h31.428A4.287 4.287 0 0 0 40 35.714V4.286A4.287 4.287 0 0 0 35.714 0Zm0 35.179a.537.537 0 0 1-.536.536H4.821a.537.537 0 0 1-.536-.536V4.821a.537.537 0 0 1 .536-.536h30.358a.537.537 0 0 1 .536.536Zm-15-25.9h-7.143a1.433 1.433 0 0 0-1.429 1.429v19.283a1.433 1.433 0 0 0 1.429 1.429H15a1.433 1.433 0 0 0 1.429-1.429v-5h4.286a7.857 7.857 0 1 0 0-15.714Zm0 11.438h-4.285v-7.146h4.286a3.571 3.571 0 0 1 0 7.143Z"/>
</svg>
