<svg width="40" height="40" xmlns="http://www.w3.org/2000/svg">
  <path style="fill:#000000" d="m39.07 31.233.832 1.679a.937.937 0 0 1-.422 1.255l-4.943 2.513a1.875 1.875 0 0 1-2.545-.916l-5.083-11.389H14.375a1.875 1.875 0 0 1-1.859-1.628C9.823 2.55 10.021 4.1 10 3.75a3.75 3.75 0 1 1 4.262 3.714l.755 5.661h11.546a.938.938 0 0 1 .938.937v1.875a.938.938 0 0 1-.938.937H15.517l.5 3.75h12.108a1.875 1.875 0 0 1 1.712 1.111l4.784 10.718 3.19-1.643a.937.937 0 0 1 1.259.423Zm-14.594-3.108h-.9A10 10 0 1 1 8.1 18l-.538-4.03a13.749 13.749 0 1 0 18.66 18.066Z"/>
</svg>
