<svg width="40" height="40" xmlns="http://www.w3.org/2000/svg">
  <path style="fill:#000000" d="M19.998 27.996a2 2 0 1 1-2 2 2 2 0 0 1 2-2m0-3a5 5 0 1 0 5 5 5 5 0 0 0-5-5Zm12.793-2.989a.752.752 0 0 0-.037-1.072 18.946 18.946 0 0 0-25.514 0 .753.753 0 0 0-.037 1.072l1.032 2.089a.742.742 0 0 0 1.039.038 15.984 15.984 0 0 1 21.451 0 .742.742 0 0 0 1.039-.038l1.029-2.086Zm6.964-8.374a29.375 29.375 0 0 0-39.514 0 .737.737 0 0 0-.034 1.063l1.038 2.074a.756.756 0 0 0 1.051.034 26.342 26.342 0 0 1 35.409 0 .756.756 0 0 0 1.051-.034l1.036-2.074a.737.737 0 0 0-.035-1.06Z"/>
</svg>
