<svg width="40" height="40" xmlns="http://www.w3.org/2000/svg">
  <path style="fill:#000000" d="M14.777 40a1.875 1.875 0 1 1 0-3.75 5.2 5.2 0 0 0 5.156-5.227V31c.079-5.636 5.691-6.557 5.691-10.372a9.375 9.375 0 0 0-18.75 0 1.875 1.875 0 0 1-3.75 0 13.125 13.125 0 1 1 26.25 0c0 5.833-5.633 6.862-5.691 10.413A8.952 8.952 0 0 1 14.777 40Zm8.348-19.375a6.875 6.875 0 1 0-13.75 0 1.875 1.875 0 0 0 3.75 0 3.125 3.125 0 1 1 6.25 0 1.875 1.875 0 1 0 3.75 0Zm10.234-5.547a1.875 1.875 0 0 0 .875-2.5 20.15 20.15 0 0 0-5.811-7.163 1.875 1.875 0 0 0-2.292 2.969 16.382 16.382 0 0 1 4.724 5.816 1.875 1.875 0 0 0 2.504.878Zm5.578-2.763a1.875 1.875 0 0 0 .877-2.5A25.952 25.952 0 0 0 32.4.394a1.875 1.875 0 1 0-2.3 2.963 22.246 22.246 0 0 1 6.334 8.081 1.875 1.875 0 0 0 2.503.877Zm-22.687 9.56a1.875 1.875 0 1 0 1.875 1.875 1.875 1.875 0 0 0-1.875-1.875Zm-5 5a1.875 1.875 0 1 0 1.875 1.875 1.875 1.875 0 0 0-1.875-1.875ZM1.875 36.25a1.875 1.875 0 1 0 1.875 1.875 1.875 1.875 0 0 0-1.875-1.875Zm8.2-1.326-5-5-2.651 2.652 5 5Z"/>
</svg>
