<svg width="40" height="40" xmlns="http://www.w3.org/2000/svg">
  <path style="fill:#000000" d="m38.767 25.9-3.75-10.858a4.944 4.944 0 0 0-1.359-2.076 7.811 7.811 0 1 0-11.748-.008 5.07 5.07 0 0 0-1.359 2.078l-.312.906a4.787 4.787 0 0 0-.38-.017 4.428 4.428 0 0 0-1.226.173 6.3 6.3 0 0 0-12.026 0 4.439 4.439 0 0 0-1.224-.173 4.374 4.374 0 0 0-3.095 7.473l2.974 2.968v9.255a4.382 4.382 0 0 0 4.374 4.374h.426a4.37 4.37 0 0 0 2.554-.824 4.367 4.367 0 0 0 2.559.824h.425a4.382 4.382 0 0 0 4.376-4.37v-3.37a5.006 5.006 0 0 0 1.556.246v2.5a5 5 0 0 0 5 5h2.5a5 5 0 0 0 5-5v-2.5a5 5 0 0 0 4.737-6.6ZM27.776 3.754a4.062 4.062 0 1 1-4.057 4.062 4.062 4.062 0 0 1 4.057-4.062ZM12.619 15.315a2.646 2.646 0 1 1-2.643 2.651 2.646 2.646 0 0 1 2.643-2.651Zm4.979 8.28-1.106 1.106-.156.16v10.764a.73.73 0 0 1-.73.73h-.43a.73.73 0 0 1-.734-.73v-5.659h-3.647v5.657a.73.73 0 0 1-.73.73h-.426a.73.73 0 0 1-.73-.73V24.859l-.156-.16-3.888-3.882a.73.73 0 1 1 1.033-1.033l2.15 2.15a6.459 6.459 0 0 0 4.571 1.9 6.459 6.459 0 0 0 4.57-1.893l1.494-1.493.655-.655a.73.73 0 0 1 1.033 1.032Zm16.4 5.156h-3.715V35a1.25 1.25 0 0 1-1.25 1.25h-2.5a1.25 1.25 0 0 1-1.25-1.25v-6.249h-3.75a1.25 1.25 0 0 1-1.18-1.672l.574-1.66 2.595-7.51.569-1.657a1.25 1.25 0 0 1 1.187-.851h.617a7.87 7.87 0 0 0 3.765 0h.616a1.25 1.25 0 0 1 1.187.851l3.749 10.85a1.256 1.256 0 0 1-1.215 1.648Z"/>
</svg>
