<svg width="40" height="40" xmlns="http://www.w3.org/2000/svg">
  <path style="fill:#000000" d="M35.812 3.682C31.3-.351 24.32.255 20 4.922 15.68.255 8.7-.359 4.187 3.682c-5.875 5.253-5.016 13.816-.828 18.355l13.7 14.828a3.938 3.938 0 0 0 5.875.008l13.7-14.828c4.186-4.539 5.066-13.102-.822-18.363Zm-1.843 15.559-13.7 14.828a.311.311 0 0 1-.531 0L6.031 19.241a8.923 8.923 0 0 1 .57-12.5 7.589 7.589 0 0 1 10.664.871L20 10.569l2.734-2.962a7.584 7.584 0 0 1 10.664-.88 8.963 8.963 0 0 1 .57 12.513Z"/>
</svg>
