<svg width="40" height="40" xmlns="http://www.w3.org/2000/svg">
  <path style="fill:#000000" d="M39 36.272a8.886 8.886 0 0 1-4.609-1.8 1.683 1.683 0 0 0-2.1.007 8.942 8.942 0 0 1-5.612 1.848 9.158 9.158 0 0 1-5.62-1.855 1.681 1.681 0 0 0-2.1.007 8.945 8.945 0 0 1-5.613 1.848 9.154 9.154 0 0 1-5.619-1.855 1.683 1.683 0 0 0-2.1.007 8.574 8.574 0 0 1-4.591 1.792A1.092 1.092 0 0 0 0 37.348v1.145a1.1 1.1 0 0 0 1.16 1.112 12.44 12.44 0 0 0 5.508-1.792 13.417 13.417 0 0 0 13.335 0 13.417 13.417 0 0 0 13.335 0 12.5 12.5 0 0 0 5.5 1.792A1.1 1.1 0 0 0 40 38.494v-1.16a1.069 1.069 0 0 0-1-1.062Zm-16.043-24.6a1.667 1.667 0 1 0 1.667 1.666 1.667 1.667 0 0 0-1.668-1.669Zm15.931 11.115H27.752a2.219 2.219 0 0 0 .763-1.673v-2.247a5.533 5.533 0 0 0 2.227-4.42v-2.22a5.567 5.567 0 0 0-3.7-5.234l-.976-2.277A7.77 7.77 0 0 0 18.914 0h-5.251a7.77 7.77 0 0 0-7.15 4.715l-.972 2.272a5.566 5.566 0 0 0-3.7 5.234v2.223a5.531 5.531 0 0 0 2.229 4.423v2.247a2.218 2.218 0 0 0 .759 1.673H1.111A1.111 1.111 0 0 0 0 23.9v1.111a1.112 1.112 0 0 0 1.111 1.112h2.266a5.547 5.547 0 0 0 .816 2.208 8.167 8.167 0 0 0 3.058 2.758l.063.034.116.061a13.77 13.77 0 0 0 9.795.8A11.128 11.128 0 0 0 20 30.716a10.938 10.938 0 0 0 2.372 1.135 13.865 13.865 0 0 0 9.757-.452 8.479 8.479 0 0 0 3.688-3.085 5.547 5.547 0 0 0 .808-2.194h2.266A1.112 1.112 0 0 0 40 25.009V23.9a1.111 1.111 0 0 0-1.112-1.113ZM5.176 12.227A2.223 2.223 0 0 1 7.4 10h.477l1.7-3.973a4.445 4.445 0 0 1 4.085-2.695h5.251A4.445 4.445 0 0 1 23 6.027L24.7 10h.477a2.223 2.223 0 0 1 2.223 2.227v2.223a2.223 2.223 0 0 1-2.223 2.223H7.4a2.223 2.223 0 0 1-2.223-2.223ZM8.861 22.79a2.219 2.219 0 0 0 .76-1.673V20h13.335v1.111a2.219 2.219 0 0 0 .76 1.673Zm.76-11.119a1.662 1.662 0 1 0 1.179.487 1.667 1.667 0 0 0-1.179-.487Zm11.343-4.75a2.227 2.227 0 0 0-2.05-1.365h-5.251A2.223 2.223 0 0 0 11.62 6.9L10.26 10h12.057Z"/>
</svg>
