<svg width="40" height="40" xmlns="http://www.w3.org/2000/svg">
  <path style="fill:#000000" d="M12.222 8.667A3.333 3.333 0 1 0 15.556 12a3.333 3.333 0 0 0-3.334-3.333Zm13.333 0A3.333 3.333 0 1 0 28.889 12a3.333 3.333 0 0 0-3.333-3.333Zm12.659 10a1.784 1.784 0 0 0-1.015.319l-6.089 4.072v.054a4.41 4.41 0 0 0-.72-2.413 9.964 9.964 0 1 0-11.5-16.1A9.958 9.958 0 0 0 4.824 18.667h-2.6A2.222 2.222 0 0 0 0 20.889v4.444a2.222 2.222 0 0 0 2.222 2.222h3.334v5.556A4.444 4.444 0 0 0 10 37.556h16.667a4.444 4.444 0 0 0 4.444-4.444v.051l6.089 4.07A1.782 1.782 0 0 0 40 35.8V20.418a1.767 1.767 0 0 0-1.785-1.751ZM27.778 33.111a1.111 1.111 0 0 1-1.111 1.111H10a1.111 1.111 0 0 1-1.111-1.111v-8.889H3.333V22h23.334a1.111 1.111 0 0 1 1.111 1.111Zm-2.222-14.444H12.222a6.667 6.667 0 1 1 4.436-11.6l2.231 2.014 2.231-2.012a6.652 6.652 0 1 1 4.435 11.6Zm11.111 14.2-5.556-3.714v-2.084l5.556-3.715Z"/>
</svg>
