<svg width="40" height="40" xmlns="http://www.w3.org/2000/svg">
  <path style="fill:#000000" d="M21.047 10.963a58.771 58.771 0 0 0-1.086-7.775A4.12 4.12 0 0 0 15.659 0a4.979 4.979 0 0 0-2.318.543A5 5 0 0 0 11.023 0a5 5 0 0 0-2.318.543A4.959 4.959 0 0 0 6.388 0a4.118 4.118 0 0 0-4.3 3.188A58.43 58.43 0 0 0 1 10.963a9 9 0 0 0 4.859 8.123l-.71 16.939A3.774 3.774 0 0 0 8.935 40h4.176a3.774 3.774 0 0 0 3.789-3.975l-.71-16.946a8.987 8.987 0 0 0 4.859-8.116Zm-8.332 5.819.849 19.431a.437.437 0 0 1-.452.445H8.935a.437.437 0 0 1-.452-.445l.849-19.431a5.8 5.8 0 0 1-4.991-5.819 61.035 61.035 0 0 1 1.03-7.149c.111-.64 1.97-.626 2.053.014v7.914c.063.738 1.963.752 2.053.014l.515-7.942c.111-.626 1.942-.626 2.053 0l.515 7.942c.09.738 1.991.724 2.053-.014V3.828c.084-.64 1.942-.654 2.053-.014a61.035 61.035 0 0 1 1.03 7.149 5.792 5.792 0 0 1-4.981 5.819Zm15.4 4.838-.929 14.28A3.815 3.815 0 0 0 31.07 40h3.9a3.833 3.833 0 0 0 3.9-3.759V3.759A3.833 3.833 0 0 0 34.968 0c-5 0-11.694 5.777-11.694 12.648 0 4.204 2.436 7.044 4.838 8.972Zm-1.5-8.972c0-5.053 5.248-9.306 8.353-9.306.3 0 .557.195.557.418v32.481c0 .23-.258.418-.557.418h-3.9c-.32 0-.578-.209-.557-.445l1.1-16.16c-2.756-1.879-5-4.107-5-7.406Z"/>
</svg>
