<svg width="40" height="40" xmlns="http://www.w3.org/2000/svg">
  <path style="fill:#000000" d="M36.25 11h-2.039A6.812 6.812 0 0 0 35 7.875 6.885 6.885 0 0 0 28.125 1c-3.25 0-5.352 1.664-8.047 5.336C17.378 2.664 15.278 1 12.031 1a6.885 6.885 0 0 0-6.875 6.875A6.716 6.716 0 0 0 5.945 11H3.75A3.751 3.751 0 0 0 0 14.75v10A1.254 1.254 0 0 0 1.25 26H2.5v8.391A4.114 4.114 0 0 0 6.609 38.5h26.782a4.114 4.114 0 0 0 4.109-4.109V26h1.25A1.254 1.254 0 0 0 40 24.75v-10A3.751 3.751 0 0 0 36.25 11ZM18.125 34.75H6.609a.358.358 0 0 1-.359-.359V26H15v-3.75H3.75v-7.5h14.375ZM12.023 11a3.125 3.125 0 0 1 0-6.25c1.719 0 2.93.594 6.57 6.016l.157.234Zm9.531-.234c3.641-5.422 4.852-6.016 6.57-6.016a3.125 3.125 0 0 1 0 6.25H21.4ZM36.25 22.25H25V26h8.75v8.391a.358.358 0 0 1-.359.359H21.875v-20H36.25Z"/>
</svg>
