<svg width="40" height="40" xmlns="http://www.w3.org/2000/svg">
  <path style="fill:#000000" d="M20 0a20 20 0 1 0 20 20A20 20 0 0 0 20 0Zm14.46 12.9h-5.42a26.875 26.875 0 0 0-2.516-7.637A16.167 16.167 0 0 1 34.46 12.9ZM20 3.871c1.5 0 3.919 3.323 5.1 9.032H14.9c1.181-5.709 3.6-9.032 5.1-9.032ZM3.871 20a16.329 16.329 0 0 1 .323-3.226h6.266c-.081 1.056-.137 2.121-.137 3.226s.056 2.169.137 3.226H4.194A16.329 16.329 0 0 1 3.871 20Zm1.669 7.1h5.42a26.875 26.875 0 0 0 2.516 7.637A16.167 16.167 0 0 1 5.54 27.1Zm5.42-14.2H5.54a16.167 16.167 0 0 1 7.935-7.637A26.875 26.875 0 0 0 10.96 12.9ZM20 36.129c-1.5 0-3.919-3.323-5.1-9.032h10.2c-1.185 5.71-3.6 9.032-5.1 9.032Zm5.653-12.9H14.347c-.089-1.032-.153-2.1-.153-3.226s.065-2.194.153-3.226h11.314c.089 1.032.153 2.1.153 3.226s-.072 2.191-.161 3.223Zm.871 11.508A27.13 27.13 0 0 0 29.04 27.1h5.42a16.167 16.167 0 0 1-7.936 7.634Zm3.016-11.511c.081-1.056.137-2.121.137-3.226s-.056-2.169-.137-3.226h6.266a16.29 16.29 0 0 1 0 6.452Z"/>
</svg>
