<svg width="40" height="40" xmlns="http://www.w3.org/2000/svg">
  <path style="fill:#000000" d="m13.916 19.693 2.246-8.678a2.73 2.73 0 0 0-2.027-3.335 6.4 6.4 0 0 0-7.671 4.475L5.088 17.5a2.727 2.727 0 0 0 2.027 3.335l3.469.831a2.777 2.777 0 0 0 3.332-1.973ZM10.532 17.8l-1.552-.373 1.116-4.327a2.526 2.526 0 0 1 2.126-1.824Zm23.217-5.3h-1.247a1.25 1.25 0 0 0-1.25 1.25v1.875h-2.9l-3.913-4.466a3.966 3.966 0 0 0-6.65 1.846l-1.76 7.037a4.39 4.39 0 0 0 1.15 4.159l5.766 5.766a.627.627 0 0 1 .183.442v7.715a1.875 1.875 0 0 0 3.75 0V30.41a4.338 4.338 0 0 0-1.282-3.093l-3.935-3.936 1.918-7.516 2.512 2.871a1.879 1.879 0 0 0 1.411.64h3.75V38.75a1.25 1.25 0 0 0 1.25 1.25h1.25a1.25 1.25 0 0 0 1.25-1.25v-25a1.25 1.25 0 0 0-1.253-1.25ZM14.52 24.812l-3.218 12.857a1.874 1.874 0 0 0 1.365 2.274 1.9 1.9 0 0 0 .46.057 1.874 1.874 0 0 0 1.816-1.42l2.615-10.459-2.156-2.153a6.749 6.749 0 0 1-.882-1.156ZM23.748 7.5a3.75 3.75 0 1 0-3.746-3.75 3.75 3.75 0 0 0 3.75 3.75Z"/>
</svg>
