<svg width="40" height="40" xmlns="http://www.w3.org/2000/svg">
  <path style="fill:#000000" d="M3.333 13.111h33.334A1.111 1.111 0 0 0 37.778 12V9.437a1.111 1.111 0 0 0-.721-1.04L20.781 2.142a2.221 2.221 0 0 0-1.561 0L2.943 8.4a1.111 1.111 0 0 0-.721 1.04V12a1.111 1.111 0 0 0 1.111 1.111ZM20 5.412l11.36 4.366H8.64Zm18.889 28.81h-1.111v-4.444a2.4 2.4 0 0 0-2.54-2.222h-1.9V15.333H30v12.223h-4.444V15.333h-3.334v12.223h-4.444V15.333h-3.334v12.223H10V15.333H6.667v12.223h-1.9a2.4 2.4 0 0 0-2.54 2.222v4.444H1.111A1.111 1.111 0 0 0 0 35.333v1.111a1.111 1.111 0 0 0 1.111 1.111h37.778A1.111 1.111 0 0 0 40 36.444v-1.111a1.111 1.111 0 0 0-1.111-1.111Zm-4.444 0H5.556v-3.333h28.888Z"/>
</svg>
