<svg width="40" height="31.105" xmlns="http://www.w3.org/2000/svg">
  <path style="fill:#000000" d="M19.469 8.07 6.667 18.614v11.38a1.111 1.111 0 0 0 1.111 1.111l7.781-.02a1.111 1.111 0 0 0 1.105-1.111v-6.646a1.111 1.111 0 0 1 1.111-1.111h4.44a1.111 1.111 0 0 1 1.111 1.111v6.641a1.111 1.111 0 0 0 1.111 1.115l7.779.022a1.111 1.111 0 0 0 1.111-1.111V18.606L20.532 8.07a.846.846 0 0 0-1.062 0Zm20.223 7.167-5.805-4.787V.833A.833.833 0 0 0 33.054 0h-3.889a.833.833 0 0 0-.833.833v5.042L22.115.76a3.333 3.333 0 0 0-4.236 0L.302 15.236a.833.833 0 0 0-.111 1.174l1.771 2.153a.833.833 0 0 0 1.174.113L19.469 5.223a.846.846 0 0 1 1.062 0l16.335 13.453a.833.833 0 0 0 1.174-.111l1.775-2.153a.833.833 0 0 0-.118-1.176Z"/>
</svg>
