<svg width="40" height="40" xmlns="http://www.w3.org/2000/svg">
  <path style="fill:#000000" d="M33.815 16.379a1.242 1.242 0 0 0 1.209 1.121h1.238a1.274 1.274 0 0 0 1.229-1.434 11.45 11.45 0 0 0-3.851-7.591 7.451 7.451 0 0 1-2.456-4.855 1.242 1.242 0 0 0-1.209-1.12h-1.238a1.274 1.274 0 0 0-1.229 1.434 11.453 11.453 0 0 0 3.851 7.591 7.451 7.451 0 0 1 2.456 4.854Zm-7.5 0a1.242 1.242 0 0 0 1.209 1.121h1.238a1.274 1.274 0 0 0 1.229-1.434 11.45 11.45 0 0 0-3.851-7.591 7.451 7.451 0 0 1-2.456-4.855 1.242 1.242 0 0 0-1.209-1.12h-1.238a1.274 1.274 0 0 0-1.229 1.434 11.453 11.453 0 0 0 3.851 7.591 7.451 7.451 0 0 1 2.456 4.854ZM37.5 22.5h-15L13.834 16a5 5 0 0 0-3-1H5a5 5 0 0 0-5 5v15a5 5 0 0 0 5 5h30a5 5 0 0 0 5-5V25a2.5 2.5 0 0 0-2.5-2.5ZM3.75 20A1.252 1.252 0 0 1 5 18.75h5.834a1.259 1.259 0 0 1 .75.25l4.666 3.5H3.75Zm5 16.25H5A1.252 1.252 0 0 1 3.75 35v-8.75h5Zm9.375 0H12.5v-10h5.625Zm9.375 0h-5.625v-10H27.5ZM36.25 35A1.252 1.252 0 0 1 35 36.25h-3.75v-10h5ZM7.5 12.5a6.25 6.25 0 1 0-6.25-6.25A6.25 6.25 0 0 0 7.5 12.5Zm0-8.75A2.5 2.5 0 1 1 5 6.25a2.5 2.5 0 0 1 2.5-2.5Z"/>
</svg>
