<svg width="40" height="40" xmlns="http://www.w3.org/2000/svg">
  <g transform="translate(-591 -577)">
    <circle cx="17" cy="17" r="17" transform="translate(594 580)"/>
    <path style="fill:#000000" d="M0 0h40v40H0Z" style="fill:none" transform="translate(591 577)"/>
    <path style="fill:#000000" d="M588 231a20 20 0 1 0 20 20 20 20 0 0 0-20-20Zm0 36.1a16.089 16.089 0 1 1 11.388-4.712A16.089 16.089 0 0 1 588 267.1Zm0-27.2a3.372 3.372 0 1 1-2.413.987A3.372 3.372 0 0 1 588 239.9Zm4.5 20.5a1 1 0 0 1-1 1h-7.1a1 1 0 0 1-1-1v-1.9a1 1 0 0 1 1-1h1v-5.2h-1a1 1 0 0 1-1-1v-1.9a1 1 0 0 1 1-1h5.2a1 1 0 0 1 1 1v8.1h1a1 1 0 0 1 1 1Z" style="fill:#fff" transform="translate(23 346)"/>
  </g>
</svg>
