<svg width="40" height="40" xmlns="http://www.w3.org/2000/svg">
  <path style="fill:#000000" d="M20 0a20 20 0 1 0 20 20A20 20 0 0 0 20 0Zm0 36.129A16.129 16.129 0 1 1 36.129 20 16.119 16.119 0 0 1 20 36.129Zm0-27.258a3.387 3.387 0 1 1-3.387 3.387A3.387 3.387 0 0 1 20 8.871Zm4.516 20.484a.968.968 0 0 1-.968.968h-7.1a.968.968 0 0 1-.968-.968v-1.936a.968.968 0 0 1 .968-.968h.968V21.29h-.968a.968.968 0 0 1-.968-.968v-1.935a.968.968 0 0 1 .968-.968h5.161a.968.968 0 0 1 .968.968v8.065h.968a.968.968 0 0 1 .968.968Z"/>
</svg>
