<svg width="40.005" height="40.005" xmlns="http://www.w3.org/2000/svg">
  <defs>
    <style>
      .instagram-filled_svg__b{fill:#fff}
    </style>
  </defs>
  <g transform="translate(-1351 -557)">
    <rect width="34" height="34" rx="3" transform="translate(1354 560)"/>
    <path style="fill:#000000" d="M1378.5 557h-15a12.5 12.5 0 0 0-12.5 12.5v15a12.5 12.5 0 0 0 12.5 12.5h15a12.5 12.5 0 0 0 12.5-12.5v-15a12.5 12.5 0 0 0-12.5-12.5Zm8.751 27.5a8.761 8.761 0 0 1-8.751 8.754h-15a8.761 8.761 0 0 1-8.75-8.754v-15a8.761 8.761 0 0 1 8.75-8.75h15a8.761 8.761 0 0 1 8.754 8.75Z" class="instagram-filled_svg__b"/>
    <path style="fill:#000000" d="M1371.001 568.566a8.436 8.436 0 1 0 8.436 8.436 8.437 8.437 0 0 0-8.436-8.436Zm0 13.709a5.273 5.273 0 1 1 5.273-5.273 5.28 5.28 0 0 1-5.273 5.273Zm10.016-17.426a2.139 2.139 0 1 1-2.139 2.139 2.139 2.139 0 0 1 2.139-2.139Z" class="instagram-filled_svg__b"/>
  </g>
</svg>
