<svg width="40" height="40" xmlns="http://www.w3.org/2000/svg">
  <path style="fill:#000000" d="M29.293 2.5a9.779 9.779 0 0 0-5.077 1.4A10.869 10.869 0 0 0 15.453 0c-5.037 0-9.21 2.768-9.937 6.378A1.018 1.018 0 0 0 6.626 7.5h2.625l1.25-2.5 1.485 2.962a8.966 8.966 0 0 0-1.135 2.355 7.034 7.034 0 0 0 1.7 6.978.645.645 0 0 0 .917.027l5.207-5.365A54.232 54.232 0 0 1 14.69 27.5h-1.689a10 10 0 0 0-10 10.159A2.461 2.461 0 0 0 5.501 40h25a2.458 2.458 0 0 0 2.5-2.334 9.977 9.977 0 0 0-7.548-9.827A65.254 65.254 0 0 0 26.116 10h5.633l1.25-2.5 1.25 2.5h2.767a.967.967 0 0 0 .97-1.122c-.634-3.61-4.282-6.378-8.693-6.378Zm-6.834 9.231.052.009a61.22 61.22 0 0 1-.849 15.76h-2.946a55.788 55.788 0 0 0 3.741-15.769Zm6.666 24.519H6.877a6.261 6.261 0 0 1 6.124-5h10a6.261 6.261 0 0 1 6.124 5Z"/>
</svg>
