<svg width="40" height="40" xmlns="http://www.w3.org/2000/svg">
  <path style="fill:#000000" d="M37.931 3.674A1.082 1.082 0 0 0 36.938 3a1.125 1.125 0 0 0-.972.59 11.908 11.908 0 0 1-10.41 6.077h-5.555a13.3 13.3 0 0 0-12.84 16.888 26.117 26.117 0 0 0-7.069 9.791 1.665 1.665 0 1 0 3.146 1.09 22.128 22.128 0 0 1 5.3-7.646 13.315 13.315 0 0 0 12.876 6.466c10.909-.792 18.583-10.569 18.583-22.541a25.252 25.252 0 0 0-2.066-10.041ZM21.07 32.944a9.995 9.995 0 0 1-9.875-5.312 23.614 23.614 0 0 1 13.812-4.076 1.667 1.667 0 0 0 0-3.333 26.924 26.924 0 0 0-14.861 4.125A9.626 9.626 0 0 1 10.008 23a10.011 10.011 0 0 1 10-10h5.555a15.117 15.117 0 0 0 10.551-4.229 22.817 22.817 0 0 1 .556 4.944c-.007 10.486-6.521 18.569-15.6 19.229Z"/>
</svg>
