<svg width="40" height="40" xmlns="http://www.w3.org/2000/svg">
  <path style="fill:#000000" d="M19.862 18.82a1.045 1.045 0 1 0 1.045 1.045 1.045 1.045 0 0 0-1.045-1.045Zm2.09-6.268A1.045 1.045 0 1 0 23 13.593a1.045 1.045 0 0 0-1.048-1.041Zm2.091 4.181A1.045 1.045 0 1 0 23 15.684a1.045 1.045 0 0 0 1.043 1.045Zm-2.091 2.091a1.045 1.045 0 1 0-1.045-1.045 1.045 1.045 0 0 0 1.045 1.041Zm-2.091-4.181a1.045 1.045 0 1 0 1.045 1.045 1.045 1.045 0 0 0-1.044-1.05Zm8.363-2.091a1.045 1.045 0 1 0-1.045-1.045 1.045 1.045 0 0 0 1.045 1.045Zm-3.136 1.045a1.045 1.045 0 1 0 1.046-1.045 1.045 1.045 0 0 0-1.046 1.041Zm-1.045-3.145a1.045 1.045 0 1 0 1.045 1.045 1.045 1.045 0 0 0-1.045-1.045Zm6.272 2.1a1.045 1.045 0 1 0 1.045 1.045 1.045 1.045 0 0 0-1.045-1.045Zm2.091-2.1a1.045 1.045 0 1 0 1.045 1.045 1.045 1.045 0 0 0-1.045-1.045Zm-4.181 4.181a1.045 1.045 0 1 0 1.045 1.045 1.045 1.045 0 0 0-1.046-1.04Zm-2.091 2.091a1.045 1.045 0 1 0 1.045 1.045 1.045 1.045 0 0 0-1.045-1.04Zm-4.181 4.181A1.045 1.045 0 1 0 23 21.952a1.045 1.045 0 0 0-1.048-1.042Zm-2.091 2.091a1.045 1.045 0 1 0 1.045 1.045 1.045 1.045 0 0 0-1.045-1.04Zm4.181-4.181a1.045 1.045 0 1 0 1.045 1.045 1.045 1.045 0 0 0-1.045-1.04Zm1.414-14.263-.738-.739a1.045 1.045 0 0 0-1.479 0l-.37.37a7.248 7.248 0 0 0-9.035-.925l-1.064-1.064A7.453 7.453 0 0 0 6.564.056 7.72 7.72 0 0 0 0 7.84v29.812a1.045 1.045 0 0 0 1.045 1.045h1.046a1.045 1.045 0 0 0 1.045-1.045V7.486a4.345 4.345 0 0 1 7.417-3.071l1.065 1.065a7.248 7.248 0 0 0 .926 9.031l-.37.37a1.045 1.045 0 0 0 0 1.478l.738.739a1.045 1.045 0 0 0 1.479 0L25.457 6.032a1.045 1.045 0 0 0 0-1.48Zm-10.673 7.72a4.112 4.112 0 0 1-1.194-2.86 4.186 4.186 0 0 1 4.181-4.181 4.111 4.111 0 0 1 2.86 1.194Zm3.038 22.764a.528.528 0 0 1 .711-.239l1.8.928 2.7-6.058a1.061 1.061 0 0 1 .969-.628h6.844l.283-2.12h-6.244a.53.53 0 0 1-.53-.53v-1.053a.529.529 0 0 1 .53-.53h6.529l.427-3.2a2.119 2.119 0 1 1 2.413-2.1c-.012.2.1-.678-1.422 10.739a1.06 1.06 0 0 1-1.051.921h-7.1l-2.873 6.437a1.06 1.06 0 0 1-1.439.518L17.576 36.7a.529.529 0 0 1-.239-.71l.471-.949Zm7.263.458a7.772 7.772 0 1 0 10.547-10.211l-.3 2.279a5.651 5.651 0 1 1-8.747 5.721h-.508Z"/>
</svg>
