<svg width="40.059" height="40" xmlns="http://www.w3.org/2000/svg">
  <path style="fill:#000000" d="M8.395 10.616a49.37 49.37 0 0 1 .65 5.2 4.258 4.258 0 0 1-2.782 4.224l.521 9.614a.972.972 0 0 1-.969 1.022H3.23a.972.972 0 0 1-.969-1.022l.521-9.614A4.256 4.256 0 0 1 0 15.817a49.224 49.224 0 0 1 .65-5.201c.129-.82 1.829-.832 1.934.044v5.7c.052.137.61.129.646 0 .057-1.022.319-5.621.323-5.726.133-.84 1.8-.84 1.934 0 .008.109.267 4.7.323 5.726.036.129.6.137.646 0v-5.699c.106-.872 1.81-.864 1.939-.045Zm4.813 11.536-.608 7.475a.969.969 0 0 0 .965 1.05h2.261a.967.967 0 0 0 .974-.973V10.972a.969.969 0 0 0-.971-.968c-3.331 0-8.94 7.208-2.621 12.15Zm17.938 3.792a.969.969 0 0 0-1.312.4 4.523 4.523 0 1 1-5.523-6.385.969.969 0 1 0-.656-1.823 6.462 6.462 0 1 0 7.891 9.121.969.969 0 0 0-.4-1.313Zm-4.01-12.067a1.938 1.938 0 1 0-1.939-1.939 1.938 1.938 0 0 0 1.939 1.939ZM40.01 27.462a.967.967 0 0 0-1.228-.612l-1.1.366-1.9-4.358a.983.983 0 0 0-.926-.581h-5.62l-.586-3.231h4.624a.969.969 0 0 0 0-1.938h-4.975l-.21-1.143a.97.97 0 0 0-1.907.347l1.293 7.108a.97.97 0 0 0 .953.8h5.827l2.008 4.58a.953.953 0 0 0 .851.582.963.963 0 0 0 .307-.05l1.9-.646a.971.971 0 0 0 .689-1.224Z"/>
</svg>
