<svg width="40" height="40" xmlns="http://www.w3.org/2000/svg">
  <path style="fill:#000000" d="M6.25 4h-5A1.25 1.25 0 0 0 0 5.25v5a1.25 1.25 0 0 0 1.25 1.25h5a1.25 1.25 0 0 0 1.25-1.25v-5A1.25 1.25 0 0 0 6.25 4Zm0 12.5h-5A1.25 1.25 0 0 0 0 17.75v5A1.25 1.25 0 0 0 1.25 24h5a1.25 1.25 0 0 0 1.25-1.25v-5a1.25 1.25 0 0 0-1.25-1.25Zm0 12.5h-5A1.25 1.25 0 0 0 0 30.25v5a1.25 1.25 0 0 0 1.25 1.25h5a1.25 1.25 0 0 0 1.25-1.25v-5A1.25 1.25 0 0 0 6.25 29Zm32.5-10.625h-25a1.25 1.25 0 0 0-1.25 1.25v1.25a1.25 1.25 0 0 0 1.25 1.25h25a1.25 1.25 0 0 0 1.25-1.25v-1.25a1.25 1.25 0 0 0-1.25-1.25Zm0 12.5h-25a1.25 1.25 0 0 0-1.25 1.25v1.25a1.25 1.25 0 0 0 1.25 1.25h25a1.25 1.25 0 0 0 1.25-1.25v-1.25a1.25 1.25 0 0 0-1.25-1.25Zm0-25h-25a1.25 1.25 0 0 0-1.25 1.25v1.25a1.25 1.25 0 0 0 1.25 1.25h25A1.25 1.25 0 0 0 40 8.375v-1.25a1.25 1.25 0 0 0-1.25-1.25Z"/>
</svg>
