<svg width="40" height="40" xmlns="http://www.w3.org/2000/svg">
  <path style="fill:#000000" d="M38.89 3a1.115 1.115 0 0 0-.414.081L26.667 7.444 14.722 3.228a4.45 4.45 0 0 0-2.781-.01L1.4 6.885A2.223 2.223 0 0 0 0 8.949V36a1.109 1.109 0 0 0 1.524 1.032l11.809-4.364 11.944 4.216a4.443 4.443 0 0 0 2.781.01L38.6 33.226a2.222 2.222 0 0 0 1.4-2.064V4.112A1.112 1.112 0 0 0 38.89 3ZM15.556 7.057l8.888 3.143v22.854l-8.889-3.138ZM3.333 32.809V9.741l8.889-3.092v22.875l-.044.016Zm33.333-2.44-8.889 3.092V10.587l.044-.017 8.846-3.27Z"/>
</svg>
