<svg width="40" height="39" xmlns="http://www.w3.org/2000/svg">
  <path style="fill:#000000" d="M11.66 28.975a2.411 2.411 0 0 0 1.706-.709l17.464-17.46-5.411-5.412L7.955 22.858a2.411 2.411 0 0 0-.709 1.706v3.211a1.211 1.211 0 0 0 1.207 1.2ZM35.7 5.938a1.808 1.808 0 0 0 0-2.551L32.838.526a1.818 1.818 0 0 0-2.558 0l-3.155 3.155L32.536 9.1Zm-5.36 20.626a1.211 1.211 0 0 0-1.208-1.208H19.7l-3.625 3.619h13.057a1.211 1.211 0 0 0 1.208-1.2ZM0 12.075v24.15a2.412 2.412 0 0 0 2.415 2.415h35.17A2.412 2.412 0 0 0 40 36.225v-24.15a2.412 2.412 0 0 0-2.415-2.415H35.4l-1.147 1.147-1.706 1.706-.77.77h4.6v21.734H3.623V13.281h10.49l3.623-3.623H2.415A2.417 2.417 0 0 0 0 12.075Zm30.34 9.66v-1.209a1.211 1.211 0 0 0-1.208-1.208h-3.4l-3.623 3.623h7.019a1.206 1.206 0 0 0 1.212-1.207Z"/>
</svg>
