<svg width="40" height="40" xmlns="http://www.w3.org/2000/svg">
  <path style="fill:#000000" d="M33.333 30.5v3.1A3.323 3.323 0 0 1 30 36.921H3.333A3.323 3.323 0 0 1 0 33.608V13.939a3.323 3.323 0 0 1 3.333-3.313h1.111v3.313H3.75a.415.415 0 0 0-.417.414v18.841a.415.415 0 0 0 .417.414h25.833a.415.415 0 0 0 .417-.414V30.5ZM36.25 5.313H10.417a.415.415 0 0 0-.417.414v18.841a.415.415 0 0 0 .417.414H36.25a.415.415 0 0 0 .417-.414V5.727a.415.415 0 0 0-.417-.414ZM36.667 2A3.323 3.323 0 0 1 40 5.313v19.669a3.323 3.323 0 0 1-3.333 3.313H10a3.323 3.323 0 0 1-3.333-3.313V5.313A3.323 3.323 0 0 1 10 2ZM18.333 9.73a2.778 2.778 0 1 1-2.778-2.761 2.769 2.769 0 0 1 2.778 2.761Zm-5 8.626 2.744-3.727a.837.837 0 0 1 1.179 0l.306.3L20 18.356l7.189-8.145a.837.837 0 0 1 1.179 0l4.966 5.936v5.522h-20Z"/>
</svg>
