<svg width="40" height="40" xmlns="http://www.w3.org/2000/svg">
  <path style="fill:#000000" d="M23.621 17.556h8.046a7.767 7.767 0 0 1 4.938 2.222A7.767 7.767 0 0 1 31.667 22h-8.046l-6.984 14.222h-2.579L17.551 22H9.445l-2.5 3.333h-2.87l1.623-5.555-1.623-5.556h2.87l2.5 3.333h8.106L14.058 3.333h2.579M17.927 0h-6.815a1.111 1.111 0 0 0-1.068 1.416l3.087 12.806h-2.019l-2.167-2.889a1.111 1.111 0 0 0-.889-.444H1.112a1.111 1.111 0 0 0-1.078 1.38l2.188 7.508-2.188 7.509a1.111 1.111 0 0 0 1.078 1.381h6.944a1.11 1.11 0 0 0 .889-.444l2.167-2.889h2.019l-3.087 12.805a1.111 1.111 0 0 0 1.068 1.417h6.815a1.112 1.112 0 0 0 .965-.56l6.665-13.663h6.111c3.068 0 8.333-2.488 8.333-5.556s-5.265-5.556-8.333-5.556h-6.112L18.892.56a1.111 1.111 0 0 0-.965-.56Z"/>
</svg>
