<svg width="40" height="40" xmlns="http://www.w3.org/2000/svg">
  <path style="fill:#000000" d="M31.25 20.625a1.875 1.875 0 1 0 1.875 1.875 1.875 1.875 0 0 0-1.875-1.875Zm2.5-6.875V7.8a3.75 3.75 0 0 0-1.1-2.652L28.6 1.1A3.75 3.75 0 0 0 25.947 0H8.631A2.443 2.443 0 0 0 6.25 2.5v11.25A6.25 6.25 0 0 0 0 20v10a1.25 1.25 0 0 0 1.25 1.25h5v7.5A1.25 1.25 0 0 0 7.5 40h25a1.25 1.25 0 0 0 1.25-1.25v-7.5h5A1.25 1.25 0 0 0 40 30V20a6.25 6.25 0 0 0-6.25-6.25ZM10 3.75h15V7.5a1.25 1.25 0 0 0 1.25 1.25H30v5H10Zm20 32.5H10v-5h20Zm6.25-8.75H3.75V20a2.5 2.5 0 0 1 2.5-2.5h27.5a2.5 2.5 0 0 1 2.5 2.5Z"/>
</svg>
