<svg width="40" height="40" xmlns="http://www.w3.org/2000/svg">
  <path style="fill:#000000" d="m24.394 15.066 2.48 5.664-11.27 4.935-2.481-5.664 11.271-4.935m.175-3.451-14.1 6.175a1.546 1.546 0 0 0-.8 2.036l3.724 8.495a1.546 1.546 0 0 0 2.036.8l14.1-6.176a1.546 1.546 0 0 0 .792-2.033l-3.715-8.5a1.546 1.546 0 0 0-2.036-.8Zm9.942-.417.472-.207-2.686-6.137a3.091 3.091 0 0 0-4.072-1.594L1.854 14.813A3.091 3.091 0 0 0 .26 18.885l2.688 6.135.472-.207a2.576 2.576 0 1 1 2.067 4.72l-.471.207 2.687 6.135a3.091 3.091 0 0 0 4.072 1.591l26.372-11.55a3.091 3.091 0 0 0 1.593-4.076l-2.689-6.13-.472.207a2.576 2.576 0 1 1-2.067-4.72Zm-3.349-1.23a5.668 5.668 0 0 0 4.049 9.247l1.7 3.872L10.54 34.64l-1.7-3.879a5.668 5.668 0 0 0-4.05-9.244L3.094 17.64 29.465 6.094Z"/>
</svg>
