<svg width="40" height="40" xmlns="http://www.w3.org/2000/svg">
  <path style="fill:#000000" d="M14.376 33.878h-3.195v-7.683a9.628 9.628 0 0 0 7.946-10.373L18.066 3.969a1.055 1.055 0 0 0-1.044-.964H2.148a1.055 1.055 0 0 0-1.044.964L.041 15.822a9.628 9.628 0 0 0 7.946 10.373v7.683H4.793a2.662 2.662 0 0 0-2.662 2.662.532.532 0 0 0 .532.532h13.842a.532.532 0 0 0 .532-.532 2.662 2.662 0 0 0-2.661-2.662Zm.682-27.683.477 5.324H3.634l.477-5.324Zm-11.836 9.91.124-1.393h12.476l.125 1.393a6.421 6.421 0 0 1-5.5 7.009H8.722a6.421 6.421 0 0 1-5.5-7.009Zm31.627-13.1a4.76 4.76 0 0 0-2.216.519 4.99 4.99 0 0 0-4.432 0 4.741 4.741 0 0 0-2.216-.519 3.937 3.937 0 0 0-4.113 3.048 55.861 55.861 0 0 0-1.038 7.433 8.6 8.6 0 0 0 4.645 7.766L24.8 33.277a3.608 3.608 0 0 0 3.62 3.8h3.993a3.608 3.608 0 0 0 3.62-3.8l-.679-12.032a8.592 8.592 0 0 0 4.645-7.759 56.188 56.188 0 0 0-1.037-7.437 3.939 3.939 0 0 0-4.113-3.044Zm-2.815 16.04.812 14.407a.418.418 0 0 1-.433.426h-3.991a.418.418 0 0 1-.433-.426l.812-14.407a5.546 5.546 0 0 1-4.771-5.563 58.353 58.353 0 0 1 .985-6.834c.106-.612 1.883-.6 1.963.013v7.566c.06.705 1.877.719 1.963.013l.492-7.593c.106-.6 1.857-.6 1.963 0l.492 7.593c.087.705 1.9.692 1.963-.013V6.661c.08-.612 1.857-.626 1.963-.013a58.353 58.353 0 0 1 .985 6.834 5.536 5.536 0 0 1-4.765 5.563ZM40 13.482Z"/>
</svg>
