<svg width="40" height="40" xmlns="http://www.w3.org/2000/svg">
  <path style="fill:#000000" d="M8.734 25.159v1.122a.561.561 0 0 1-.561.561H.561A.561.561 0 0 1 0 26.281v-1.122a.561.561 0 0 1 .561-.561h7.612a.561.561 0 0 1 .561.561ZM40 34.072v2.041a3.026 3.026 0 0 1-3.025 3.024H26.084a1.668 1.668 0 0 1-1.2-.508L7.036 20.138a3.687 3.687 0 0 1-.3-4.794l.049-.06L18.47 2.025a3.021 3.021 0 0 1 4.318-.227l7.388 6.82a3.029 3.029 0 0 1 .972 2.22v12.86A10.548 10.548 0 0 1 40 34.072ZM14.943 17.737a3.134 3.134 0 0 0-.923-2.231l-1.595-1.594-1.648 1.88 3.538 3.666a5.556 5.556 0 0 0 .625-1.723ZM36.61 33.793c-.48-3.5-3.49-6.909-7.122-6.909h-1.662v-.016h-4.159a.561.561 0 0 1-.561-.561v-1.121a.561.561 0 0 1 .561-.561h4.159v-2.243h-4.159a.561.561 0 0 1-.561-.561v-1.123a.561.561 0 0 1 .561-.561h4.159v-9.139l-7.07-6.524-6.131 6.94 1.743 1.743c2.276 2.276 2.146 6.211.3 8.741l11.483 11.895Zm-24.165-4.751H.561a.561.561 0 0 0-.561.556v1.122a.561.561 0 0 0 .561.561h11.884a.561.561 0 0 0 .561-.561v-1.122a.561.561 0 0 0-.561-.556Zm4.271 4.44H.561a.561.561 0 0 0-.561.56v1.122a.561.561 0 0 0 .561.561h16.155a.561.561 0 0 0 .561-.561v-1.122a.561.561 0 0 0-.561-.564Z"/>
</svg>
