<svg width="40" height="32.031" xmlns="http://www.w3.org/2000/svg">
  <path style="fill:#000000" d="M20.5 0h-1a1 1 0 0 0-1 1v30.03a1 1 0 0 0 1 1h1a1 1 0 0 0 1-1V1a1 1 0 0 0-1-1Zm-7.95 8.6a5.5 5.5 0 1 0-9.1 0A6 6 0 0 0 0 14.014v7.006a2 2 0 0 0 2 2h1v7.007a2 2 0 0 0 2 2h6a2 2 0 0 0 2-2v-7.005h1a2 2 0 0 0 2-2v-7.008A6 6 0 0 0 12.55 8.6ZM8 3a2.5 2.5 0 1 1-2.5 2.5A2.5 2.5 0 0 1 8 3Zm5 17.017h-3v9.009H6v-9.007H3v-6.005a3 3 0 0 1 3-3h4a3 3 0 0 1 3 3Zm26.924.644-2.356-8.427a5.762 5.762 0 0 0-1.762-2.771 5.5 5.5 0 1 0-7.612 0 5.716 5.716 0 0 0-1.762 2.771l-2.356 8.427a2.671 2.671 0 0 0 .5 2.29 2.789 2.789 0 0 0 2.206 1.064H27v5.505a2.5 2.5 0 0 0 2.5 2.5h5a2.5 2.5 0 0 0 2.5-2.5v-5.503h.219a2.789 2.789 0 0 0 2.206-1.064 2.667 2.667 0 0 0 .5-2.29ZM32 3a2.5 2.5 0 1 1-2.5 2.5A2.5 2.5 0 0 1 32 3Zm2 18.02v8.008h-4V21.02l-2.931.075 2.25-8.052a2.784 2.784 0 0 1 5.362 0l2.225 7.977Z"/>
</svg>
