<svg width="40" height="40" xmlns="http://www.w3.org/2000/svg">
  <path style="fill:#000000" d="M7.888 2.083h-4.1a3.817 3.817 0 0 0-.676.062A1.261 1.261 0 0 0 2.527 2H1.26A1.262 1.262 0 0 0-.002 3.265v32.814a1.262 1.262 0 0 0 1.262 1.263h.947a1.262 1.262 0 0 0 1.262-1.262V13.758h4.417a3.788 3.788 0 0 0 3.787-3.786v-4.1a3.788 3.788 0 0 0-3.786-3.787Zm.036 7.5a.494.494 0 0 1-.492.492H3.677a.494.494 0 0 1-.492-.492V5.904a.494.494 0 0 1 .492-.492h3.755a.494.494 0 0 1 .492.492Zm30.244 5.064h-.608v-2.145c0-3.424-3.073-6.117-12.616-6.117s-12.466 2.691-12.466 6.117v2.141h-.609a1.835 1.835 0 0 0-1.835 1.835v3.288a1.835 1.835 0 0 0 1.826 1.837h.609v8.41a2.447 2.447 0 0 0 2.446 2.446v2.447a2.447 2.447 0 0 0 2.45 2.448h1.224a2.447 2.447 0 0 0 2.446-2.446v-2.449h7.952v2.447a2.447 2.447 0 0 0 2.446 2.448h1.227a2.447 2.447 0 0 0 2.447-2.446v-2.449a2.447 2.447 0 0 0 2.453-2.447v-8.41h.6a1.835 1.835 0 0 0 1.835-1.835v-3.289a1.835 1.835 0 0 0-1.827-1.835Zm-3.68 14.6H16.039v-6.2h18.449Zm0-10.02H16.039v-2.146h18.449Zm0-5.963H16.039v-.523c1.128-1.1 1.247-2.977 9.145-2.977s8.176 1.877 9.3 2.977Zm-5.5 15.384a2.447 2.447 0 1 0-2.447-2.447 2.447 2.447 0 0 0 2.452 2.447Zm-7.952 0a2.447 2.447 0 1 0-2.446-2.447 2.447 2.447 0 0 0 2.446 2.447Z"/>
</svg>
