<svg xml:space="preserve" style="enable-background:new 0 0 60 53.3" viewBox="0 0 60 53.3" xmlns="http://www.w3.org/2000/svg">
  <path style="fill:#000000" d="m25.9 21.3.7 11.7c0 .7.6 1.2 1.2 1.2h4.3c.7 0 1.2-.5 1.2-1.2l.7-11.7c0-.7-.5-1.3-1.2-1.3H27c-.5 0-1.1.6-1.1 1.3zM34.4 40c0 2.4-2 4.4-4.4 4.4s-4.4-2-4.4-4.4 2-4.4 4.4-4.4 4.4 2 4.4 4.4zm-.1-37.5C32.9.1 29.9-.7 27.5.7c-.8.4-1.4 1.1-1.8 1.8L.7 45.8c-1.4 2.4-.6 5.4 1.8 6.8.8.4 1.6.7 2.5.7h50c2.8 0 5-2.2 5-5 0-.9-.2-1.7-.7-2.5l-25-43.3zM5.5 47.4l24-41.5c.2-.3.6-.4.9-.2.1.1.2.1.2.2l23.9 41.5c.2.3.1.7-.2.9-.1.1-.2.1-.3.1H6.1c-.3 0-.6-.3-.6-.6v-.4z"/>
</svg>
