<svg width="20" height="20" xmlns="http://www.w3.org/2000/svg">
  <path style="fill:#000000" d="M16.563 13.125h-3.75a1.563 1.563 0 0 1 0-3.125h3.437S20 5.82 20 3.75a3.75 3.75 0 0 0-7.5 0c0 1.164 1.184 3 2.223 4.375h-1.91a3.438 3.438 0 0 0 0 6.875h3.75a1.563 1.563 0 0 1 0 3.125H5.277C6.316 16.746 7.5 14.914 7.5 13.75a3.75 3.75 0 0 0-7.5 0C0 15.82 3.75 20 3.75 20h12.813a3.438 3.438 0 0 0 0-6.875ZM14.375 3.75a1.875 1.875 0 0 1 3.75 0 9.713 9.713 0 0 1-1.875 3.3 9.708 9.708 0 0 1-1.875-3.3ZM3.75 17.043a9.708 9.708 0 0 1-1.875-3.293 1.875 1.875 0 0 1 3.75 0 9.713 9.713 0 0 1-1.875 3.293Zm0-3.918a.625.625 0 1 0 .625.625.627.627 0 0 0-.625-.625ZM16.875 3.75a.625.625 0 1 0-.625.625.627.627 0 0 0 .625-.625Z"/>
</svg>
