<svg width="40.001" height="40" xmlns="http://www.w3.org/2000/svg">
  <path style="fill:#000000" d="M38.741 22.495h-3.693a17.446 17.446 0 0 0-13.172 6.02v-6.028A10.743 10.743 0 0 0 32.501 11.75V1.249A1.25 1.25 0 0 0 30.513.243l-5.775 4.191L20.961.449a1.25 1.25 0 0 0-1.92 0l-3.778 3.985L9.489.243a1.25 1.25 0 0 0-1.988 1.006v10.5a10.74 10.74 0 0 0 10.625 10.738v6.028a17.446 17.446 0 0 0-13.172-6.02H1.261a1.361 1.361 0 0 0-1.254 1.54 17.533 17.533 0 0 0 17.48 15.96h5.027a17.533 17.533 0 0 0 17.482-15.96 1.362 1.362 0 0 0-1.255-1.54Zm-27.49-10.75V6.124l4.375 3.25 4.375-4.379 4.375 4.38 4.375-3.25v5.625a7 7 0 0 1-7 7h-3.5a7 7 0 0 1-7-7Zm6.237 24.5a13.9 13.9 0 0 1-13.274-10c5.879 0 10.052 2.516 12.573 6.713l1.975 3.288Zm5.013 0h-1.26l1.975-3.288c2.5-4.167 6.659-6.713 12.573-6.713A13.9 13.9 0 0 1 22.501 36.25Z"/>
</svg>
