<svg width="40" height="40" xmlns="http://www.w3.org/2000/svg">
  <path style="fill:#000000" d="M19.999 22.509a1.25 1.25 0 1 0 1.25 1.25 1.254 1.254 0 0 0-1.25-1.25Zm0-5a1.25 1.25 0 1 0 1.25 1.25 1.254 1.254 0 0 0-1.25-1.252Zm-2.5-10.629a1.25 1.25 0 1 0 1.25 1.25 1.254 1.254 0 0 0-1.25-1.252Zm2.5 20.633a1.25 1.25 0 1 0 1.25 1.25 1.254 1.254 0 0 0-1.25-1.252ZM39.914 14.4l-.456-1.129a1.262 1.262 0 0 0-1.625-.68l-2.2.9v-2.268A1.238 1.238 0 0 0 34.375 10h-1.25a1.238 1.238 0 0 0-1.25 1.219v3.665c0 .039.023.078.023.117l-2.047.836a11.132 11.132 0 0 0-1.07-2.079 9.688 9.688 0 1 0-17.564 0 10.477 10.477 0 0 0-1.07 2.079L8.1 15.001a.623.623 0 0 0 .023-.117v-3.661A1.238 1.238 0 0 0 6.873 10h-1.25a1.238 1.238 0 0 0-1.25 1.219v2.271l-2.2-.9a1.262 1.262 0 0 0-1.625.68L.091 14.4a1.21 1.21 0 0 0 .7 1.587l8.6 3.509c0 .063-.016.125-.016.188a9.536 9.536 0 0 0 .164 1.719 12.592 12.592 0 0 0 3.709 17.729 5.972 5.972 0 0 0 3.219.868h7.024a6.422 6.422 0 0 0 3.7-1.165 12.552 12.552 0 0 0 3.277-17.42 9.7 9.7 0 0 0 .164-1.735c0-.063-.016-.125-.016-.188l8.6-3.509a1.206 1.206 0 0 0 .698-1.583ZM25.058 35.772a2.749 2.749 0 0 1-1.57.492h-7.03a2.3 2.3 0 0 1-1.211-.289A8.843 8.843 0 0 1 13.014 23l.57-.727-.227-.9a6.547 6.547 0 0 1 1.492-6.206l.938-1.071-.773-1.188a5.936 5.936 0 1 1 10.915-3.225 5.994 5.994 0 0 1-.961 3.228l-.774 1.189.938 1.071a6.563 6.563 0 0 1 1.492 6.213l-.227.9.57.727a8.7 8.7 0 0 1 1.758 3.822 8.82 8.82 0 0 1-3.667 8.939ZM22.499 6.878a1.25 1.25 0 1 0 1.25 1.25 1.254 1.254 0 0 0-1.25-1.25ZM19.999 10a1.254 1.254 0 0 0-1.25 1.25 8.3 8.3 0 0 0 1.25 2.5 8.3 8.3 0 0 0 1.25-2.5 1.254 1.254 0 0 0-1.25-1.25Z"/>
</svg>
