<svg width="40" height="40" xmlns="http://www.w3.org/2000/svg">
  <path style="fill:#000000" d="M30.5 25a7.458 7.458 0 0 0-5.164 2.063l-7.68-4.8a7.546 7.546 0 0 0 0-4.516l7.68-4.8A7.5 7.5 0 1 0 23 7.5a7.607 7.607 0 0 0 .344 2.258l-7.68 4.8a7.5 7.5 0 1 0 0 10.875l7.68 4.8A7.646 7.646 0 0 0 23 32.5a7.5 7.5 0 1 0 7.5-7.5Zm0-21.25a3.75 3.75 0 1 1-3.75 3.75 3.751 3.751 0 0 1 3.75-3.75Zm-20 20A3.75 3.75 0 1 1 14.25 20a3.751 3.751 0 0 1-3.75 3.75Zm20 12.5a3.75 3.75 0 1 1 3.75-3.75 3.751 3.751 0 0 1-3.75 3.75Z"/>
</svg>
