<svg width="40" height="40" xmlns="http://www.w3.org/2000/svg">
  <path style="fill:#000000" d="M39.974 30.812c-.27-10.138-4.77-11.731-4.967-19.061a2.523 2.523 0 0 0-2.495-2.5H32.5V5.5A2.5 2.5 0 0 0 30 3h-6.25a2.5 2.5 0 0 0-2.5 2.5v3.75h-2.5V5.5a2.5 2.5 0 0 0-2.5-2.5H10a2.5 2.5 0 0 0-2.5 2.5v3.75h-.012a2.524 2.524 0 0 0-2.495 2.5C4.8 19.081.3 20.674.026 30.812L0 34.25A3.75 3.75 0 0 0 3.75 38h10a3.75 3.75 0 0 0 3.75-3.75V23h5v11.25A3.75 3.75 0 0 0 26.25 38h10A3.75 3.75 0 0 0 40 34.25ZM25 6.75h3.75v2.5H25Zm-13.75 0H15v2.5h-3.75Zm2.5 27.5-10 .028.024-3.366a21.463 21.463 0 0 1 2.452-9.73A22.635 22.635 0 0 0 8.68 13h5.07Zm3.75-15V13h5v6.25Zm8.75 15V13h5.07a22.63 22.63 0 0 0 2.453 8.183 21.37 21.37 0 0 1 2.451 9.657l.026 3.41Z"/>
</svg>
