<svg width="39.981" height="40" xmlns="http://www.w3.org/2000/svg">
  <path style="fill:#000000" d="M8.745 10a3.749 3.749 0 1 0-3.749-3.751A3.75 3.75 0 0 0 8.745 10ZM19.993 0h-2.5v16.872l2.5-.625Zm-5.03 29.791a1.877 1.877 0 1 0-1.187-3.562l-1.437.484a3.124 3.124 0 0 1-3.8-1.617L3.566 14.708a1.874 1.874 0 1 0-3.382 1.617l4.969 10.389a6.9 6.9 0 0 0 6.21 3.905c.983 0 1.327-.07 3.6-.828Zm23.152-7.3a1.88 1.88 0 0 0-1.875 1.875 2.62 2.62 0 0 1-1.7 2.445L24.367 30.58V20a1.881 1.881 0 0 0-2.328-1.82L14.736 20l-3.1-6.678a2.494 2.494 0 0 0-3.32-1.219 2.567 2.567 0 0 0-1.226 3.32l3.695 7.858a1.863 1.863 0 0 0 2.156 1.031l7.67-1.914v9.572l-11.9 4.4a1.874 1.874 0 1 0 1.3 3.515l25.815-9.537a6.394 6.394 0 0 0 4.155-5.968 1.87 1.87 0 0 0-1.867-1.88Z"/>
</svg>
