<svg width="20" height="20" xmlns="http://www.w3.org/2000/svg">
  <g data-name="Group 4353">
    <g data-name="Group 4350" style="isolation:isolate">
      <path style="fill:#000000" fill="#191919" d="M7 12.812a5.421 5.421 0 0 0 1.431.917 3.98 3.98 0 0 0 1.62.351 2.593 2.593 0 0 0 1.559-.394 1.238 1.238 0 0 0 .532-1.046 1.158 1.158 0 0 0-.137-.583 1.351 1.351 0 0 0-.386-.42 3.291 3.291 0 0 0-.6-.334c-.234-.1-.488-.206-.762-.309l-1.526-.669a5.658 5.658 0 0 1-.874-.429 3.64 3.64 0 0 1-.771-.617 2.718 2.718 0 0 1-.754-1.937 2.713 2.713 0 0 1 .291-1.244 3.16 3.16 0 0 1 .8-1 3.8 3.8 0 0 1 1.227-.669 4.876 4.876 0 0 1 1.568-.24 5.1 5.1 0 0 1 1.964.386 5.426 5.426 0 0 1 1.637 1.037L12.79 6.881a5.035 5.035 0 0 0-1.184-.7 3.574 3.574 0 0 0-1.389-.257 2.38 2.38 0 0 0-1.379.351 1.116 1.116 0 0 0-.506.969.981.981 0 0 0 .154.557 1.519 1.519 0 0 0 .42.411 3.11 3.11 0 0 0 .616.317c.235.091.477.189.73.291l1.473.634a5.989 5.989 0 0 1 .978.48 3.537 3.537 0 0 1 .77.634 2.621 2.621 0 0 1 .507.831 3.04 3.04 0 0 1 .18 1.089 2.978 2.978 0 0 1-.283 1.286 3.153 3.153 0 0 1-.814 1.054 3.95 3.95 0 0 1-1.3.719 5.325 5.325 0 0 1-1.749.267 6.1 6.1 0 0 1-2.263-.429 6.017 6.017 0 0 1-1.92-1.217Z" data-name="Path 2673"/>
    </g>
    <g data-name="Ellipse 403">
      <g data-name="Group 4351">
        <circle cx="10" cy="10" r="10" fill="none" data-name="Ellipse 403"/>
      </g>
      <g data-name="Group 4352">
        <path style="fill:#000000" fill="#191919" d="M10 20a10 10 0 1 1 10-10 10.011 10.011 0 0 1-10 10Zm0-18.1a8.1 8.1 0 1 0 8.1 8.1A8.1 8.1 0 0 0 10 1.905Z" data-name="Path 2674"/>
      </g>
    </g>
  </g>
</svg>
