<svg width="40" height="40" xmlns="http://www.w3.org/2000/svg">
  <path style="fill:#000000" d="M36.281 18.125a7.191 7.191 0 0 0-6.531-4.123 7.265 7.265 0 0 0-6.262 3.637 6.2 6.2 0 0 0 .712 12.363h9.6a6.2 6.2 0 0 0 2.481-11.877ZM33.8 27.002h-9.6a3.2 3.2 0 1 1 0-6.4 3.081 3.081 0 0 1 1.331.331 4.231 4.231 0 0 1 8.406-.319 3.2 3.2 0 0 1-.138 6.387ZM16 32.625l-3.244-4.812-5.681 1.1 1.1-5.7-4.8-3.25 4.8-3.25-1.1-5.7 5.688 1.1L16 7.314l3.244 4.811 5.687-1.1-.525 2.719a9.15 9.15 0 0 1 3.344-1.511l.256-1.331a2.527 2.527 0 0 0-2.956-2.969l-4.431.856-2.525-3.744a2.62 2.62 0 0 0-4.187 0l-2.526 3.744-4.425-.856a2.534 2.534 0 0 0-2.962 2.969l.856 4.437-3.738 2.531a2.532 2.532 0 0 0 0 4.194l3.738 2.531-.856 4.437a2.527 2.527 0 0 0 2.962 2.963l4.425-.856 2.525 3.744a2.523 2.523 0 0 0 4.188.006l2.525-3.744a8.331 8.331 0 0 1-2.419-1.787ZM16 16.5a3.48 3.48 0 0 1 2.663 1.256 8.263 8.263 0 0 1 2.569-1.581A6.492 6.492 0 1 0 16 26.502c.163 0 .319-.038.481-.05a8.125 8.125 0 0 1-.481-2.65c0-.1.025-.2.025-.3H16a3.5 3.5 0 1 1 0-7Z"/>
</svg>
