<svg width="20" height="17.5" xmlns="http://www.w3.org/2000/svg">
  <path style="fill:#000000" d="M4.375 9.688a1.25 1.25 0 1 0 1.25 1.25 1.25 1.25 0 0 0-1.25-1.25Zm11.25 0a1.25 1.25 0 1 0 1.25 1.25 1.25 1.25 0 0 0-1.25-1.25Zm-2.812.938H7.188a.312.312 0 0 0-.312.313v.625a.312.312 0 0 0 .313.313h5.625a.312.312 0 0 0 .313-.312v-.625a.312.312 0 0 0-.314-.315Zm4.928-3.439-.587-3.034a2.818 2.818 0 0 0-2.761-2.278h-.643V1.25A1.25 1.25 0 0 0 12.5 0h-5a1.25 1.25 0 0 0-1.25 1.25v.625h-.642a2.818 2.818 0 0 0-2.761 2.278L2.26 7.187A3.748 3.748 0 0 0 0 10.625V12.5a2.489 2.489 0 0 0 1.25 2.153v1.909a.938.938 0 0 0 .938.938h1.25a.938.938 0 0 0 .938-.937V15h11.25v1.563a.938.938 0 0 0 .938.938h1.25a.938.938 0 0 0 .938-.937v-1.911A2.489 2.489 0 0 0 20 12.5v-1.875a3.748 3.748 0 0 0-2.26-3.439ZM4.688 4.509a.939.939 0 0 1 .92-.759h8.784a.939.939 0 0 1 .92.759l.458 2.366H4.23ZM18.125 12.5a.626.626 0 0 1-.625.625h-15a.626.626 0 0 1-.625-.625v-1.875A1.877 1.877 0 0 1 3.75 8.75h12.5a1.877 1.877 0 0 1 1.875 1.875Z"/>
</svg>
