<svg width="40" height="40" xmlns="http://www.w3.org/2000/svg">
  <path style="fill:#000000" d="M23.625 26.25a3.125 3.125 0 1 1-3.125-3.125 3.125 3.125 0 0 1 3.125 3.125ZM38 8.571v17.858c0 3.843-3.414 7.08-7.739 8.181l4.59 4.59a.469.469 0 0 1-.331.8h-3.783a.937.937 0 0 1-.663-.275L25.348 35h-9.7l-4.722 4.725a.938.938 0 0 1-.663.275H6.48a.469.469 0 0 1-.331-.8l4.59-4.59C6.429 33.513 3 30.286 3 26.429V8.571C3 3.588 8.547 0 13.8 0h13.4C32.523 0 38 3.588 38 8.571ZM6.75 17.5h27.5v-6.25H6.75Zm.217-10H34.04c-.8-2.042-3.748-3.75-6.843-3.75H13.8c-3.036 0-6.016 1.693-6.837 3.75ZM34.25 26.429V21.25H6.75v5.179c0 2.829 4.06 4.821 7.054 4.821H27.2c2.947 0 7.05-1.967 7.05-4.821Z"/>
</svg>
