<svg width="17.5" height="20" xmlns="http://www.w3.org/2000/svg">
  <path style="fill:#000000" d="M10.938 12.813a1.563 1.563 0 1 1 1.562 1.562 1.563 1.563 0 0 1-1.562-1.562ZM5 14.375a1.563 1.563 0 1 0-1.562-1.562A1.563 1.563 0 0 0 5 14.375ZM17.5 4.286v8.929c0 1.922-1.707 3.54-3.869 4.09l2.3 2.3a.234.234 0 0 1-.166.4h-1.897a.469.469 0 0 1-.331-.137L11.174 17.5H6.326l-2.363 2.363a.469.469 0 0 1-.331.137H1.74a.234.234 0 0 1-.166-.4l2.3-2.3C1.714 16.756 0 15.143 0 13.214V4.286C0 1.794 2.773 0 5.4 0h6.7c2.663 0 5.4 1.794 5.4 4.286ZM1.983 3.75H15.52a3.747 3.747 0 0 0-3.42-1.875H5.4A3.776 3.776 0 0 0 1.983 3.75Zm-.108 5h5.938V5.625H1.875Zm13.75 1.875H1.875v2.589c0 1.414 2.03 2.411 3.527 2.411h6.7c1.475 0 3.527-.984 3.527-2.411Zm0-5H9.688V8.75h5.938Z"/>
</svg>
