<svg width="40" height="40" xmlns="http://www.w3.org/2000/svg">
  <path style="fill:#000000" d="M21 26.53a1.5 1.5 0 1 0 1.5 1.5 1.5 1.5 0 0 0-1.5-1.5Zm10.207-4.26a2 2 0 0 0-1.845-1.224h-4.725a2 2 0 0 0-1.837 1.208l-1.224 2.779h10.85ZM33 26.53a1.5 1.5 0 1 0 1.5 1.5 1.5 1.5 0 0 0-1.5-1.5Zm3.673-4.2-.873-2.04a6.993 6.993 0 0 0-6.436-4.228h-4.727a6.993 6.993 0 0 0-6.437 4.231l-.875 2.039A5 5 0 0 0 14 27.028v1.994a4.96 4.96 0 0 0 2 3.967v2.016A2 2 0 0 0 18 37h1a2 2 0 0 0 2-1.994v-1h12v1A2 2 0 0 0 35 37h1a2 2 0 0 0 2-1.994v-2.017a4.961 4.961 0 0 0 2-3.967v-1.994a5 5 0 0 0-3.327-4.7ZM37 29.022a2 2 0 0 1-2 1.994H19a2 2 0 0 1-2-1.994v-1.994a2 2 0 0 1 2-1.994h.429l1.533-3.562a4 4 0 0 1 3.676-2.417h4.725a4 4 0 0 1 3.676 2.418l1.533 3.562H35a2 2 0 0 1 2 1.994ZM11 9.074H6a1 1 0 0 0-1 1v8.981a1 1 0 0 0 1 1h5ZM3 25.532V9.2c0-1.8 3.986-3.209 9-3.209S21 7.4 21 9.2v5.642a9.007 9.007 0 0 1 3-.731V9.2C24 4.625 17.536 3 12 3S0 4.625 0 9.2v16.332a3.5 3.5 0 0 0 3.5 3.49H4v1.994a2 2 0 0 0 2 1.994h1a2 2 0 0 0 2-1.994v-1.994h3v-1.994a6.932 6.932 0 0 1 .074-1H3.5a.5.5 0 0 1-.5-.5Zm2-2.493a1.5 1.5 0 1 0 1.5-1.5 1.5 1.5 0 0 0-1.5 1.5ZM16.365 19.5A8.949 8.949 0 0 1 19 16.067v-6a1 1 0 0 0-1-1h-5v10.981h3.132Z"/>
</svg>
