<svg width="40" height="40" xmlns="http://www.w3.org/2000/svg">
  <path style="fill:#000000" d="M39.951 2.755A2.931 2.931 0 0 0 38.099.187a2.88 2.88 0 0 0-3.073.673 23.15 23.15 0 0 1-6.945 4.335c-3.536 1.642-7.24 3.367-7.618 7.7a7.277 7.277 0 0 0 2.694 6.061 58 58 0 0 0-6.019 12.038C14.865 23.889 10.315 11.725 3.29 2.633a1.844 1.844 0 0 0-2.9 2.273c9.887 12.749 14.812 32.749 14.854 32.957a1.845 1.845 0 0 0 1.771 1.392 1.807 1.807 0 0 0 1.768-1.347 57.726 57.726 0 0 1 7.45-16.879 10.978 10.978 0 0 0 4.377.968 7.877 7.877 0 0 0 4.42-1.263c5.51-3.748 5.005-16.502 4.921-17.979Zm-6.945 14.9a5.285 5.285 0 0 1-4.5.295 27.608 27.608 0 0 1 3.536-3.83 1.852 1.852 0 0 0 .253-2.568 1.814 1.814 0 0 0-2.568-.253 32.289 32.289 0 0 0-4.382 4.756 3.593 3.593 0 0 1-1.221-2.736c.21-2.147 2.147-3.157 5.514-4.714a30.248 30.248 0 0 0 6.735-3.91c0 5.388-1.094 11.407-3.367 12.96Z"/>
</svg>
