<svg width="40" height="40" xmlns="http://www.w3.org/2000/svg">
  <path style="fill:#000000" d="M15.407 27.16a.027.027 0 0 1-.008-.016l-1.593 3.983a3.031 3.031 0 0 1-.7 1.046L8.55 36.742a1.87 1.87 0 0 0 1.32 3.194 1.843 1.843 0 0 0 1.32-.547l4.56-4.568a6.832 6.832 0 0 0 1.515-2.3l1.054-2.632-2.826-2.619-.086-.109ZM24.231 7.5a3.748 3.748 0 1 0-3.741-3.748A3.743 3.743 0 0 0 24.231 7.5Zm8.176 13.658L30.119 18.9a.644.644 0 0 1-.156-.25l-1.007-3.03A8.2 8.2 0 0 0 21.162 10c-2.718 0-4.139.687-7.473 2.03a7.184 7.184 0 0 0-3.764 3.5L8.8 17.953a1.874 1.874 0 0 0 3.4 1.577l1.093-2.374a3.413 3.413 0 0 1 1.78-1.64c1.695-.679 2.585-1.054 3.459-1.335l-1.548 6.185a4.572 4.572 0 0 0 1.166 4.264l6.169 5.7a3.113 3.113 0 0 1 .921 1.593l1.523 6.622a1.868 1.868 0 1 0 3.639-.843l-1.523-6.614a6.894 6.894 0 0 0-2.03-3.506l-4.2-3.873 2.046-8.184c.578.757.586.984 1.7 4.326a4.474 4.474 0 0 0 1.078 1.734l2.288 2.265c1.741 1.678 4.427-.93 2.647-2.695Z"/>
</svg>
