<svg width="40" height="40" xmlns="http://www.w3.org/2000/svg">
  <path style="fill:#000000" d="m19.696 27.483 3.539 3.539a2.5 2.5 0 0 0 3.539 0l3.543-3.539a2.5 2.5 0 0 0 0-3.539l-3.539-3.539a2.5 2.5 0 0 0-3.539 0L19.7 23.944a2.5 2.5 0 0 0-.004 3.539ZM37.499 3h-35A2.5 2.5 0 0 0 .025 5.851L4.4 33.7a5 5 0 0 0 4.952 4.29h21.327a5 5 0 0 0 4.953-4.29l4.343-27.85A2.5 2.5 0 0 0 37.499 3Zm-5.182 19.483a4.961 4.961 0 0 1-.242 6.773l-3.539 3.539a5.026 5.026 0 0 1-7.078-.008l-3.531-3.539h-5.426a5 5 0 0 1-5-5V21.21L5.423 8h29.154Zm-19.816 4.265h4.078a5.011 5.011 0 0 1 1.351-4.578L20 20.108v-.859a2.5 2.5 0 0 0-2.5-2.5h-5a2.5 2.5 0 0 0-2.5 2.5v5a2.5 2.5 0 0 0 2.501 2.499Z"/>
</svg>
