<svg width="40" height="40" xmlns="http://www.w3.org/2000/svg">
  <path style="fill:#000000" d="M39.6 12.07s-.392-2.757-1.59-3.97A5.723 5.723 0 0 0 34 6.4C28.4 6 20 6 20 6h-.016s-8.4 0-14 .4a5.723 5.723 0 0 0-3.995 1.7C.791 9.313.4 12.07.4 12.07a60.523 60.523 0 0 0-.4 6.473v3.035a60.523 60.523 0 0 0 .4 6.473s.392 2.757 1.59 3.971c1.523 1.594 3.521 1.543 4.41 1.711 3.2.305 13.6.4 13.6.4s8.4-.012 14-.419a5.717 5.717 0 0 0 4.006-1.7c1.2-1.214 1.59-3.971 1.59-3.971a60.62 60.62 0 0 0 .4-6.473v-3.026a60.523 60.523 0 0 0-.4-6.474ZM15.868 25.256v-11.24l10.809 5.639Z"/>
</svg>
