<svg xml:space="preserve" style="enable-background:new 0 0 512 512" viewBox="0 0 512 512" xmlns="http://www.w3.org/2000/svg">
  <path style="fill:#000000" d="M256 0C114.6 0 0 114.6 0 256s114.6 256 256 256 256-114.6 256-256S397.4 0 256 0zm80.1 303c9.4 9.4 9.4 24.6 0 33.9-9.4 9.4-24.6 9.4-33.9 0l-46.2-47-47 47c-9.4 9.4-24.6 9.4-33.9 0-9.4-9.4-9.4-24.6 0-33.9l47-47-47.1-47.9c-9.4-9.4-9.4-24.6 0-33.9s24.6-9.4 33.9 0l47.1 47.9 47-47c9.4-9.4 24.6-9.4 33.9 0s9.4 24.6 0 33.9l-47 47 46.2 47z" style="fill:#af0a6e"/>
</svg>
