<svg xml:space="preserve" style="enable-background:new 0 0 512 512" viewBox="0 0 512 512" xmlns="http://www.w3.org/2000/svg">
  <path style="fill:#000000" d="M256 0C114.6 0 0 114.6 0 256s114.6 256 256 256 256-114.6 256-256S397.4 0 256 0zm-45.2 365.1c-22.2 5.2-71.6 15.7-71.6 15.7-.6.1-1.2.1-1.8.1-5.7 0-10.3-5.2-9.2-11.1l16.1-71.6c1.6-6.9 5-13.2 10-18.2l101-101 74.7 74.7-101.6 101.6c-4.9 4.8-10.9 8.2-17.6 9.8zm162.3-154.5L352.6 231 278 156.4l20.4-20.4c7.3-7.4 16.8-11 26.4-11 9.6 0 19.1 3.6 26.4 10.9l21.9 21.9c14.5 14.6 14.6 37.3 0 52.8z" style="fill:#392f9a"/>
</svg>
